<svg
	version="1.1"
	xmlns="http://www.w3.org/2000/svg"
	viewbox="0 0 512 512"
	width="512"
	height="512"
	x="0"
	y="0"
>
	<g fill="#2b2b2b">
		<path d="M204.684 286.487a39.332 39.332 0 0 0-26.298-7.215 148.67 148.67 0 0 0-26.415 1.978v91.113h19.316v-33.047a46.47 46.47 0 0 0 6.633 0 38.404 38.404 0 0 0 28.044-9.658 30.604 30.604 0 0 0 7.913-21.876 27.814 27.814 0 0 0-9.193-21.295zm-23.735 37.451a14.805 14.805 0 0 1-3.146-.214l.582-.116a27.955 27.955 0 0 1-6.516 0v-27.695a31.3 31.3 0 0 1 8.029-.815c9.775 0 15.244 5.12 15.244 13.498.317 8.156-6.037 15.025-14.193 15.342z"></path>
		<path d="M349.091 0h-256C67.385 0 46.545 20.839 46.545 46.545v418.909c0 25.706 20.839 46.545 46.545 46.545h325.818c25.706 0 46.545-20.839 46.545-46.545V128L349.091 0zm93.091 465.455c0 12.853-10.42 23.273-23.273 23.273H93.091c-12.853 0-23.273-10.42-23.273-23.273V46.545c0-12.853 10.42-23.273 23.273-23.273h209.455v116.364c0 12.853 10.419 23.273 23.273 23.273h116.364v302.546zM325.818 139.636V23.273h11.636l104.727 116.364H325.818z"></path>
		<path d="M283.462 289.862a52.828 52.828 0 0 0-35.258-10.589c-8.844-.062-17.678.6-26.415 1.978v91.113a158.7 158.7 0 0 0 22.109 1.396 59.116 59.116 0 0 0 39.796-11.636 48.293 48.293 0 0 0 14.313-37.353 42.007 42.007 0 0 0-14.545-34.909zm-6.051 34.909c-.116 21.993-11.636 32.349-29.207 32.233v-.116a33.975 33.975 0 0 1-6.749 0v-60.625a38.292 38.292 0 0 1 8.844-.815c14.104-.991 26.34 9.639 27.331 23.743.13 1.862.057 3.733-.219 5.58zM314.88 372.364h19.549v-37.12h30.953v-16.989h-30.953v-21.062h33.164v-17.106H314.88z"></path>
	</g>
</svg>
