<svg
	version="1.1"
	xmlns="http://www.w3.org/2000/svg"
	viewbox="0 0 512 512"
	width="512"
	height="512"
	x="0"
	y="0"
>
	<defs>
		<linearGradient id="bgGradient" x1="0%" y1="0%" x2="100%" y2="0%">
			<stop offset="0%" stop-color="#0a3ad8" />
			<stop offset="100%" stop-color="#970ad8" />
		</linearGradient>
	</defs>

	<g fill="url(#bgGradient)">
		<path d="M232.727 197.818v23.273h-23.273V256h23.273v104.727h46.545V256h30.953l3.956-34.909h-34.909v-20.364c0-9.425.931-14.429 15.476-14.429h19.433v-35.026h-31.185c-37.236.001-50.269 17.455-50.269 46.546z"></path>
		<path d="M256 0C114.615 0 0 114.615 0 256s114.615 256 256 256 256-114.615 256-256S397.385 0 256 0zm0 488.727C127.468 488.727 23.273 384.532 23.273 256S127.468 23.273 256 23.273 488.727 127.468 488.727 256 384.532 488.727 256 488.727z"></path>
	</g>
</svg>
