<svg
    xmlns="http://www.w3.org/2000/svg"
    version="1.1"
    viewBox="0 0 550 470"
	width="200px"
	height="200px"
    style="background-color: #f6f7f7"
>
    <g
        fill="#2e2e2e"
        transform="translate(-110,-95) scale(1.4)"
    >
        <path d="M218.98263,354.74198h-12.10094c-0.30962,0 -0.64289,-0.03655 -0.99981,-0.10966c-0.35692,-0.0731 -0.70954,-0.18706 -1.05786,-0.34187c-0.34832,-0.15481 -0.68159,-0.35477 -0.99981,-0.59989c-0.31822,-0.24511 -0.59989,-0.54183 -0.845,-0.89015c-0.24511,-0.34832 -0.44078,-0.75255 -0.58699,-1.21267c-0.14621,-0.46013 -0.21931,-0.97831 -0.21931,-1.55455v-9.08216c0,-0.30962 0.03655,-0.64289 0.10966,-0.99981c0.0731,-0.35692 0.18706,-0.70954 0.34187,-1.05786c0.15481,-0.34832 0.35692,-0.68159 0.60634,-0.99981c0.24942,-0.31822 0.54828,-0.59989 0.8966,-0.845c0.34832,-0.24511 0.7504,-0.44078 1.20622,-0.58699c0.45583,-0.14621 0.97186,-0.21931 1.54809,-0.21931h12.10094v3.35421h-12.10094c-0.43863,0 -0.77405,0.11611 -1.00626,0.34832c-0.23221,0.23221 -0.34832,0.57624 -0.34832,1.03206v9.05635c0,0.43003 0.11826,0.7633 0.35477,0.99981c0.23651,0.23651 0.56978,0.35477 0.99981,0.35477h12.10094z"></path>
        <path d="M246.80533,347.25953c0,1.12667 -0.19351,2.16303 -0.58054,3.10909c-0.38702,0.94606 -0.92456,1.76311 -1.6126,2.45115c-0.68804,0.68804 -1.50294,1.22342 -2.4447,1.60615c-0.94176,0.38272 -1.96737,0.57409 -3.07684,0.57409h-4.54108c-1.10947,0 -2.13723,-0.19136 -3.08329,-0.57409c-0.94606,-0.38272 -1.76311,-0.91811 -2.45115,-1.60615c-0.68804,-0.68804 -1.22773,-1.50509 -1.61905,-2.45115c-0.39132,-0.94606 -0.58699,-1.98242 -0.58699,-3.10909v-3.53482c0,-1.11807 0.19566,-2.15228 0.58699,-3.10264c0.39132,-0.95036 0.93101,-1.76741 1.61905,-2.45115c0.68804,-0.68374 1.50509,-1.21912 2.45115,-1.60615c0.94606,-0.38702 1.97382,-0.58054 3.08329,-0.58054h4.54108c1.10947,0 2.13508,0.19351 3.07684,0.58054c0.94176,0.38702 1.75666,0.92241 2.4447,1.60615c0.68804,0.68374 1.22557,1.50079 1.6126,2.45115c0.38702,0.95036 0.58054,1.98457 0.58054,3.10264zM243.45112,343.72471c0,-0.66224 -0.10536,-1.26213 -0.31607,-1.79966c-0.21071,-0.53753 -0.50743,-0.99766 -0.89015,-1.38038c-0.38272,-0.38272 -0.84285,-0.67944 -1.38038,-0.89015c-0.53753,-0.21071 -1.12882,-0.31607 -1.77386,-0.31607h-4.54108c-0.65364,0 -1.24923,0.10536 -1.78676,0.31607c-0.53753,0.21071 -0.99981,0.50743 -1.38683,0.89015c-0.38702,0.38272 -0.68589,0.84285 -0.8966,1.38038c-0.21071,0.53753 -0.31607,1.13742 -0.31607,1.79966v3.53482c0,0.66224 0.10536,1.26213 0.31607,1.79966c0.21071,0.53753 0.50958,0.99766 0.8966,1.38038c0.38702,0.38272 0.8493,0.67944 1.38683,0.89015c0.53753,0.21071 1.13312,0.31607 1.78676,0.31607h4.51528c0.65364,0 1.24923,-0.10536 1.78676,-0.31607c0.53753,-0.21071 0.99981,-0.50743 1.38683,-0.89015c0.38702,-0.38272 0.68589,-0.84285 0.8966,-1.38038c0.21071,-0.53753 0.31607,-1.13742 0.31607,-1.79966z"></path>
        <path d="M270.9255,347.18212h-10.60445v-3.38001h10.60445zM272.42199,339.59646h-13.44262v15.14553h-3.35421v-16.80973c0,-0.23221 0.043,-0.45153 0.12901,-0.65794c0.08601,-0.20641 0.20426,-0.38702 0.35477,-0.54183c0.15051,-0.15481 0.32897,-0.27522 0.53538,-0.36122c0.20641,-0.08601 0.43003,-0.12901 0.67084,-0.12901h15.10682z"></path>
        <path d="M295.93583,347.18212h-10.60445v-3.38001h10.60445zM297.43232,339.59646h-13.44262v15.14553h-3.35421v-16.80973c0,-0.23221 0.043,-0.45153 0.12901,-0.65794c0.08601,-0.20641 0.20426,-0.38702 0.35477,-0.54183c0.15051,-0.15481 0.32897,-0.27522 0.53538,-0.36122c0.20641,-0.08601 0.43003,-0.12901 0.67084,-0.12901h15.10682z"></path>
        <path d="M320.85585,347.18212h-10.59155v-3.38001h10.59155zM322.36525,354.74198h-12.10094c-0.46443,0 -0.97186,-0.0817 -1.52229,-0.24511c-0.55043,-0.16341 -1.06001,-0.43218 -1.52874,-0.8063c-0.46873,-0.37412 -0.86005,-0.86005 -1.17397,-1.45779c-0.31392,-0.59774 -0.47088,-1.33093 -0.47088,-2.19958v-12.10094c0,-0.23221 0.043,-0.45153 0.12901,-0.65794c0.08601,-0.20641 0.20426,-0.38702 0.35477,-0.54183c0.15051,-0.15481 0.32897,-0.27522 0.53538,-0.36122c0.20641,-0.08601 0.43003,-0.12901 0.67084,-0.12901h15.10682v3.35421h-13.44262v10.43674c0,0.43863 0.11611,0.77405 0.34832,1.00626c0.23221,0.23221 0.57193,0.34832 1.01916,0.34832h12.07514z"></path>
        <path d="M346.31771,347.18212h-10.59155v-3.38001h10.59155zM347.8271,354.74198h-12.10094c-0.46443,0 -0.97186,-0.0817 -1.52229,-0.24511c-0.55043,-0.16341 -1.06001,-0.43218 -1.52874,-0.8063c-0.46873,-0.37412 -0.86005,-0.86005 -1.17397,-1.45779c-0.31392,-0.59774 -0.47088,-1.33093 -0.47088,-2.19958v-12.10094c0,-0.23221 0.043,-0.45153 0.12901,-0.65794c0.08601,-0.20641 0.20426,-0.38702 0.35477,-0.54183c0.15051,-0.15481 0.32897,-0.27522 0.53538,-0.36122c0.20641,-0.08601 0.43003,-0.12901 0.67084,-0.12901h15.10682v3.35421h-13.44262v10.43674c0,0.43863 0.11611,0.77405 0.34832,1.00626c0.23221,0.23221 0.57193,0.34832 1.01916,0.34832h12.07514z"></path>
        <path d="M218.80597,321.19452c8.68411,0 16.12764,-7.44353 16.12764,-16.12764v-16.58712h-4.82451v16.35738c0,6.38673 -5.14614,11.53287 -11.53287,11.53287h-16.40333v4.82451zM225.28459,288.47976h-6.70836v4.82451h6.70836z"></path>
        <path d="M281.86152,316.37001h-27.9362v-8.91385h23.11169v-4.82451h-27.9362v18.56287h32.76071zM281.90747,288.47976h-32.80666v4.82451h32.80666z"></path>
        <path d="M328.83539,296.7044c0,-4.54882 -3.67582,-8.22464 -8.22464,-8.22464h-24.53607v4.82451h24.53607c1.88386,0 3.40013,1.51627 3.40013,3.40013v16.26549c0,1.88386 -1.51627,3.40013 -3.40013,3.40013h-19.71156v-13.73836h-4.82451v18.56287h24.53607c4.54882,0 8.22464,-3.67582 8.22464,-8.22464z"></path>
        <path d="M347.8271,288.47976h-4.82451v32.71476h4.82451z"></path>
        <path d="M224.85815,133.9635c0,-5.70672 22.4498,-10.33285 50.14266,-10.33285c27.69285,0 50.14133,4.62613 50.14133,10.33285v5.57748c0,1.14854 -0.90924,2.25337 -2.58768,3.28546l-5.89179,44.01783l-7.32027,57.64946c-23.22793,9.88383 -46.45587,9.88383 -69.68515,0l-0.004,-0.03731h-0.16255l-7.38422,-62.12104l-0.01599,-0.13324l-4.67943,-39.36078c0.03118,0.00693 0.06222,0.01386 0.0934,0.02078c-1.71575,-1.04235 -2.6463,-2.15931 -2.6463,-3.32117zM321.92169,133.96483c0,-4.65944 -21.0068,-8.43417 -46.92088,-8.43417c-25.91541,0 -46.92222,3.77472 -46.92088,8.43417c0,1.25233 1.51828,2.44085 4.24213,3.50944c0.09611,-0.08679 0.20613,-0.17321 0.33004,-0.25929c0.124,-0.08616 0.26182,-0.17189 0.41345,-0.25715c0.15163,-0.08527 0.31698,-0.17001 0.49605,-0.25422c0.17899,-0.0843 0.37148,-0.16797 0.57747,-0.25102c0.20599,-0.08314 0.4253,-0.16557 0.65795,-0.2473c0.23264,-0.08172 0.47834,-0.16273 0.73709,-0.24303c0.25875,-0.08021 0.53034,-0.15962 0.81477,-0.23823c0.28443,-0.07862 0.58138,-0.15629 0.89085,-0.23304c0.30956,-0.07684 0.63129,-0.15265 0.9652,-0.22744c0.33399,-0.07488 0.67988,-0.14865 1.03768,-0.22131c0.35771,-0.07275 0.72701,-0.14434 1.1079,-0.21478c0.38089,-0.07045 0.77298,-0.13968 1.17625,-0.20772c0.40319,-0.06814 0.81721,-0.13496 1.24207,-0.20046c0.42477,-0.06554 0.85994,-0.12975 1.3055,-0.19263c0.44547,-0.06289 0.90094,-0.12439 1.36639,-0.1845c0.46537,-0.06011 0.94019,-0.11877 1.42448,-0.17597c0.48437,-0.05721 0.97768,-0.11292 1.4799,-0.16712c0.50232,-0.05421 1.01313,-0.10684 1.53241,-0.15795c0.51937,-0.05109 1.0467,-0.10056 1.58197,-0.14843c0.53528,-0.04787 1.07796,-0.09409 1.62807,-0.13866c0.55019,-0.04456 1.10732,-0.08741 1.67137,-0.12858c0.56405,-0.04116 1.13446,-0.08058 1.71121,-0.11826c0.57675,-0.03768 1.15929,-0.07358 1.7476,-0.10771c0.58839,-0.03413 1.18194,-0.06645 1.78064,-0.09695c0.59878,-0.03051 1.20219,-0.05916 1.81022,-0.08599c0.60802,-0.02683 1.22009,-0.05179 1.8362,-0.07488c0.61611,-0.02309 1.23564,-0.0443 1.85858,-0.06361c0.62295,-0.01932 1.24869,-0.03673 1.87723,-0.05222c0.62855,-0.0155 1.25926,-0.02907 1.89216,-0.04072c0.63298,-0.01165 1.26748,-0.02137 1.90348,-0.02915c0.63609,-0.00777 1.27312,-0.01361 1.91108,-0.01751c0.63796,-0.0039 1.27623,-0.00583 1.91481,-0.00583c0.6385,0 1.27672,0.00194 1.91468,0.00583c0.63787,0.0039 1.27481,0.00973 1.91081,0.01751c0.63601,0.00778 1.27046,0.0175 1.90335,0.02914c0.6328,0.01165 1.26348,0.02521 1.89203,0.04071c0.62845,0.0155 1.25411,0.03291 1.87697,0.05222c0.62295,0.01931 1.24243,0.04051 1.85845,0.0636c0.61602,0.02309 1.22804,0.04804 1.83607,0.07487c0.60794,0.02681 1.21125,0.05548 1.80995,0.08599c0.59878,0.03051 1.19233,0.06281 1.78064,0.09695c0.58822,0.03412 1.1707,0.07002 1.74746,0.10769c0.57667,0.03768 1.14703,0.0771 1.71109,0.11825c0.56397,0.04115 1.12101,0.084 1.67111,0.12855c0.55019,0.04456 1.09293,0.09076 1.62821,0.13862c0.53518,0.04786 1.06242,0.09733 1.58171,0.1484c0.51929,0.05109 1.03009,0.10372 1.53241,0.15792c0.50223,0.0542 0.9955,0.10989 1.47978,0.16709c0.48429,0.05721 0.95915,0.11586 1.42461,0.17596c0.46537,0.0601 0.92078,0.12158 1.36625,0.18446c0.44556,0.06288 0.88072,0.12708 1.3055,0.19261c0.42487,0.06556 0.83889,0.13237 1.24207,0.20041c0.40327,0.06804 0.79536,0.13728 1.17625,0.20772c0.38089,0.07045 0.75024,0.14203 1.10804,0.21478c0.3578,0.07266 0.70365,0.14639 1.03755,0.22118c0.33399,0.07479 0.65576,0.15061 0.96534,0.22744c0.30947,0.07675 0.60642,0.15442 0.89085,0.23304c0.28451,0.07852 0.55614,0.15793 0.81491,0.23823c0.25884,0.08021 0.50459,0.16118 0.73722,0.2429c0.23273,0.08172 0.45213,0.16415 0.65821,0.2473c0.20599,0.08305 0.39852,0.16668 0.5776,0.2509c0.17907,0.0843 0.34447,0.16908 0.49619,0.25436c0.15172,0.08527 0.28958,0.17095 0.41358,0.25702c0.1241,0.08607 0.23419,0.17251 0.33031,0.25929c2.72279,-1.06833 4.2404,-2.25657 4.2404,-3.50864zM274.99949,148.31491c23.29055,0 42.74776,-3.41231 48.38386,-7.84791l0.12525,-3.21111c-5.63744,4.4356 -25.21856,8.8219 -48.50912,8.8219c-23.20528,0 -42.72778,-4.36232 -48.44649,-8.7726l-0.01998,3.07787c5.71871,4.41162 25.26119,7.93185 48.46647,7.93185zM230.23643,144.20162l4.13914,36.89062c6.36893,-2.87801 24.64029,-9.64266 36.41881,1.12722c12.74452,11.75587 34.46416,12.56065 43.64182,3.73608l5.27155,-41.73087c-8.28733,3.35275 -25.19484,5.64915 -44.70695,5.64915c-19.55581,0 -36.49702,-2.30694 -44.76438,-5.67221zM238.02639,148.24162c2.22113,0.49832 4.64079,0.96066 7.23499,1.38038l-8.91783,12.64992c-1.09657,1.5536 -2.44231,1.30044 -2.91531,-0.5303l-0.90871,-3.52823c-0.28647,-1.11123 -0.13591,-1.96797 0.5183,-2.89666l4.98855,-7.07511zM237.52272,164.43576l9.32688,-13.23218c2.00261,0.30246 4.10116,0.58093 6.28632,0.83009c0.20786,1.04594 0.02931,1.85605 -0.59692,2.74477l-7.35358,10.43145c-0.65555,0.92869 -1.41236,1.35773 -2.55423,1.46165l-3.62949,0.33044c-1.88403,0.16921 -2.57422,-1.01264 -1.47898,-2.56622zM306.50702,154.23748c1.58824,-0.18253 2.18249,0.82077 1.2618,2.1252l-9.95978,14.1289c-0.92069,1.30444 -2.04925,1.09258 -2.44764,-0.44502l-0.76214,-2.96328c-0.24117,-0.93402 -0.11592,-1.65352 0.43437,-2.43299l6.1744,-8.75928c0.55028,-0.77946 1.17118,-1.15121 2.12653,-1.26313l3.17247,-0.3904zM303.08805,174.39954l-3.04456,0.27714c-1.5829,0.14257 -2.1625,-0.85008 -1.24314,-2.15584l9.95978,-14.1289c0.91937,-1.30444 2.06524,-1.08059 2.42632,0.47567l0.69685,3.11918c0.21718,0.93668 0.07462,1.64686 -0.47567,2.42632l-6.1744,8.75928c-0.54895,0.77946 -1.18451,1.14055 -2.14519,1.22715zM272.26936,170.72475l-9.00444,-9.38551c-0.83143,-0.86607 -0.50232,-1.67885 0.69951,-1.72281l2.40367,-0.06795c0.72349,-0.02399 1.22714,0.18121 1.72414,0.69951l5.58281,5.81864c0.49699,0.51698 0.67154,1.03929 0.59825,1.76012l-0.23317,2.29042c-0.12125,1.18851 -0.93802,1.47365 -1.77077,0.60758zM260.6907,166.32912l0.16656,-2.39834c0.09327,-1.19917 0.91937,-1.49497 1.75212,-0.6289l9.00444,9.38417c0.83143,0.8674 0.51165,1.67084 -0.68086,1.74413l-2.29841,0.13857c-0.7235,0.04397 -1.23648,-0.1519 -1.73347,-0.67021l-5.58281,-5.81864c-0.49699,-0.5183 -0.6822,-1.02862 -0.62757,-1.75079zM283.19514,180.11558l-0.87939,7.65204c-1.84673,-0.69286 -3.65347,-1.52561 -5.38295,-2.50227l0.27848,-2.42099c0.10926,-0.94734 0.47567,-1.57091 1.25913,-2.12653l2.5982,-1.86271c1.30709,-0.92069 2.3104,-0.32511 2.12653,1.26046zM289.85853,184.30335l-0.6169,5.36562c-1.84939,-0.35175 -3.69344,-0.83542 -5.50552,-1.44967l0.91271,-7.93318c0.18254,-1.58557 1.29377,-1.93866 2.35837,-0.74482l2.10654,2.40367c0.63823,0.72084 0.85407,1.41103 0.74482,2.35837zM202.1729,246.59706v-117.53974c0,-3.88182 1.37243,-7.19515 4.1173,-9.94002c2.74487,-2.74487 6.0582,-4.1173 9.94002,-4.1173h117.53974c3.88187,0 7.19527,1.37243 9.94019,4.1173c2.74463,2.74484 4.11695,6.05817 4.11695,9.94002v117.53974c0,3.88187 -1.37232,7.19527 -4.11695,9.94019c-2.74493,2.74463 -6.05832,4.11695 -9.94019,4.11695h-117.53974c-3.88182,0 -7.19515,-1.37232 -9.94002,-4.11695c-2.74487,-2.74493 -4.1173,-6.05832 -4.1173,-9.94019zM342.36827,255.19537c2.37439,-2.37439 3.56159,-5.24049 3.56159,-8.59832v-117.53974c0,-3.35779 -1.1872,-6.22387 -3.56159,-8.59823c-2.37439,-2.37433 -5.24049,-3.5615 -8.59832,-3.5615h-117.53974c-3.35782,0 -6.2239,1.18717 -8.59823,3.5615c-2.37433,2.37433 -3.5615,5.2404 -3.5615,8.59823v117.53974c0,3.35782 1.18717,6.22393 3.5615,8.59832c2.3743,2.37439 5.24038,3.56159 8.59823,3.56159h117.53974c3.35782,0 6.22393,-1.1872 8.59832,-3.56159z"></path>
    </g>
</svg>
