<svg
    xmlns="http://www.w3.org/2000/svg"
    version="1.1"
    viewBox="0 0 550 470"
	width="200px"
	height="200px"
    style="background-color: #f6f7f7"
>
	<g
		fill="#004b87"
		transform="translate(-45,-60) scale(1.2)"
	>
		<path d="M208.77299,339.92984l-2.49071,13.94799c-0.05535,0.27675 -0.17988,0.51544 -0.37361,0.71608c-0.19372,0.20064 -0.42896,0.32864 -0.7057,0.38398c-0.28366,0.04843 -0.55176,0.0173 -0.80429,-0.0934c-0.25253,-0.1107 -0.45144,-0.28366 -0.59673,-0.5189l-4.93991,-8.11557l-4.95029,8.11557c-0.11762,0.20064 -0.27848,0.35631 -0.48258,0.46701c-0.2041,0.1107 -0.42377,0.16605 -0.659,0.16605c-0.32518,0 -0.6123,-0.10378 -0.86137,-0.31134c-0.24907,-0.20756 -0.40128,-0.47739 -0.45663,-0.80948l-2.51147,-13.94799h2.73978l1.78501,9.82794l4.25497,-6.78719c0.11762,-0.20064 0.27848,-0.35631 0.48258,-0.46701c0.2041,-0.1107 0.42377,-0.16605 0.659,-0.16605c0.23523,0 0.45317,0.05535 0.65381,0.16605c0.20064,0.1107 0.36669,0.26637 0.49814,0.46701l4.23421,6.78719l1.78501,-9.82794z"></path>
		<path d="M226.98287,347.30857c0,0.37361 -0.06573,0.77662 -0.19718,1.20903c-0.13145,0.43242 -0.3442,0.8337 -0.63825,1.20384c-0.29404,0.37015 -0.67803,0.67976 -1.15195,0.92883c-0.47393,0.24907 -1.0499,0.37361 -1.72793,0.37361h-4.86727v-2.56336h4.86727c0.36669,0 0.65035,-0.11243 0.85099,-0.33728c0.20064,-0.22486 0.30096,-0.50333 0.30096,-0.83543c0,-0.35285 -0.11243,-0.6296 -0.33728,-0.83024c-0.22486,-0.20064 -0.49641,-0.30096 -0.81467,-0.30096h-4.86727c-0.36669,0 -0.65035,0.11243 -0.85099,0.33728c-0.20064,0.22486 -0.30096,0.50333 -0.30096,0.83543v3.7672c0,0.35977 0.11243,0.63997 0.33728,0.84062c0.22486,0.20064 0.50333,0.30096 0.83543,0.30096h4.84651v2.57374h-4.86727c-0.37361,0 -0.77662,-0.06573 -1.20903,-0.19718c-0.43242,-0.13145 -0.8337,-0.3442 -1.20384,-0.63825c-0.37015,-0.29404 -0.67976,-0.67803 -0.92883,-1.15195c-0.24907,-0.47393 -0.37361,-1.0499 -0.37361,-1.72793v-3.78796c0,-0.37361 0.06573,-0.77662 0.19718,-1.20903c0.13145,-0.43242 0.3442,-0.8337 0.63825,-1.20384c0.29404,-0.37015 0.67803,-0.67976 1.15195,-0.92883c0.47393,-0.24907 1.0499,-0.37361 1.72793,-0.37361h4.86727c0.37361,0 0.77662,0.06573 1.20903,0.19718c0.43242,0.13145 0.8337,0.3442 1.20384,0.63825c0.37015,0.29404 0.67976,0.67803 0.92883,1.15195c0.24907,0.47393 0.37361,1.0499 0.37361,1.72793z"></path>
		<path d="M245.59749,351.02388c0,0.25599 -0.0294,0.52582 -0.08821,0.80948c-0.05881,0.28366 -0.15048,0.5656 -0.27502,0.8458c-0.12454,0.28021 -0.28539,0.5483 -0.48258,0.80429c-0.19718,0.25599 -0.43587,0.48258 -0.71608,0.67976c-0.28021,0.19718 -0.60365,0.35458 -0.97034,0.4722c-0.36669,0.11762 -0.78181,0.17643 -1.24536,0.17643h-4.86727c-0.25599,0 -0.52582,-0.0294 -0.80948,-0.08821c-0.28366,-0.05881 -0.5656,-0.15048 -0.8458,-0.27502c-0.28021,-0.12454 -0.5483,-0.28539 -0.80429,-0.48258c-0.25599,-0.19718 -0.48258,-0.43587 -0.67976,-0.71608c-0.19718,-0.28021 -0.35458,-0.60538 -0.4722,-0.97553c-0.11762,-0.37015 -0.17643,-0.787 -0.17643,-1.25055v-12.17336h2.69827v12.17336c0,0.33209 0.10378,0.59673 0.31134,0.79391c0.20756,0.19718 0.46701,0.29577 0.77835,0.29577h4.86727c0.33901,0 0.60365,-0.10032 0.79391,-0.30096c0.19026,-0.20064 0.28539,-0.46355 0.28539,-0.78873v-3.65304c0,-0.33901 -0.10032,-0.60365 -0.30096,-0.79391c-0.20064,-0.19026 -0.46009,-0.28539 -0.77835,-0.28539h-4.86727v-2.69827h4.86727c0.25599,0 0.52582,0.0294 0.80948,0.08821c0.28366,0.05881 0.5656,0.15048 0.8458,0.27502c0.28021,0.12454 0.5483,0.28539 0.80429,0.48258c0.25599,0.19718 0.48085,0.43587 0.67457,0.71608c0.19372,0.28021 0.34939,0.60365 0.46701,0.97034c0.11762,0.36669 0.17643,0.78181 0.17643,1.24536z"></path>
		<path d="M278.27079,350.43234c0,0.53274 -0.06746,1.01185 -0.20237,1.43735c-0.13491,0.4255 -0.31307,0.80083 -0.53447,1.12601c-0.2214,0.32518 -0.48085,0.60192 -0.77835,0.83024c-0.2975,0.22832 -0.60538,0.41512 -0.92364,0.56041c-0.31826,0.14529 -0.6417,0.25253 -0.97034,0.32172c-0.32864,0.06919 -0.63825,0.10378 -0.92883,0.10378h-10.4091v-2.69827h10.4091c0.5189,0 0.92191,-0.15221 1.20903,-0.45663c0.28712,-0.30442 0.43069,-0.71262 0.43069,-1.2246c0,-0.24907 -0.03805,-0.47739 -0.11416,-0.68495c-0.07611,-0.20756 -0.18507,-0.38744 -0.32691,-0.53965c-0.14183,-0.15221 -0.3148,-0.26983 -0.5189,-0.35285c-0.2041,-0.08302 -0.43069,-0.12454 -0.67976,-0.12454h-6.20603c-0.43587,0 -0.90634,-0.07783 -1.4114,-0.2335c-0.50506,-0.15567 -0.9738,-0.40647 -1.40621,-0.7524c-0.43242,-0.34593 -0.79218,-0.7991 -1.07931,-1.35951c-0.28712,-0.56041 -0.43069,-1.24536 -0.43069,-2.05484c0,-0.80948 0.14356,-1.4927 0.43069,-2.04965c0.28712,-0.55695 0.64689,-1.01012 1.07931,-1.35951c0.43242,-0.34939 0.90115,-0.60192 1.40621,-0.75759c0.50506,-0.15567 0.97553,-0.2335 1.4114,-0.2335h9.1845v2.69827h-9.1845c-0.51198,0 -0.91153,0.15567 -1.19866,0.46701c-0.28712,0.31134 -0.43069,0.723 -0.43069,1.23498c0,0.5189 0.14356,0.92883 0.43069,1.22979c0.28712,0.30096 0.68668,0.45144 1.19866,0.45144h6.20603h0.02076c0.29058,0.00692 0.59846,0.0467 0.92364,0.11935c0.32518,0.07265 0.64862,0.18507 0.97034,0.33728c0.32172,0.15221 0.62787,0.3442 0.91845,0.57598c0.29058,0.23177 0.5483,0.51025 0.77316,0.83543c0.22486,0.32518 0.40301,0.69878 0.53447,1.12082c0.13145,0.42204 0.19718,0.89942 0.19718,1.43216z"></path>
		<path d="M294.36356,346.29153h-4.7116v8.52031h-2.72941v-8.52031h-3.50775v-2.69827h3.50775v-3.66342h2.72941v3.66342h4.7116z"></path>
		<path d="M312.83288,353.45233c0,0.19372 -0.03459,0.37361 -0.10378,0.53965c-0.06919,0.16605 -0.16432,0.30961 -0.28539,0.43069c-0.12108,0.12108 -0.26291,0.21621 -0.4255,0.28539c-0.16259,0.06919 -0.33728,0.10378 -0.52409,0.10378h-6.10225c-0.33209,0 -0.68668,-0.03805 -1.06374,-0.11416c-0.37707,-0.07611 -0.74894,-0.19891 -1.11563,-0.36842c-0.36669,-0.16951 -0.72127,-0.38398 -1.06374,-0.64343c-0.34247,-0.25945 -0.6417,-0.57425 -0.89769,-0.9444c-0.25599,-0.37015 -0.46182,-0.79737 -0.61749,-1.28168c-0.15567,-0.48431 -0.2335,-1.03088 -0.2335,-1.63972v-6.22678h2.69827v6.22678c0,0.35285 0.06054,0.66938 0.18161,0.94958c0.12108,0.28021 0.28539,0.52063 0.49295,0.72127c0.20756,0.20064 0.45144,0.35458 0.73165,0.46182c0.28021,0.10724 0.5829,0.16086 0.90807,0.16086h4.72198v-8.52031h2.69827z"></path>
		<path d="M332.10131,351.02388c0,0.46355 -0.05881,0.8804 -0.17643,1.25055c-0.11762,0.37015 -0.27329,0.69532 -0.46701,0.97553c-0.19372,0.28021 -0.41858,0.5189 -0.67457,0.71608c-0.25599,0.19718 -0.52409,0.35804 -0.80429,0.48258c-0.28021,0.12454 -0.56387,0.21621 -0.85099,0.27502c-0.28712,0.05881 -0.55868,0.08821 -0.81467,0.08821h-4.86727c-0.46355,0 -0.87867,-0.05881 -1.24536,-0.17643c-0.36669,-0.11762 -0.69013,-0.27502 -0.97034,-0.4722c-0.28021,-0.19718 -0.5189,-0.42377 -0.71608,-0.67976c-0.19718,-0.25599 -0.35804,-0.52409 -0.48258,-0.80429c-0.12454,-0.28021 -0.21621,-0.56387 -0.27502,-0.85099c-0.05881,-0.28712 -0.08821,-0.55522 -0.08821,-0.80429v-3.65304c0,-0.69186 0.12627,-1.27822 0.3788,-1.75907c0.25253,-0.48085 0.56733,-0.87175 0.9444,-1.17271c0.37707,-0.30096 0.787,-0.51717 1.22979,-0.64862c0.44279,-0.13145 0.85099,-0.19718 1.2246,-0.19718h4.86727v2.69827h-4.84651c-0.35977,0 -0.63306,0.09167 -0.81986,0.27502c-0.1868,0.18334 -0.28021,0.45144 -0.28021,0.80429v3.63229c0,0.36669 0.09167,0.64343 0.27502,0.83024c0.18334,0.1868 0.45144,0.28021 0.80429,0.28021h4.86727c0.36669,0 0.63997,-0.0934 0.81986,-0.28021c0.17988,-0.1868 0.26983,-0.45663 0.26983,-0.80948v-12.17336h2.69827z"></path>
		<path d="M341.84277,341.28935h-2.69827v-2.43882h2.69827zM341.84277,354.81184h-2.69827v-11.21858h2.69827z"></path>
		<path d="M361.0593,351.02388c0,0.46355 -0.05881,0.8804 -0.17643,1.25055c-0.11762,0.37015 -0.27329,0.69532 -0.46701,0.97553c-0.19372,0.28021 -0.41858,0.5189 -0.67457,0.71608c-0.25599,0.19718 -0.52409,0.35804 -0.80429,0.48258c-0.28021,0.12454 -0.56387,0.21621 -0.85099,0.27502c-0.28712,0.05881 -0.55868,0.08821 -0.81467,0.08821h-4.86727c-0.37361,0 -0.78181,-0.06573 -1.2246,-0.19718c-0.44279,-0.13145 -0.85272,-0.34766 -1.22979,-0.64862c-0.37707,-0.30096 -0.69186,-0.69186 -0.9444,-1.17271c-0.25253,-0.48085 -0.3788,-1.07066 -0.3788,-1.76944v-3.65304c0,-0.69186 0.12627,-1.27822 0.3788,-1.75907c0.25253,-0.48085 0.56733,-0.87175 0.9444,-1.17271c0.37707,-0.30096 0.787,-0.51717 1.22979,-0.64862c0.44279,-0.13145 0.85099,-0.19718 1.2246,-0.19718h4.86727c0.69186,0 1.27995,0.12454 1.76425,0.37361c0.48431,0.24907 0.87521,0.56214 1.17271,0.93921c0.2975,0.37707 0.51371,0.787 0.64862,1.22979c0.13491,0.44279 0.20237,0.85445 0.20237,1.23498zM358.36103,347.3916c0,-0.37361 -0.0934,-0.65035 -0.28021,-0.83024c-0.1868,-0.17988 -0.45663,-0.26983 -0.80948,-0.26983h-4.84651c-0.35977,0 -0.63306,0.09167 -0.81986,0.27502c-0.1868,0.18334 -0.28021,0.45144 -0.28021,0.80429v3.65304c0,0.35285 0.0934,0.62268 0.28021,0.80948c0.1868,0.1868 0.46009,0.28021 0.81986,0.28021h4.84651c0.36669,0 0.63997,-0.0934 0.81986,-0.28021c0.17988,-0.1868 0.26983,-0.45663 0.26983,-0.80948z"></path>
		<path d="M134.72844,318.30074v-12.82565l1.33501,0.04768h14.68513c7.58096,-0.04768 11.44296,-5.05397 11.49063,-10.10794c0.09536,-5.19701 -3.76664,-10.48938 -11.49063,-10.48938h-26.03272v33.37529zM134.72844,291.26676h13.54083c5.91219,0 5.72148,7.29488 0,7.29488h-13.54083z"></path>
		<path d="M182.00215,318.30074h10.4417c0,0 5.57844,-14.68513 9.20204,-22.88591c1.00126,-2.24091 2.14555,-2.81306 4.95861,-2.81306c2.81306,0 3.95736,0.57215 4.95861,2.81306c3.6236,8.20078 9.20204,22.88591 9.20204,22.88591h10.4417c0,0 -8.29614,-21.16947 -11.72903,-28.08292c-2.19323,-4.43415 -5.19701,-5.29237 -9.91723,-5.29237h-5.91219c-4.72022,0 -7.724,0.85822 -9.91723,5.29237c-3.43289,6.91345 -11.72903,28.08292 -11.72903,28.08292z"></path>
		<path d="M249.11031,284.92545v33.37529h9.86955v-24.2686l20.78804,24.2686h14.49441v-33.37529l-9.86955,0.14304v24.507l-21.07411,-24.65003z"></path>
		<path d="M314.93115,318.30074h25.07914c11.3476,0 17.0214,-6.10291 17.0214,-14.58977v-4.19575c0,-8.48686 -5.6738,-14.58977 -17.0214,-14.58977h-25.07914zM324.46694,291.88658h13.20708c6.19827,0 9.48812,2.33627 9.48812,8.10543v3.19449c0,5.81684 -3.28985,8.15311 -9.48812,8.15311h-13.20708z"></path>
		<path d="M376.07944,318.30074h10.4417c0,0 5.57844,-14.68513 9.20204,-22.88591c1.00126,-2.24091 2.14555,-2.81306 4.95861,-2.81306c2.81306,0 3.95736,0.57215 4.95861,2.81306c3.6236,8.20078 9.20204,22.88591 9.20204,22.88591h10.4417c0,0 -8.29614,-21.16947 -11.72903,-28.08292c-2.19323,-4.43415 -5.19701,-5.29237 -9.91723,-5.29237h-5.91219c-4.72022,0 -7.724,0.85822 -9.91723,5.29237c-3.43289,6.91345 -11.72903,28.08292 -11.72903,28.08292z"></path>
		<path d="M250.33807,247.57743c-0.8864,-0.04964 -1.76571,-0.09219 -2.65211,-0.14183c-3.94272,-0.23401 -7.84998,-0.69494 -11.65796,-1.83663c-1.34024,-0.4042 -2.22664,-1.26933 -2.80812,-2.51029c-0.62403,-1.34733 -0.90059,-2.77976 -1.03532,-4.24764c-0.15601,-1.6948 -0.24819,-3.3896 -0.36165,-5.0915c-0.00709,-0.07801 -0.01418,-0.1631 -0.02127,-0.28365c-0.58148,0.02837 -1.14169,0.04255 -1.70189,0.09219c-2.08482,0.19147 -4.18382,0.31201 -6.26155,0.03545c-1.80117,-0.2411 -3.58815,-0.57439 -5.36806,-0.94313c-1.65225,-0.34038 -3.29742,-0.7233 -4.91421,-1.19842c-0.85804,-0.24819 -1.70189,-0.6524 -2.46774,-1.12751c-1.46788,-0.90767 -1.8579,-2.12027 -1.25514,-3.74416c0.30492,-0.82258 0.7233,-1.60971 1.12751,-2.39683c0.4042,-0.78713 0.85095,-1.55298 1.2906,-2.31883c0.87931,-1.54588 1.19842,-3.25487 1.34024,-4.98512c0.19147,-2.4252 0.29783,-4.85749 0.43966,-7.28268c0.02127,-0.31201 0.04255,-0.62403 0.07091,-1.05659c4.53838,6.02754 10.5801,9.33204 17.84151,10.65101c0.04964,-0.70203 -0.20565,-1.21969 -0.68785,-1.62389c-0.3262,-0.26946 -0.6524,-0.55312 -1.02113,-0.76585c-1.03532,-0.61694 -1.57425,-1.51043 -1.81535,-2.68757c-0.45384,-2.22664 -0.75167,-4.46747 -0.99277,-6.72247c-0.31201,-2.99249 -0.58148,-5.99208 -1.48206,-8.89239c-0.4822,-1.54588 -1.19132,-2.97831 -2.03518,-4.34692c-1.23387,-2.02809 -2.51738,-4.02781 -3.73707,-6.06299c-1.25514,-2.09191 -1.88627,-4.37528 -2.04937,-6.81466c-0.22692,-3.41088 -0.38292,-6.82175 -0.28365,-10.23263c0.17728,-6.02044 0.99986,-11.94162 2.63793,-17.74932c1.01405,-3.58107 2.90031,-6.61611 5.37514,-9.32495c1.76571,-1.9359 3.58107,-3.83635 5.37514,-5.75098c1.4537,-1.55298 2.82231,-3.17686 3.99944,-4.96385c0.27656,-0.41838 0.30492,-0.80131 0.07801,-1.22678c-0.22692,-0.41129 -0.46093,-0.82258 -0.68076,-1.24096c-0.35456,-0.68076 -0.26946,-1.06369 0.3191,-1.5388c4.50292,-3.61652 9.43841,-6.55229 14.58664,-9.15476c3.78671,-1.91463 7.66561,-3.59525 11.67214,-5.0064c0.12055,-0.04255 0.2411,-0.07801 0.36874,-0.08509c-0.57439,0.34747 -1.16296,0.67367 -1.70898,1.05659c-2.13446,1.47498 -3.85763,3.36124 -5.40351,5.42478c-2.81521,3.75835 -4.77239,7.97053 -6.38919,12.34581c-1.31896,3.56688 -2.2621,7.22595 -2.68048,11.01266c-0.19147,1.75153 -0.3191,3.50306 0.05673,5.2546c0.31201,1.47498 0.82258,2.87903 1.38988,4.26892c0.75876,1.87208 1.56007,3.72289 2.21955,5.63043c0.39711,1.14169 0.5673,2.35428 0.82967,3.53851c0.03545,0.14891 -0.01418,0.3262 -0.07091,0.4822c-1.11332,2.97122 -1.9359,6.02044 -2.47484,9.14058c-0.28365,1.63807 -0.30492,3.29032 -0.21983,4.94967c0.23401,4.71566 1.4537,9.23985 2.59539,13.78533c0.67367,2.70175 2.1841,4.77948 4.1129,6.63738c3.21232,3.09177 6.87139,5.58079 10.70774,7.80743c3.15559,1.83663 6.44592,3.40378 9.87098,4.68021c2.92158,1.09205 5.89989,1.41824 8.97748,0.91477c4.67311,-0.76585 8.92075,-2.53866 12.70746,-5.39642c1.76571,-1.33315 3.53851,-2.65211 5.31132,-3.9569c2.46066,-1.81535 5.12695,-3.2265 8.0769,-4.07745c1.30478,-0.37584 2.55284,-0.95023 3.41797,-2.03518c0.68785,-0.85804 1.31896,-1.79408 1.82953,-2.76557c1.56007,-2.98541 2.47484,-6.19064 3.12014,-9.48096c0.56021,-2.85067 0.58148,-5.72261 0.37584,-8.60874c-0.17728,-2.43229 -0.4822,-4.83621 -1.01405,-7.21886c-0.04255,-0.18437 -0.07801,-0.36874 -0.13473,-0.54602c-0.39002,-1.09914 -0.37584,-2.24792 -0.41838,-3.3896c-0.12764,-3.94272 -0.25528,-7.89252 -0.38292,-11.83524c-0.00709,-0.24819 -0.02837,-0.4893 -0.04255,-0.78003c-0.39002,0.33328 -0.73039,0.65948 -1.10623,0.92895c-0.93604,0.67367 -1.90754,1.31188 -2.84358,1.99973c-0.36165,0.26238 -0.68785,0.58148 -0.99277,0.90059c-0.55312,0.58148 -0.78003,1.31188 -0.81549,2.099c-0.00922,0.15274 -0.00638,0.30542 -0.00355,0.47192c0.00213,0.08864 0.00355,0.18118 0.00355,0.27975c-0.09219,-0.03545 -0.14891,-0.04964 -0.18437,-0.07801c-2.67339,-2.20537 -5.6517,-3.93563 -8.7151,-5.53115c-0.21274,-0.11346 -0.3262,-0.25528 -0.4042,-0.4893c-0.53893,-1.6948 -1.11332,-3.38251 -1.64516,-5.0844c-0.19147,-0.61694 -0.3191,-1.25514 -0.45384,-1.89335c-0.19855,-0.94313 0.12764,-1.80826 0.46802,-2.64502c1.24096,-3.04923 3.08468,-5.68007 5.62333,-7.78616c0.53184,-0.43966 1.15587,-0.77294 1.75862,-1.10623c0.82967,-0.45384 1.70189,-0.39711 2.57412,-0.11346c1.68062,0.54602 3.16978,1.46079 4.58802,2.48193c1.63098,1.17005 3.13432,2.47484 4.38238,4.05618c0.4822,0.60984 0.89349,1.27642 1.2906,1.94299c0.6524,1.09205 0.57439,2.21955 0.12764,3.36833c-0.53184,1.38279 -1.19132,2.69466 -1.99973,3.94272c-0.14891,0.22692 -0.29074,0.45384 -0.45384,0.70203c0.43966,0.35456 0.86513,0.69494 1.28351,1.02823c0.94313,0.75167 1.87208,1.51752 2.56702,2.52448c0.60276,0.87931 0.78713,1.91463 1.05659,2.91449c0.87222,3.24068 1.38279,6.55938 1.87208,9.87098c0.60984,4.13418 1.13459,8.28254 2.11319,12.35291c0.8864,3.69453 2.1841,7.25432 3.80799,10.68646c1.8579,3.93563 3.82926,7.82161 5.72971,11.73596c1.78699,3.67325 3.36833,7.43869 4.40365,11.40268c0.05673,0.22692 0.12055,0.45384 0.17728,0.67367v1.06369c-0.03545,0.19855 -0.07091,0.39002 -0.10637,0.58857c-0.36165,2.14154 -1.06369,4.18382 -1.86499,6.19064c-1.38988,3.4747 -2.69466,6.97067 -3.66616,10.59428c-0.73039,2.71593 -1.86499,5.29714 -3.2336,7.75779c-0.58857,1.05659 -1.31188,2.021 -2.31883,2.73012c-0.93604,0.65948 -2.02809,0.93604 -3.11304,1.2126c-3.04213,0.78713 -6.16227,0.99986 -9.28241,0.95731c-3.5527,-0.04964 -7.1054,-0.2411 -10.6581,-0.42547c-2.43938,-0.12764 -4.87876,-0.34038 -7.28268,-0.82258c-1.32606,-0.26238 -2.63084,-0.58857 -3.80799,-1.28351c-0.68785,-0.4042 -1.30478,-0.89349 -1.43242,-1.74444c-0.039,-0.28507 -0.02766,-0.58006 -0.01631,-0.85449c0.00426,-0.12197 0.00922,-0.23969 0.00922,-0.35102c-0.19359,0 -0.39144,-0.00071 -0.59141,-0.00142h-0.00142c-0.40703,-0.00142 -0.82329,-0.00355 -1.23671,0.00142c-0.51199,0.00922 -1.02397,0.02269 -1.53596,0.03545c-2.21813,0.05673 -4.43485,0.11275 -6.64731,-0.13473c-0.80131,-0.09219 -1.59552,-0.22692 -2.29046,-0.66658c-0.4822,-0.30492 -0.65948,-0.68785 -0.50348,-1.23387c0.11346,-0.4042 0.25528,-0.82258 0.4893,-1.17005c0.75167,-1.14169 1.54588,-2.2621 2.33301,-3.38251c0.84385,-1.19132 1.59552,-2.4252 1.9359,-3.87181c0.12764,-0.54602 0.26946,-1.08496 0.41838,-1.68771c0.11346,0.12764 0.19147,0.20565 0.26238,0.29783c0.39002,0.50348 0.77294,1.01405 1.17005,1.51043c0.49638,0.61694 0.97859,1.24805 1.51043,1.82953c0.50348,0.55312 1.14878,0.93604 1.90754,0.98568c0.70203,0.04255 1.41824,0.04255 2.12027,-0.02127c1.75153,-0.17019 3.41088,-0.7233 5.07022,-1.26224c0.31201,-0.09928 0.50348,-0.26238 0.61694,-0.56021c0.63821,-1.72317 1.31896,-3.43215 1.91463,-5.1695c0.35456,-1.02823 0.53893,-2.12027 0.34747,-3.21232c-0.39002,-2.19828 -0.95023,-4.35401 -1.75862,-6.44592c-0.34038,-0.87931 -0.75167,-1.73735 -1.3757,-2.46066c-0.55312,-0.63821 -1.19132,-1.07077 -2.10609,-0.82967c-1.71607,0.45384 -3.37542,1.05659 -4.99222,1.77989c-5.42478,2.43938 -10.42409,5.5737 -15.11848,9.21858c-2.24082,1.74444 -4.36819,3.61652 -6.24027,5.76516c-0.46093,0.53184 -0.61694,1.10623 -0.33328,1.73025c0.25528,0.55312 0.54602,1.10623 0.92186,1.57425c0.89349,1.09914 1.8579,2.14154 2.77976,3.21941c0.63112,0.73749 1.22678,1.51043 1.5388,2.44647c0.41129,1.24096 0.81549,2.48902 1.16296,3.75125c0.26946,0.98568 0.49638,1.99973 0.3262,3.04213c-0.12764,0.78003 -0.53893,1.21969 -1.31896,1.36152c-0.83676,0.15601 -1.66643,0.34747 -2.51029,0.46093c-3.05632,0.4042 -6.10554,0.84385 -9.16895,1.14169c-2.32592,0.22692 -4.67311,0.27656 -7.00612,0.4042c-0.11346,0.00709 -0.23401,0.03545 -0.34747,0.04964c-1.66643,-0.00709 -3.36833,-0.00709 -5.07022,-0.00709zM256.59253,156.33471c-0.05673,-0.68076 -0.12055,-1.27642 -0.14891,-1.87208c-0.07801,-1.56716 -0.89349,-2.62375 -2.25501,-3.29742c-0.6453,-0.3191 -1.31188,-0.58857 -1.96427,-0.8864c-1.99973,-0.91477 -3.40378,-2.44647 -4.53129,-4.29728c-0.31201,-0.51766 -0.46802,-1.02823 -0.35456,-1.60971c0.1631,-0.82967 0.29074,-1.67353 0.52475,-2.48902c0.63821,-2.21955 1.51752,-4.34692 2.85067,-6.24736c0.54602,-0.77294 1.13459,-1.54588 2.05645,-1.88627c0.52475,-0.19147 1.09914,-0.28365 1.65935,-0.30492c2.51029,-0.09928 4.96385,0.22692 7.36069,1.01405c1.43242,0.46802 2.30464,1.41115 2.63793,2.83649c0.31201,1.33315 0.57439,2.67339 0.78713,4.02072c0.31201,2.02809 0.56021,4.07036 0.84385,6.10554c0.02837,0.20565 0.02837,0.34038 -0.19147,0.46093c-1.77989,0.99277 -3.28324,2.3401 -4.68729,3.80089c-1.40406,1.4537 -2.82231,2.89322 -4.23346,4.33274c-0.08509,0.09219 -0.18437,0.17019 -0.35456,0.3191zM263.5632,190.03218c-1.08496,-0.04255 -2.25501,-0.24819 -3.34706,-0.77294c-0.3262,-0.15601 -0.66658,-0.41129 -0.84385,-0.70912c-0.77294,-1.31188 -1.14878,-2.73721 -0.94313,-4.26892c0.04964,-0.35456 0.21983,-0.73039 0.43256,-1.02113c1.13459,-1.58844 2.57412,-2.88613 4.05618,-4.13418c1.60971,-1.35442 3.28324,-2.62375 5.11277,-3.67325c0.06382,-0.03545 0.12055,-0.07801 0.18437,-0.10637c0.92186,-0.51057 1.30478,-0.51057 2.02809,0.25528c0.57439,0.61694 1.05659,1.32606 1.55298,2.00681c0.34038,0.45384 0.34747,0.9715 0.13473,1.48206c-0.36874,0.90059 -0.71621,1.82244 -1.15587,2.69466c-1.15587,2.31174 -2.47484,4.53838 -4.00654,6.63029c-0.92895,1.26224 -1.64516,1.63807 -3.20523,1.6168zM290.95657,175.06262c0.39002,0.1631 0.8864,0.3262 1.34024,0.56021c3.29742,1.70189 6.36791,3.74416 9.0413,6.34664c0.73749,0.71621 1.40406,1.50334 1.86499,2.43938c0.06382,0.13473 0.11346,0.28365 0.17728,0.42547c0.22692,0.47511 0.13473,0.8864 -0.27656,1.19132c-0.99277,0.75167 -1.96427,1.56007 -3.02086,2.21955c-1.15587,0.71621 -2.40392,1.29769 -3.61652,1.92172c-0.42547,0.21983 -0.83676,0.17728 -1.2126,-0.14891c-0.50348,-0.42547 -1.05659,-0.80131 -1.5317,-1.25514c-2.51738,-2.38974 -4.80075,-4.97804 -6.82175,-7.80034c-0.37584,-0.52475 -0.41129,-0.99986 -0.17019,-1.57425c0.58148,-1.3686 1.39697,-2.56702 2.53156,-3.53851c0.44674,-0.39002 0.95731,-0.70912 1.6948,-0.78713zM284.82976,196.64829c0.21629,0 0.43256,0.00071 0.64814,0.00071c0.64672,0.00142 1.29131,0.00284 1.94016,-0.0078c0.25528,-0.00709 0.39711,0.10637 0.4893,0.3191c0.29783,0.71621 0.3191,1.44661 0.11346,2.1841c-0.02837,0.09928 -0.09219,0.19147 -0.1631,0.26238c-1.70189,1.58134 -3.53143,2.98541 -5.53824,4.16254c-1.41824,0.82967 -2.88613,0.95023 -4.43201,0.47511c-2.82939,-0.86513 -5.38224,-2.21246 -7.47415,-4.35401c-0.09928,-0.09928 -0.19855,-0.20565 -0.27656,-0.3191c-0.39002,-0.53184 -0.17728,-1.21969 0.46802,-1.36152c0.79421,-0.17728 1.59552,-0.34747 2.40392,-0.41838c3.94272,-0.34747 7.88544,-0.65948 11.82815,-0.98568c-0.00709,0.01418 -0.00709,0.02837 -0.00709,0.04255z"></path>
	</g>
</svg>
