<svg
	 xmlns="http://www.w3.org/2000/svg"
	 viewBox="0 0 370.33333333333337 179.24533053672985"
	 width="396"
	 height="191.66827423729526"
>
	<g fill="#353535">
		<g transform="matrix(1.4957264957264957,0,0,1.4957264957264957,364.20940170940173,-505.21794871794873)">
			<path xmlns="http://www.w3.org/2000/svg" d="M-167.5,390.5c-1.1,0-2-0.9-2-2c0-1.1,0.9-2,2-2c1.1,0,2,0.9,2,2C-165.5,389.6-166.4,390.5-167.5,390.5z   M-177.5,428.5c-2.2,0-4-1.8-4-4s1.8-4,4-4c2.2,0,4,1.8,4,4S-175.3,428.5-177.5,428.5z M-177.5,410.5c-2.2,0-4-1.8-4-4s1.8-4,4-4  c2.2,0,4,1.8,4,4S-175.3,410.5-177.5,410.5z M-177.5,392.5c-2.2,0-4-1.8-4-4c0-2.2,1.8-4,4-4c2.2,0,4,1.8,4,4  C-173.5,390.7-175.3,392.5-177.5,392.5z M-177.5,374.5c-2.2,0-4-1.8-4-4c0-2.2,1.8-4,4-4c2.2,0,4,1.8,4,4  C-173.5,372.7-175.3,374.5-177.5,374.5z M-194.5,414.5c-3.9,0-7-3.1-7-7c0-3.9,3.1-7,7-7c3.9,0,7,3.1,7,7  C-187.5,411.4-190.6,414.5-194.5,414.5z M-194.5,394.5c-3.9,0-7-3.1-7-7c0-3.9,3.1-7,7-7c3.9,0,7,3.1,7,7  C-187.5,391.4-190.6,394.5-194.5,394.5z M-195.5,374.5c-2.2,0-4-1.8-4-4c0-2.2,1.8-4,4-4c2.2,0,4,1.8,4,4  C-191.5,372.7-193.3,374.5-195.5,374.5z M-195.5,362.5c-1.1,0-2-0.9-2-2c0-1.1,0.9-2,2-2c1.1,0,2,0.9,2,2  C-193.5,361.6-194.4,362.5-195.5,362.5z M-214.5,414.5c-3.9,0-7-3.1-7-7c0-3.9,3.1-7,7-7s7,3.1,7,7  C-207.5,411.4-210.6,414.5-214.5,414.5z M-214.5,394.5c-3.9,0-7-3.1-7-7c0-3.9,3.1-7,7-7s7,3.1,7,7  C-207.5,391.4-210.6,394.5-214.5,394.5z M-213.5,374.5c-2.2,0-4-1.8-4-4c0-2.2,1.8-4,4-4c2.2,0,4,1.8,4,4  C-209.5,372.7-211.3,374.5-213.5,374.5z M-213.5,362.5c-1.1,0-2-0.9-2-2c0-1.1,0.9-2,2-2c1.1,0,2,0.9,2,2  C-211.5,361.6-212.4,362.5-213.5,362.5z M-231.5,374.5c-2.2,0-4-1.8-4-4c0-2.2,1.8-4,4-4c2.2,0,4,1.8,4,4  C-227.5,372.7-229.3,374.5-231.5,374.5z M-231.5,384.5c2.2,0,4,1.8,4,4c0,2.2-1.8,4-4,4c-2.2,0-4-1.8-4-4  C-235.5,386.3-233.7,384.5-231.5,384.5z M-241.5,408.5c-1.1,0-2-0.9-2-2c0-1.1,0.9-2,2-2c1.1,0,2,0.9,2,2  C-239.5,407.6-240.4,408.5-241.5,408.5z M-241.5,390.5c-1.1,0-2-0.9-2-2c0-1.1,0.9-2,2-2c1.1,0,2,0.9,2,2  C-239.5,389.6-240.4,390.5-241.5,390.5z M-231.5,402.5c2.2,0,4,1.8,4,4s-1.8,4-4,4c-2.2,0-4-1.8-4-4S-233.7,402.5-231.5,402.5z   M-231.5,420.5c2.2,0,4,1.8,4,4s-1.8,4-4,4c-2.2,0-4-1.8-4-4S-233.7,420.5-231.5,420.5z M-213.5,420.5c2.2,0,4,1.8,4,4  c0,2.2-1.8,4-4,4c-2.2,0-4-1.8-4-4C-217.5,422.3-215.7,420.5-213.5,420.5z M-213.5,432.5c1.1,0,2,0.9,2,2c0,1.1-0.9,2-2,2  c-1.1,0-2-0.9-2-2C-215.5,433.4-214.6,432.5-213.5,432.5z M-195.5,420.5c2.2,0,4,1.8,4,4c0,2.2-1.8,4-4,4c-2.2,0-4-1.8-4-4  C-199.5,422.3-197.7,420.5-195.5,420.5z M-195.5,432.5c1.1,0,2,0.9,2,2c0,1.1-0.9,2-2,2c-1.1,0-2-0.9-2-2  C-197.5,433.4-196.6,432.5-195.5,432.5z M-167.5,404.5c1.1,0,2,0.9,2,2c0,1.1-0.9,2-2,2c-1.1,0-2-0.9-2-2  C-169.5,405.4-168.6,404.5-167.5,404.5z" style="fill-rule: evenodd; clip-rule: evenodd;"></path>
		</g>

		<g transform="matrix(4.057392282232303,0,0,4.057392282232303,159.34894046139976,-26.675536784025397)">
			<path d="M11.92 31.439999999999998 c-0.28 0.08 -0.48 0.12 -0.64 0 l0 0.4 c0.84 -0.16 2.08 0 2.68 -0.24 c-0.68 -0.28 -1.2 -0.04 -2.04 -0.16 c1.16 -0.16 2.76 -0.24 3.56 0.4 c0.08 0.48 -0.12 0.68 -0.28 0.96 c-1.52 0.16 -3.2 -0.08 -4.12 0.24 c0.08 0.28 -0.12 0.28 0 0.56 c-0.16 0.16 -0.08 0.56 -0.24 0.72 c-0.28 2.84 -0.6 5 -1 7.92 c-0.16 1.04 -0.36 1.88 -0.36 2.72 c-0.2 0.76 -0.08 1.44 -0.32 2.08 c0 0.4 0.12 0.76 -0.12 1.12 c0.16 0.84 -0.32 1.6 -0.52 2.32 c-0.72 0.56 -1.8 0.12 -2.6 -0.12 c-0.24 -0.6 -0.16 -1.28 0.16 -1.92 c0.08 0.08 0.12 0 0.24 0 c0.12 0.24 0.28 0.4 0.44 0.56 c0.32 -0.56 0.16 -1.36 0.44 -1.88 c0.48 -4.8 1.24 -8.76 1.96 -13.84 c-0.52 -0.2 -1.2 0.04 -1.64 0.16 c-1.84 0.12 -3.44 0.64 -5.44 0.96 c-0.36 2 -0.64 4.56 -0.64 6.4 c-0.24 -0.44 -0.04 -1.08 -0.08 -1.52 c-0.08 0.4 -0.36 0.96 -0.16 1.48 c-0.32 0.24 -0.08 0.8 -0.24 1.08 c-0.16 -0.2 0 -0.52 -0.08 -0.88 c-0.16 0 -0.04 0.36 -0.16 0.4 c0.24 0.96 0 2 0.08 3 c-0.12 0.04 -0.2 0.08 -0.32 0.08 c-0.04 -0.04 -0.04 -0.04 -0.12 -0.04 c-0.8 -1.44 -0.68 -3.52 -0.6 -5.28 c0.04 -1.36 0.2 -2.84 0.36 -4.12 c-2 0.48 -3.8 1.28 -5.36 2.2 c-0.64 -0.52 0 -1.44 0.52 -1.68 l0 0.08 c-0.04 0 -0.08 0.04 -0.08 0.08 s0.08 0 0.08 -0.08 c0.08 0 0.12 -0.04 0.16 -0.08 c0.2 -0.04 0.24 -0.24 0.48 -0.24 c-0.2 0.24 -0.56 0.32 -0.72 0.56 c0.28 -0.08 0.76 -0.48 1.04 -0.6 c-0.04 -0.2 -0.28 0.16 -0.24 -0.12 c0.28 0 0.44 -0.16 0.68 -0.28 c0.16 0.16 -0.24 0.16 -0.28 0.24 c-0.04 0.04 -0.08 0.04 -0.12 0.12 c0 0.08 0.16 -0.04 0.12 -0.12 c1.28 -0.36 2.56 -0.96 3.84 -1.24 c-0.24 -0.2 0.2 -0.2 -0.12 -0.28 c0 -0.08 0.16 -0.04 0.2 -0.12 c0.04 -1.08 0.36 -2.12 0.4 -3.44 c0.04 0 0.08 0.04 0.12 0.04 c-0.04 -1.08 0.52 -2.32 0.48 -3.48 c0.28 -0.48 0.12 -0.92 0.4 -1.4 c0 -0.32 0.04 -0.6 0.08 -0.84 c0.56 -2.08 0.84 -4.48 1.68 -6.16 c0.24 -0.04 0.36 -0.2 0.48 -0.32 c0.6 -0.04 0.88 0.32 1.32 0.44 c0.08 0.16 0.04 0.44 0.12 0.6 c-0.2 0.6 -0.64 1.24 -0.56 2 c-0.64 2 -1.08 3.88 -1.6 5.96 c0.08 0.52 -0.2 0.68 -0.12 1.4 c-0.44 1.72 -0.64 3.2 -0.92 5.04 c2.12 -0.36 5.08 -1.12 7.08 -1.16 c0.04 -0.32 0.12 -0.32 0.16 -0.52 c0.04 -0.16 -0.08 -0.36 -0.04 -0.48 c0.12 -0.76 0.4 -1.68 0.48 -2.28 c0 -0.04 -0.08 -0.12 -0.12 -0.04 c0.04 -0.36 0.08 -0.88 0.2 -1.2 c0.08 0 0.08 0.08 0.04 0.16 c0.04 -0.32 0.08 -0.44 0 -0.6 c0.36 -0.28 0 -0.88 0.24 -1.52 c0.24 -0.04 0.08 0.16 0.16 0.2 c0.12 -0.08 0 -0.24 0 -0.32 c0.08 0 0 -0.04 0 0 c-0.24 0.08 -0.04 -0.44 0.08 -0.36 c0.12 -0.12 -0.12 -0.2 -0.12 -0.36 c0.08 -0.04 0.08 -0.24 0.24 -0.24 c-0.08 -0.04 -0.08 -0.16 -0.16 -0.24 c0.44 -0.36 0.28 -1.08 0.52 -1.6 c-0.16 -0.2 -0.16 -0.4 -0.12 -0.8 c0.08 0 0.16 0.04 0.2 0.08 c0 -0.4 -0.08 -0.84 0.32 -1.12 c-0.12 -0.16 0.2 -0.36 -0.08 -0.4 c0 -0.08 0.08 -0.16 0.16 -0.16 c-0.2 -0.44 -0.04 -0.84 0.08 -1.28 c0.08 -0.08 0.16 0.04 0.24 -0.04 c-0.08 -0.28 -0.08 -0.8 0.16 -1.08 c-0.24 -0.4 0.2 -0.72 0.12 -1.12 c0.04 -0.12 0.12 -0.24 0.2 -0.32 c-0.16 -0.56 0.16 -0.84 0.4 -1.04 c0 -0.64 0.32 -0.92 0.16 -1.44 c0.44 -0.72 0.6 -1.52 0.96 -2.48 c0.16 0 0.36 -0.16 0.52 -0.28 c0.12 0.04 0.12 0.12 0.16 0.24 c0.12 -0.32 0.8 -0.32 0.84 -0.12 c0.16 0.04 0.32 0 0.36 -0.08 c0.28 0.4 0.48 0.88 0.36 1.44 c-0.4 -0.24 -0.36 0.4 -0.72 0.24 c-0.32 1.16 -0.8 2.12 -1 3.28 c0 0.12 -0.08 0.16 -0.12 0.24 c-0.16 0.72 -0.28 1.48 -0.56 2.08 c-0.2 1.12 -0.44 2.52 -0.8 3.56 c-0.44 2.96 -1.04 6.24 -1.48 9.24 c0.16 0.2 0.52 -0.04 0.6 0.08 z M14.08 12.48 c0 -0.12 0.24 -0.36 0 -0.4 c0.08 0.16 -0.12 0.32 0 0.4 z M12.8 16.24 c-0.16 0.12 -0.28 0.4 -0.16 0.6 c-0.2 0.28 -0.44 0.96 -0.28 1.32 c-0.04 0 -0.08 0 -0.12 0.04 c-0.08 0.76 -0.4 1.16 -0.36 1.88 c-0.32 0.52 -0.24 1.48 -0.52 1.96 c0 1.32 -0.6 2.52 -0.56 3.88 c-0.4 0.92 -0.32 1.92 -0.64 2.88 c0.04 0 0.08 0 0.08 0.04 c-0.28 1 -0.16 1.64 -0.48 2.52 c0.16 0 0.12 0.2 0.24 0.24 c0.24 -0.16 0.2 -0.72 0.16 -0.96 c0.12 0 0.04 -0.2 0.2 -0.16 c-0.16 -0.24 0.28 -0.84 0 -1.04 c0.04 -0.12 0 -0.28 0.08 -0.36 c0.04 0.04 0 0.12 0.04 0.12 c0.08 -0.16 0.08 -0.28 -0.04 -0.44 c0.36 -0.12 0.08 -0.92 0.28 -0.84 c0.04 -0.16 -0.04 -0.2 -0.08 -0.28 c0.08 0 0.12 -0.08 0.2 -0.08 c0.04 -0.16 -0.12 -0.12 -0.16 -0.2 c0.2 -0.4 0.12 -0.84 0.36 -1.2 c-0.2 -0.28 0 -0.64 0.16 -1 c-0.04 0 -0.12 0 -0.12 -0.04 c0.08 -0.16 0.16 -0.28 0.04 -0.44 c0.28 -0.56 0.36 -1.36 0.32 -1.88 c0.16 -0.16 0.2 -0.32 0.12 -0.56 c0.04 -0.12 0.32 -0.24 0.24 -0.32 c0 0.04 -0.04 0.08 -0.12 0.08 c0.32 -1.28 0.36 -2.2 0.8 -3.44 c-0.08 0 -0.12 0 -0.12 -0.08 c0.28 -0.24 0.04 -0.68 0.36 -0.88 c0.04 -0.12 -0.08 -0.12 -0.08 -0.24 c0.04 -0.08 0.16 -0.08 0.16 -0.16 c0.04 -1.04 0.6 -2.08 0.72 -3.12 c0.16 -0.44 0.56 -1.12 0.44 -1.52 c-0.48 1.24 -0.88 2.2 -1.16 3.68 z M12.96 14.36 c0 0.04 -0.04 -0.04 0 0 l0 0 z M13.08 16.52 c0.04 0.04 0 -0.04 0 0 l0 0 z M13 17.2 c-0.08 0 0 0.04 0 0 c0.08 -0.04 0 -0.08 0 0 z M12.8 17.72 c0.04 0.04 0 -0.04 0 0 l0 0 z M12.48 19.04 c0 0.04 -0.04 0 0 0 l0 0 z M12.4 19.24 c0.04 0.04 0 0 0 0 l0 0 z M11.64 19.44 c-0.04 0 -0.08 0 -0.08 0.04 c0.04 0 0.08 0 0.08 -0.04 z M11.2 21.28 c-0.16 -0.08 -0.08 0.2 0 0.16 c0 -0.12 0.08 -0.08 0 -0.16 c0.16 -0.04 -0.04 -0.2 0 0 z M11.88 21.8 c-0.12 0.16 0.16 -0.12 0 0 l0 0 z M2.96 22.76 c0 0.2 -0.16 -0.08 -0.16 0.12 c-0.16 0.92 -0.2 1.32 -0.56 2.12 c0.08 0.04 0.04 0.24 0.16 0.24 c-0.48 0.6 -0.4 1.56 -0.72 2.32 c0.12 1.04 -0.52 1.72 -0.4 2.76 c-0.16 -0.04 -0.04 0.24 -0.2 0.2 c0 -0.04 0 -0.12 -0.04 -0.12 c0 1 -0.28 2.36 -0.32 3.28 c0.12 0 0.2 -0.08 0.32 -0.08 c0.32 -1.72 0.44 -3.68 0.96 -5.48 c-0.04 -1.2 0.52 -2.2 0.44 -3.16 c0.08 -0.04 0.28 0.08 0.24 -0.08 c-0.2 -0.64 0.36 -1.28 0.2 -1.92 c0.2 0 0.16 -0.24 0.16 -0.4 l-0.12 0 c-0.12 0.08 0 0.12 0.04 0.2 z M11.52 23.96 c0 0.04 -0.04 -0.04 0 0 l0 0 z M11.32 24.880000000000003 l0.08 0 l0 -0.12 l-0.08 0 l0 0.12 z M11.32 25.04 c0.04 0.04 -0.04 0 0 0 l0 0 z M10.48 25.36 c0 0 -0.08 0 -0.08 0.04 c0.04 0 0.08 0 0.08 -0.04 z M1.36 28.48 c0.2 0 0.2 -0.36 0 -0.36 c0.04 0.12 0.12 0.24 0 0.36 z M10.8 29 c-0.04 0 -0.12 0 -0.12 0.04 c0.04 0 0.12 0 0.12 -0.04 z M2.04 29.48 l0.12 0 l0 -0.12 l-0.12 0 l0 0.12 z M10.6 29.439999999999998 c0.04 0.16 0.04 -0.2 0 0 l0 0 z M1.08 30 c0 0.36 0.12 -0.16 0 0 l0 0 z M1.04 30.28 c0.04 0.04 0 0 0 0 l0 0 z M2.04 31 c-0.12 0.16 0.16 -0.12 0 0 l0 0 z M1.48 31.2 c0.04 0.04 -0.04 -0.04 0 0 l0 0 z M9.76 31.72 c0.28 0.04 -0.08 0.16 -0.08 0.24 c0.2 0.12 0.24 -0.16 0.44 -0.04 c0 -0.16 -0.04 -0.12 0 -0.28 c-0.12 0 -0.28 0 -0.36 0.08 z M11.84 32 c0 0.16 0.28 0 0.08 -0.04 c0 0.04 -0.04 0.04 -0.08 0.04 l0 -0.04 c-0.2 0.08 -0.56 -0.04 -0.64 0.16 c0.28 0 0.48 -0.04 0.64 -0.12 z M9.76 32.32 c0.04 -0.12 0.08 0 0.12 0.04 c-0.04 -0.12 0.28 -0.16 0.12 -0.24 c0 0.04 -0.12 0.04 -0.24 0 c0 0.04 -0.12 0.16 0 0.2 z M2.96 33.32 c-0.2 0.04 -0.72 0.04 -0.88 0.28 c0.76 -0.04 1.52 -0.4 2.04 -0.32 c0 -0.08 0 -0.16 0.04 -0.16 c0.04 0.04 0.04 0.12 0.16 0.08 c0.24 -0.24 0.92 -0.08 1.24 -0.32 c0 0.12 0.08 0.16 0.2 0.16 c0 -0.12 -0.12 -0.08 -0.12 -0.16 c0.44 0.16 0.56 -0.16 0.88 0 c0.04 -0.2 0.32 -0.24 0.44 -0.08 c0.04 -0.2 0.36 -0.2 0.48 -0.08 c0 -0.08 0.04 -0.12 0.08 -0.12 c0.56 -0.08 1.08 -0.28 1.72 -0.2 c0 -0.08 0.08 -0.12 0.04 -0.2 c-2.24 0.28 -4.12 0.72 -6.28 1 c0 0.04 -0.04 0.08 -0.04 0.12 z M1.72 32.44 c0.04 0.04 -0.04 0 0 0 l0 0 z M9.84 32.480000000000004 c-0.24 -0.12 -0.12 0.16 0 0 l0 0 z M9.04 32.6 c0.08 0.2 0.08 -0.2 0 0 l0 0 z M7.76 32.64 c0.08 0.16 0.12 -0.2 0 0 l0 0 z M8.88 32.64 c0.24 0.04 0.04 -0.16 0 0 c-0.04 -0.04 -0.32 -0.04 -0.32 0.08 c0.12 -0.04 0.24 0 0.32 -0.08 z M8.28 32.88 c-0.04 0.04 0 0.04 0 0 c0.08 -0.04 0.16 -0.16 0.24 -0.2 c-0.32 0.04 -0.92 0 -1.16 0.24 c0.28 0 0.6 -0.24 0.8 0 c-0.04 -0.08 0.2 -0.2 0.12 -0.04 z M6.76 32.8 c-0.04 0 -0.08 0 -0.12 0.04 c0.04 0 0.12 0 0.12 -0.04 z M7.24 32.84 c-0.24 0.12 0.16 0.12 0 0 l0 0 z M6.32 32.92 c0.04 0.04 0 0 0 0 l0 0 z M6.36 33.08 c0.24 -0.08 0.64 -0.04 0.72 -0.16 c-0.24 -0.08 -0.56 -0.04 -0.72 0.16 z M5.88 33.12 c0.12 0.04 0.4 0.04 0.44 -0.16 c-0.12 0.08 -0.4 0 -0.44 0.16 z M1.52 33.2 l0.08 0 l0 -0.16 l-0.08 0 l0 0.16 z M4.16 33.6 c-0.08 0.04 0 0.04 0 0 c0.24 0.04 0.2 -0.2 0.44 -0.2 c0 0.04 -0.04 0.04 -0.04 0.12 c0.2 -0.12 0.2 -0.16 0.52 -0.12 c0.04 -0.04 0.04 -0.16 0.12 -0.2 c0.08 0.08 0.04 0.08 0 0.16 c0.16 -0.12 0.16 -0.04 0.36 0 c0 -0.2 0.28 -0.12 0.28 -0.28 c-0.6 0.04 -1.2 0.28 -2 0.36 c0 0.12 0.04 0.12 0.04 0.2 c0.08 0 0.36 -0.28 0.28 -0.04 z M9.4 34.72 c-0.04 -0.04 -0.04 -0.08 -0.12 -0.08 c-0.04 0.08 0 0.16 0.08 0.2 c0 1.76 -0.48 4.04 -0.64 5.72 c0.48 -1.08 0.24 -2.24 0.64 -3.32 c-0.08 -0.64 0.28 -1.44 0.16 -2.2 c0.24 -0.64 0.4 -1.36 0.24 -1.96 c-0.32 0.52 -0.16 1 -0.36 1.64 z M7.12 33.16 c0.04 0.04 0 0 0 0 l0 0 z M7.24 33.16 c0.04 0.04 -0.04 0 0 0 l0 0 z M6.16 33.28 c0.04 0 0 -0.04 0 0 l0 0 z M1.68 33.36 c-0.08 0 -0.04 -0.08 -0.12 -0.08 c-0.12 0.04 0.08 0.2 0.12 0.08 z M5.76 33.36 c-0.08 0.04 0 0.04 0 0 c0.04 -0.04 0 -0.04 0 0 z M5.08 33.519999999999996 c0.04 0 -0.04 -0.04 0 0 l0 0 z M5.16 33.519999999999996 c0.04 0 0 -0.04 0 0 l0 0 z M3 33.64 c0 0.12 0.08 0.2 0.2 0.2 c0.04 -0.24 0.12 -0.04 0.24 -0.04 c-0.04 -0.16 0.12 -0.08 0.16 -0.04 c-0.04 -0.12 0.08 -0.12 0.04 -0.24 c-0.28 -0.04 -0.48 0.32 -0.64 0.12 z M3.68 33.56 c0.04 0.04 0 -0.04 0 0 l0 0 z M3 33.6 c0.04 0.04 0 -0.04 0 0 l0 0 z M3.84 33.8 c0 -0.12 -0.04 -0.2 -0.16 -0.2 c0 0.12 0.08 0.16 0.16 0.2 z M2.48 33.84 c0.04 -0.24 -0.24 0.04 0 0 c0.04 0.12 -0.08 0.08 -0.08 0.2 c-0.04 0 -0.04 -0.08 -0.08 -0.12 c-0.12 0.16 -0.12 -0.12 -0.24 0 c0.16 0.04 -0.04 0.08 0 0.2 c0.12 -0.04 0.24 0 0.32 -0.08 c0.36 0.04 0.32 -0.36 0.56 -0.16 c0.08 -0.08 0 -0.2 -0.08 -0.24 c-0.08 0.08 -0.2 0.12 -0.24 0.2 c-0.04 -0.08 -0.12 0 -0.16 0 z M1.44 33.76 c0.04 0.16 0.04 -0.2 0 0 l0 0 z M0.72 33.84 c-0.04 0.12 0 0.16 0.08 0.2 c0 -0.16 0.2 -0.08 0.2 -0.24 c-0.12 0 -0.24 0 -0.28 0.04 z M2.24 33.88 c0.04 0.04 0 0 0 0 l0 0 z M-3.6 35.32 c0.48 0 1.08 -0.36 1.48 -0.56 c0 0.04 0.04 0.12 0.08 0.12 c0.48 -0.36 1.64 -0.4 2.2 -0.84 c-1.28 0.24 -2.56 0.68 -3.76 1.28 z M0.84 34.24 c-0.08 -0.04 -0.16 0.04 -0.12 0.12 c0.08 0 0.12 -0.04 0.12 -0.12 c0.08 -0.04 0 -0.08 0 0 z M0.6 34.32 c0 0.36 0.12 -0.16 0 0 l0 0 z M-1.16 34.8 c-0.16 -0.04 -0.16 0.12 -0.16 0.24 c0.2 0 0.2 -0.12 0.16 -0.24 c0.16 -0.08 0.04 0.16 0.12 0.16 c0.28 -0.08 0.48 -0.2 0.72 -0.36 c0.08 0.04 0.08 0.12 0.16 0.12 l0 -0.12 c0.12 -0.12 0.24 0.08 0.32 -0.04 l0 -0.16 c-0.4 0.04 -0.96 0.24 -1.32 0.4 z M1.36 34.64 c0.08 0.2 0.08 -0.16 0 0 l0 0 z M0.6 34.8 c-0.44 2.44 -0.6 5.52 -0.32 7.64 c-0.2 -2.68 0.24 -4.12 0.28 -6.4 c0.08 -0.12 0.32 -0.32 0.16 -0.56 c0 0.08 0 0.16 -0.12 0.12 c0.12 -0.24 0.32 -0.6 0.16 -0.84 c0 0.04 -0.08 0.04 -0.16 0.04 z M1.28 35.08 c-0.08 -0.16 0.24 -0.32 0 -0.32 c0 0.08 -0.12 0.28 0 0.32 z M-2.52 35.24 c0.2 0.04 0.04 -0.16 0 0 c-0.08 0.08 -0.24 0.04 -0.32 0.12 c0.04 0 0.08 0.04 0.08 0.08 c-0.08 0.08 -0.28 0.04 -0.24 0.24 c-0.04 -0.04 -0.04 0 -0.04 0.04 c-0.08 0.04 0 0.04 0 0 c0.04 0 0.04 -0.04 0.04 -0.04 c0.12 -0.12 0.04 -0.12 0.2 -0.08 c0.08 -0.04 0.12 -0.32 0.24 -0.16 c-0.04 0 -0.04 0.04 -0.04 0.08 c-0.08 0.04 0 0.04 0 0 c0.28 0 0.4 -0.2 0.56 -0.28 c0.28 -0.08 0.76 -0.04 0.64 -0.44 c-0.04 0.08 -0.04 0.2 -0.12 0.24 c-0.24 -0.28 -0.48 0.24 -0.76 0.08 c-0.04 0.08 -0.08 0.2 -0.12 0.24 c-0.04 -0.04 -0.12 -0.04 -0.12 -0.12 z M-3.76 35.44 c-0.24 -0.08 -0.04 0.12 0 0 c0.08 -0.04 0 -0.08 0 0 z M-3.08 35.519999999999996 c0 -0.04 0.2 -0.08 0.04 -0.16 c0 0.08 -0.2 0.12 -0.04 0.16 z M-4.4 35.76 c0.24 -0.08 0.52 -0.04 0.4 -0.28 c-0.08 0.12 -0.32 0.12 -0.4 0.28 z M-3.32 35.6 l0.08 0 l0 -0.08 l-0.08 0 l0 0.08 z M-3.44 35.92 c0.16 0 0.12 -0.16 0.32 -0.12 c-0.08 -0.12 0.12 -0.2 0 -0.24 c0 0.24 -0.32 0.12 -0.32 0.36 z M-3.92 35.8 c-0.12 0 0.08 0.2 0 0 c0.2 0 0.32 -0.08 0.4 -0.2 c-0.16 0.08 -0.32 0.08 -0.4 0.2 z M-3.52 35.8 c0.04 0.04 0 0 0 0 l0 0 z M-4.28 36.32 c0.32 -0.04 0.48 -0.24 0.6 -0.48 c-0.2 0.24 -0.44 0.2 -0.6 0.48 z M1.12 36.48 c0.04 -0.24 0.12 -0.52 -0.04 -0.64 c0 0.32 -0.16 0.48 0.04 0.64 z M-3.56 35.96 c0.04 0.04 -0.04 -0.04 0 0 l0 0 z M-4.44 36 c0.08 0.2 0.08 -0.2 0 0 l0 0 z M-4.24 36.04 c0.08 0 0.12 -0.04 0.16 -0.08 c-0.08 0 -0.12 0.04 -0.16 0.08 z M-3.96 36.28 c0.08 0.2 0.08 -0.2 0 0 l0 0 z M-4.44 36.32 c0.04 0.04 0 0 0 0 l0 0 z M-4.96 36.44 c0.04 0.2 0.04 -0.2 0 0 l0 0 z M-4.8 36.44 c0 0.04 -0.04 -0.04 0 0 l0 0 z M-4.32 36.52 c0.08 0.04 0.2 -0.12 0.08 -0.12 c0 0.04 -0.08 0.08 -0.08 0.12 z M1 36.72 c0.08 0 0.12 0.04 0.12 0.04 c0.04 -0.16 -0.12 -0.16 -0.12 -0.04 z M0.96 38.92 c0.04 -0.04 0.08 -0.24 -0.08 -0.24 c0.04 0.08 -0.04 0.24 0.08 0.24 z M1.44 38.96 c-0.24 0.04 -0.04 0.24 0 0 l0 0 z M1.12 39.32 c0.08 0 0.08 0.04 0.12 0.04 c0 -0.08 0 -0.16 -0.12 -0.16 l0 0.12 z M0.76 39.32 c0.04 0.2 0.04 -0.2 0 0 l0 0 z M0.96 39.52 c-0.16 0 0.04 -0.24 -0.12 -0.2 c-0.08 0.08 0 0.32 0.12 0.2 z M0.72 39.64 c0.04 0.2 0.04 -0.2 0 0 l0 0 z M0.88 40.04 c0 -0.08 0 -0.2 -0.08 -0.24 c-0.08 0.08 -0.04 0.24 0.08 0.24 z M0.6 39.92 c0.08 0.2 0.08 -0.16 0 0 l0 0 z M0.8 40.6 c0.04 0.04 0.04 0.08 0.08 0.12 c-0.08 -0.36 0.2 -0.48 -0.08 -0.64 c0.04 0.28 0.04 0.16 -0.16 0.08 c0.04 0.12 -0.2 0.2 -0.04 0.32 c0.04 -0.08 0.08 -0.12 0.12 -0.08 c0 0.08 -0.08 0.28 0.04 0.32 c0 -0.08 0 -0.12 0.04 -0.12 z M8.64 41.72 c0.08 -0.44 0.16 -0.64 0.16 -1.12 l-0.12 0 c0 0.4 -0.2 0.8 -0.04 1.12 z M0.6 41.08 c-0.04 -0.2 0.12 -0.16 0.12 -0.32 l-0.16 0 c0.04 0.08 -0.04 0.32 0.04 0.32 z M0.72 41.08 c0 0.04 -0.04 0 0 0 l0 0 z M8.52 42.44 c0.12 -0.2 0.16 -0.44 0 -0.64 c-0.04 0.16 -0.04 0.48 0 0.64 z M0.52 42.4 c0.04 0 -0.04 -0.04 0 0 l0 0 z M0.52 42.52 c-0.04 0.28 0.04 -0.2 0 0 l0 0 z M0.24 42.88 c0.12 0.04 0.12 -0.4 0 -0.36 l0 0.36 z M8.44 42.88 c0.08 -0.12 0.12 -0.24 0 -0.36 c-0.04 0.16 -0.16 0.2 0 0.36 z M0.56 43.24 c0.04 0.2 0.04 -0.2 0 0 l0 0 z M10.64 23.72 c0.16 -0.12 -0.12 0.16 0 0 l0 0 z M10.24 30.2 l0 0 c0.04 0.04 0 -0.04 0 0 z M1.28 31.04 c0.04 -0.16 0.04 0.2 0 0 l0 0 z M12.24 31.6 c0.04 -0.04 0.08 0 0.08 -0.08 c-0.04 0.04 -0.08 0 -0.08 0.08 z M12.52 31.6 l0 0 c0.04 0 -0.04 -0.04 0 0 z M13.2 31.6 l0 0 s-0.04 -0.04 0 0 z M13.56 31.64 l0 0 c0.04 0.04 0 -0.04 0 0 z M9.24 31.68 l0 0 c-0.36 0.04 0.24 0 0 0 z M8.08 31.92 l-0.24 0 c0.16 -0.16 0.68 -0.12 0.8 -0.16 c-0.04 0.2 -0.44 0.04 -0.56 0.16 z M8.96 31.72 c-0.04 0.08 -0.16 0.08 -0.28 0.12 c-0.04 -0.2 0.2 -0.08 0.28 -0.12 z M8.92 31.880000000000003 l0 0 c0.04 0.04 -0.04 -0.04 0 0 z M9.12 31.880000000000003 l0 0 c0 0.04 -0.04 -0.04 0 0 z M7.44 31.96 c0 -0.04 0.08 -0.04 0.12 -0.04 c0 0.04 -0.08 0.04 -0.12 0.04 z M8.08 31.92 c0.16 0 -0.04 0.2 0 0 l0 0 z M8.32 31.96 l0 0 c0.04 0.04 0 0 0 0 z M8.44 31.96 c0.04 -0.2 0.04 0.2 0 0 l0 0 z M7.24 32 c0 -0.04 0.04 -0.04 0.08 -0.04 c0 0.04 -0.04 0.04 -0.08 0.04 z M7.76 32 c0.16 -0.12 -0.12 0.16 0 0 l0 0 z M7 32 c0.16 0.12 -0.28 0 -0.2 0.2 c-0.04 -0.04 -0.04 -0.12 -0.16 -0.08 c0.04 -0.16 0.2 -0.08 0.36 -0.12 z M6.36 32.08 l0.12 0 c0 0.08 -0.08 0.08 -0.16 0.08 c0 -0.04 0.04 -0.04 0.04 -0.08 z M6.16 32.16 l0 0 c0.04 0.04 0 -0.04 0 0 z M7.04 32.16 c-0.16 0.16 -0.16 -0.16 0 0 l0 0 z M7.28 32.16 l0 0 c0.04 0.04 0 -0.04 0 0 z M6.04 32.2 c0 -0.04 0.04 -0.04 0.08 -0.04 c0 0.04 -0.04 0.04 -0.08 0.04 z M5.8 32.2 c0 0.12 -0.16 0.12 -0.28 0.12 c0.04 -0.12 0.12 -0.12 0.28 -0.12 z M6.28 32.24 c0.04 -0.16 0.04 0.2 0 0 l0 0 z M6.4 32.24 l0 0 c0.04 0.04 0 0 0 0 z M5.44 32.24 c-0.04 0.16 -0.28 0.08 -0.4 0.16 c0 -0.16 0.28 -0.08 0.4 -0.16 z M6.12 32.32 c0.08 -0.2 0.08 0.16 0 0 l0 0 z M5.84 32.32 l0.08 0 l0 0.08 l-0.08 0 l0 -0.08 z M5.52 32.4 l0 0 c0.04 -0.04 0 -0.04 0 0 z M5.6 32.4 c0 -0.04 0.08 -0.04 0.08 -0.04 c0 0.04 -0.04 0.04 -0.08 0.04 z M5.28 32.44 l0 0 c0 0.04 -0.04 0 0 0 z M5.52 32.4 c-0.04 0.16 -0.2 -0.04 0 0 l0 0 z M4.48 32.480000000000004 l0 0 c0.04 0.04 0 0 0 0 z M4.88 32.480000000000004 l0 0 c0.08 0 0 -0.04 0 0 z M4.88 32.480000000000004 c0 0.16 -0.2 -0.04 0 0 l0 0 z M4.08 32.6 l0 0 c0 0.04 -0.04 -0.04 0 0 z M3.72 32.6 c0 0.08 -0.08 0.12 -0.2 0.08 c0.04 -0.08 0.12 -0.12 0.2 -0.08 z M4.44 32.64 l0 0 c0.04 0.04 0 -0.04 0 0 z M3.4 32.64 l0.08 0 l0 0.08 l-0.08 0 l0 -0.08 z M3.92 32.68 c0.16 -0.12 -0.12 0.16 0 0 l0 0 z M3.16 32.8 l0 0 c0.04 0 -0.04 -0.04 0 0 z M3.52 32.8 c0.2 -0.12 -0.08 0.16 0 0 l0 0 z M2.88 32.96 c0.04 -0.16 0.04 0.2 0 0 l0 0 z M2.48 33.04 c0.16 -0.12 -0.12 0.16 0 0 l0 0 z M2.56 33.04 l0 0 c0.04 0 0 -0.04 0 0 z M2.96 33.32 l0 0.04 c0.04 0 0.04 -0.04 0 -0.04 z M9.72 33.36 l0 0 c0.04 0.04 0 -0.04 0 0 z M0.8 33.519999999999996 l0 0 c0.04 0 0 -0.04 0 0 z M0 33.6 l0 0 c0 0.04 -0.04 -0.04 0 0 z M-0.12 33.76 c0.12 -0.2 0.08 0.16 0 0 l0 0 z M-0.48 33.84 c0 -0.04 0.08 -0.04 0.12 -0.04 c0 0.04 -0.08 0.04 -0.12 0.04 z M-0.64 33.92 l0 0 c0.04 0.04 0 0 0 0 z M-0.88 34 c0.04 -0.04 0.08 0 0.08 -0.08 c0 0.04 -0.08 0 -0.08 0.08 z M-1.04 34.04 l0 0 c0.04 0.04 0 -0.04 0 0 z M-1.16 34.04 c-0.04 0.12 -0.16 0.16 -0.36 0.12 c0.12 -0.08 0.16 -0.08 0.36 -0.12 z M-2 34.24 c0 -0.08 0.08 -0.04 0 0 l0 0 z M-1.64 34.16 c0.08 0.04 0 0.12 0 0.16 c-0.08 -0.04 0 -0.08 0 -0.16 z M-2 34.24 c0 0.12 -0.2 -0.08 0 0 l0 0 z M-2.24 34.32 l0 0 c0.08 -0.04 0 -0.04 0 0 z M-1.84 34.28 c0 0.04 -0.04 0.08 -0.16 0.08 c0.04 -0.04 0.08 -0.08 0.16 -0.08 z M-2.32 34.36 c0 -0.04 0.04 -0.04 0.08 -0.04 c0 0.04 -0.04 0.04 -0.08 0.04 z M-2.32 34.36 c0 0.16 -0.2 -0.04 0 0 l0 0 z M-2.28 34.480000000000004 c0.04 -0.08 0.12 -0.12 0.2 -0.12 c0 0.08 -0.08 0.12 -0.2 0.12 z M9.6 34.480000000000004 c0.04 -0.2 0.04 0.16 0 0 l0 0 z M-2.6 34.480000000000004 c-0.08 0 -0.12 0.04 -0.16 0.08 c0.08 0 0.12 -0.04 0.16 -0.08 z M-2.52 34.56 c-0.04 -0.2 0.16 0 0 0 l0 0 z M-2.28 34.480000000000004 l0 0 c-0.04 0 0 0.04 0 0 z M-2.84 34.56 c0 0.08 -0.12 0.08 -0.12 0.2 c-0.08 -0.04 0 -0.24 0.12 -0.2 z M-2.52 34.56 c0 0.16 -0.2 -0.04 0 0 l0 0 z M-0.16 34.6 c-0.04 0 -0.04 -0.04 0 -0.04 l0 0.04 z M-2.8 34.64 l0 0 c0.08 0 0 -0.04 0 0 z M-3.24 34.72 c0.16 -0.12 -0.12 0.16 0 0 l0 0 z M-2.8 34.64 c0 0.08 -0.08 0.04 0 0 l0 0 z M9.4 34.72 c-0.04 0.04 -0.04 0.08 -0.04 0.12 c0.04 0.04 0.16 -0.12 0.04 -0.12 z M-0.88 34.8 c0 -0.04 0.08 -0.04 0.08 -0.04 c0 0.04 -0.04 0.04 -0.08 0.04 z M-3.52 34.84 c0 -0.04 0.08 -0.04 0.08 -0.04 c0 0.04 -0.04 0.04 -0.08 0.04 z M-3.24 34.84 c0 -0.04 0.08 -0.04 0.12 -0.04 c0 0.04 -0.08 0.04 -0.12 0.04 z M-3.56 34.84 c-0.04 0.08 -0.08 0.12 -0.16 0.12 c0.04 -0.08 0.08 -0.12 0.16 -0.12 z M-3.84 35.04 l0 0 c0 0.04 -0.04 -0.04 0 0 z M-4 35.08 l0 0 c0.08 -0.04 0 -0.04 0 0 z M-4 35.08 l0 0.04 c-0.08 0.16 -0.16 -0.08 0 -0.04 z M-4.24 35.24 l0 0 c0.04 0.04 0 -0.04 0 0 z M-4.08 35.28 l0 0 c0.04 -0.04 0 -0.04 0 0 z M-4.56 35.519999999999996 l-0.16 0 c0.04 -0.08 0.08 -0.16 0.2 -0.16 c0 0.08 -0.04 0.12 -0.04 0.16 z M-2.56 35.44 c0.04 0 0.08 0 0.08 0.04 c0 0 -0.08 0 -0.08 -0.04 z M0.8 40.6 c0.04 -0.08 -0.08 -0.12 0 -0.12 s0.08 0.12 0 0.12 z M0.96 42.16 c0.08 0 0 0.2 0.04 0.28 c-0.08 -0.04 -0.12 -0.2 -0.04 -0.28 z M22.28 36.24 c0.04 0 0.04 -0.04 0.04 -0.04 c-0.04 -0.08 -0.04 0 -0.04 0.04 c-0.16 0.12 -0.48 0.2 -0.44 0.36 c-0.16 0.2 -0.4 0.2 -0.64 0.36 c-1.64 1.04 -3.72 4.48 -6.04 3.56 c-0.08 -0.28 -0.24 -0.48 -0.32 -0.72 c0 -0.2 -0.16 0.08 -0.16 -0.08 c-0.12 -0.2 -0.2 -0.4 -0.32 -0.6 c0.56 -2.8 2.08 -4.64 3.56 -6.6 c0.56 -0.44 1.24 -0.96 2.16 -0.96 c0.88 0.2 1.92 0.48 2.08 1.56 c0.08 0.6 -0.16 1 -0.4 1.4 c0.32 0 0.68 -0.32 1.2 -0.24 c0.72 0.28 0.84 1.76 0.32 2.28 c0.36 0.6 -0.36 1.48 -0.08 2.16 c4 -0.64 6.24 -3.48 8.68 -5.84 c-0.28 2.12 -2.44 3.2 -3.84 4.64 c-0.92 0.52 -1.6 1 -2.6 1.44 c0.08 0.12 0.24 -0.12 0.4 -0.08 c-0.04 0.12 -0.2 0.08 -0.2 0.2 c1.64 -0.56 2.68 -1.92 4.08 -2.56 c-0.04 -0.12 -0.16 0.04 -0.24 0 c0.08 -0.12 0.2 -0.36 0.28 -0.08 c0.12 -0.28 0.56 -0.76 1.12 -0.88 c-1.72 2.08 -3.92 3.48 -6.56 4.72 c-0.36 0.04 -0.64 -0.08 -1 -0.08 c-0.6 -0.2 -0.8 -0.52 -1.08 -1.04 c-0.04 -0.8 -0.08 -2.04 0.04 -2.92 z M15.92 39 c2.04 -1 3.32 -2.68 4.96 -4.08 c-0.32 -0.28 -0.12 -1.24 -0.2 -1.6 c-2.64 0.84 -3.6 3.36 -4.76 5.68 z M31.4 33.8 c0.04 0.16 0.12 -0.2 0 0 l0 0 z M31.16 34.08 c0.08 0.08 0.16 -0.04 0.2 -0.16 c-0.12 0.04 -0.24 0.04 -0.2 0.16 z M26.32 37.88 c-0.04 -0.08 -0.12 -0.08 -0.12 0 c-0.12 -0.04 -0.16 0.04 -0.2 0.12 c0.12 0 0.16 -0.08 0.2 -0.12 l0.12 0 c-0.08 0.16 -0.28 0.2 -0.44 0.28 c0 -0.08 0.2 -0.16 0 -0.16 c-0.08 0.16 -0.16 0.4 -0.4 0.2 c-0.04 0.12 -0.16 0.32 0 0.32 c2.16 -1.12 4.24 -2.6 5.64 -4.4 c-1.56 1.32 -3 2.72 -4.8 3.76 z M21.6 35.16 c-0.16 0.24 0.28 0.08 0 0 l0 0 z M21.28 35.480000000000004 c0.04 0.08 0.32 -0.08 0.16 -0.16 c0 0.12 -0.2 0 -0.16 0.16 z M21.04 35.72 c-0.12 -0.04 -0.2 0.16 -0.12 0.16 c0 -0.08 0.12 -0.04 0.12 -0.16 c0.04 0 0.04 0.04 0.08 0.04 c0.04 -0.04 0.04 -0.08 0.04 -0.16 c-0.08 0 -0.12 0.04 -0.12 0.12 z M21.28 35.84 c0 0.04 -0.04 0 0 0 l0 0 z M20.12 36.48 c-0.12 0.16 0.16 -0.12 0 0 l0 0 z M19.96 36.6 c0.04 0.04 0 0 0 0 l0 0 z M21.6 36.6 c0.24 0.08 0.04 -0.12 0 0 l0 0 z M21.4 36.76 c0.2 0.04 0 -0.16 0 0 l0 0 z M25.68 38.2 c0.04 0.04 -0.04 0 0 0 l0 0 z M15.64 38.28 c0.2 0.08 0 -0.12 0 0 l0 0 z M15.6 38.52 c-0.08 0.12 -0.28 0.36 -0.2 0.44 c0.08 -0.12 0.2 -0.2 0.2 -0.44 c0.08 0 0 -0.04 0 0 z M25.12 39.16 c0.08 -0.04 0.24 -0.04 0.28 -0.16 c-0.16 0 -0.32 0 -0.28 0.16 z M15.36 39.12 c-0.12 0.16 0.16 -0.12 0 0 l0 0 z M25.2 39.32 c0.16 -0.08 0.36 -0.08 0.4 -0.24 c-0.16 0.04 -0.32 0.08 -0.4 0.24 z M15.36 39.32 c0.08 -0.16 -0.2 -0.16 -0.2 -0.08 c0.08 0 0.12 0.08 0.2 0.08 z M31.2 34.92 c0.12 0.08 -0.04 0.24 -0.16 0.2 c0.04 -0.08 0.16 -0.08 0.16 -0.2 z M31.12 35.28 c0.04 0.16 -0.28 0.24 -0.24 0.04 c0.08 0.04 0.08 -0.08 0.24 -0.04 z M30.64 35.36 c0.04 -0.16 0.04 0.2 0 0 l0 0 z M26.16 38.72 c0 0.12 -0.16 0.08 -0.16 0.16 c-0.12 -0.04 0.08 -0.16 0.16 -0.16 z M42.6 8.239999999999998 c-0.08 0 -0.08 0.04 -0.08 0.08 c0 0.12 0.12 0 0.08 -0.08 c0.2 1.72 -0.08 3.32 -0.48 4.6 c0.12 0.04 0.12 0.56 -0.2 0.52 c0.2 0.28 0.08 0.72 -0.12 0.88 c-0.04 0.92 -0.52 1.56 -0.64 2.44 c-0.08 0.08 -0.24 -0.04 -0.28 0.16 c0 0.08 0.12 0.04 0.2 0.04 c-0.12 0.28 -0.12 0.48 -0.2 0.8 c-0.08 0.04 -0.12 -0.04 -0.2 -0.04 c0.24 0.44 -0.24 0.64 -0.28 0.92 l-0.04 0 c0 0.04 0.04 0.04 0.04 0 l0.12 0 c0 0.16 -0.08 0.2 -0.28 0.2 c0.36 0.24 -0.16 0.4 -0.2 0.72 c0.04 0.12 0.12 -0.04 0.2 0 c-0.24 0.6 -0.64 0.88 -0.6 1.56 c-0.12 0.08 -0.08 0 -0.2 0 c0.12 0.28 -0.16 0.48 -0.36 0.6 c0 0.08 0.2 0 0.24 0.04 c-0.16 0.4 -0.2 0.96 -0.64 1.04 c0 0.76 -0.44 1.84 -1.04 2.52 c0.36 0.28 -0.36 0.68 -0.16 0.84 c-0.04 0.08 -0.12 0.08 -0.2 0.08 c0.08 0.32 -0.08 0.68 -0.48 0.84 c0.08 0.56 -0.32 0.92 -0.6 1.24 c0 0.16 0.16 0.12 0.12 0.24 c-0.32 0.36 -0.6 0.72 -0.72 1.28 c-0.12 0.04 -0.36 -0.12 -0.36 0.16 c0.04 0.12 0.16 0.04 0.16 -0.04 c0.04 0.32 -0.2 0.44 -0.28 0.72 c-0.12 0.04 -0.12 -0.08 -0.2 -0.08 c-0.08 0.04 0.16 0.24 -0.16 0.2 c0 0.08 0.08 0.08 0.12 0.12 c0.04 0.16 -0.12 0.12 -0.12 0.24 c-0.16 -0.08 -0.36 0 -0.48 0.12 c0.04 0.08 0.08 0.16 0.12 0.28 c-0.48 0.2 -0.32 0.88 -1 0.96 c-0.12 0.32 -0.12 0.72 -0.4 0.84 c0 0.08 0.12 0.08 0.16 0.12 c-0.16 0.12 -0.04 0.52 -0.32 0.52 c0.12 0.2 0 0.48 0.08 0.64 c0.4 -0.4 0.84 -0.76 1.2 -1.2 c0.72 -0.48 1.36 -1.16 2.28 -1.56 c1.8 -0.48 3.56 -0.16 3.76 1.64 c0.08 1.44 -0.32 2.76 -1.08 3.92 c-0.44 1.48 -1.56 2.76 -2.48 4 c-0.56 0.28 -1.04 0.72 -1.68 1.04 c-0.92 0.04 -1.92 -0.52 -2.4 -1.24 c0.08 -2.12 1.44 -4 2.6 -5.52 c0 0.12 0.16 0.28 0 0.4 c-0.04 -0.04 -0.04 -0.08 -0.12 -0.12 c-0.12 0.04 -0.2 0.52 -0.04 0.24 l0.04 0 c-0.84 1.44 -1.48 3.36 -1.32 4.8 c2.36 -1.64 4.72 -5.4 4.36 -8.64 c-0.04 0 -0.08 0 -0.08 -0.04 c-0.4 0.08 -0.48 0.32 -0.92 0.4 c-0.28 0.4 -1.4 0.76 -1.6 1.4 c-0.6 0.52 -1.28 1 -1.68 1.72 c-0.16 0.04 -0.12 0 -0.28 0 c0.24 0.24 -0.12 0.56 -0.44 0.56 c-0.04 0.2 0.2 0.08 0.16 0.24 c-0.28 0.08 -0.4 0.72 -0.88 0.76 c-0.16 0.4 -0.08 1.04 -0.36 1.16 c0.04 0.8 -0.24 1.24 -0.32 2.2 c0.2 0.04 0.08 -0.16 0.24 -0.12 c-0.04 0.36 -0.32 0.48 -0.36 0.84 c0 0.16 0.08 -0.04 0.2 0 c-0.68 1.32 -0.64 2.4 -0.72 3.84 c-0.56 0.08 -1.24 -0.12 -1.52 -0.72 c-0.4 0.16 -0.52 -0.36 -0.84 -0.48 c0.04 -3.16 1.28 -5.96 1.56 -8.88 c0.12 -0.08 0.2 -0.48 0.12 -0.6 c0.2 -0.12 0.04 -0.28 0.2 -0.44 c-0.32 -0.44 -0.8 0 -1.2 -0.32 c0.52 -0.4 1.2 -0.88 1.56 -1.28 c-0.16 -0.2 -0.04 -0.4 0 -0.64 c0.08 0 0.12 0 0.12 0.08 c0.2 -0.24 0.16 -0.8 0.28 -1.16 c0.12 0 0.08 0.08 0.2 0 c0 -0.6 0.48 -1.32 0.24 -1.8 c0.92 -2.8 1.4 -5.36 2 -8.04 c0.24 -0.24 0.56 -1.16 0.48 -1.56 c0.16 -0.08 0.28 -0.48 0.2 -0.72 c0.2 -0.08 0.28 -0.4 0.2 -0.64 c0.2 -0.2 0.44 -0.56 0.28 -0.76 c0.16 -0.24 0.48 -0.68 0.32 -1.08 c0.12 0.04 0.2 0 0.24 -0.04 c-0.08 -0.68 0.48 -1.04 0.48 -1.76 c0.08 0 0.08 0.08 0.04 0.12 c0.24 -0.76 0.64 -1.36 0.8 -2.2 c0.24 -0.08 0.36 -0.48 0.32 -0.72 c0.08 0 0.12 0.04 0.16 0.04 c0.48 -1.16 1.08 -2.36 1.84 -3.4 c0.08 -0.52 0.68 -0.92 1.04 -1.32 c0 -0.08 -0.12 -0.04 -0.12 -0.16 c0.36 -0.16 0.64 -0.28 1.12 -0.2 c0.08 0.12 0 0.08 0 0.2 c0.32 0.04 0.44 0.24 0.76 0.28 c0 0.44 0.76 0.52 0.72 1.16 z M40.52 7.359999999999999 c0.04 0.04 0 0 0 0 l0 0 z M40.2 7.479999999999997 c0.12 0.2 0.08 -0.16 0 0 l0 0 z M40.52 7.439999999999998 l-0.16 0 c-0.04 0.16 0.2 0.16 0.16 0 z M39.68 8.239999999999998 c0.12 -0.12 0.24 -0.2 0.28 -0.4 c-0.16 0.08 -0.32 0.16 -0.28 0.4 l-0.12 0 c-3.44 4.8 -5.12 11.56 -6.56 17.68 c0.64 -1.48 0.8 -3.08 1.24 -4.44 c0.12 0.12 0.28 0.04 0.24 -0.12 c0 -0.2 -0.16 0.08 -0.12 -0.08 c0.04 -0.24 0.04 -0.28 0.12 -0.4 c0.16 0.12 0.16 -0.12 0.36 -0.08 c-0.16 -0.24 0.08 -0.48 0.08 -0.76 c-0.08 -0.12 -0.16 0.08 -0.2 -0.04 c0.12 -0.2 0.04 -0.36 0.2 -0.52 c0.12 0.08 -0.12 0.36 0 0.44 c0.16 -0.2 0.16 -0.56 0 -0.72 c0.28 -0.56 0.28 -1.12 0.64 -1.6 c-0.04 0.4 -0.28 0.6 -0.24 1.04 c0.28 -0.12 0.16 -1.2 0.56 -1.32 c0.04 -0.12 -0.08 -0.08 -0.08 -0.16 c0.36 -0.6 0.64 -1.36 0.64 -2.12 c-0.16 0.24 -0.08 0.72 -0.36 0.84 c0.44 -1.04 0.56 -1.8 1.08 -2.76 c0.2 0.08 0.2 -0.08 0.4 0.08 c-0.04 -0.2 -0.16 -0.36 -0.04 -0.6 c0.08 0 0.08 0.08 0.2 0.04 c0 -0.16 0.2 -0.32 0.04 -0.4 c0.2 -0.4 0.24 -0.92 0.68 -1.12 c0.2 -1.16 1.28 -2.32 1.76 -3.36 c-0.2 0.2 -0.4 0.72 -0.64 0.76 c-0.04 -0.16 0.12 -0.12 0.12 -0.28 z M33.28 29.6 c2.48 -3.8 4.28 -8.64 6 -12.76 c0.8 -2.76 1.88 -5.28 2.04 -8.92 c-0.08 0 -0.04 -0.08 -0.12 -0.12 c-4.52 5.48 -6.32 14.32 -7.92 21.8 z M42.2 8.399999999999999 c-0.08 -0.04 0 -0.16 -0.12 -0.16 c-0.08 0.12 0.08 0.28 0.12 0.16 z M39.52 9.2 l0.12 0 l0 -0.08 l-0.12 0 l0 0.08 z M42.04 10.120000000000001 c-0.08 0.04 0 0.04 0 0 c0.12 -0.08 -0.08 -0.28 0 0 z M41.64 10.64 c0.16 0.04 0.04 -0.2 0.16 -0.24 c-0.16 -0.04 -0.16 0.12 -0.16 0.24 z M42.4 10.64 c0.2 0.04 0 -0.16 0 0 l0 0 z M39.04 10.719999999999999 c0.04 0.04 0 0 0 0 l0 0 z M38.52 10.920000000000002 l0 0.12 l0.08 0 c0 -0.04 0.04 -0.08 0.08 -0.08 l0 -0.08 l-0.12 0 c0 0.04 0 0.04 -0.04 0.04 z M41.480000000000004 11.16 c0.16 0.08 0.16 -0.2 0.08 -0.2 c-0.04 0.08 -0.08 0.12 -0.08 0.2 z M41 11.8 c-0.08 1.36 -0.64 2.4 -0.8 3.56 c0.4 0 -0.04 -0.28 0.16 -0.4 c0.08 0 0.04 0.12 0.12 0.08 c0 -0.32 0.2 -0.52 0.04 -0.8 c0.08 0 0.16 0 0.2 -0.04 c0 -0.36 -0.08 -0.64 0.2 -0.6 c-0.04 -0.2 -0.2 -0.56 0.08 -0.64 c-0.16 -0.44 0.32 -0.92 0.16 -1.28 c0 0.08 -0.08 0.12 -0.16 0.12 z M41.88 12.600000000000001 c0.04 0.04 0 0 0 0 l0 0 z M37.160000000000004 13.32 c0.08 0.2 0.08 -0.2 0 0 l0 0 z M36.84 14.280000000000001 c0.12 -0.24 0.2 -0.52 0.4 -0.72 c-0.08 0 -0.04 -0.12 -0.12 -0.12 c-0.08 0.24 -0.36 0.56 -0.28 0.84 z M37.04 14.2 c0.04 0.04 -0.04 -0.04 0 0 l0 0 z M36.84 14.68 c0.2 0.04 0 -0.16 0 0 l0 0 z M41.36 14.68 c0.12 0.2 0.08 -0.16 0 0 l0 0 z M41.24 15 c0.16 0.04 0.16 -0.04 0.16 -0.2 c-0.12 0 -0.16 0.08 -0.16 0.2 z M41.2 15.239999999999998 l0.12 0 c0.04 -0.12 -0.16 -0.12 -0.16 -0.04 c0.04 0 0.04 0 0.04 0.04 z M36.68 15.719999999999999 c0.04 -0.08 0.08 -0.2 0.16 -0.28 c-0.04 0 -0.04 0 -0.04 -0.04 l-0.12 0 c0 0.08 -0.08 0.24 0 0.32 z M40.28 15.64 c0.08 -0.04 0 -0.08 0 0 c-0.24 -0.04 0.12 -0.2 -0.04 -0.24 c-0.16 0.08 -0.2 0.32 -0.24 0.52 c0.08 0.08 0.08 -0.04 0.24 0 c-0.04 -0.16 0.04 -0.16 0.04 -0.28 z M36.56 15.48 c0.04 0.04 -0.04 0 0 0 l0 0 z M40.92 15.64 c0 -0.08 0.08 -0.12 0 -0.16 c0 0.08 -0.08 0.12 0 0.16 z M41.120000000000005 15.64 c0 -0.04 0 -0.08 0.04 -0.04 c0 -0.08 0 -0.12 -0.08 -0.12 c0 0.08 -0.04 0.16 0.04 0.16 z M36.52 15.600000000000001 l0 0 c0.12 -0.16 -0.16 0.12 0 0 z M40 16.16 c0 -0.12 0.08 -0.16 -0.04 -0.2 c0 0.08 0 0.2 0.04 0.2 z M40.64 16.16 l0.08 0 c0.08 -0.12 -0.16 -0.16 -0.12 -0.04 c0 0 0.04 0 0.04 0.04 z M39.760000000000005 16.64 c0.12 0.04 -0.16 0.36 0 0.48 c0.12 -0.28 0.4 -0.6 0.36 -0.92 c-0.12 0.16 -0.16 0.4 -0.36 0.44 z M40.88 16.48 c0.04 0 0.12 -0.2 -0.04 -0.16 c0 0.04 -0.04 0.16 0.04 0.16 z M36.32 16.68 c-0.2 0.2 0.12 -0.12 0 0 l0 0 z M39.2 17.12 c0 0.08 0 0.12 0.04 0.16 c0.08 -0.04 0.2 -0.04 0.2 -0.16 c-0.16 0.04 -0.16 -0.08 -0.24 0 z M40.04 17.16 c0.12 0.2 0.08 -0.16 0 0 l0 0 z M39.32 18.36 c-0.24 0.12 -0.32 0.56 -0.12 0.72 c0.04 -0.68 0.6 -1.36 0.48 -1.92 c-0.12 0.44 -0.4 0.76 -0.36 1.2 z M40.52 17.4 l0.12 0 l0 -0.08 l-0.12 0 l0 0.08 z M38.8 18.6 c-0.12 0.04 -0.08 0.32 -0.2 0.4 c0.2 0 0.2 -0.2 0.2 -0.4 c0.2 -0.24 0.28 -0.64 0.44 -1.04 c-0.2 0.28 -0.4 0.56 -0.44 1.04 z M40.36 17.68 c-0.08 0 -0.04 -0.12 -0.16 -0.08 c-0.04 0.08 0.12 0.2 0.16 0.08 z M39.8 17.88 c0.04 0.04 0 0 0 0 l0 0 z M36.04 18.04 c0 0.04 -0.04 -0.04 0 0 l0 0 z M39.760000000000005 18.24 c0 -0.04 0 -0.08 0.04 -0.08 c0 -0.04 0 -0.08 -0.08 -0.08 c0 0.04 0 0.12 0.04 0.16 z M40.28 18.12 c0.04 0.04 0 0 0 0 l0 0 z M40.28 18.4 c0.04 -0.08 -0.04 -0.12 -0.12 -0.12 c0 0.08 0.04 0.16 0.12 0.12 z M40.16 18.6 c0.04 0.04 -0.04 0 0 0 l0 0 z M35 19.28 c0.24 0 0.12 -0.32 0.36 -0.28 c-0.08 -0.08 0 -0.32 -0.16 -0.28 c-0.04 0.2 -0.12 0.36 -0.2 0.56 z M39.56 18.88 c0.08 -0.04 0.08 -0.16 -0.04 -0.16 c0 0.04 0 0.16 0.04 0.16 z M40.120000000000005 19 c0 -0.08 -0.04 -0.12 -0.12 -0.16 c0 0.08 0 0.16 0.12 0.16 z M37.52 21.44 c0.16 -0.04 0.16 0.04 0.24 0.08 c0.24 -0.76 0.8 -1.56 0.8 -2.44 c-0.36 0.8 -0.52 1.84 -1.04 2.36 z M38.92 19.12 c0.16 0.24 -0.2 0.32 -0.08 0.48 c0.24 0 0.2 -0.28 0.32 -0.4 c-0.12 -0.04 -0.16 -0.16 -0.24 -0.08 z M39.32 19.32 c0.04 0.04 0 0 0 0 l0 0 z M39.8 19.44 c0.12 0.16 0.08 -0.16 0 0 l0 0 z M39.24 19.84 c0.08 -0.04 0.08 -0.16 -0.04 -0.16 c-0.08 0.04 -0.04 0.12 0.04 0.16 z M38.68 20.24 c-0.28 0.32 -0.4 0.8 -0.48 1.16 c-0.16 0.24 -0.4 0.6 -0.4 0.84 c-0.48 0.84 -0.92 1.92 -1.36 3.12 c0.72 -1.2 1.24 -2.48 1.76 -3.96 c0.24 -0.28 0.48 -0.8 0.48 -1.16 c0.12 -0.12 0.16 -0.32 0.24 -0.48 c-0.24 0 -0.24 0.28 -0.44 0.32 c0.12 0 0.16 0.08 0.2 0.16 z M39.68 20.04 c0 -0.04 0 -0.04 0.04 -0.04 c0 -0.04 0 -0.12 -0.08 -0.08 c0 0.04 -0.04 0.12 0.04 0.12 z M39.8 20.04 c0.04 0.04 0 0 0 0 l0 0 z M39 20.2 l0.08 0 l0 -0.12 l-0.08 0 l0 0.12 z M39.52 20.24 c0.04 0.04 0 0 0 0 l0 0 z M39.2 20.28 c0.16 0.16 0.08 -0.16 0 0 l0 0 z M38.76 20.68 c0.08 0.16 0.4 -0.24 0.16 -0.28 c-0.04 0.08 0 0.2 -0.16 0.28 z M39.4 20.56 l0.08 0 l0 -0.08 l-0.08 0 l0 0.08 z M39.24 20.92 c0.16 0.08 0.24 -0.28 0.04 -0.24 c0.04 0.12 0 0.16 -0.04 0.24 z M38.76 20.96 c-0.16 0.04 0.04 0.24 0 0 c0.08 -0.04 0 -0.04 0 0 z M38.68 21.2 c0 0.04 -0.04 0 0 0 l0 0 z M38.52 21.44 l0.08 0 l0 -0.2 l-0.08 0 l0 0.2 z M39.08 21.36 c-0.08 0.16 0.16 -0.12 0 0 l0 0 z M34.160000000000004 29.119999999999997 c1.28 -2.32 2.8 -5.08 3.4 -7.6 c-0.92 2.52 -2.32 5 -3.4 7.6 z M38.84 21.92 c0.16 0 0.08 -0.2 0.16 -0.28 c-0.16 -0.04 -0.16 0.12 -0.16 0.28 z M34.28 21.92 c0.08 0 0.12 -0.04 0.16 -0.08 c-0.08 0 -0.12 0.04 -0.16 0.08 z M38.76 22.08 c0.08 0.16 0.12 -0.2 0 0 l0 0 z M38.04 22.4 c0.08 0 0.12 0.04 0.2 0.04 c-0.04 -0.08 0.04 -0.32 -0.04 -0.32 c0 0.12 -0.12 0.16 -0.16 0.28 z M34.2 22.32 c0.04 0 0 -0.04 0 0 l0 0 z M34.2 22.44 c0.2 0.04 0 -0.12 0 0 l0 0 z M38.68 22.48 l0.08 0 l0 -0.08 l-0.08 0 l0 0.08 z M38.56 22.6 c0.04 0.04 0 -0.04 0 0 l0 0 z M37.96 22.64 l0 0.08 c0.12 0.08 0.12 -0.16 0.04 -0.12 c0 0.04 0 0.04 -0.04 0.04 z M38.2 22.84 l0.08 0 l0 -0.12 l-0.08 0 l0 0.12 z M38.44 22.92 c0.24 0.08 0.08 -0.32 0 -0.12 c0.04 0 0 0.08 0 0.12 z M38.08 23.04 c0.08 0 0.12 -0.04 0.16 -0.12 c-0.08 0 -0.12 0.04 -0.16 0.12 z M37.76 23.32 c0.12 -0.08 -0.08 -0.32 -0.16 -0.16 c0.12 0 0.08 0.16 0.16 0.16 z M38.120000000000005 23.68 c0.16 0.08 0.16 -0.24 0.08 -0.24 c-0.04 0.08 -0.08 0.16 -0.08 0.24 z M37.56 23.56 c0.16 0.16 0.08 -0.16 0 0 l0 0 z M37.96 23.6 c0.04 0.2 0.04 -0.2 0 0 l0 0 z M37.480000000000004 23.84 c0.2 0.04 0 -0.16 0 0 l0 0 z M37.36 24.04 c-0.12 0.16 0.16 -0.12 0 0 l0 0 z M37.28 24.36 c0 -0.08 0.12 -0.04 0.08 -0.2 c-0.08 0 -0.2 0.2 -0.08 0.2 z M37.8 24.36 c0.2 0.04 0 -0.12 0 0 l0 0 z M37.52 24.48 l0.08 0 l0 -0.12 l-0.08 0 l0 0.12 z M37.120000000000005 24.64 c0.16 0.08 0.16 -0.2 0 -0.12 l0 0.12 z M37.04 24.8 c-0.24 0.2 0.16 0.24 0 0 l0 0 z M37.480000000000004 25.04 c0 0.04 -0.04 0 0 0 l0 0 z M36.8 25.68 c0.08 -0.12 0.16 -0.48 0.04 -0.56 c-0.04 0.24 -0.12 0.4 -0.04 0.56 z M37.4 25.32 c0.16 0.08 0.16 -0.2 0 -0.12 l0 0.12 z M35.92 26.560000000000002 c-0.32 0.04 -0.28 0.4 -0.48 0.56 c0.12 0.08 0.16 -0.12 0.36 0 c0.16 -0.64 0.68 -1.2 0.6 -1.64 c-0.24 0.36 -0.44 0.68 -0.48 1.08 z M37.28 25.759999999999998 c0 -0.08 0.08 -0.08 0.04 -0.2 c-0.16 -0.04 -0.2 0.2 -0.04 0.2 z M36.6 25.92 c0.16 0.16 0.08 -0.2 0 0 l0 0 z M37.160000000000004 25.92 c0.04 0 0 -0.04 0 0 l0 0 z M36.52 26.2 c0 -0.04 0 -0.08 0.04 -0.04 c0 -0.08 -0.04 -0.12 -0.12 -0.12 c0.04 0.08 0 0.16 0.08 0.16 z M37.08 26.240000000000002 c0.08 -0.08 0.08 -0.16 -0.04 -0.2 c0 0.08 -0.04 0.2 0.04 0.2 z M36.44 26.4 c0 -0.08 -0.04 -0.12 -0.08 -0.16 c0 0.08 0 0.16 0.08 0.16 z M36.84 26.64 c-0.12 0.16 0.16 -0.12 0 0 l0 0 z M32.8 26.68 c0.04 0.04 0 -0.04 0 0 l0 0 z M36.160000000000004 26.880000000000003 c0 -0.08 0.08 -0.12 0 -0.16 c0 0.04 -0.08 0.12 0 0.16 z M32.76 26.880000000000003 c0.2 0.04 0 -0.16 0 0 l0 0 z M35.92 27.2 l0.16 0 c0 -0.08 0 -0.16 -0.04 -0.2 c0 0.12 -0.16 0.08 -0.12 0.2 z M32.76 27.240000000000002 c0 -0.04 0.12 -0.16 0 -0.2 c0.04 0.12 -0.16 0.16 0 0.2 z M35.4 27.52 c0 -0.16 -0.2 0.04 0 0 c-0.12 0.44 -0.56 0.8 -0.64 1.16 c-0.12 0.04 -0.24 0.04 -0.24 0.2 c0.12 0.04 0.16 -0.16 0.2 0 c-0.12 0.08 -0.32 0.08 -0.32 0.28 c0.08 0 0.12 0 0.12 0.04 c-0.04 0.16 -0.24 0.2 -0.24 0.44 c-0.16 -0.12 -0.28 0.2 -0.16 0.36 c-0.04 0.04 -0.12 0.04 -0.2 0.04 c0.04 0.2 -0.08 0.28 -0.12 0.44 c0.2 -0.12 0.16 -0.44 0.44 -0.44 c0.4 -1.12 1.04 -1.76 1.44 -2.88 c-0.12 0 -0.16 0.16 -0.28 0.2 c-0.04 0.08 0.16 0.16 0 0.16 z M36.4 27.52 l0.16 0 c0 -0.04 0 -0.16 -0.12 -0.12 c0 0.04 0 0.08 -0.04 0.12 z M35.68 27.72 l-0.08 0 l0 0.12 c0.08 0 0.08 -0.04 0.08 -0.12 c0.12 0 0.16 -0.04 0.16 -0.12 c-0.12 -0.04 -0.16 0.04 -0.16 0.12 z M36.04 27.880000000000003 c-0.12 0.16 0.16 -0.12 0 0 l0 0 z M35.4 28.2 c0.12 -0.04 0.32 -0.24 0.16 -0.28 c-0.04 0.12 -0.16 0.16 -0.16 0.28 z M34.04 28.96 c-0.08 0.16 0.16 -0.08 0 0 l0 0 z M34.96 29.119999999999997 c0 -0.08 -0.04 -0.12 -0.08 -0.16 c0 0.08 0.04 0.12 0.08 0.16 z M33.64 29.759999999999998 c-0.08 0 0 0.04 0 0 c0.08 -0.08 0.2 -0.2 0.36 -0.2 c-0.16 -0.2 0.08 -0.32 0 -0.48 c-0.08 0.24 -0.28 0.4 -0.36 0.68 z M34.64 29.560000000000002 c0.12 0.04 0.2 -0.16 0.08 -0.2 c0.04 0.12 -0.08 0.08 -0.08 0.2 z M35.36 29.52 c0.2 0.04 0 -0.16 0 0 l0 0 z M35 29.92 l0.12 0 l0 -0.08 l-0.12 0 l0 0.08 z M34.480000000000004 30.04 c0 -0.08 0.08 -0.12 0 -0.16 c0 0.08 -0.08 0.12 0 0.16 z M35.2 30.28 c0 -0.08 -0.04 -0.12 -0.08 -0.16 c-0.08 0.08 -0.08 0.2 0.08 0.16 z M33.08 30.96 c0.04 -0.2 0.2 -0.28 0.32 -0.4 c-0.2 -0.04 0 -0.24 -0.12 -0.28 c0 0.24 -0.36 0.4 -0.2 0.68 z M34 30.48 c0.08 0.08 0.28 -0.04 0.36 -0.16 c-0.08 0 -0.12 -0.08 -0.2 -0.04 c0.04 0.16 -0.16 0.04 -0.16 0.2 z M33.72 30.6 c0.2 0.04 0 -0.12 0 0 l0 0 z M33.32 31.32 c0 -0.12 0.2 -0.16 0 -0.24 c0.04 0.08 -0.12 0.2 0 0.24 z M33.68 31.240000000000002 c0.04 0.04 -0.04 -0.04 0 0 l0 0 z M33.92 31.52 c0.12 -0.04 0.28 -0.04 0.28 -0.2 c-0.12 0.04 -0.32 0.04 -0.28 0.2 z M32.92 31.72 c0 0.04 -0.04 -0.04 0 0 l0 0 z M32.84 31.8 c0.08 0.2 0.08 -0.2 0 0 l0 0 z M33.52 32 c0.04 0 0.08 0.04 0.12 0.04 c0 -0.04 0.04 -0.04 0.04 -0.08 c-0.04 0 -0.08 -0.04 -0.12 -0.04 c0 0.04 -0.04 0.04 -0.04 0.08 z M30.92 32.2 c-0.12 0.16 0.08 0.36 0 0 c0.16 0 -0.04 -0.2 0 0 z M32.8 32.24 l0.12 0 l0 -0.08 l-0.12 0 l0 0.08 z M32.8 35.36 c0.96 -1.2 2.08 -2.2 3.28 -3.16 c-1.32 0.76 -2.68 1.8 -3.28 3.16 z M36.08 32.64 c0.08 0.16 0.12 -0.2 0 0 l0 0 z M35.24 33.2 c0.28 -0.08 0.52 -0.24 0.64 -0.48 c-0.24 0.12 -0.44 0.28 -0.64 0.48 z M32.6 33 c-0.12 0.16 0.2 0.16 0 0 l0 0 z M35.120000000000005 33.36 c0.04 0 -0.04 -0.04 0 0 l0 0 z M32.6 33.480000000000004 c-0.04 0.04 0.04 0.08 0 0 c0.16 0 -0.04 -0.2 0 0 z M32.92 33.519999999999996 c0 0.04 -0.04 0 0 0 l0 0 z M32.56 33.68 c0.04 0.04 0 0 0 0 l0 0 z M32.52 33.84 c0.08 -0.04 0 -0.08 0 0 c-0.04 -0.04 -0.04 -0.08 -0.08 -0.08 c-0.24 0.56 -0.52 1.28 -0.44 2 c0.24 -0.52 0.4 -1.44 0.52 -1.92 z M35.36 33.84 c0.04 0 -0.04 -0.04 0 0 l0 0 z M32.76 33.96 c0 -0.04 0.08 -0.08 0 -0.12 c0 0.04 -0.08 0.08 0 0.12 z M34.28 34.12 c-0.16 0 -0.16 0.16 -0.24 0.28 c-0.04 0.08 -0.2 0.04 -0.16 0.2 c0.12 0 0.16 -0.08 0.16 -0.2 c0.16 -0.04 0.2 -0.2 0.24 -0.28 c0.08 -0.08 0.4 -0.16 0.16 -0.24 c0.04 0.16 -0.2 0.04 -0.16 0.24 z M35.160000000000004 34 l0.08 0 l0 -0.08 l-0.08 0 l0 0.08 z M32.68 34.24 l0.16 0 c0.04 -0.12 -0.16 -0.08 -0.16 -0.16 l0 0.16 z M34.52 34.6 c0.08 0.16 0.12 -0.2 0 0 l0 0 z M31.6 34.84 c0.08 -0.08 0.08 -0.2 -0.04 -0.2 c-0.08 0.08 -0.08 0.16 0.04 0.2 z M33.68 34.84 c-0.48 0.2 -0.64 0.68 -0.92 1.04 c0.4 -0.24 0.56 -0.76 0.92 -1.04 c0.08 -0.04 0.12 -0.08 0.12 -0.16 c-0.08 0 -0.12 0.04 -0.12 0.16 z M31.16 36.72 c0.2 0.04 0.04 -0.16 0 0 c-0.12 -0.08 -0.2 0.2 -0.32 0.04 c0.12 -0.04 0.16 -0.16 0.28 -0.16 c-0.16 -0.2 0 -0.68 0.16 -0.84 c-0.32 -0.12 0.28 -0.28 -0.04 -0.4 c0.12 0 0.2 -0.28 0.08 -0.4 c-0.12 0.4 -0.4 0.6 -0.48 0.96 c0.12 0 0.2 0.04 0.2 0.12 c-0.08 0.04 0 0.24 -0.2 0.2 c0.04 -0.04 0.12 -0.24 -0.04 -0.2 c0.04 0.16 -0.04 0.2 -0.04 0.32 c0.12 -0.04 0.12 0.08 0.16 0.16 c-0.32 0.28 -0.2 0.88 -0.4 1.2 c0.28 -0.36 0.44 -0.8 0.64 -1 z M31.52 35.32 c0.12 0 0.12 -0.12 0.12 -0.2 c-0.12 0 -0.12 0.12 -0.12 0.2 z M31.560000000000002 35.56 c0.04 0.04 0 -0.04 0 0 l0 0 z M38.32 35.68 c0.08 0.16 0.12 -0.16 0 0 l0 0 z M31.84 35.84 c0.04 0.04 0 0 0 0 l0 0 z M31.400000000000002 35.88 c0.04 0.04 0 0 0 0 l0 0 z M38.24 36 c0.08 0.28 -0.2 0.44 -0.16 0.84 c-0.6 1.2 -1.56 2.68 -2.2 3.8 c0.36 -0.12 0.32 -0.72 0.72 -0.68 c0.04 -0.2 -0.12 0.08 -0.16 -0.08 c0.08 -0.08 0.12 -0.16 0.24 -0.16 c0.48 -1.16 1.56 -2.4 1.76 -3.84 c-0.04 0.08 -0.08 0.12 -0.2 0.12 z M31.240000000000002 36 c0.12 0.16 0.08 -0.2 0 0 l0 0 z M31.16 36.12 c0.08 0.16 0.12 -0.16 0 0 l0 0 z M31.48 36.16 c0.04 0.16 0.12 -0.16 0 0 l0 0 z M32.52 36.24 c0.04 0 0 -0.04 0 0 l0 0 z M31.96 36.48 c-0.28 -0.16 -0.16 0.32 0 0 l0 0 z M34.6 36.64 c-0.12 0.16 0.16 -0.08 0 0 l0 0 z M34.44 36.88 c-0.16 0.04 0.04 0.2 0 0 c0.16 0 -0.04 -0.2 0 0 z M37.4 36.96 c0.08 0.16 0.08 -0.2 0 0 l0 0 z M34.28 37.12 l0.12 0 l0 -0.08 l-0.12 0 l0 0.08 z M37.24 37.32 c0.04 0.16 0.12 -0.16 0 0 l0 0 z M37.120000000000005 37.52 c-0.12 0.16 0.16 -0.12 0 0 l0 0 z M33.96 37.72 c0.08 0.04 0.2 -0.12 0.08 -0.16 c0 0.08 -0.08 0.08 -0.08 0.16 z M35.8 39.84 c0.36 -0.68 1.04 -1.32 1.2 -2.08 c-0.32 0.76 -1 1.4 -1.2 2.08 z M33.76 38.16 c0.08 0.16 0.08 -0.2 0 0 l0 0 z M33.64 38.52 c-0.04 -0.04 0.16 -0.12 0.04 -0.2 c0 0.08 -0.2 0.16 -0.04 0.2 z M31.64 38.52 c0.04 0.04 0 0 0 0 l0 0 z M31.720000000000002 38.72 c0.04 0.2 0.04 -0.2 0 0 l0 0 z M33.480000000000004 38.76 c0.04 0.2 0.04 -0.2 0 0 l0 0 z M31.64 38.8 c-0.04 0 -0.04 -0.04 -0.12 -0.04 c-0.08 0.12 0.16 0.16 0.12 0.04 z M33.4 39 c0.04 0.16 0.12 -0.16 0 0 l0 0 z M31.36 39.28 c0.04 -0.08 0.16 -0.2 0 -0.24 c0 0.04 -0.12 0.24 0 0.24 z M33.28 39.16 c0.04 0.04 0 -0.04 0 0 l0 0 z M34.84 40.88 c0.28 -0.28 0.8 -0.56 0.76 -1 c-0.2 0.4 -0.56 0.64 -0.76 1 z M31.240000000000002 40.08 c0.2 0.04 0 -0.16 0 0 l0 0 z M30.88 40.48 c0.04 0.04 0 0 0 0 l0 0 z M30.76 40.68 c0 0.04 -0.04 0 0 0 l0 0 z M31.080000000000002 40.8 c0 -0.08 0.08 -0.12 0 -0.16 c0 0.04 -0.08 0.12 0 0.16 z M35.68 41.08 c0.08 -0.08 -0.04 -0.2 0.04 -0.36 c-0.2 -0.04 -0.16 0.32 -0.04 0.36 z M31.080000000000002 41.04 c0 -0.04 0 -0.08 0.04 -0.08 c0 -0.04 0 -0.08 -0.08 -0.08 c0 0.04 0 0.12 0.04 0.16 z M34.72 40.96 c0.04 0.04 0 0 0 0 l0 0 z M34.64 41.04 c0.04 0.16 0.04 -0.2 0 0 l0 0 z M30.88 41.8 c-0.08 0.04 -0.12 0.16 0 0.2 l0 -0.2 l0.04 0 c0.04 -0.24 0.12 -0.32 0.12 -0.6 c-0.16 0.08 -0.24 0.44 -0.16 0.6 z M30.6 41.92 c0.04 0.04 0 0 0 0 l0 0 z M30.8 42.32 c0.04 0.04 -0.04 0 0 0 l0 0 z M30.76 42.52 l0 0 c0.12 -0.16 -0.2 0.2 0 0 z M30.6 42.88 c0.2 0.08 0 -0.12 0 0 l0 0 z M30.64 43.04 c0.2 0.04 0 -0.16 0 0 l0 0 z M30.560000000000002 43.32 l0.08 0 l0 -0.08 l-0.08 0 l0 0.08 z M39.96 6.880000000000003 c-0.08 0.2 -0.24 0.28 -0.4 0.4 c0.12 -0.16 0.16 -0.36 0.4 -0.4 z M39.28 7.560000000000002 c-0.04 -0.12 0.12 -0.08 0.12 -0.2 c0.12 0.08 -0.04 0.2 -0.12 0.2 z M39.28 7.560000000000002 c-0.08 0.36 -0.4 0.52 -0.68 0.72 c0.04 -0.44 0.52 -0.44 0.68 -0.72 z M38.56 8.32 c0.04 0.2 -0.12 0.2 -0.12 0.32 c-0.16 -0.12 0 -0.32 0.12 -0.32 z M38.68 8.440000000000001 l0 0 c0 0.04 -0.04 -0.04 0 0 z M38.2 8.920000000000002 c0.04 -0.16 0.2 0.08 0.08 0.12 c-0.08 0 0 -0.12 -0.08 -0.12 z M39.24 8.920000000000002 c0.08 -0.16 0.12 0.2 0 0 l0 0 z M38.04 9 c0.16 -0.04 0.08 0.2 0.08 0.28 c-0.16 0.08 -0.04 -0.16 -0.08 -0.28 z M39.28 9.04 c-0.08 0.08 -0.04 0.32 -0.24 0.24 c0.04 -0.12 0.12 -0.2 0.24 -0.24 z M38.92 9.48 c0.08 0 0.08 0.28 -0.08 0.2 c0 -0.08 0.04 -0.12 0.08 -0.2 z M38.6 10.16 c0.04 -0.2 0.04 -0.36 0.24 -0.4 c0 0.2 -0.12 0.28 -0.24 0.4 z M38.6 10.16 c0 0.28 -0.16 0.4 -0.32 0.52 c0.12 -0.16 0.2 -0.4 0.32 -0.52 z M37.64 10.2 c0 0.08 -0.04 0.12 -0.12 0.12 c0 -0.08 0.04 -0.12 0.12 -0.12 z M37.4 10.559999999999999 l0 0 c0.04 0 0 -0.04 0 0 z M38.120000000000005 11.04 c0 -0.16 0.12 -0.12 0.12 -0.2 c0.08 0 0 0.24 -0.12 0.2 z M38.120000000000005 11.04 c0.04 0.16 -0.04 0.2 -0.08 0.32 c-0.12 -0.08 0.04 -0.24 0.04 -0.32 l0.04 0 z M37.84 11.52 c0.2 -0.04 0 0.32 -0.12 0.32 c-0.04 -0.16 0.12 -0.16 0.12 -0.32 z M37.76 12.239999999999998 c-0.04 0.16 -0.16 -0.04 -0.24 0 c0.08 -0.08 0.04 -0.2 0.2 -0.2 c-0.08 0.04 -0.08 0.16 0.04 0.2 z M36.4 12.239999999999998 l0 0 c0.04 0 0 -0.04 0 0 z M37.480000000000004 12.36 c0.04 0.12 -0.08 0.44 -0.16 0.6 c-0.2 -0.08 0.12 -0.44 0.16 -0.6 z M36.6 12.64 l0 0 c0.04 0.04 0 0 0 0 z M36.2 13 c0.08 -0.16 0.16 0.16 0 0 l0 0 z M36.120000000000005 13.2 c-0.04 0.08 -0.08 0.16 -0.2 0.16 c0 -0.12 0.08 -0.16 0.2 -0.16 z M36.08 13.84 c-0.04 -0.24 0.12 -0.04 0 0 l0 0 z M36.08 13.84 c0.04 0.2 -0.16 0.04 0 0 l0 0 z M35.92 14.04 c0.08 -0.16 0.16 0.16 0 0 l0 0 z M35.6 14.440000000000001 c0.08 0.04 0 0.08 0 0.12 c-0.08 0 0 -0.08 0 -0.12 z M35.44 14.719999999999999 c0.12 -0.2 0.08 0.16 0 0 l0 0 z M35.44 14.920000000000002 c0.08 -0.2 0.08 0.2 0 0 l0 0 z M35.24 15.239999999999998 c0.04 0 0.08 0.04 0.12 0.04 l0 0.12 l-0.2 0 c0 -0.08 0.08 -0.08 0.08 -0.16 z M35.08 15.920000000000002 c0.16 -0.12 -0.12 0.16 0 0 l0 0 z M36.120000000000005 15.96 c-0.12 0.2 -0.08 0.52 -0.32 0.6 c0.12 -0.28 0.04 -0.48 0.32 -0.6 z M34.92 16.2 c0.04 -0.2 0.04 0.2 0 0 l0 0 z M35 16.64 c0.08 -0.16 0.12 0.2 0 0 l0 0 z M35.72 16.72 c0.24 0.12 -0.12 0.4 -0.08 0.64 c-0.2 -0.08 0.08 -0.44 0.08 -0.64 z M34.64 17.12 l0 0 c-0.04 0.28 0 -0.2 0 0 z M34.4 17.8 c-0.2 0 -0.04 -0.4 0.08 -0.4 c0 0.16 0.04 0.24 0.04 0.36 c-0.08 0 -0.12 -0.16 -0.12 0.04 z M35.56 17.52 c0.04 -0.2 0.04 0.16 0 0 l0 0 z M34.4 17.8 c0.04 0 0.08 0.04 0.08 0.12 c-0.08 0.04 -0.12 -0.04 -0.08 -0.12 z M34.36 18.04 c0.04 -0.2 0.04 0.2 0 0 l0 0 z M34.160000000000004 18.04 c0.08 0.08 0.04 0.28 0.2 0.28 c-0.12 0.16 -0.16 -0.04 -0.32 0.16 c0.04 -0.16 0.04 -0.32 0.12 -0.44 z M34.24 18.52 c-0.04 0.16 -0.04 0.4 -0.28 0.36 c0 -0.2 0.16 -0.28 0.28 -0.36 z M34.24 19 c0 -0.16 0.2 0.04 0 0 l0 0 z M34 19 c-0.08 0.6 -0.28 1.28 -0.6 1.8 c0.08 -0.52 0.2 -1.04 0.48 -1.36 c0 -0.16 -0.04 -0.24 -0.08 -0.36 c0.04 -0.04 0.2 0 0.2 -0.08 z M34.6 20.56 c0.08 -0.08 -0.08 -0.4 0.12 -0.4 c-0.04 0.24 0.12 0.36 -0.12 0.4 z M34.6 20.56 c0 0.08 -0.08 0.04 0 0 l0 0 z M33.44 20.92 c0.08 -0.16 0.12 0.2 0 0 l0 0 z M33.24 21.36 l0 0 c0.04 0 0 -0.04 0 0 z M33 22.16 c0.24 0 0.08 0.36 -0.08 0.32 c-0.04 -0.16 0.08 -0.16 0.08 -0.32 z M32.92 22.68 c0.12 0.12 0.04 0.44 -0.2 0.48 c0.04 -0.28 0.04 -0.28 0.2 -0.48 z M32.56 23.92 l0.16 0 l0 0.2 c-0.12 0.04 -0.16 -0.04 -0.16 -0.2 z M32.52 24.4 c0.16 -0.04 0.08 0.16 0.04 0.2 c-0.04 0 -0.04 -0.12 -0.04 -0.2 z M32.44 24.72 c0.24 0.08 -0.08 0.28 -0.12 0.36 c-0.28 -0.12 0.16 -0.16 0.12 -0.36 z M32.24 25.6 c0 -0.12 0.2 0.08 0 0 l0 0 z M32.2 26 c0.12 0 0 0.16 0 0.2 c-0.12 0 -0.04 -0.16 0 -0.2 z M32.32 26.2 c0.08 -0.2 0.08 0.2 0 0 l0 0 z M32.2 26.32 c-0.36 0.6 -0.36 1.76 -0.68 2.16 c0.24 -0.68 0.04 -1.64 0.68 -2.16 z M32.32 26.560000000000002 c0 0.12 -0.12 0.16 -0.08 0.32 c-0.16 -0.04 -0.04 -0.28 0.08 -0.32 z M32.08 27.04 c0.12 -0.16 0.08 0.16 0 0 l0 0 z M31.880000000000003 27.96 c0.2 0.04 -0.04 0.28 0.08 0.24 c-0.16 0.16 -0.12 -0.16 -0.08 -0.24 z M31.48 28.560000000000002 c0.08 -0.04 0.04 0.2 -0.08 0.12 l0 -0.08 c0.04 0 0.08 -0.04 0.08 -0.04 z M31.76 28.68 l0 0 c0.04 0.04 -0.04 0 0 0 z M31.32 29.08 c0.12 0 0.08 0.2 -0.04 0.2 c0 -0.12 0.04 -0.12 0.04 -0.2 z M31.400000000000002 29.4 l0 0 c0.04 0.04 0 0 0 0 z M31.36 29.560000000000002 c0.08 -0.2 0.08 0.2 0 0 l0 0 z M31.28 29.8 c0.04 -0.2 0.04 0.2 0 0 l0 0 z M31.48 29.880000000000003 c0.04 -0.2 0.04 0.2 0 0 l0 0 z M31.400000000000002 30.28 c0.08 0.04 0.04 0.36 -0.08 0.32 c0.08 -0.04 0 -0.28 0.08 -0.32 z M31.12 30.880000000000003 c0.04 0.16 -0.08 0.12 -0.08 0.2 c-0.12 -0.04 -0.04 -0.24 0.08 -0.2 z M31.04 31.240000000000002 c0.04 -0.2 0.04 0.2 0 0 l0 0 z M30.88 31.36 l0 0 c0.04 0.04 0 0 0 0 z M30.92 31.52 c0.08 0.04 0.12 0.08 0.12 0.16 c-0.12 0 -0.08 -0.08 -0.12 -0.16 z M35.88 34.8 c0.16 -0.08 0.16 0.2 0 0.12 l0 -0.12 z M35.6 35.12 c0 -0.16 0.2 0.04 0 0 l0 0 z M35.44 35.2 c0.08 0.04 0.04 0.12 0.12 0.12 c-0.04 0.12 -0.24 -0.04 -0.12 -0.12 z M35.44 35.4 c0.12 0.08 0 0.32 -0.12 0.28 c0 -0.12 0.12 -0.16 0.12 -0.28 z M31.12 35.56 l0 0 c0.04 0.04 0 -0.04 0 0 z M35.120000000000005 36.04 l0 0.12 l-0.12 0 c-0.04 -0.04 -0.04 -0.12 0.12 -0.12 z M31.48 42.04 c0.12 -0.08 0.12 0.2 0 0.12 l0 -0.12 z M52 31.6 c-0.16 -0.12 -0.36 -0.24 -0.56 -0.32 c-1.28 0.52 -2.16 1.64 -3.28 2.08 c-0.08 0.36 -0.24 0.64 -0.56 0.72 c-1.2 1.68 -2.4 3.32 -3.36 5.2 c-0.12 0.92 -0.56 1.48 -1.32 1.76 c-2 -0.92 -0.84 -4.08 -0.64 -5.88 c0.4 -0.92 0.44 -2.32 0.88 -3.04 c1.76 0.4 1.04 2.28 0.84 3.56 c0.92 -1.4 2.08 -2.56 3.24 -3.76 c1.08 -0.92 3.8 -2.2 4.76 -0.32 z M49.04 31.32 c0.28 0.04 0.28 -0.2 0.48 -0.12 c-0.12 -0.28 0.32 -0.04 0.36 -0.32 c-0.28 0.08 -0.52 0.12 -0.64 0.08 c-2.2 1.28 -3.96 3.36 -5.16 5.6 c1.4 -2 2.92 -3.88 4.96 -5.24 z M50 30.92 c0.04 0.04 -0.04 0 0 0 l0 0 z M50.2 31.28 c0 0.08 -0.04 0.12 -0.08 0.16 c0.16 -0.04 0.36 -0.04 0.4 -0.24 c-0.12 0.04 -0.2 0.08 -0.32 0.08 z M49.8 31.64 c0.16 0 0.2 -0.12 0.28 -0.2 c-0.16 -0.08 -0.4 0 -0.28 0.2 z M48.68 32.24 c0.36 -0.04 0.6 -0.48 0.92 -0.48 c-0.04 -0.12 0.16 -0.28 -0.04 -0.24 c-0.24 0.28 -0.64 0.44 -0.88 0.72 z M49.24 32.08 c-0.12 0.16 0.16 -0.12 0 0 l0 0 z M48.36 32.56 c0.12 -0.08 0.28 -0.12 0.32 -0.28 c-0.12 0.08 -0.44 0.12 -0.32 0.28 z M47.84 33.24 c0.08 -0.16 0.32 -0.2 0.32 -0.44 l-0.12 0 c0.04 0.24 -0.36 0.28 -0.2 0.44 z M47.44 33.56 c0 0 0 -0.04 0.04 -0.04 c0 -0.04 0 -0.12 -0.08 -0.08 c0 0.04 0 0.12 0.04 0.12 z M49.04 31.32 c-0.04 0 -0.08 -0.04 0 -0.04 l0 0.04 z M47.64 32.16 l0 0 c0.04 0.04 -0.04 0 0 0 z M42.04 33.24 c0 -0.16 0.2 0.04 0 0 l0 0 z"></path>
		</g>
	</g>
</svg>
