<svg
	version="1.0"
	xmlns="http://www.w3.org/2000/svg"
	width="371.000000pt"
	height="133.000000pt"
	viewBox="0 0 371.000000 133.000000"
	preserveAspectRatio="xMidYMid meet"
>
	<g
		transform="translate(0.000000,133.000000) scale(0.100000,-0.100000)"
		fill="#353535"
		stroke="none"
	>
		<path d="M1382 1318 c-9 -9 -12 -89 -12 -299 0 -158 3 -294 6 -303 7 -19 94 -22 112 -4 17 17 17 589 0 606 -7 7 -30 12 -53 12 -23 0 -46 -5 -53 -12z"></path>
		<path d="M1901 1316 c-7 -8 -11 -34 -9 -58 l3 -43 235 0 235 0 0 55 0 55 -226 3 c-187 2 -228 0 -238 -12z"></path>
		<path d="M2424 1316 c-3 -7 -4 -33 -2 -57 l3 -44 64 -3 c45 -2 67 1 72 10 13 20 11 82 -3 96 -17 17 -127 16 -134 -2z"></path>
		<path d="M2632 1318 c-17 -17 -17 -599 0 -616 16 -16 90 -16 106 0 9 9 12 80 12 260 l0 247 98 3 97 3 3 43 c5 69 -1 72 -162 72 -97 0 -146 -4 -154 -12z"></path>
		<path d="M3316 1315 c-84 -30 -126 -86 -126 -169 0 -94 59 -144 220 -185 150 -39 186 -63 161 -110 -6 -11 -28 -25 -48 -32 -54 -17 -63 -27 -63 -68 0 -55 11 -65 60 -57 113 18 180 89 180 190 0 90 -69 144 -245 190 -111 30 -145 47 -145 76 0 22 45 60 70 60 21 0 30 19 30 64 0 56 -24 66 -94 41z"></path>
		<path d="M3472 1318 c-7 -7 -12 -32 -12 -56 0 -39 3 -44 33 -57 38 -16 63 -42 69 -70 3 -16 12 -21 53 -23 36 -2 52 1 61 13 16 22 2 77 -30 119 -39 51 -150 98 -174 74z"></path>
		<path d="M295 1071 l-290 -167 -3 -138 c-2 -129 -1 -138 15 -132 10 4 142 79 294 167 l276 159 286 -165 c158 -91 289 -165 292 -165 3 0 5 62 5 138 l0 137 -227 130 c-125 72 -256 147 -292 167 l-66 37 -290 -168z"></path>
		<path d="M1897 1063 c-13 -12 -7 -90 7 -102 9 -8 75 -11 217 -9 l204 3 3 58 3 57 -214 0 c-117 0 -217 -3 -220 -7z"></path>
		<path d="M3177 913 c-13 -12 -7 -58 12 -100 23 -50 83 -96 147 -112 59 -15 74 -4 74 56 0 41 -2 45 -37 60 -51 20 -71 39 -78 74 -6 28 -9 29 -59 29 -29 0 -56 -3 -59 -7z"></path>
		<path d="M295 681 l-290 -168 -3 -84 -3 -84 47 -28 c26 -15 53 -26 60 -23 8 3 116 65 242 137 125 72 230 133 233 135 3 2 116 -60 250 -137 l244 -141 45 25 45 26 0 88 0 88 -230 133 c-126 74 -257 149 -290 167 l-60 34 -290 -168z"></path>
		<path d="M1554 806 c-3 -7 -4 -33 -2 -57 l3 -44 119 -3 c89 -2 121 1 128 10 12 20 10 82 -4 96 -18 18 -237 17 -244 -2z"></path>
		<path d="M1901 806 c-7 -8 -11 -34 -9 -58 l3 -43 235 0 235 0 0 55 0 55 -226 3 c-187 2 -228 0 -238 -12z"></path>
		<path d="M1543 574 c-158 -56 -222 -299 -120 -451 37 -55 111 -104 159 -106 l33 -2 0 49 c0 47 -2 50 -40 71 -58 33 -85 84 -85 166 0 78 21 117 88 162 39 26 42 32 42 72 0 30 -5 45 -16 49 -9 3 -16 6 -17 5 -1 0 -21 -7 -44 -15z"></path>
		<path d="M1677 583 c-4 -3 -7 -26 -7 -50 0 -38 3 -45 28 -53 53 -20 73 -34 93 -67 19 -30 25 -33 69 -33 27 0 51 4 55 10 9 15 -19 73 -56 115 -49 55 -158 102 -182 78z"></path>
		<path d="M2157 576 c-166 -60 -236 -279 -140 -435 35 -55 100 -107 154 -121 58 -16 69 -9 69 45 0 44 -1 46 -42 64 -76 33 -108 84 -108 171 0 87 32 138 108 171 43 19 43 19 40 66 -3 55 -17 62 -81 39z"></path>
		<path d="M2297 584 c-4 -4 -7 -27 -7 -51 0 -42 2 -44 43 -62 75 -33 107 -84 107 -171 0 -87 -32 -138 -108 -171 -43 -19 -43 -19 -40 -66 l3 -48 39 2 c76 5 158 72 200 163 28 62 28 178 0 240 -28 60 -67 105 -118 134 -44 26 -107 42 -119 30z"></path>
		<path d="M2654 577 c-3 -8 -4 -32 -2 -53 l3 -39 147 -5 c128 -4 150 -8 174 -26 57 -42 69 -69 69 -153 0 -69 -3 -81 -28 -114 -15 -20 -38 -42 -50 -49 -13 -8 -80 -15 -167 -18 l-145 -5 -3 -38 c-6 -66 3 -70 168 -65 126 4 151 7 192 27 167 81 207 332 75 469 -64 67 -95 76 -269 80 -133 3 -159 1 -164 -11z"></path>
		<path d="M3266 574 c-8 -22 -7 -67 2 -82 7 -9 57 -12 218 -10 l209 3 0 50 0 50 -211 3 c-187 2 -212 0 -218 -14z"></path>
		<path d="M393 341 c-100 -59 -184 -109 -187 -112 -3 -3 48 -36 114 -73 l120 -68 73 42 72 42 50 -28 c28 -15 61 -34 75 -42 24 -14 31 -12 144 53 64 37 114 71 109 76 -13 13 -372 219 -380 218 -5 -1 -90 -49 -190 -108z"></path>
		<path d="M3271 346 c-7 -8 -11 -32 -9 -53 l3 -38 200 0 200 0 3 38 c6 66 1 67 -203 67 -146 0 -185 -3 -194 -14z"></path>
		<path d="M1791 184 c-15 -25 -36 -42 -72 -57 l-50 -21 3 -46 c3 -39 6 -45 27 -48 61 -9 162 61 202 139 27 53 17 69 -41 69 -45 0 -50 -3 -69 -36z"></path>
		<path d="M3267 114 c-12 -12 -8 -79 5 -92 14 -14 394 -17 416 -3 9 5 12 24 10 52 l-3 44 -211 3 c-115 1 -213 -1 -217 -4z"></path>
	</g>
</svg>
