<svg
	version="1.0"
	xmlns="http://www.w3.org/2000/svg"
	width="407.8295288085937"
	height="116.59761142555945"
	viewBox="0 0 370 105.78222806349164"
>
	<g fill="#353535">
		<g transform="matrix(1.1771630793692363,0,0,1.1771630793692363,-8.85815284583162,-5.967039936715988)">
			<path d="M92.475,18.308l-2.869-8.676l-6.407-4.563L70.92,12.955l-0.049-0.079l-7.224-3.309L50,7.024v1.697l12.875,2.869 l6.578,3.358L83.78,37.895l4.654,12.83l-5.34,19.302l-15.053,8.891l-4.454,1.558l3.281-8.75v-5.929l5.873,0.095l4.407-4.06 l0.278-8.71l-2.868-2.835l-6.087-8.327l-6.795,2.514l-1.092,0.539l-0.709,9.33l-4.193-1.569l-5.682-0.439l0,0H50h-0.004l0,0 L44.7,52.806l-4.577,1.558l-0.71-9.352l-1.092-0.539l-6.795-2.514l-6.088,8.327l-2.868,2.835l0.28,8.71l4.409,4.06l5.871-0.095 v5.929l3.282,8.75l-4.453-1.558l-15.054-8.891l-5.34-19.302l4.655-12.83l14.327-22.945l6.577-3.358l12.876-2.869V7.024 L36.352,9.567l-7.226,3.309l-0.048,0.079L17.589,5.069l-7.196,4.563l-2.868,8.676l1.4,9.867l5.802,8.484L9.449,50.181l4.794,21.519 l35.664,23.112v0.119L50,94.87l0.092,0.061v-0.119l35.665-23.112l4.793-21.519l-5.279-13.521l5.804-8.484L92.475,18.308z M50,86.662l-5.942-1.35l-5.723-5.983l3.933,1.816l5.36-0.243l2.372-1.403v-3.508v-5.306l-5.263,0.033l-2.855,0.647l-2.518-2.31 l2.518,5.354l7.515,1.466v1.997l-7.165,1.768l-4.131-0.558l-0.061-0.063l-3.086-7.602l-0.21-5.197l5.162-10.24l4.756-2.347 l5.337-0.769L50,52.802v0.064l5.724,0.735l4.368,2.38l5.162,10.24l-0.21,5.197l-3.086,7.602l-0.061,0.063l-4.131,0.558 l-7.164-1.768v-1.997l7.514-1.466l2.52-5.354l-2.52,2.31l-2.854-0.647L50,70.686v5.306v3.508l2.37,1.403l5.361,0.243l3.932-1.816 l-5.722,5.983L50,86.662z"></path>
		</g>
		<g transform="matrix(5.2565183522560295,0,0,5.2565183522560295,115.7947855688455,-28.539107607032904)">
			<path d="M4.16 15.1 l0 -2.52 l1.58 0 l0.38 -0.38 l0 -3.3 l-0.38 -0.38 l-1.58 0 l0 -2.52 l2.62 0 l1.86 1.86 l0 5.38 l-1.86 1.86 l-2.62 0 z M0.8 20 l0 -4.06 l2.52 0 l0 4.06 l-2.52 0 z M0.8 15.1 l0 -9.1 l2.52 0 l0 9.1 l-2.52 0 z M9.84 20 l1.14 -5.6 l4.28 0 l-0.86 -4.28 l-0.68 3.44 l-2.58 0 l1.52 -7.56 l3.48 0 l2.2 10.92 l-5.3 0 l-0.62 3.08 l-2.58 0 z M16.4 20 l-0.46 -2.24 l2.58 0 l0.44 2.24 l-2.56 0 z M25.64 20 l-5.48 -14 l2.72 0 l2.92 7.48 l0 -7.48 l2.52 0 l0 14 l-2.68 0 z M20.2 20 l0 -11.6 l2.52 6.42 l0 5.18 l-2.52 0 z M33.28 20 l0 -2.52 l1.86 0 l0.38 -0.38 l0 -8.2 l-0.38 -0.38 l-1.86 0 l0 -2.52 l2.9 0 l1.86 1.86 l0 10.28 l-1.86 1.86 l-2.9 0 z M29.919999999999998 20 l0 -14 l2.52 0 l0 14 l-2.52 0 z M39.239999999999995 20 l1.14 -5.6 l4.28 0 l-0.86 -4.28 l-0.68 3.44 l-2.58 0 l1.52 -7.56 l3.48 0 l2.2 10.92 l-5.3 0 l-0.62 3.08 l-2.58 0 z M45.8 20 l-0.46 -2.24 l2.58 0 l0.44 2.24 l-2.56 0 z"></path>
		</g>
		<g transform="matrix(1.2013743872575415,0,0,1.2013743872575415,144.51945041695495,79.79175482217465)">
			<path d="M7.48 20 l-0.4 -2.56 l1.28 -8.18 l0.74 4.8 l1.26 -8.06 l2.56 0 l-2.18 14 l-3.26 0 z M2.58 20 l-2.18 -14 l2.56 0 l2.18 14 l-2.56 0 z M5.9 19.52 l-1.26 -8.18 l0.82 -5.34 l2.4 0 l0.08 0.54 z M23.064000000000004 14.26 l0 -8.26 l2.52 0 l0 8.26 l-2.52 0 z M23.064000000000004 20 l0 -4.9 l2.52 0 l0 4.9 l-2.52 0 z M26.424000000000003 20 l0 -2.52 l3.5 0 l0 2.52 l-3.5 0 z M26.424000000000003 14.26 l0 -2.52 l2.38 0 l0 2.52 l-2.38 0 z M26.424000000000003 8.52 l0 -2.52 l3.5 0 l0 2.52 l-3.5 0 z M43.828 20 l0 -2.52 l1.44 0 l0.38 -0.38 l0 -2.04 l-0.8 -0.8 l-1.02 0 l0 -2.52 l1.02 0 l0.8 -0.8 l0 -2.04 l-0.38 -0.38 l-1.44 0 l0 -2.52 l2.48 0 l1.86 1.86 l0 4.12 l-1.02 1.02 l1.02 1.02 l0 4.12 l-1.86 1.86 l-2.48 0 z M40.468 20 l0 -4.9 l2.52 0 l0 4.9 l-2.52 0 z M40.468 14.26 l0 -8.26 l2.52 0 l0 8.26 l-2.52 0 z M73.316 14.26 l-1.86 -1.86 l0 -4.54 l1.86 -1.86 l1.64 0 l0 2.52 l-0.6 0 l-0.38 0.38 l0 2.46 l0.38 0.38 l3.08 0 l1.86 1.86 l0 0.66 l-5.98 0 z M73.316 20 l-1.86 -1.86 l0 -2.62 l2.52 0 l0 1.58 l0.38 0.38 l2.04 0 l0.38 -0.38 l0 -2 l2.52 0 l0 3.04 l-1.86 1.86 l-4.12 0 z M76.77600000000001 10.48 l0 -1.58 l-0.38 -0.38 l-0.6 0 l0 -2.52 l1.64 0 l1.86 1.86 l0 2.62 l-2.52 0 z M92.5 20 l0 -10.64 l2.52 0 l0 10.64 l-2.52 0 z M89.84 8.52 l0 -2.52 l7.84 0 l0 2.52 l-7.84 0 z M112.70400000000001 20 l0 -2.52 l0.74 0 l0.38 -0.38 l0 -11.1 l2.52 0 l0 12.14 l-1.86 1.86 l-1.78 0 z M110.084 20 l-1.86 -1.86 l0 -12.14 l2.52 0 l0 11.1 l0.38 0.38 l0.74 0 l0 2.52 l-1.78 0 z M130.24800000000002 20 l0 -2.52 l1.86 0 l0.38 -0.38 l0 -8.2 l-0.38 -0.38 l-1.86 0 l0 -2.52 l2.9 0 l1.86 1.86 l0 10.28 l-1.86 1.86 l-2.9 0 z M126.888 20 l0 -14 l2.52 0 l0 14 l-2.52 0 z M145.55200000000002 12.58 l0 -6.58 l2.52 0 l0 6.58 l-2.52 0 z M145.55200000000002 20 l0 -6.58 l2.52 0 l0 6.58 l-2.52 0 z M163.17600000000002 20 l0 -2.52 l0.8 0 l0.38 -0.38 l0 -8.2 l-0.38 -0.38 l-0.8 0 l0 -2.52 l1.84 0 l1.86 1.86 l0 10.28 l-1.86 1.86 l-1.84 0 z M160.476 20 l-1.86 -1.86 l0 -10.28 l1.86 -1.86 l1.84 0 l0 2.52 l-0.8 0 l-0.38 0.38 l0 8.2 l0.38 0.38 l0.8 0 l0 2.52 l-1.84 0 z"></path>
		</g>
	</g>
</svg>
