<?xml version="1.0" standalone="no"?>
<!DOCTYPE svg PUBLIC "-//W3C//DTD SVG 20010904//EN" "http://www.w3.org/TR/2001/REC-SVG-20010904/DTD/svg10.dtd">
<svg
	version="1.0"
	xmlns="http://www.w3.org/2000/svg"
	width="630.000000pt"
	height="630.000000pt"
	viewBox="0 0 630.000000 630.000000"
	preserveAspectRatio="xMidYMid meet"
>
<g transform="translate(0.000000,630.000000) scale(0.100000,-0.100000)" fill="blue" stroke="none">
	<path d="M0 3150 l0 -3150 3150 0 3150 0 0 3150 0 3150 -3150 0 -3150 0 0
	-3150z m3100 2145 c33 -12 35 -15 34 -56 -1 -24 -5 -81 -9 -126 -9 -94 -3
	-107 51 -118 19 -3 44 -15 55 -26 23 -23 26 -81 4 -99 -8 -7 -59 -14 -119 -17
	-112 -6 -158 4 -177 38 -6 11 -8 100 -7 219 3 190 4 199 23 203 29 5 104 -4
	145 -18z m419 -20 c144 -38 174 -54 169 -94 -3 -25 -6 -26 -83 -31 -73 -5 -81
	-7 -94 -32 -13 -22 -13 -29 -2 -42 7 -9 24 -16 36 -16 32 0 75 -37 75 -65 0
	-36 -23 -48 -72 -38 -24 5 -49 8 -56 5 -22 -7 -12 -32 16 -38 71 -15 97 -29
	100 -57 4 -35 -18 -40 -156 -35 -188 7 -201 27 -160 246 14 75 24 152 21 170
	-6 39 10 62 46 62 14 0 86 -16 160 -35z m-929 -70 c36 -18 56 -43 81 -100 18
	-42 21 -61 17 -136 -7 -113 -24 -144 -100 -183 -45 -22 -75 -29 -140 -33 -103
	-5 -133 10 -172 88 -23 46 -26 65 -26 149 0 128 29 207 84 231 29 12 224 1
	256 -16z m1325 -17 c179 -43 262 -87 239 -126 -15 -25 -74 -52 -112 -52 -30 0
	-35 -5 -58 -55 -14 -30 -35 -93 -46 -139 -15 -62 -26 -87 -39 -91 -30 -10
	-100 15 -131 45 -45 45 -39 88 33 269 13 31 12 35 -5 45 -40 23 -56 46 -56 81
	0 28 5 38 23 44 24 10 31 9 152 -21z m-1817 -87 c7 -4 26 -44 41 -87 15 -44
	51 -124 79 -178 29 -55 52 -107 52 -117 0 -10 -12 -26 -26 -35 -32 -21 -120
	-45 -139 -38 -8 3 -20 24 -28 47 -16 48 -46 60 -78 31 -24 -22 -19 -50 16
	-102 19 -28 21 -38 12 -53 -23 -37 -120 -76 -159 -63 -13 4 -45 58 -99 167
	-44 89 -84 166 -89 171 -21 21 -7 35 74 70 47 20 89 36 95 36 15 0 49 -48 56
	-80 8 -35 26 -43 54 -24 30 21 26 52 -14 111 -19 29 -35 59 -35 66 0 22 77 70
	123 78 23 3 44 7 47 8 3 0 11 -3 18 -8z m2246 -76 c26 -26 41 -92 26 -110 -16
	-20 -103 -45 -156 -45 -33 0 -45 5 -58 25 -27 41 -20 54 47 84 34 16 71 36 82
	45 25 20 40 20 59 1z m268 -155 c53 -15 138 -135 138 -196 0 -32 -55 -90 -94
	-100 -40 -10 -71 24 -70 76 1 32 -2 40 -16 40 -33 0 -32 -43 1 -114 53 -113
	22 -175 -81 -163 -78 9 -144 50 -207 129 -33 41 -44 90 -22 103 20 13 54 -5
	78 -40 13 -19 30 -35 37 -35 17 0 17 1 -2 61 -36 109 6 191 117 230 63 22 72
	22 121 9z m-3135 -232 c7 -6 9 -29 6 -67 -4 -40 0 -84 12 -132 16 -63 26 -81
	68 -126 60 -64 59 -87 -7 -133 -60 -40 -87 -38 -149 10 -27 22 -60 42 -71 45
	-12 2 -58 12 -103 21 -147 30 -178 71 -108 141 38 38 28 37 159 17 36 -6 38
	-5 31 12 -4 11 -10 47 -13 81 -6 88 21 125 103 143 31 7 52 3 72 -12z m3637
	-222 c49 -20 83 -73 106 -161 24 -94 25 -119 4 -136 -21 -18 -43 -3 -72 50
	-36 64 -59 75 -126 60 -112 -25 -196 -95 -137 -114 34 -11 60 4 81 46 23 44
	36 48 73 19 33 -26 97 -123 97 -148 0 -60 -155 -106 -229 -68 -15 8 -45 34
	-67 58 -156 170 -124 329 81 394 54 17 148 17 189 0z m-2667 -145 c87 -12 114
	-25 181 -88 75 -71 68 -103 -15 -68 -79 33 -105 11 -117 -100 -3 -33 -10 -82
	-15 -110 -6 -27 -10 -99 -10 -160 l-1 -110 73 -64 c169 -149 188 -171 238
	-277 26 -55 54 -106 62 -112 18 -15 21 -11 66 78 48 94 70 120 168 196 111 85
	197 136 217 128 37 -14 5 -74 -38 -74 -24 0 -150 -77 -223 -136 -26 -22 -58
	-65 -88 -120 -58 -105 -57 -131 3 -255 100 -206 122 -278 107 -355 -11 -60
	-29 -34 -36 52 -4 43 -12 93 -19 109 -11 29 -12 29 -26 11 -11 -15 -13 -54
	-11 -177 2 -139 0 -160 -15 -176 -26 -25 -35 -11 -68 113 -26 96 -30 126 -30
	249 0 132 -2 147 -37 264 -27 90 -52 149 -89 210 -63 105 -83 115 -77 39 5
	-61 23 -244 30 -302 3 -22 0 -64 -8 -94 -12 -52 -12 -57 14 -106 17 -33 28
	-70 29 -106 3 -54 2 -55 -26 -58 -39 -5 -50 9 -56 71 l-5 52 -80 53 c-107 71
	-146 91 -229 115 -96 28 -248 27 -366 -2 -97 -25 -236 -79 -252 -98 -21 -26 6
	-33 49 -13 27 12 78 21 150 25 96 6 120 4 213 -18 241 -58 320 -71 350 -60 34
	13 40 9 40 -29 0 -19 10 -36 33 -55 76 -64 167 -163 173 -188 9 -37 -6 -59
	-43 -63 -25 -3 -35 3 -53 29 -28 39 -218 165 -268 178 -20 6 -71 16 -113 24
	-74 14 -80 13 -235 -18 -278 -57 -293 -63 -441 -197 -42 -37 -83 -50 -83 -25
	0 23 27 112 43 143 9 17 37 56 62 85 80 93 104 159 56 159 -17 0 -48 -39 -107
	-136 -6 -10 -15 -14 -22 -10 -21 13 -13 69 19 130 30 58 31 59 15 100 -26 68
	-20 135 21 244 44 115 57 227 28 238 -36 14 -66 -30 -173 -251 -97 -204 -106
	-226 -113 -300 -4 -44 -12 -109 -18 -145 -5 -36 -13 -146 -16 -245 -3 -99 -10
	-200 -14 -225 -28 -148 -43 -208 -67 -257 -14 -31 -34 -74 -44 -97 -11 -23
	-30 -53 -43 -67 -38 -42 -269 -220 -280 -216 -26 8 -13 28 56 80 41 32 110 95
	154 140 72 75 83 92 107 163 66 191 76 264 75 503 0 115 2 214 5 220 4 5 8 50
	11 98 8 157 16 206 47 268 76 150 219 345 294 400 100 72 99 69 85 187 -18
	159 -19 411 -2 431 11 14 35 17 142 17 70 0 130 -4 134 -9 11 -19 -17 -102
	-41 -118 -32 -20 -53 -11 -47 20 6 33 -25 44 -65 23 -24 -12 -36 -35 -72 -126
	-39 -102 -41 -115 -32 -153 6 -23 13 -66 16 -96 3 -30 11 -58 17 -62 7 -4 53
	14 106 42 61 32 106 49 129 49 19 0 66 5 104 11 56 10 80 9 137 -4 98 -23 219
	-40 237 -34 11 4 16 28 19 94 2 48 12 131 21 183 9 52 14 105 11 117 -3 12
	-38 48 -78 81 -81 66 -107 82 -135 82 -28 0 -46 24 -29 39 26 21 92 40 122 36
	17 -3 62 -9 102 -14z m1609 -5 c80 -27 164 -80 164 -103 0 -12 -6 -14 -27 -8
	-16 4 -72 10 -126 12 -109 5 -153 -4 -326 -62 -127 -43 -215 -58 -290 -49 -57
	6 -58 6 -70 -25 -18 -42 -19 -232 -2 -301 28 -117 29 -117 194 -101 151 15
	448 14 583 -1 60 -7 153 -13 207 -12 82 1 102 4 125 21 22 17 27 28 25 61 -1
	32 3 42 21 51 27 15 56 61 56 89 0 11 -7 33 -15 48 -17 33 -20 70 -6 79 6 3
	15 -4 21 -15 17 -31 36 -24 54 21 17 43 36 44 36 3 0 -35 -83 -233 -138 -327
	l-46 -80 27 -21 c15 -12 53 -35 84 -51 74 -38 248 -170 336 -255 38 -36 108
	-121 155 -189 48 -68 121 -169 162 -225 121 -162 140 -193 173 -279 30 -78 31
	-90 32 -222 l0 -140 -42 -70 c-53 -88 -134 -171 -247 -255 -112 -83 -116 -84
	-129 -71 -8 8 18 41 101 124 107 107 114 116 160 222 55 122 66 173 67 290 l0
	80 -65 109 c-36 60 -99 148 -141 195 -69 79 -148 185 -241 321 -20 30 -73 91
	-116 135 -84 86 -243 202 -261 191 -6 -4 -11 -27 -11 -52 0 -32 -7 -56 -25
	-82 -23 -34 -25 -46 -25 -149 0 -102 -2 -114 -22 -132 l-21 -20 27 -93 c44
	-154 73 -418 46 -418 -20 0 -9 -35 30 -101 41 -69 48 -93 30 -104 -18 -11 -50
	16 -108 93 -34 45 -72 84 -92 94 -120 60 -229 108 -245 108 -11 0 -54 7 -95
	16 -69 14 -86 14 -207 -1 -72 -9 -170 -27 -217 -39 -72 -20 -94 -31 -144 -74
	-33 -28 -65 -58 -72 -67 -16 -19 -59 -20 -66 0 -10 24 31 76 120 155 47 41 89
	83 92 94 4 13 9 15 17 7 15 -15 53 -14 86 4 32 16 176 49 261 60 46 6 69 2
	129 -19 41 -14 82 -26 92 -26 9 0 43 -13 74 -30 74 -39 112 -40 121 -3 14 54
	-9 68 -192 118 -121 33 -140 36 -235 32 -102 -4 -258 -33 -311 -57 -15 -7 -30
	-21 -33 -32 -7 -20 -20 -24 -30 -8 -18 29 -84 -23 -112 -87 -9 -22 -20 -33
	-33 -33 -17 0 -20 7 -20 39 0 41 25 86 86 153 49 55 59 118 22 142 -30 19 -71
	-33 -78 -96 -4 -38 -9 -53 -20 -53 -12 0 -16 21 -22 100 -3 55 -11 129 -17
	165 -6 36 -11 87 -11 113 0 43 5 53 45 96 47 50 57 81 28 81 -9 0 -27 -9 -39
	-21 -12 -12 -27 -18 -33 -14 -17 10 -13 41 14 105 30 71 34 191 10 335 -18
	113 -19 195 -1 263 17 64 31 82 62 82 28 0 198 69 344 139 93 45 112 51 170
	51 42 0 89 -8 136 -24z m-2965 -16 c28 -15 24 -52 -12 -116 l-32 -56 26 -26
	27 -26 43 42 c45 44 75 52 101 26 22 -21 20 -35 -9 -74 -24 -33 -33 -70 -17
	-70 4 0 25 21 46 46 30 36 43 45 64 42 40 -4 40 -43 1 -120 -48 -96 -85 -144
	-123 -162 -34 -16 -37 -16 -83 8 -26 13 -82 51 -124 84 -42 33 -98 71 -125 84
	-26 13 -49 28 -51 34 -6 19 79 136 157 217 41 42 79 77 83 77 5 0 17 -5 28
	-10z m4346 -265 c45 -19 59 -47 78 -158 19 -114 13 -146 -38 -194 -64 -61
	-112 -78 -219 -78 -97 0 -97 0 -132 34 -37 36 -67 96 -87 174 -22 89 17 157
	116 203 93 43 206 50 282 19z m-4599 -143 c51 -35 106 -62 266 -131 48 -21 49
	-21 43 -60 -6 -45 -60 -131 -83 -131 -8 0 -33 9 -56 21 -35 18 -43 19 -55 7
	-7 -8 -15 -28 -16 -44 -2 -27 2 -30 47 -45 62 -21 76 -39 66 -84 -9 -42 -45
	-101 -66 -109 -29 -11 -45 -6 -187 58 -78 36 -155 68 -170 72 -16 3 -31 13
	-34 22 -9 23 63 161 91 173 20 9 32 7 71 -17 46 -26 48 -27 61 -9 17 23 18 49
	2 62 -7 6 -38 18 -68 28 -83 26 -92 49 -52 130 13 27 70 95 80 95 1 0 29 -17
	60 -38z m4829 -281 c48 -71 53 -164 10 -180 -12 -5 -58 -13 -102 -20 -44 -6
	-99 -21 -123 -32 -23 -12 -48 -19 -56 -16 -24 9 -35 112 -16 147 14 26 85 66
	142 80 25 7 57 23 69 36 29 31 47 28 76 -15z m-362 -128 c39 -38 45 -101 15
	-150 -26 -43 -52 -42 -86 2 -37 48 -44 115 -15 144 25 25 63 27 86 4z m-3148
	-853 c30 -7 57 -7 81 0 21 5 62 10 92 10 l55 0 69 -72 c38 -40 98 -111 134
	-157 71 -90 73 -106 17 -126 -26 -9 -31 -6 -74 45 -107 128 -123 138 -276 174
	-54 12 -78 14 -105 6 -19 -6 -73 -15 -120 -20 -203 -21 -268 -37 -348 -82 -42
	-24 -101 -67 -130 -95 -57 -56 -69 -62 -78 -38 -15 37 50 127 155 216 43 36
	55 53 60 84 6 37 9 40 61 57 47 16 78 17 208 13 85 -3 174 -10 199 -15z m1733
	-90 c206 -44 378 -54 412 -23 17 15 18 15 18 -11 0 -45 16 -62 95 -106 41 -22
	90 -59 109 -82 89 -104 104 -148 51 -148 -22 0 -79 43 -203 154 -21 18 -24 19
	-39 3 -15 -15 -14 -21 13 -89 26 -66 42 -86 171 -217 80 -81 139 -149 136
	-156 -7 -19 -25 -25 -163 -48 -113 -19 -160 -21 -485 -20 -504 2 -715 11 -722
	30 -10 26 19 62 107 135 47 39 133 121 192 182 59 61 111 107 115 103 12 -13
	-34 -89 -88 -148 -27 -29 -49 -57 -49 -61 0 -11 49 -10 140 3 166 23 549 2
	703 -37 73 -19 91 -10 48 25 -17 14 -66 78 -109 141 -43 63 -92 124 -109 136
	-50 33 -238 57 -408 51 -212 -8 -250 -16 -320 -65 -53 -37 -62 -40 -79 -28
	-45 29 -44 45 4 87 56 50 84 64 137 73 23 3 54 11 68 18 25 11 34 41 15 53
	-14 8 -13 38 2 53 18 18 131 14 238 -8z m-2127 -177 c17 -16 47 -18 263 -20
	225 -2 249 -4 328 -27 92 -26 129 -50 195 -122 43 -48 49 -62 29 -82 -26 -26
	-58 -12 -135 59 -85 79 -116 95 -150 80 -18 -8 -23 -19 -23 -45 0 -19 -5 -38
	-10 -41 -6 -4 -61 3 -123 16 l-112 23 -158 -52 c-87 -29 -169 -52 -182 -52
	-17 0 -36 -16 -69 -57 -50 -66 -196 -213 -196 -198 1 6 53 73 116 150 63 77
	124 155 136 173 13 21 31 35 49 39 30 6 46 20 35 30 -3 3 -38 -4 -77 -17 -61
	-19 -83 -33 -146 -91 -71 -66 -104 -84 -103 -56 1 6 29 48 63 92 51 65 73 85
	123 110 73 36 93 52 105 82 10 28 16 28 42 6z m1267 -222 c12 -46 30 -106 40
	-134 11 -27 22 -81 26 -119 10 -100 23 -113 126 -123 46 -5 322 -9 613 -9 500
	-1 539 0 684 22 168 24 197 35 283 112 26 23 52 39 58 35 18 -11 57 -97 88
	-196 l31 -95 -17 -107 -17 -107 -65 -66 c-74 -75 -111 -97 -193 -114 -184 -38
	-650 -45 -1147 -17 -281 16 -335 23 -428 58 -35 14 -52 67 -52 166 0 48 -5
	150 -10 227 -7 100 -7 149 1 176 10 34 9 44 -16 96 -25 54 -34 96 -51 226 -7
	54 2 93 16 68 5 -9 18 -53 30 -99z m-705 -260 c69 -6 114 -15 141 -29 27 -14
	45 -17 55 -11 26 16 45 9 87 -33 52 -51 62 -82 35 -109 -18 -18 -44 -20 -364
	-30 -324 -10 -515 -20 -655 -35 -58 -6 -286 10 -318 22 -42 16 -14 99 45 129
	60 32 337 88 479 98 97 7 400 6 495 -2z m627 -156 c9 -20 9 -37 0 -73 -7 -26
	-17 -103 -22 -172 -15 -182 -25 -237 -44 -259 -9 -10 -49 -30 -89 -44 -80 -29
	-334 -80 -354 -73 -7 3 -30 -1 -50 -8 -21 -7 -99 -16 -173 -20 -74 -4 -182
	-12 -240 -17 -174 -18 -446 -22 -540 -9 -80 12 -227 63 -274 96 -42 29 -116
	309 -116 441 0 55 4 67 29 95 l28 32 27 -42 c32 -52 42 -57 152 -78 75 -14
	124 -15 318 -10 127 4 253 11 280 16 28 5 177 11 331 15 154 4 330 10 390 14
	110 7 110 7 210 63 55 31 106 56 113 57 7 1 18 -10 24 -24z"/>

	<path d="M2443 5093 c-26 -39 -24 -164 4 -201 24 -33 34 -36 58 -18 17 12 20
	27 20 103 0 127 -39 182 -82 116z"/>

	<path d="M2040 3537 c-3 -3 -50 -18 -105 -32 -55 -14 -128 -39 -162 -55 l-63
	-29 0 -46 c0 -26 5 -55 11 -66 10 -19 12 -20 37 -4 15 9 55 47 88 83 l62 67
	93 3 c119 4 271 -24 379 -71 84 -37 105 -34 93 11 -3 12 -1 22 5 22 11 0 17
	-15 26 -72 8 -42 48 -81 80 -76 17 2 22 11 24 45 3 37 -3 50 -38 97 -43 56
	-65 71 -93 60 -10 -3 -20 2 -27 15 -8 16 -20 21 -53 21 -23 0 -57 4 -74 9 -38
	11 -276 26 -283 18z"/>

	<path d="M2045 3251 c-11 -5 -45 -12 -75 -16 -81 -10 -209 -42 -255 -64 -22
	-10 -57 -26 -78 -35 -57 -24 -79 -67 -71 -141 4 -33 10 -64 15 -69 17 -19 57
	23 73 76 19 62 32 85 43 75 4 -5 6 -24 4 -43 -4 -46 24 -47 33 0 8 44 25 58
	130 106 l89 41 88 -21 c112 -26 271 -81 373 -128 74 -34 79 -35 91 -18 18 25
	35 17 49 -23 6 -18 24 -40 39 -49 24 -15 29 -15 37 -2 5 8 10 28 10 45 0 24
	-14 43 -68 95 -86 83 -211 147 -316 161 -109 16 -189 19 -211 10z"/>

	<path d="M4115 3494 c-103 -24 -177 -34 -257 -34 -59 0 -78 -3 -78 -14 0 -10
	27 -15 113 -20 118 -7 212 -18 364 -43 104 -17 125 -13 142 23 27 61 -9 80
	-189 98 -19 2 -62 -2 -95 -10z"/>

	<path d="M4155 3258 c-44 -4 -195 -12 -335 -17 -287 -11 -332 -16 -356 -42
	-16 -17 -16 -20 0 -44 l17 -26 30 25 c50 42 97 51 192 37 103 -15 438 -83 538
	-109 81 -20 110 -17 128 17 15 27 14 85 -3 125 -11 27 -21 34 -52 39 -43 7
	-44 7 -159 -5z"/>

	<path d="M3682 3020 c-12 -5 -51 -15 -87 -21 -35 -6 -69 -17 -75 -25 -12 -14
	-5 -70 10 -79 5 -3 34 11 64 31 51 33 62 37 162 45 141 11 217 -4 442 -88 51
	-19 99 -32 107 -29 19 7 36 51 29 70 -9 23 -100 56 -197 71 -51 8 -108 19
	-127 25 -43 12 -296 12 -328 0z"/>

	<path d="M5267 3816 c-97 -26 -137 -84 -76 -110 37 -16 87 -7 157 27 62 30 74
	52 43 78 -27 22 -56 23 -124 5z"/>
</g>
</svg>
