<svg
    xmlns="http://www.w3.org/2000/svg"
    version="1.1"
    viewBox="0 0 550 470"
    width="200px"
    height="200px"
	style="background-color: #f6f7f7"
>
	<g
		fill="#2e2e2e"
		transform="translate(-45,-60) scale(1.2)"
	>
		<path d="M195.80303,345.7103c0,-2.47725 -1.99342,-4.50938 -4.47067,-4.50938h-4.78033v13.54748h1.97406v-4.54808h2.80626c2.47725,0 4.47067,-1.99342 4.47067,-4.49002zM193.75155,345.7103c0,1.60634 -0.96768,2.7482 -2.69014,2.7482h-2.53531v-5.51576h2.53531c1.50958,0 2.69014,1.23863 2.69014,2.76756z"></path>
		<path d="M202.68354,341.20092v9.23164c0,2.55467 2.05148,4.56744 4.6255,4.56744c2.59337,0 4.68356,-2.01277 4.68356,-4.56744v-9.23164h-1.97406v9.23164c0,1.45152 -1.21927,2.67079 -2.69014,2.67079c-1.47087,0 -2.67079,-1.21927 -2.67079,-2.67079v-9.23164z"></path>
		<path d="M226.97533,347.58759c0.69673,-0.61931 1.39346,-1.49022 1.39346,-2.72885c0,-2.01277 -1.64505,-3.65782 -3.65782,-3.65782h-5.1674v13.54748h5.26416c2.18695,0 3.96748,-1.79988 3.96748,-3.96748c0,-1.43216 -0.73543,-2.61273 -1.79988,-3.19333zM224.38196,342.94274c1.0838,0 1.93535,0.85156 1.93535,1.93535c0,1.06444 -0.85156,1.916 -1.93535,1.916h-2.86432v-3.85136zM221.51763,353.00658v-4.47067h2.96109c1.23863,0 2.24501,1.00638 2.24501,2.24501c0,1.18057 -1.02574,2.22566 -2.24501,2.22566z"></path>
		<path d="M235.69106,354.7484h7.50918v-1.93535h-5.53511v-11.61213h-1.97406z"></path>
		<path d="M249.68865,354.7484h1.97406v-13.54748h-1.97406z"></path>
		<path d="M267.70802,352.38727c-0.71608,0.44513 -1.52893,0.67737 -2.39984,0.67737c-2.65144,0 -4.81903,-2.28372 -4.81903,-5.07063c0,-2.80626 2.1676,-5.08998 4.81903,-5.08998c0.87091,0 1.68376,0.2516 2.39984,0.69673c0,-0.01935 0,-2.2063 0,-2.2063c-0.75479,-0.27095 -1.54828,-0.42578 -2.39984,-0.42578c-3.85136,0 -6.94792,3.13527 -6.94792,7.02534c0,3.87071 3.09657,7.00598 6.94792,7.00598c0.85156,0 1.64505,-0.15483 2.39984,-0.42578z"></path>
		<path d="M281.78533,351.36153l1.39346,3.38687h2.09018l-5.72865,-13.79908l-5.72865,13.79908h2.09018l1.39346,-3.38687zM281.12731,349.61971h-3.17398l1.58699,-4.04489z"></path>
		<path d="M292.38581,354.7484h1.97406v-11.65083h3.34816v-1.89665h-8.67039v1.89665h3.34816z"></path>
		<path d="M304.2868,354.7484h1.97406v-13.54748h-1.97406z"></path>
		<path d="M313.07337,347.99402c0,3.87071 3.09657,7.00598 6.94792,7.00598c3.85136,0 6.94792,-3.13527 6.94792,-7.00598c0,-3.89006 -3.09657,-7.02534 -6.94792,-7.02534c-3.85136,0 -6.94792,3.13527 -6.94792,7.02534zM315.20226,347.99402c0,-2.80626 2.1676,-5.08998 4.81903,-5.08998c2.65144,0 4.81903,2.28372 4.81903,5.08998c0,2.78691 -2.1676,5.07063 -4.81903,5.07063c-2.65144,0 -4.81903,-2.28372 -4.81903,-5.07063z"></path>
		<path d="M333.89825,354.7484h1.85794v-10.21867l8.7478,10.45091v-13.77972h-1.85794v8.53491l-6.92857,-8.53491h-1.81923z"></path>
		<path d="M355.37764,346.98763c-1.0838,0 -1.97406,-0.89026 -1.97406,-1.97406c0,-1.0838 0.89026,-1.97406 1.97406,-1.97406h4.0836v-1.83859h-4.31584c-2.09018,0 -3.75459,1.70311 -3.75459,3.77394c0,2.07083 1.6644,3.87071 3.75459,3.87071h1.87729c1.16121,0 2.09018,0.8322 2.09018,1.99342c0,1.14186 -0.92897,1.97406 -2.09018,1.97406h-4.89645v1.93535h5.24481c2.10954,0 3.832,-1.79988 3.832,-3.92877c0,-2.09018 -1.70311,-3.832 -3.832,-3.832z"></path>
		<path d="M216.95661,327.06256c-1.07275,0 -1.91562,-0.3065 -2.52862,-0.9195c-0.613,-0.613 -0.9195,-1.45587 -0.9195,-2.52862v-29.88373c0,-0.76625 -0.38312,-1.14937 -1.14937,-1.14937h-27.01029c-0.76625,0 -1.14937,0.38312 -1.14937,1.14937v29.88373c0,1.07275 -0.3065,1.91562 -0.9195,2.52862c-0.613,0.613 -1.45587,0.9195 -2.52862,0.9195h-4.02281c-1.07275,0 -1.91562,-0.3065 -2.52862,-0.9195c-0.613,-0.613 -0.9195,-1.45587 -0.9195,-2.52862v-71.26119c0,-1.07275 0.3065,-1.91562 0.9195,-2.52862c0.613,-0.613 1.45587,-0.9195 2.52862,-0.9195h4.02281c1.07275,0 1.91562,0.3065 2.52862,0.9195c0.613,0.613 0.9195,1.45587 0.9195,2.52862v28.73435c0,0.76625 0.38312,1.14937 1.14937,1.14937h27.01029c0.76625,0 1.14937,-0.38312 1.14937,-1.14937v-28.73435c0,-1.07275 0.3065,-1.91562 0.9195,-2.52862c0.613,-0.613 1.45587,-0.9195 2.52862,-0.9195h4.02281c1.07275,0 1.91562,0.3065 2.52862,0.9195c0.613,0.613 0.9195,1.45587 0.9195,2.52862v71.26119c0,1.07275 -0.3065,1.91562 -0.9195,2.52862c-0.613,0.613 -1.45587,0.9195 -2.52862,0.9195z"></path>
		<path d="M271.55188,286.25978c0,-0.76625 -0.38312,-1.14937 -1.14937,-1.14937h-8.62031c-3.83125,0 -6.80046,1.18769 -8.90765,3.56306c-2.10719,2.37537 -3.16078,5.2105 -3.16078,8.50537v11.3788c0,2.91175 0.86203,5.28712 2.58609,7.12612c1.72406,1.839 4.11859,2.7585 7.18359,2.7585c2.06887,0 3.8504,-0.36397 5.34459,-1.09191c1.49419,-0.72794 2.73934,-1.7049 3.73547,-2.9309c0.99612,-1.226 1.74322,-2.58609 2.24128,-4.08028c0.49806,-1.49419 0.74709,-3.04584 0.74709,-4.65496zM275,327.06256c-1.07275,0 -1.91562,-0.34481 -2.52862,-1.03444c-0.613,-0.68962 -0.9195,-1.45587 -0.9195,-2.29875c0,-0.45975 -0.17241,-0.74709 -0.51722,-0.86203c-0.34481,-0.11494 -0.67047,0.01916 -0.97697,0.40228c-1.07275,1.45587 -2.66272,2.64356 -4.7699,3.56306c-2.10719,0.9195 -4.65496,1.37925 -7.64334,1.37925c-2.68187,0 -5.13387,-0.49806 -7.35599,-1.49419c-2.22212,-0.99612 -4.13775,-2.41369 -5.74687,-4.25268c-1.60912,-1.839 -2.87344,-4.04197 -3.79293,-6.6089c-0.9195,-2.56694 -1.37925,-5.3829 -1.37925,-8.4479v-10.22943c0,-2.98837 0.53637,-5.8235 1.60912,-8.50537c1.07275,-2.68187 2.58609,-4.99978 4.54003,-6.95371c1.95394,-1.95394 4.27184,-3.50559 6.95371,-4.65496c2.68187,-1.14937 5.63193,-1.72406 8.85018,-1.72406h17.12567c1.07275,0 1.91562,0.3065 2.52862,0.9195c0.613,0.613 0.9195,1.45587 0.9195,2.52862v44.82559c0,1.07275 -0.3065,1.91562 -0.9195,2.52862c-0.613,0.613 -1.45587,0.9195 -2.52862,0.9195z"></path>
		<path d="M299.13685,327.06256c-1.07275,0 -1.91562,-0.3065 -2.52862,-0.9195c-0.613,-0.613 -0.9195,-1.45587 -0.9195,-2.52862v-71.26119c0,-1.07275 0.3065,-1.91562 0.9195,-2.52862c0.613,-0.613 1.45587,-0.9195 2.52862,-0.9195h3.44812c1.07275,0 1.91562,0.3065 2.52862,0.9195c0.613,0.613 0.9195,1.45587 0.9195,2.52862v21.83811c0,0.76625 0.38312,1.14937 1.14937,1.14937h11.3788c2.83512,0 5.45953,0.49806 7.87321,1.49419c2.41369,0.99612 4.48256,2.35622 6.20662,4.08028c1.72406,1.72406 3.08415,3.79293 4.08028,6.20662c0.99612,2.41369 1.49419,4.99978 1.49419,7.75827v12.64311c0,2.7585 -0.47891,5.34459 -1.43672,7.75827c-0.95781,2.41369 -2.3179,4.48256 -4.08028,6.20662c-1.76237,1.72406 -3.88872,3.08415 -6.37903,4.08028c-2.49031,0.99612 -5.22965,1.49419 -8.21802,1.49419zM327.87121,294.88009c0,-2.91175 -0.90034,-5.26796 -2.70103,-7.06865c-1.80069,-1.80069 -4.1569,-2.70103 -7.06865,-2.70103h-10.91905c-0.76625,0 -1.14937,0.38312 -1.14937,1.14937v29.88373c0,0.76625 0.38312,1.14937 1.14937,1.14937h10.91905c2.68187,0 4.98062,-0.90034 6.89624,-2.70103c1.91562,-1.80069 2.87344,-4.1569 2.87344,-7.06865z"></path>
		<path d="M354.30681,327.06256c-1.07275,0 -1.91562,-0.3065 -2.52862,-0.9195c-0.613,-0.613 -0.9195,-1.45587 -0.9195,-2.52862v-29.30904c0,-5.59362 1.60912,-10.1528 4.82737,-13.67755c3.21825,-3.52475 7.70081,-5.28712 13.44768,-5.28712h4.13775c1.07275,0 1.91562,0.3065 2.52862,0.9195c0.613,0.613 0.9195,1.45587 0.9195,2.52862v2.87344c0,1.07275 -0.3065,1.91562 -0.9195,2.52862c-0.613,0.613 -1.45587,0.9195 -2.52862,0.9195h-3.44812c-2.91175,0 -5.0764,0.90034 -6.49396,2.70103c-1.41756,1.80069 -2.12634,4.1569 -2.12634,7.06865v28.73435c0,1.07275 -0.3065,1.91562 -0.9195,2.52862c-0.613,0.613 -1.45587,0.9195 -2.52862,0.9195z"></path>
		<path d="M206.54212,165.09589c-3.79347,-3.79347 -3.79347,-9.9439 0,-13.73737l36.35852,-36.35852v86.45441zM343.45788,151.35852c3.79347,3.79347 3.79347,9.9439 0,13.73737l-36.35852,36.35852v-86.45441zM251.78805,163.50531c0,-0.672 0.23875,-1.21139 0.71625,-1.6182c0.47751,-0.40675 0.99923,-0.61012 1.56514,-0.61012h5.67696c0.56592,0 1.06999,0.2299 1.51217,0.68971c0.44212,0.4598 0.66317,1.00805 0.66317,1.64473l0.26531,24.45878c0,0.24762 0.07956,0.45987 0.23869,0.63674c0.15919,0.17681 0.35374,0.30943 0.58368,0.39787c0.22987,0.08844 0.45978,0.13265 0.68971,0.13265c0.22987,0 0.43325,-0.08843 0.61012,-0.26531c2.0161,-2.4759 4.36826,-4.30632 7.05647,-5.49124c2.68815,-1.18492 5.88917,-1.77738 9.60306,-1.77738c2.58209,0 4.94309,0.4598 7.083,1.37942c2.13991,0.91968 3.98801,2.19304 5.54431,3.82008c1.55635,1.62704 2.76781,3.55474 3.63436,5.78308c0.86661,2.22835 1.31761,4.63353 1.35298,7.21556l0.09941,9.96925l-11.22395,11.22395l0.19502,-17.74456c0,-1.66241 -0.2034,-3.20987 -0.61021,-4.64234c-0.40675,-1.43255 -1.03458,-2.67937 -1.8835,-3.74048c-0.84887,-1.06111 -1.90114,-1.89232 -3.1568,-2.49362c-1.25567,-0.6013 -2.71472,-0.90196 -4.37713,-0.90196c-1.98073,0 -3.89073,0.40678 -5.73002,1.22033c-1.83929,0.8135 -3.46633,1.95419 -4.88112,3.42212c-1.41486,1.46786 -2.54671,3.22755 -3.39558,5.27909c-0.84892,2.05148 -1.2557,4.31519 -1.22033,6.79116l0.14131,12.80968l-11.22017,-11.22017z"></path>
	</g>
</svg>
