<svg
    xmlns="http://www.w3.org/2000/svg"
    version="1.1"
    viewBox="0 50 550 370"
	width="200px"
	height="200px"
    style="background-color: #f6f7f7"
>
    <g transform="translate(-130,-125) scale(1.5)" fill="#2e2e2e">

        <!-- Text -->
        <g>
            <path d="M188.36993,353.73715c0,0.34947 -0.12311,0.64731 -0.36932,0.89352c-0.24622,0.24622 -0.54406,0.36932 -0.89352,0.36932c-0.34947,0 -0.64731,-0.12311 -0.89352,-0.36932c-0.24622,-0.24622 -0.36932,-0.54406 -0.36932,-0.89352v-7.00522h-8.49443v7.00522c0,0.34947 -0.12311,0.64731 -0.36932,0.89352c-0.24622,0.24622 -0.54406,0.36932 -0.89352,0.36932c-0.34947,0 -0.64731,-0.12311 -0.89352,-0.36932c-0.24622,-0.24622 -0.36932,-0.54406 -0.36932,-0.89352v-16.53614c0,-0.34947 0.12311,-0.64731 0.36932,-0.89352c0.24622,-0.24622 0.54406,-0.36932 0.89352,-0.36932c0.34947,0 0.64731,0.12311 0.89352,0.36932c0.24622,0.24622 0.36932,0.54406 0.36932,0.89352v7.00522h8.49443v-7.00522c0,-0.34947 0.12311,-0.64731 0.36932,-0.89352c0.24622,-0.24622 0.54406,-0.36932 0.89352,-0.36932c0.34947,0 0.64731,0.12311 0.89352,0.36932c0.24622,0.24622 0.36932,0.54406 0.36932,0.89352z"></path>
        
            <path d="M198.51639,353.73715c0,0.34947 -0.12311,0.64731 -0.36932,0.89352c-0.24622,0.24622 -0.54406,0.36932 -0.89352,0.36932c-0.34947,0 -0.64731,-0.12311 -0.89352,-0.36932c-0.24622,-0.24622 -0.36932,-0.54406 -0.36932,-0.89352v-16.53614c0,-0.34947 0.12311,-0.64731 0.36932,-0.89352c0.24622,-0.24622 0.54406,-0.36932 0.89352,-0.36932c0.34947,0 0.64731,0.12311 0.89352,0.36932c0.24622,0.24622 0.36932,0.54406 0.36932,0.89352z"></path>
        
            <path d="M205.94653,337.20101c0,-0.34947 0.12311,-0.64731 0.36932,-0.89352c0.24622,-0.24622 0.54406,-0.36932 0.89352,-0.36932c0.34947,0 0.64731,0.12311 0.89352,0.36932c0.24622,0.24622 0.36932,0.54406 0.36932,0.89352v7.05288l7.92257,-7.92257c0.2621,-0.2621 0.56788,-0.39315 0.91735,-0.39315c0.17473,0 0.33954,0.03177 0.49442,0.09531c0.15488,0.06354 0.2899,0.15289 0.40506,0.26806c0.11517,0.11517 0.20452,0.25019 0.26806,0.40506c0.06354,0.15488 0.09531,0.31968 0.09531,0.49442c0,0.34947 -0.12311,0.64731 -0.36932,0.89352l-6.24275,6.25466l6.3738,8.63739c0.15885,0.22239 0.23827,0.46066 0.23827,0.71482c0,0.16679 -0.03177,0.32961 -0.09531,0.48846c-0.06354,0.15885 -0.15091,0.29784 -0.2621,0.41698c-0.11119,0.11914 -0.24224,0.21445 -0.39315,0.28593c-0.15091,0.07148 -0.31373,0.10722 -0.48846,0.10722c-0.4686,0 -0.82204,-0.1787 -1.06031,-0.53611l-6.12361,-8.30381l-1.67982,1.67982v5.89725c0,0.34947 -0.12311,0.64731 -0.36932,0.89352c-0.24622,0.24622 -0.54406,0.36932 -0.89352,0.36932c-0.34947,0 -0.64731,-0.12311 -0.89352,-0.36932c-0.24622,-0.24622 -0.36932,-0.54406 -0.36932,-0.89352z"></path>
        
            <path d="M237.62094,352.47431c0.34947,0 0.64731,0.12311 0.89352,0.36932c0.24622,0.24622 0.36932,0.54406 0.36932,0.89352c0,0.34947 -0.12311,0.64731 -0.36932,0.89352c-0.24622,0.24622 -0.54406,0.36932 -0.89352,0.36932h-11.02012c-0.18268,0 -0.34947,-0.03177 -0.50037,-0.09531c-0.15091,-0.06354 -0.28394,-0.15289 -0.39911,-0.26806c-0.11517,-0.11517 -0.20452,-0.2482 -0.26806,-0.39911c-0.06354,-0.15091 -0.09531,-0.3177 -0.09531,-0.50037v-16.53614c0,-0.17473 0.03177,-0.33954 0.09531,-0.49442c0.06354,-0.15488 0.15289,-0.2899 0.26806,-0.40506c0.11517,-0.11517 0.2482,-0.20452 0.39911,-0.26806c0.15091,-0.06354 0.3177,-0.09531 0.50037,-0.09531h11.02012c0.34947,0 0.64731,0.12311 0.89352,0.36932c0.24622,0.24622 0.36932,0.54406 0.36932,0.89352c0,0.34947 -0.12311,0.64731 -0.36932,0.89352c-0.24622,0.24622 -0.54406,0.36932 -0.89352,0.36932h-9.75728v5.74238h7.00522c0.34947,0 0.64731,0.12311 0.89352,0.36932c0.24622,0.24622 0.36932,0.54406 0.36932,0.89352c0,0.34947 -0.12311,0.64731 -0.36932,0.89352c-0.24622,0.24622 -0.54406,0.36932 -0.89352,0.36932h-7.00522v5.74238z"></path>
        
            <path d="M260.20127,337.20101l-0.22636,3.4073c-0.00794,0.27799 -0.10921,0.51427 -0.3038,0.70886c-0.19459,0.19459 -0.43088,0.29188 -0.70886,0.29188c-0.27799,0 -0.51427,-0.09729 -0.70886,-0.29188c-0.19459,-0.19459 -0.29586,-0.43088 -0.3038,-0.70886l-0.22636,-3.4073c0,-0.16679 0.03177,-0.32564 0.09531,-0.47655c0.06354,-0.15091 0.15289,-0.28394 0.26806,-0.39911c0.11517,-0.11517 0.2482,-0.20452 0.39911,-0.26806c0.15091,-0.06354 0.30975,-0.09531 0.47655,-0.09531c0.16679,0 0.32564,0.03177 0.47655,0.09531c0.15091,0.06354 0.28394,0.15289 0.39911,0.26806c0.11517,0.11517 0.20452,0.2482 0.26806,0.39911c0.06354,0.15091 0.09531,0.30975 0.09531,0.47655z"></path>
        
            <path d="M266.80937,353.73715v-16.53614c0,-0.17473 0.03177,-0.33954 0.09531,-0.49442c0.06354,-0.15488 0.15289,-0.2899 0.26806,-0.40506c0.11517,-0.11517 0.2482,-0.20452 0.39911,-0.26806c0.15091,-0.06354 0.3177,-0.09531 0.50037,-0.09531c0.37329,0 0.69893,0.15488 0.97692,0.46463l10.62697,13.66495v-12.86674c0,-0.34947 0.12311,-0.64731 0.36932,-0.89352c0.24622,-0.24622 0.54406,-0.36932 0.89352,-0.36932c0.34947,0 0.64731,0.12311 0.89352,0.36932c0.24622,0.24622 0.36932,0.54406 0.36932,0.89352v16.53614c0,0.18268 -0.03177,0.34947 -0.09531,0.50037c-0.06354,0.15091 -0.15289,0.28394 -0.26806,0.39911c-0.11517,0.11517 -0.25019,0.20452 -0.40506,0.26806c-0.15488,0.06354 -0.31968,0.09531 -0.49442,0.09531c-0.37329,0 -0.69496,-0.14693 -0.96501,-0.4408l-10.63888,-13.66495v12.84291c0,0.34947 -0.12311,0.64731 -0.36932,0.89352c-0.24622,0.24622 -0.54406,0.36932 -0.89352,0.36932c-0.34947,0 -0.64731,-0.12311 -0.89352,-0.36932c-0.24622,-0.24622 -0.36932,-0.54406 -0.36932,-0.89352z"></path>
        
            <path d="M291.33559,337.20101l-0.22636,3.4073c-0.00794,0.27799 -0.10921,0.51427 -0.3038,0.70886c-0.19459,0.19459 -0.43088,0.29188 -0.70886,0.29188c-0.27799,0 -0.51427,-0.09729 -0.70886,-0.29188c-0.19459,-0.19459 -0.29586,-0.43088 -0.3038,-0.70886l-0.22636,-3.4073c0,-0.16679 0.03177,-0.32564 0.09531,-0.47655c0.06354,-0.15091 0.15289,-0.28394 0.26806,-0.39911c0.11517,-0.11517 0.2482,-0.20452 0.39911,-0.26806c0.15091,-0.06354 0.30975,-0.09531 0.47655,-0.09531c0.16679,0 0.32564,0.03177 0.47655,0.09531c0.15091,0.06354 0.28394,0.15289 0.39911,0.26806c0.11517,0.11517 0.20452,0.2482 0.26806,0.39911c0.06354,0.15091 0.09531,0.30975 0.09531,0.47655z"></path>
        
            <path d="M312.6769,338.46386v6.65973h3.33582c0.46066,0 0.89352,-0.08737 1.29859,-0.2621c0.40506,-0.17473 0.75652,-0.41499 1.05436,-0.72078c0.29784,-0.30578 0.53413,-0.65922 0.70886,-1.06031c0.17473,-0.40109 0.2621,-0.828 0.2621,-1.28072c0,-0.46066 -0.08737,-0.89352 -0.2621,-1.29859c-0.17473,-0.40506 -0.41301,-0.7585 -0.71482,-1.06031c-0.30181,-0.30181 -0.65525,-0.54009 -1.06031,-0.71482c-0.40506,-0.17473 -0.83396,-0.2621 -1.28667,-0.2621zM310.15121,353.73715v-16.53614c0,-0.17473 0.03177,-0.33954 0.09531,-0.49442c0.06354,-0.15488 0.15289,-0.2899 0.26806,-0.40506c0.11517,-0.11517 0.2482,-0.20452 0.39911,-0.26806c0.15091,-0.06354 0.3177,-0.09531 0.50037,-0.09531h4.59867c0.80219,0 1.5587,0.15488 2.26955,0.46463c0.71085,0.30975 1.33036,0.7307 1.85853,1.26285c0.52817,0.53214 0.94713,1.15364 1.25689,1.86449c0.30975,0.71085 0.46463,1.46736 0.46463,2.26955c0,0.5242 -0.06553,1.0345 -0.19658,1.5309c-0.13105,0.4964 -0.32564,0.96501 -0.58377,1.40581c-0.25813,0.4408 -0.5798,0.84984 -0.96501,1.22711c-0.38521,0.37727 -0.83197,0.70886 -1.34029,0.99479l3.80045,6.08787c0.13502,0.22239 0.20253,0.45272 0.20253,0.69099c0,0.18268 -0.03177,0.34947 -0.09531,0.50037c-0.06354,0.15091 -0.15289,0.28394 -0.26806,0.39911c-0.11517,0.11517 -0.25019,0.20452 -0.40506,0.26806c-0.15488,0.06354 -0.31968,0.09531 -0.49442,0.09531c-0.44478,0 -0.80616,-0.2065 -1.08414,-0.61951l-4.20552,-6.73121h-3.55027v6.08787c0,0.34947 -0.12311,0.64731 -0.36932,0.89352c-0.24622,0.24622 -0.54406,0.36932 -0.89352,0.36932c-0.34947,0 -0.64731,-0.12311 -0.89352,-0.36932c-0.24622,-0.24622 -0.36932,-0.54406 -0.36932,-0.89352z"></path>
        
            <path d="M332.9023,353.73715c0,0.34947 -0.12311,0.64731 -0.36932,0.89352c-0.24622,0.24622 -0.54406,0.36932 -0.89352,0.36932c-0.34947,0 -0.64731,-0.12311 -0.89352,-0.36932c-0.24622,-0.24622 -0.36932,-0.54406 -0.36932,-0.89352v-16.53614c0,-0.34947 0.12311,-0.64731 0.36932,-0.89352c0.24622,-0.24622 0.54406,-0.36932 0.89352,-0.36932c0.34947,0 0.64731,0.12311 0.89352,0.36932c0.24622,0.24622 0.36932,0.54406 0.36932,0.89352z"></path>
        
            <path d="M345.28852,352.47431c1.93001,0 3.57806,-0.68305 4.94416,-2.04915c0.69099,-0.69099 1.20725,-1.44354 1.54877,-2.25764c0.34152,-0.8141 0.51229,-1.71358 0.51229,-2.69844c0,-1.92207 -0.68702,-3.57012 -2.06106,-4.94416c-1.37404,-1.37404 -3.02209,-2.06106 -4.94416,-2.06106h-2.40656v14.01045zM345.28852,335.93817c2.621,0 4.86474,0.93324 6.73121,2.79971c0.93721,0.93721 1.63813,1.95979 2.10276,3.06776c0.46463,1.10797 0.69695,2.32912 0.69695,3.66345c0,2.62894 -0.93324,4.87665 -2.79971,6.74312c-1.85853,1.85853 -4.10226,2.78779 -6.73121,2.78779h-3.6694c-0.17473,0 -0.33954,-0.03376 -0.49442,-0.10127c-0.15488,-0.06751 -0.2899,-0.15686 -0.40506,-0.26806c-0.11517,-0.11119 -0.2065,-0.24423 -0.27401,-0.39911c-0.06751,-0.15488 -0.10127,-0.31968 -0.10127,-0.49442v-16.53614c0,-0.17473 0.03376,-0.33954 0.10127,-0.49442c0.06751,-0.15488 0.15885,-0.28791 0.27401,-0.39911c0.11517,-0.11119 0.25019,-0.20055 0.40506,-0.26806c0.15488,-0.06751 0.31968,-0.10127 0.49442,-0.10127z"></path>
        
            <path d="M373.91304,352.47431c0.34947,0 0.64731,0.12311 0.89352,0.36932c0.24622,0.24622 0.36932,0.54406 0.36932,0.89352c0,0.34947 -0.12311,0.64731 -0.36932,0.89352c-0.24622,0.24622 -0.54406,0.36932 -0.89352,0.36932h-11.02012c-0.18268,0 -0.34947,-0.03177 -0.50037,-0.09531c-0.15091,-0.06354 -0.28394,-0.15289 -0.39911,-0.26806c-0.11517,-0.11517 -0.20452,-0.2482 -0.26806,-0.39911c-0.06354,-0.15091 -0.09531,-0.3177 -0.09531,-0.50037v-16.53614c0,-0.17473 0.03177,-0.33954 0.09531,-0.49442c0.06354,-0.15488 0.15289,-0.2899 0.26806,-0.40506c0.11517,-0.11517 0.2482,-0.20452 0.39911,-0.26806c0.15091,-0.06354 0.3177,-0.09531 0.50037,-0.09531h11.02012c0.34947,0 0.64731,0.12311 0.89352,0.36932c0.24622,0.24622 0.36932,0.54406 0.36932,0.89352c0,0.34947 -0.12311,0.64731 -0.36932,0.89352c-0.24622,0.24622 -0.54406,0.36932 -0.89352,0.36932h-9.75728v5.74238h7.00522c0.34947,0 0.64731,0.12311 0.89352,0.36932c0.24622,0.24622 0.36932,0.54406 0.36932,0.89352c0,0.34947 -0.12311,0.64731 -0.36932,0.89352c-0.24622,0.24622 -0.54406,0.36932 -0.89352,0.36932h-7.00522v5.74238z"></path>
        </g>
        
        <!-- Picture -->
        <g fill-rule="evenodd">
            <path d="M362.85675,217.64643l-47.59063,-82.60769c-0.22143,-0.38712 -0.67514,-0.67358 -1.08702,-0.60855c-0.44905,0.00774 -0.85475,0.26169 -1.06225,0.65965l-11.50976,22.46363c-0.04181,0.04645 -0.10065,0.08052 -0.14091,0.14091c-0.096,0.14865 -0.1533,0.31434 -0.17962,0.48312l-1.70331,3.32146l-7.66956,-13.47168c-0.03871,-0.07588 -0.0573,-0.16104 -0.10529,-0.22918c-0.01858,-0.02478 -0.04026,-0.03561 -0.06039,-0.05574l-18.31528,-32.17098c-0.43976,-0.76185 -1.69093,-0.76185 -2.12915,0l-18.32303,32.18957c-0.02478,0.02787 -0.05419,0.04336 -0.08052,0.08052c-0.04026,0.05884 -0.0511,0.13162 -0.08052,0.2013l-17.2453,30.29114l-9.26139,-15.42894c-0.21524,-0.35925 -0.59771,-0.58068 -1.01115,-0.59306c-0.44751,-0.03716 -0.81295,0.19046 -1.04986,0.53732l-37.06414,54.71978c-0.37937,0.56054 -0.23227,1.32239 0.32673,1.69867c0.5559,0.38247 1.3193,0.23227 1.69712,-0.32673l23.24096,-34.31252l6.23104,4.10034c0.01703,0.00774 0.03561,0.00309 0.0511,0.01238c0.18582,0.11458 0.39021,0.18737 0.6101,0.18737c0.00309,0 0.00774,0.00309 0.00774,0.00309h0.00465c0.00309,0 0.00309,-0.00309 0.00929,-0.00309c0.21833,0 0.42118,-0.06813 0.6101,-0.18272c0.01549,-0.00774 0.03561,-0.00309 0.0511,-0.01549l5.64726,-3.70239l4.30784,3.12171l-16.79314,29.50142c-0.33447,0.58841 -0.12852,1.33168 0.4599,1.66925c0.17343,0.09755 0.3577,0.13627 0.54506,0.14556c0.02323,0 0.04181,0.01703 0.0573,0.01703c0.03716,0 0.06659,-0.02632 0.10375,-0.02942c0.14091,-0.01238 0.27408,-0.04801 0.4026,-0.10375c0.05265,-0.02632 0.09755,-0.0449 0.14556,-0.07742c0.16568,-0.10065 0.30969,-0.22762 0.41189,-0.41189l39.05548,-68.59096l5.80985,3.82472c0.01703,0.01238 0.03561,0.00309 0.0511,0.01549c0.19046,0.11458 0.39486,0.18272 0.6101,0.18272c0.00465,0 0.00774,0.00465 0.01238,0.00465c0.0062,0 0.00929,-0.00465 0.00929,-0.00465c0.21833,0 0.42118,-0.06813 0.6101,-0.18272c0.01703,-0.00774 0.03716,-0.00309 0.05265,-0.01549l5.64572,-3.70239l5.06504,3.66832c0.03407,0.02942 0.08052,0.04026 0.12078,0.06039c0.03561,0.02478 0.07277,0.04026 0.11304,0.05884c0.15794,0.06348 0.31589,0.11458 0.48003,0.11458h0.00465c0.16414,0 0.32673,-0.04801 0.47848,-0.11458c0.04181,-0.02168 0.07897,-0.03716 0.11769,-0.05884c0.04181,-0.02168 0.08362,-0.03252 0.12233,-0.06039l5.02478,-3.64664l5.02478,3.64664c0.03871,0.02942 0.07742,0.03716 0.11769,0.06039c0.04026,0.02013 0.07277,0.04026 0.11458,0.05574c0.15794,0.06659 0.31434,0.11769 0.48312,0.11769c0.16414,0 0.32673,-0.04801 0.48003,-0.11458c0.04026,-0.02168 0.07897,-0.03716 0.11304,-0.05574c0.04181,-0.02478 0.08052,-0.03252 0.11923,-0.06039l5.25086,-3.74884l8.17436,14.35895c0.00309,0.00465 0,0.00774 0.00309,0.01238l30.84549,54.17781c0.22607,0.39795 0.63797,0.62093 1.06535,0.62093c0.20595,0 0.41344,-0.05419 0.607,-0.16104c0.58377,-0.33447 0.78972,-1.07929 0.4568,-1.67079l-30.52651,-53.61107l1.98514,-3.87117l5.73088,3.77516c0.01549,0.00774 0.03407,0.00465 0.0511,0.01703c0.18891,0.10994 0.39641,0.17653 0.6101,0.18117c0.0062,0 0.00929,0.00465 0.01238,0.00465c0.0062,0 0.00929,-0.00465 0.01238,-0.00465c0.21524,-0.00465 0.41964,-0.07123 0.607,-0.18117c0.01703,-0.01238 0.03407,-0.00465 0.05265,-0.01703l5.64881,-3.70239l5.0604,3.66832c0.03871,0.02942 0.08207,0.03716 0.12387,0.06039c0.03561,0.02168 0.06968,0.04181 0.11149,0.0573c0.15794,0.06813 0.31744,0.11769 0.48312,0.11769c0.16568,0 0.32673,-0.04801 0.48003,-0.11769c0.0449,-0.01703 0.08207,-0.03716 0.11769,-0.0573c0.04181,-0.02478 0.08517,-0.03561 0.12233,-0.06039l4.82658,-3.49954l33.67764,58.45469c0.33447,0.58223 1.08238,0.78198 1.67079,0.44751c0.58532,-0.33447 0.78507,-1.08238 0.44441,-1.6677zM284.44231,151.56399l-5.03097,-3.64974c-0.01703,-0.01238 -0.03252,-0.01238 -0.04801,-0.02478c-0.06659,-0.04645 -0.1471,-0.07277 -0.22453,-0.10529c-0.07123,-0.02787 -0.13936,-0.05884 -0.21678,-0.07588c-0.05823,-0.01161 -0.11551,-0.01022 -0.17142,-0.00867c-0.01842,0.00046 -0.0367,0.00093 -0.05466,0.00093c-0.01951,0 -0.03886,-0.00046 -0.05823,-0.00093c-0.05776,-0.00155 -0.11458,-0.00295 -0.16786,0.00867c-0.07433,0.01703 -0.13936,0.04801 -0.20904,0.07588c-0.08207,0.03252 -0.16104,0.0573 -0.23692,0.10994c-0.01394,0.00774 -0.02942,0.00774 -0.04181,0.02013l-5.02633,3.64664l-5.02788,-3.64664c-0.00929,-0.00309 -0.01703,-0.00309 -0.02168,-0.00774c-0.06813,-0.04801 -0.1502,-0.07277 -0.22607,-0.10529c-0.07277,-0.03252 -0.13936,-0.07588 -0.21678,-0.09446c-0.0192,-0.00449 -0.03933,-0.00372 -0.05946,-0.00295c-0.01394,0.00062 -0.02787,0.00109 -0.04119,-0.00016l-0.01192,-0.00124c-0.12233,-0.01192 -0.2349,-0.02292 -0.34887,-0.00341c-0.03871,0.00774 -0.07588,0.03252 -0.11614,0.04336c-0.11304,0.03252 -0.22143,0.06504 -0.32208,0.12852c-0.00774,0.00309 -0.01703,0.00309 -0.02168,0.00774l-5.68753,3.72717l-5.26789,-3.47321l16.78076,-29.48903l16.81172,29.52775zM244.42059,139.80491c0,6.00031 -4.88232,10.88728 -10.88574,10.88728c-6.00496,0 -10.88883,-4.88697 -10.88728,-10.88728c0,-6.00342 4.88232,-10.88574 10.88728,-10.88574c6.00342,0 10.88574,4.88232 10.88574,10.88574zM242.35648,139.80337c0,-4.86529 -3.95324,-8.82162 -8.82162,-8.82162c-4.86219,0 -8.82472,3.95633 -8.82162,8.82162c0,4.86065 3.95944,8.82162 8.82162,8.82162c4.86374,0 8.82162,-3.95944 8.82162,-8.82162zM321.51883,161.4138l-5.02942,-3.64509c-0.00309,-0.00465 -0.01238,-0.00465 -0.02013,-0.00774c-0.06968,-0.0511 -0.15175,-0.07277 -0.22607,-0.10529c-0.07277,-0.03252 -0.13936,-0.07588 -0.21524,-0.09291c-0.02214,-0.00527 -0.04583,-0.00449 -0.06922,-0.00372c-0.01765,0.00046 -0.035,0.00109 -0.05156,-0.00093l-0.00325,-0.00031c-0.1166,-0.01224 -0.23011,-0.02431 -0.34515,-0.00279c-0.04026,0.00929 -0.07277,0.03252 -0.11304,0.04026c-0.11304,0.03252 -0.22607,0.06813 -0.32827,0.13162c-0.0062,0.00465 -0.01549,0.00465 -0.01858,0.00929l-5.68598,3.72562l-5.28647,-3.47786l10.13472,-19.77858l11.56551,20.07589zM231.20286,186.01276l-4.77393,-3.46083c-0.00465,-0.00309 -0.01238,-0.00309 -0.02168,-0.00774c-0.08207,-0.05574 -0.16879,-0.08981 -0.26169,-0.12078c-0.06039,-0.02632 -0.11769,-0.06039 -0.17808,-0.07742c-0.03438,-0.00759 -0.06922,-0.00588 -0.10406,-0.00418c-0.02168,0.00124 -0.04336,0.00232 -0.06473,0.00109c-0.00806,-0.00077 -0.0161,-0.00155 -0.02431,-0.00232c-0.09167,-0.00883 -0.18628,-0.01781 -0.27299,-0.00077c-0.04026,0.00774 -0.08207,0.03252 -0.12543,0.04181c-0.1084,0.03252 -0.21833,0.06504 -0.31434,0.12852c-0.00774,0.00465 -0.01703,0.00465 -0.02323,0.00774l-5.68598,3.72562l-5.53113,-3.642l11.37969,-16.79779l8.98421,14.9644zM268.00841,201.53152l-6.36265,5.18427c-0.19201,0.15639 -0.42118,0.23227 -0.65345,0.23227c-0.30195,0 -0.59771,-0.13007 -0.8021,-0.38247c-0.36079,-0.44287 -0.29421,-1.09322 0.1502,-1.45246l6.98669,-5.68907c0.36389,-0.29886 0.88572,-0.31434 1.26355,-0.02942l7.06257,5.23847c0.45834,0.33911 0.5559,0.98638 0.21369,1.44472c-0.33756,0.45834 -0.98173,0.5528 -1.44163,0.21369zM305.66871,201.53152l-6.36576,5.18427c-0.18891,0.15639 -0.42273,0.23227 -0.65345,0.23227c-0.3004,0 -0.59926,-0.13007 -0.80521,-0.38247c-0.35614,-0.44287 -0.28957,-1.09322 0.15175,-1.45246l6.99289,-5.68907c0.36544,-0.29886 0.88572,-0.30969 1.26355,-0.02942l7.05946,5.23847c0.4599,0.33911 0.55745,0.98638 0.21678,1.44472c-0.33756,0.46299 -0.98327,0.5528 -1.44472,0.21369zM286.83623,206.11034l-6.36576,5.18737c-0.18891,0.15485 -0.42273,0.23227 -0.655,0.22762c-0.29886,0 -0.59616,-0.13007 -0.8021,-0.38402c-0.35925,-0.43976 -0.28957,-1.09476 0.14865,-1.45246l6.99598,-5.68907c0.36389,-0.29886 0.88418,-0.30969 1.26355,-0.02787l7.06257,5.24157c0.4599,0.34067 0.55745,0.98792 0.21678,1.44781c-0.33756,0.46145 -0.98173,0.55435 -1.44472,0.21524zM298.65415,214.24754c-0.30195,0 -0.59616,-0.12852 -0.8021,-0.38092c-0.36079,-0.44287 -0.29731,-1.08858 0.14556,-1.45246l6.99443,-5.69372c0.36699,-0.29886 0.89037,-0.30815 1.2651,-0.02942l7.05792,5.24466c0.4599,0.33911 0.559,0.98327 0.21678,1.44472c-0.33911,0.46145 -0.99102,0.5528 -1.44472,0.21369l-6.41375,-4.75999l-6.36885,5.18427c-0.18737,0.15485 -0.42428,0.22918 -0.65036,0.22918zM260.9954,214.24754c-0.30195,0 -0.59771,-0.12852 -0.8021,-0.38092c-0.35925,-0.44287 -0.29111,-1.08858 0.14865,-1.45246l6.98669,-5.69372c0.36544,-0.29575 0.88572,-0.30815 1.26355,-0.02942l7.06257,5.24466c0.45834,0.33911 0.55745,0.98327 0.21369,1.44472c-0.33756,0.46145 -0.98173,0.5528 -1.44163,0.21369l-6.41686,-4.75999l-6.36265,5.18427c-0.19046,0.15485 -0.42428,0.22918 -0.65191,0.22918zM279.82167,218.82791c-0.30195,0 -0.59771,-0.12852 -0.8021,-0.38247c-0.36544,-0.43976 -0.29111,-1.08858 0.14556,-1.44781l6.99598,-5.69062c0.36389,-0.3035 0.88418,-0.31124 1.26355,-0.03252l7.06257,5.24311c0.4599,0.34067 0.55745,0.98792 0.21678,1.44472c-0.33756,0.46299 -0.98173,0.5559 -1.44472,0.21678l-6.41995,-4.76619l-6.36576,5.18427c-0.18891,0.15485 -0.42583,0.23072 -0.65191,0.23072zM260.9954,221.54237c-0.30195,0 -0.59771,-0.13162 -0.8021,-0.38092c-0.35925,-0.44287 -0.29111,-1.09167 0.14865,-1.45092l6.98669,-5.68907c0.36544,-0.30195 0.88572,-0.31434 1.26355,-0.02942l7.06257,5.24157c0.45834,0.34067 0.55745,0.98483 0.21369,1.44472c-0.33756,0.46299 -0.98173,0.5559 -1.44163,0.21524l-6.41995,-4.76463l-6.35956,5.18427c-0.19046,0.15175 -0.42428,0.22918 -0.65191,0.22918zM313.3166,219.23361c0.45525,0.34067 0.5559,0.98483 0.21369,1.44472c-0.33911,0.4599 -0.98792,0.54971 -1.44627,0.21678l-6.4153,-4.76309l-6.36576,5.18272c-0.18891,0.1502 -0.42583,0.22762 -0.65345,0.22762c-0.3004,0 -0.59616,-0.12698 -0.80056,-0.38092c-0.36079,-0.44287 -0.29421,-1.09322 0.1502,-1.45092l6.99443,-5.68907c0.36389,-0.30195 0.88727,-0.31434 1.2651,-0.02942zM279.82167,226.12739c-0.30195,0 -0.59771,-0.13007 -0.8021,-0.38092c-0.36544,-0.44596 -0.29111,-1.09632 0.14556,-1.45092l6.99598,-5.68907c0.36389,-0.30195 0.88418,-0.31589 1.26355,-0.02942l7.06257,5.23537c0.4599,0.34067 0.55745,0.98792 0.21678,1.44317c-0.33756,0.46145 -0.98173,0.55745 -1.44472,0.21678l-6.4153,-4.75845l-6.3704,5.18427c-0.18891,0.15175 -0.42583,0.22918 -0.65191,0.22918zM266.98642,230.02333v-9.63302c0,-0.57294 0.46145,-1.03128 1.03128,-1.03128c0.56829,0 1.03283,0.46299 1.03283,1.03128v9.63302c0,0.56829 -0.46454,1.03128 -1.03283,1.03128c-0.56983,0 -1.03128,-0.46299 -1.03128,-1.03128zM304.64518,230.02333v-9.63302c0,-0.57294 0.4599,-1.03128 1.03128,-1.03128c0.57138,0 1.03128,0.46299 1.03128,1.03128v9.63302c0,0.56829 -0.4599,1.03128 -1.03128,1.03128c-0.56829,0 -1.03128,-0.46299 -1.03128,-1.03128zM285.8127,230.47858v-5.50481c0,-0.57448 0.46609,-1.03283 1.03283,-1.03128c0.57138,0 1.03128,0.4599 1.03128,1.03128v5.50481c0,0.56829 -0.4599,1.03283 -1.03128,1.03283c-0.56674,0 -1.03283,-0.46454 -1.03283,-1.03283zM195.71816,236.96357h158.56318c0.67668,0 1.22019,0.54816 1.22019,1.22794c0,0.67203 -0.54351,1.22019 -1.22019,1.22019h-158.56318c-0.67823,0 -1.22639,-0.54661 -1.22639,-1.22019c0,-0.67978 0.54816,-1.22794 1.22639,-1.22794zM208.79653,257.42813h132.4049c0.67358,0 1.22174,0.5528 1.22174,1.22794c0,0.67358 -0.54816,1.22174 -1.22174,1.22174h-132.4049c-0.67514,0 -1.22329,-0.54506 -1.22329,-1.22174c0,-0.67823 0.54816,-1.22794 1.22329,-1.22794zM233.59835,277.90353h82.79815c0.67978,0 1.22948,0.54506 1.22948,1.22174c0,0.67668 -0.54971,1.22174 -1.22794,1.22174h-82.79971c-0.67514,0 -1.22174,-0.54506 -1.22174,-1.22174c0,-0.67668 0.54506,-1.22174 1.22174,-1.22174zM254.30137,298.37273h41.39676c0.67823,0 1.22329,0.54661 1.22639,1.22174c0,0.67668 -0.54816,1.22174 -1.22174,1.22174h-41.4014c-0.67823,0 -1.22639,-0.54351 -1.22639,-1.22174c0,-0.67358 0.54816,-1.22174 1.22639,-1.22174z"></path>
        </g>
    </g>
</svg>
