<svg
    xmlns="http://www.w3.org/2000/svg"
    version="1.1"
    viewBox="0 0 362 362"
	width="200px"
	height="200px"
    style="background-color: #f6f7f7"
>
	<defs>
		<linearGradient id="bgGradient" x1="0%" y1="0%" x2="100%" y2="0%">
			<stop offset="0%" stop-color="#2e2e2e" />
			<stop offset="100%" stop-color="#2e2e2e" />
		</linearGradient>
	</defs>
    <g
        fill="url(#bgGradient)"
        fill-rule="evenodd"
        transform="translate(-200,-160) scale(1.4)"
    >
        <path d="M221.41645,279.69037c-0.5061,0 -0.9399,-0.17473 -1.30141,-0.52418c-0.34945,-0.3615 -0.52418,-0.7953 -0.52418,-1.30141v-20.98516c0,-0.5061 0.17473,-0.93388 0.52418,-1.28333c0.3615,-0.3615 0.7953,-0.54225 1.30141,-0.54225c0.49405,0 0.92183,0.18075 1.28333,0.54225c0.34945,0.34945 0.52418,0.77723 0.52418,1.28333v19.17765h17.56897c0.49405,0 0.92183,0.17473 1.28333,0.52418c0.34945,0.3615 0.52418,0.78928 0.52418,1.28333c0,0.5061 -0.17473,0.9399 -0.52418,1.30141c-0.3615,0.34945 -0.78928,0.52418 -1.28333,0.52418z"></path>
        <path d="M247.31803,255.05405c-0.5061,0 -0.9399,0.18075 -1.30141,0.54225c-0.34945,0.34945 -0.52418,0.77723 -0.52418,1.28333v20.98516c0,0.5061 0.17473,0.9399 0.52418,1.30141c0.3615,0.34945 0.7953,0.52418 1.30141,0.52418h19.37648c0.49405,0 0.92183,-0.17473 1.28333,-0.52418c0.34945,-0.3615 0.52418,-0.7953 0.52418,-1.30141c0,-0.49405 -0.17473,-0.92183 -0.52418,-1.28333c-0.3615,-0.34945 -0.78928,-0.52418 -1.28333,-0.52418h-17.56897v-6.86853h17.56897c0.49405,0 0.92183,-0.17473 1.28333,-0.52418c0.34945,-0.3615 0.52418,-0.78928 0.52418,-1.28333c0,-0.5061 -0.17473,-0.93388 -0.52418,-1.28333c-0.3615,-0.3615 -0.78928,-0.54225 -1.28333,-0.54225h-17.56897v-6.86853h29.87809v19.17765c0,0.5061 0.17473,0.9399 0.52418,1.30141c0.3615,0.34945 0.78928,0.52418 1.28333,0.52418c0.5061,0 0.9399,-0.17473 1.30141,-0.52418c0.34945,-0.3615 0.52418,-0.7953 0.52418,-1.30141v-19.17765h13.93588c0.49405,0 0.92183,-0.17473 1.28333,-0.52418c0.34945,-0.34945 0.52418,-0.77723 0.52418,-1.28333c0,-0.5061 -0.17473,-0.93388 -0.52418,-1.28333c-0.3615,-0.3615 -0.78928,-0.54225 -1.28333,-0.54225z"></path>
        <path d="M302.8808,255.12635c-0.44585,0 -0.82543,-0.15665 -1.13873,-0.46995c-0.3133,-0.3133 -0.46995,-0.69288 -0.46995,-1.13873v-3.23544c0,-0.44585 0.15665,-0.82543 0.46995,-1.13873c0.3133,-0.3133 0.69288,-0.46995 1.13873,-0.46995c0.44585,0 0.83145,0.15665 1.1568,0.46995c0.3133,0.3133 0.46995,0.69288 0.46995,1.13873v3.23544c0,0.44585 -0.15665,0.82543 -0.46995,1.13873c-0.32535,0.3133 -0.71095,0.46995 -1.1568,0.46995z"></path>
        <path d="M309.22515,279.69037c-0.5061,0 -0.9399,-0.17473 -1.30141,-0.52418c-0.34945,-0.3615 -0.52418,-0.7953 -0.52418,-1.30141c0,-0.49405 0.17473,-0.92183 0.52418,-1.28333c0.3615,-0.34945 0.7953,-0.52418 1.30141,-0.52418h14.11663c0.95195,0 1.75931,-0.3374 2.42206,-1.0122c0.6748,-0.66275 1.0122,-1.47011 1.0122,-2.42206c0,-0.9399 -0.3374,-1.74726 -1.0122,-2.42206c-0.66275,-0.6748 -1.47011,-1.0122 -2.42206,-1.0122h-1.21103c-0.49405,0 -0.92183,-0.17473 -1.28333,-0.52418c-0.34945,-0.3615 -0.52418,-0.78928 -0.52418,-1.28333c0,-0.5061 0.17473,-0.93388 0.52418,-1.28333c0.3615,-0.3615 0.78928,-0.54225 1.28333,-0.54225h1.21103c1.95211,0 3.62104,0.69288 5.00679,2.07863c1.37371,1.37371 2.06056,3.03661 2.06056,4.98872c0,1.95211 -0.68685,3.61501 -2.06056,4.98872c-1.38576,1.38576 -3.05469,2.07863 -5.00679,2.07863zM314.46692,269.18875c-1.95211,0 -3.61501,-0.68685 -4.98872,-2.06056c-1.38576,-1.38576 -2.07863,-3.05469 -2.07863,-5.00679c0,-1.94006 0.69288,-3.60296 2.07863,-4.98872c1.37371,-1.38576 3.03661,-2.07863 4.98872,-2.07863h14.1347c0.49405,0 0.92183,0.18075 1.28333,0.54225c0.34945,0.34945 0.52418,0.77723 0.52418,1.28333c0,0.5061 -0.17473,0.93388 -0.52418,1.28333c-0.3615,0.34945 -0.78928,0.52418 -1.28333,0.52418h-14.1347c-0.95195,0 -1.75931,0.3374 -2.42206,1.0122c-0.6748,0.6748 -1.0122,1.48216 -1.0122,2.42206c0,0.95195 0.3374,1.76533 1.0122,2.44013c0.66275,0.66275 1.47011,0.99413 2.42206,0.99413h1.21103c0.5061,0 0.93388,0.18075 1.28333,0.54225c0.34945,0.34945 0.52418,0.77723 0.52418,1.28333c0,0.49405 -0.17473,0.92183 -0.52418,1.28333c-0.34945,0.34945 -0.77723,0.52418 -1.28333,0.52418z"></path>
        <path d="M225.13974,320.73712c-1.52478,0 -2.83078,-0.54362 -3.91802,-1.63085c-1.08723,-1.08723 -1.63085,-2.39324 -1.63085,-3.91802v-15.99029c0,-1.53804 0.54362,-2.85067 1.63085,-3.93791c1.08723,-1.08723 2.39324,-1.63085 3.91802,-1.63085h17.78024c0.54362,0 1.01431,0.19888 1.41208,0.59665c0.38451,0.38451 0.57676,0.8552 0.57676,1.41208c0,0.55688 -0.19225,1.02757 -0.57676,1.41208c-0.39777,0.38451 -0.86846,0.57676 -1.41208,0.57676h-17.78024c-0.42429,0 -0.78891,0.15248 -1.09386,0.45743c-0.30496,0.30496 -0.45743,0.67621 -0.45743,1.11375v15.99029c0,0.42429 0.15248,0.78891 0.45743,1.09386c0.30496,0.30496 0.66958,0.45743 1.09386,0.45743h17.78024c0.54362,0 1.01431,0.19225 1.41208,0.57676c0.38451,0.39777 0.57676,0.86846 0.57676,1.41208c0,0.55688 -0.19225,1.0342 -0.57676,1.43197c-0.39777,0.38451 -0.86846,0.57676 -1.41208,0.57676z"></path>
        <path d="M260.75989,310.07693c-0.55688,0 -1.02757,-0.19888 -1.41208,-0.59665c-0.39777,-0.38451 -0.59665,-0.8552 -0.59665,-1.41208v-1.77007c0,-0.55688 0.19888,-1.02757 0.59665,-1.41208c0.38451,-0.38451 0.8552,-0.57676 1.41208,-0.57676c0.54362,0 1.01431,0.19225 1.41208,0.57676c0.38451,0.38451 0.57676,0.8552 0.57676,1.41208v1.77007c0,0.55688 -0.19225,1.02757 -0.57676,1.41208c-0.39777,0.39777 -0.86846,0.59665 -1.41208,0.59665zM253.63984,297.62678c-0.42429,0 -0.78891,0.15248 -1.09386,0.45743c-0.30496,0.30496 -0.45743,0.67621 -0.45743,1.11375v15.99029c0,0.42429 0.15248,0.78891 0.45743,1.09386c0.30496,0.30496 0.66958,0.45743 1.09386,0.45743h14.22022c0.42429,0 0.78891,-0.15248 1.09386,-0.45743c0.30496,-0.30496 0.45743,-0.66958 0.45743,-1.09386v-15.99029c0,-0.43755 -0.15248,-0.8088 -0.45743,-1.11375c-0.30496,-0.30496 -0.66958,-0.45743 -1.09386,-0.45743zM253.63984,320.73712c-1.52478,0 -2.83078,-0.54362 -3.91802,-1.63085c-1.08723,-1.08723 -1.63085,-2.39324 -1.63085,-3.91802v-15.99029c0,-1.53804 0.54362,-2.85067 1.63085,-3.93791c1.08723,-1.08723 2.39324,-1.63085 3.91802,-1.63085h14.22022c1.52478,0 2.83078,0.54362 3.91802,1.63085c1.08723,1.08723 1.63085,2.39987 1.63085,3.93791v15.99029c0,1.52478 -0.54362,2.83078 -1.63085,3.91802c-1.08723,1.08723 -2.39324,1.63085 -3.91802,1.63085z"></path>
        <path d="M278.5998,320.73712c-0.55688,0 -1.0342,-0.19225 -1.43197,-0.57676c-0.38451,-0.39777 -0.57676,-0.87509 -0.57676,-1.43197c0,-0.54362 0.19225,-1.01431 0.57676,-1.41208c0.39777,-0.38451 0.87509,-0.57676 1.43197,-0.57676h14.20033c1.41871,0 2.62527,-0.49721 3.61969,-1.49163c0.99442,-1.00768 1.49163,-2.21424 1.49163,-3.61969v-8.89012c0,-1.40545 -0.49721,-2.60538 -1.49163,-3.5998c-0.99442,-1.00768 -2.20098,-1.51152 -3.61969,-1.51152h-14.20033c-0.55688,0 -1.0342,-0.19225 -1.43197,-0.57676c-0.38451,-0.38451 -0.57676,-0.8552 -0.57676,-1.41208c0,-0.55688 0.19225,-1.02757 0.57676,-1.41208c0.39777,-0.39777 0.87509,-0.59665 1.43197,-0.59665h14.20033c2.5192,0 4.66715,0.89498 6.44385,2.68494c1.7767,1.7767 2.66505,3.91802 2.66505,6.42396v8.89012c0,2.50594 -0.88835,4.65389 -2.66505,6.44385c-1.7767,1.7767 -3.92465,2.66505 -6.44385,2.66505z"></path>
        <path d="M307.0999,316.73955c-0.55688,0 -1.0342,0.19225 -1.43197,0.57676c-0.38451,0.39777 -0.57676,0.86846 -0.57676,1.41208c0,0.55688 0.19225,1.0342 0.57676,1.43197c0.39777,0.38451 0.87509,0.57676 1.43197,0.57676h21.32038c0.54362,0 1.01431,-0.19225 1.41208,-0.57676c0.38451,-0.39777 0.57676,-0.87509 0.57676,-1.43197c0,-0.54362 -0.19225,-1.01431 -0.57676,-1.41208c-0.39777,-0.38451 -0.86846,-0.57676 -1.41208,-0.57676zM328.42029,297.62678c0.54362,0 1.01431,-0.19225 1.41208,-0.57676c0.38451,-0.38451 0.57676,-0.8552 0.57676,-1.41208c0,-0.55688 -0.19225,-1.02757 -0.57676,-1.41208c-0.39777,-0.39777 -0.86846,-0.59665 -1.41208,-0.59665h-21.32038c-0.55688,0 -1.0342,0.19888 -1.43197,0.59665c-0.38451,0.38451 -0.57676,0.8552 -0.57676,1.41208c0,0.55688 0.19225,1.02757 0.57676,1.41208c0.39777,0.38451 0.87509,0.57676 1.43197,0.57676zM307.0999,305.18438c-0.55688,0 -1.0342,0.19888 -1.43197,0.59665c-0.38451,0.38451 -0.57676,0.8552 -0.57676,1.41208c0,0.54362 0.19225,1.01431 0.57676,1.41208c0.39777,0.38451 0.87509,0.57676 1.43197,0.57676h21.32038c0.54362,0 1.01431,-0.19225 1.41208,-0.57676c0.38451,-0.39777 0.57676,-0.86846 0.57676,-1.41208c0,-0.55688 -0.19225,-1.02757 -0.57676,-1.41208c-0.39777,-0.39777 -0.86846,-0.59665 -1.41208,-0.59665z"></path>
        <path d="M238.39162,190.46221l5.34848,-5.34848l5.15535,2.45622l-0.59328,1.26073l12.38481,6.08117l2.37314,1.18657l12.08817,5.93284v-7.7127l-12.08817,-5.6362v3.55971l7.63853,3.48554l-0.44496,0.88993l-17.57605,-8.30598l-8.20615,-3.92921l7.12461,-7.12461l23.55218,11.05382v-23.73137h-10.87463l10.72631,-10.72631l36.60834,36.60834l-15.49955,15.49955h-13.02529l8.73807,4.28722l-0.73635,0.73635l-10.22654,-5.02356h-5.71036v-2.8181l-12.08817,-5.93284v17.91988zM274.99995,227.07054l-10.72631,-10.72631h21.45262zM263.06011,176.81667l-10.02947,-0.99348l10.02947,-10.02947zM316.19201,190.71102l-0.01306,0.1774c-0.0012,0.01599 -0.00278,0.03191 -0.00473,0.04776l-0.02185,0.17651c-0.00188,0.01554 -0.00417,0.03105 -0.00687,0.04652l-0.03041,0.17527c-0.0027,0.01554 -0.00578,0.03105 -0.00924,0.04652l-0.03897,0.17358c-0.00345,0.01539 -0.00728,0.03071 -0.01149,0.04596l-0.04742,0.17143c-0.00421,0.01517 -0.00879,0.03022 -0.01374,0.04517l-0.05575,0.16896c-0.00503,0.01524 -0.01044,0.03038 -0.01622,0.04539l-0.06409,0.16592c-0.00563,0.01457 -0.01164,0.02902 -0.01802,0.04337l-0.07209,0.16265c-0.00638,0.01442 -0.01314,0.02869 -0.02027,0.0428l-0.07997,0.15893c-0.00706,0.01412 -0.01449,0.02801 -0.0223,0.04168l-0.08752,0.15476c-0.00789,0.01389 -0.01611,0.02756 -0.02467,0.041l-0.09518,0.15026c-0.00841,0.01329 -0.01712,0.0264 -0.02613,0.03931l-0.10239,0.14542c-0.00916,0.01299 -0.01866,0.02576 -0.0285,0.0383l-0.10948,0.14023c-0.00961,0.01231 -0.01952,0.02441 -0.02974,0.03627l-0.11613,0.13472c-0.01036,0.01209 -0.02102,0.02388 -0.03199,0.03537l-0.12266,0.12886c-0.00548,0.00571 -0.01104,0.01138 -0.01667,0.01701l-0.7629,0.7629l-0.28441,0.28453l-0.28453,0.28441l-11.94845,11.94845l-2.5605,2.56038l-1.13787,1.13799l-0.56905,0.56893l-0.28441,0.28453l-0.56905,0.56893l-2.56038,2.56038l-1.4224,1.42251l-0.28453,0.28441l-0.56893,0.56905l-1.70692,1.70692l-0.28453,0.28441l-0.28453,0.28453l-0.28441,0.28453l-0.56905,0.56893l-0.28441,0.28453l-2.56038,2.56038l-2.27597,2.27586l-2.84479,2.84491l-0.85357,0.85346l-1.4224,1.4224c-0.00563,0.00563 -0.0113,0.01119 -0.01701,0.01667l-0.12886,0.12266c-0.01141,0.01081 -0.02309,0.02136 -0.03503,0.03165l-0.13472,0.11624c-0.01194,0.01036 -0.02414,0.02039 -0.03661,0.03008l-0.14023,0.10948c-0.01254,0.00984 -0.0253,0.01933 -0.0383,0.0285l-0.14542,0.10239c-0.01292,0.00901 -0.02602,0.01772 -0.03931,0.02613l-0.15026,0.09518c-0.01344,0.00856 -0.02707,0.01675 -0.04089,0.02455l-0.15476,0.08763c-0.01374,0.00781 -0.02767,0.01528 -0.04179,0.02242l-0.15893,0.07997c-0.01412,0.00706 -0.02839,0.01378 -0.0428,0.02016l-0.16265,0.07209c-0.01434,0.00638 -0.0288,0.01239 -0.04337,0.01802l-0.16592,0.06409c-0.01502,0.00578 -0.03015,0.01119 -0.04539,0.01622l-0.16896,0.05575c-0.01494,0.00496 -0.03004,0.00954 -0.04528,0.01374l-0.17143,0.04742c-0.01517,0.00421 -0.03045,0.00803 -0.04584,0.01149l-0.17358,0.03897c-0.01547,0.00345 -0.03097,0.00653 -0.04652,0.00924l-0.17527,0.03041c-0.01547,0.0027 -0.03097,0.00499 -0.04652,0.00687l-0.17651,0.02185c-0.01585,0.00195 -0.03176,0.00353 -0.04776,0.00473l-0.1774,0.01306c-0.01569,0.00112 -0.03139,0.00192 -0.04708,0.00236l-0.17786,0.00439c-0.01592,0.00037 -0.03184,0.00037 -0.04776,0l-0.17786,-0.00439c-0.01569,-0.00045 -0.03139,-0.00124 -0.04708,-0.00236l-0.1774,-0.01306c-0.01599,-0.0012 -0.03191,-0.00278 -0.04776,-0.00473l-0.17651,-0.02185c-0.01554,-0.00188 -0.03105,-0.00417 -0.04652,-0.00687l-0.17527,-0.03041c-0.01554,-0.0027 -0.03105,-0.00578 -0.04652,-0.00924l-0.17358,-0.03897c-0.01539,-0.00345 -0.03068,-0.00728 -0.04584,-0.01149l-0.17143,-0.04742c-0.01524,-0.00421 -0.03034,-0.00879 -0.04528,-0.01374l-0.16896,-0.05575c-0.01524,-0.00503 -0.03038,-0.01044 -0.04539,-0.01622l-0.16592,-0.06409c-0.01457,-0.00563 -0.02902,-0.01164 -0.04337,-0.01802l-0.16265,-0.07209c-0.01449,-0.00638 -0.02884,-0.01318 -0.04303,-0.02039l-0.15882,-0.07997c-0.01404,-0.00706 -0.0279,-0.01446 -0.04156,-0.02219l-0.15476,-0.08763c-0.01374,-0.00773 -0.02729,-0.01585 -0.04066,-0.02433l-0.15037,-0.09518c-0.01336,-0.00849 -0.02654,-0.01727 -0.03953,-0.02636l-0.14542,-0.10239c-0.01299,-0.00916 -0.02576,-0.01866 -0.0383,-0.0285l-0.14023,-0.10948c-0.01247,-0.00969 -0.02467,-0.01971 -0.03661,-0.03008l-0.13472,-0.11624c-0.01194,-0.01029 -0.02362,-0.02084 -0.03503,-0.03165l-0.12886,-0.12266c-0.00571,-0.00548 -0.01138,-0.01104 -0.01701,-0.01667l-5.59914,-5.59914l-0.28453,-0.28441l-2.84482,-2.84491l-0.28449,-0.28453l-2.2759,-2.27586l-0.56897,-0.56893l-0.28449,-0.28453l-1.70692,-1.70692l-0.28449,-0.28453l-0.28449,-0.28441l-1.70692,-1.70692l-0.85346,-0.85357l-0.28448,-0.28441l-0.28449,-0.28453l-2.84488,-2.84491l-0.56898,-0.56893l-0.28448,-0.28453l-0.56898,-0.56893l-0.28448,-0.28453l-0.28449,-0.28441l-1.13795,-1.13799l-1.42244,-1.4224l-0.85346,-0.85346l-0.56897,-0.56905l-0.56898,-0.56893l-0.28448,-0.28453l-0.28449,-0.28441l-3.12936,-3.12943l-0.28453,-0.28441l-0.28441,-0.28453l-0.28453,-0.28453l-0.28453,-0.28441l-0.56893,-0.56905l-1.13799,-1.13787l-3.12932,-3.12943c-0.00563,-0.00563 -0.01119,-0.0113 -0.01667,-0.01701l-0.12266,-0.12886c-0.01081,-0.01141 -0.02136,-0.02309 -0.03165,-0.03503l-0.11624,-0.13472c-0.01044,-0.01209 -0.02057,-0.02441 -0.03041,-0.03695l-0.10937,-0.14023c-0.00954,-0.01231 -0.01881,-0.02486 -0.02782,-0.03762l-0.1025,-0.14542c-0.00916,-0.01299 -0.01798,-0.02621 -0.02647,-0.03965l-0.09518,-0.15026c-0.00856,-0.01344 -0.01675,-0.02707 -0.02455,-0.04089l-0.08763,-0.15476c-0.00781,-0.01374 -0.01528,-0.02767 -0.02242,-0.04179l-0.07997,-0.15893c-0.00706,-0.01412 -0.01378,-0.02839 -0.02016,-0.0428l-0.07209,-0.16265c-0.00646,-0.01449 -0.01254,-0.02914 -0.01825,-0.04393l-0.06398,-0.16592c-0.00563,-0.01464 -0.01089,-0.0294 -0.01577,-0.04427l-0.05587,-0.16896c-0.00503,-0.01517 -0.00969,-0.03041 -0.01397,-0.04573l-0.04742,-0.17143c-0.00421,-0.01524 -0.00803,-0.03056 -0.01149,-0.04596l-0.03897,-0.17358c-0.00345,-0.01547 -0.00653,-0.03097 -0.00924,-0.04652l-0.03041,-0.17527c-0.0027,-0.01562 -0.00503,-0.03132 -0.00698,-0.04708l-0.02174,-0.17651c-0.00188,-0.01547 -0.00342,-0.03097 -0.00462,-0.04652l-0.01318,-0.1774c-0.0012,-0.01615 -0.00199,-0.03229 -0.00236,-0.04843l-0.00428,-0.17786c-0.00037,-0.01547 -0.00037,-0.03094 0,-0.04641l0.00428,-0.17786c0.00037,-0.01615 0.00117,-0.03229 0.00236,-0.04843l0.01318,-0.1774c0.0012,-0.01554 0.00274,-0.03105 0.00462,-0.04652l0.02174,-0.17651c0.00195,-0.01577 0.00428,-0.03146 0.00698,-0.04708l0.03041,-0.17527c0.0027,-0.01554 0.00578,-0.03105 0.00924,-0.04652l0.03897,-0.17358c0.00345,-0.01539 0.00728,-0.03071 0.01149,-0.04596l0.04742,-0.17143c0.00428,-0.01532 0.00894,-0.03056 0.01397,-0.04573l0.05587,-0.16896c0.00488,-0.01487 0.01014,-0.02962 0.01577,-0.04427l0.06398,-0.16592c0.00571,-0.01479 0.01179,-0.02944 0.01825,-0.04393l0.07209,-0.16265c0.00638,-0.01442 0.01311,-0.02868 0.02016,-0.04278l0.07997,-0.15893c0.00714,-0.01411 0.01461,-0.02804 0.02242,-0.04178l0.08763,-0.15476c0.00781,-0.01386 0.01599,-0.02753 0.02455,-0.04099l0.09518,-0.15025c0.00849,-0.0134 0.01731,-0.02659 0.02647,-0.03957l0.1025,-0.14544c0.00894,-0.01276 0.01821,-0.02529 0.02782,-0.0376l0.10937,-0.14023c0.00984,-0.01262 0.01997,-0.02497 0.03041,-0.03708l0.11624,-0.13469c0.01029,-0.01192 0.02088,-0.02358 0.03176,-0.03499l0.12266,-0.12883c0.00541,-0.00572 0.01093,-0.01138 0.01656,-0.01696l1.33184,-1.33181l2.84479,-2.84487l0.56905,-0.56898l0.85346,-0.85346l0.28441,-0.28449l0.56905,-0.56897l0.28441,-0.28449l0.56905,-0.56898l1.99138,-1.99141l0.85347,-0.85346l0.28448,-0.28449l0.28449,-0.28449l2.56038,-2.56039l0.28449,-0.28449l0.28449,-0.28448l0.28449,-0.28449l1.13794,-1.13795l0.28449,-0.28449l2.56039,-2.56038l0.28448,-0.28449l1.99141,-1.99141l1.42244,-1.42243l0.28448,-0.28453l0.28449,-0.28441l2.84487,-2.84491l0.85346,-0.85346l0.28449,-0.28453l1.99141,-1.99145l0.28449,-0.28441l2.8449,-2.84491l5.12077,-5.12077c0.00563,-0.00563 0.0113,-0.01119 0.01701,-0.01667l0.12886,-0.12266c0.01141,-0.01081 0.02309,-0.02136 0.03503,-0.03165l0.13472,-0.11624c0.01194,-0.01036 0.02414,-0.02039 0.03661,-0.03008l0.14023,-0.10948c0.01254,-0.00984 0.0253,-0.01933 0.0383,-0.0285l0.14542,-0.10239c0.01299,-0.00908 0.02617,-0.01787 0.03953,-0.02636l0.15037,-0.09518c0.01336,-0.00849 0.02692,-0.0166 0.04066,-0.02433l0.15476,-0.08763c0.01367,-0.00773 0.02752,-0.01513 0.04156,-0.02219l0.15882,-0.07997c0.01419,-0.00721 0.02853,-0.014 0.04303,-0.02039l0.16265,-0.07209c0.01434,-0.00638 0.0288,-0.01239 0.04337,-0.01802l0.16592,-0.06409c0.01502,-0.00578 0.03015,-0.01119 0.04539,-0.01622l0.16896,-0.05575c0.01494,-0.00496 0.03004,-0.00954 0.04528,-0.01374l0.17143,-0.04742c0.01517,-0.00421 0.03045,-0.00803 0.04584,-0.01149l0.17358,-0.03897c0.01547,-0.00345 0.03097,-0.00653 0.04652,-0.00924l0.17527,-0.03041c0.01547,-0.0027 0.03097,-0.00499 0.04652,-0.00687l0.17651,-0.02185c0.01585,-0.00195 0.03176,-0.00353 0.04776,-0.00473l0.1774,-0.01306c0.01569,-0.00112 0.03139,-0.00192 0.04708,-0.00236l0.17786,-0.00439c0.01592,-0.00037 0.03184,-0.00037 0.04776,0l0.17786,0.00439c0.01569,0.00045 0.03139,0.00124 0.04708,0.00236l0.1774,0.01306c0.01599,0.0012 0.03191,0.00278 0.04776,0.00473l0.17651,0.02185c0.01554,0.00188 0.03105,0.00417 0.04652,0.00687l0.17527,0.03041c0.01554,0.0027 0.03105,0.00578 0.04652,0.00924l0.17358,0.03897c0.01539,0.00345 0.03068,0.00728 0.04584,0.01149l0.17143,0.04742c0.01524,0.00421 0.03034,0.00879 0.04528,0.01374l0.16896,0.05575c0.01524,0.00503 0.03038,0.01044 0.04539,0.01622l0.16592,0.06409c0.01457,0.00563 0.02902,0.01164 0.04337,0.01802l0.16265,0.07209c0.01442,0.00638 0.02869,0.01311 0.0428,0.02016l0.15893,0.07997c0.01412,0.00714 0.02805,0.01461 0.04179,0.02242l0.15476,0.08763c0.01382,0.00781 0.02745,0.01599 0.04089,0.02455l0.15026,0.09518c0.01329,0.00841 0.0264,0.01712 0.03931,0.02613l0.14542,0.10239c0.01299,0.00916 0.02576,0.01866 0.0383,0.0285l0.14023,0.10948c0.01247,0.00969 0.02467,0.01971 0.03661,0.03008l0.13472,0.11624c0.01194,0.01029 0.02362,0.02084 0.03503,0.03165l0.12886,0.12266c0.00571,0.00548 0.01138,0.01104 0.01701,0.01667l0.19396,0.19385l1.13787,1.13799l4.83635,4.83635l2.84491,2.84479l0.28441,0.28453l0.28453,0.28453l0.28453,0.28441l0.56893,0.56905l0.28453,0.28441l0.56893,0.56905l1.13799,1.13787l2.56038,2.56038l0.28441,0.28453l0.28453,0.28448l0.28453,0.28449l0.28453,0.28448l0.28441,0.28449l0.28453,0.28449l0.28453,0.28448l0.28441,0.2845l0.28453,0.28448l1.13799,1.13795l0.85346,0.85346l2.84479,2.84487l0.28453,0.28449l0.85346,0.85346l2.84491,2.84487l0.56893,0.56897l0.28453,0.28449l1.4224,1.42243l0.56905,0.56898l0.28441,0.28448l0.28453,0.28449l2.84491,2.84487l1.99133,1.99141l1.13799,1.13795l0.28453,0.28449l0.28441,0.28448l0.28453,0.28448c0.00563,0.00559 0.01115,0.01126 0.01656,0.01699l0.12266,0.12883c0.01096,0.01151 0.02163,0.02329 0.03199,0.03532l0.11613,0.13469c0.01029,0.01187 0.02024,0.02399 0.02985,0.03635l0.10948,0.14023c0.00984,0.01256 0.01933,0.02536 0.0285,0.0384l0.10239,0.14544c0.00901,0.01283 0.01772,0.02588 0.02613,0.03914l0.09518,0.15025c0.00856,0.01347 0.01678,0.02715 0.02467,0.04102l0.08752,0.15476c0.00781,0.01374 0.01524,0.02765 0.0223,0.04176l0.07997,0.15893c0.00714,0.0141 0.01389,0.02836 0.02027,0.04278l0.07209,0.16265c0.00638,0.01434 0.01239,0.0288 0.01802,0.04337l0.06409,0.16592c0.00578,0.01502 0.01119,0.03015 0.01622,0.04539l0.05575,0.16896c0.00496,0.01494 0.00954,0.03 0.01374,0.04517l0.04742,0.17143c0.00421,0.01524 0.00803,0.03056 0.01149,0.04596l0.03897,0.17358c0.00345,0.01547 0.00653,0.03097 0.00924,0.04652l0.03041,0.17527c0.0027,0.01547 0.00499,0.03097 0.00687,0.04652l0.02185,0.17651c0.00195,0.01585 0.00353,0.03176 0.00473,0.04776l0.01306,0.1774c0.00112,0.01569 0.00192,0.03139 0.00236,0.04708l0.00439,0.17786c0.00037,0.01592 0.00037,0.03184 0,0.04776l-0.00439,0.17786c-0.00045,0.01569 -0.00124,0.03139 -0.00236,0.04708zM314.26262,190.33177l-0.00957,-0.12987l-0.01599,-0.12931l-0.02242,-0.12886l-0.02861,-0.12728l-0.03481,-0.12593l-0.04077,-0.12356l-0.04697,-0.12154l-0.05294,-0.11951l-0.05868,-0.11658l-0.0642,-0.11343l-0.06972,-0.11016l-0.07513,-0.10656l-0.08031,-0.10284l-0.08515,-0.0989l-0.098,-0.10295l-0.27619,-0.2761l-0.28453,-0.2845l-0.28441,-0.28448l-1.13799,-1.13795l-1.99145,-1.9914l-2.84479,-2.84489l-0.28453,-0.28448l-0.28453,-0.28449l-0.28441,-0.28449l-0.28453,-0.28448l-1.4224,-1.42244l-0.28453,-0.28448l-0.56893,-0.56898l-2.84491,-2.84488l-0.85346,-0.85346l-0.28453,-0.28448l-2.84491,-2.84489l-0.85346,-0.85345l-1.13787,-1.13795l-0.28453,-0.28449l-0.28453,-0.28448l-0.28441,-0.2845l-0.28453,-0.28448l-0.28453,-0.28449l-0.28441,-0.28449l-0.28453,-0.28448l-0.28453,-0.28449l-0.28441,-0.28449l-2.56038,-2.56033l-2.27597,-2.27597l-0.28453,-0.28441l-0.28441,-0.28453l-8.2502,-8.2502l-1.13799,-1.13787l-0.1854,-0.18552l-0.10317,-0.09822l-0.0989,-0.08527l-0.10273,-0.0802l-0.10656,-0.07513l-0.11016,-0.06972l-0.11331,-0.0642l-0.11669,-0.05868l-0.11951,-0.05294l-0.12154,-0.04697l-0.12368,-0.04077l-0.12582,-0.03481l-0.12728,-0.02861l-0.12875,-0.0223l-0.12942,-0.01611l-0.12987,-0.00957l-0.13044,-0.00316l-0.13044,0.00316l-0.12987,0.00957l-0.12942,0.01611l-0.12875,0.0223l-0.12728,0.02861l-0.12582,0.03481l-0.12368,0.04077l-0.12154,0.04697l-0.1194,0.05294l-0.11647,0.05857l-0.11365,0.06443l-0.11027,0.06972l-0.10644,0.07502l-0.10273,0.0802l-0.0989,0.08527l-0.10317,0.09822l-5.11232,5.11232l-2.84487,2.84491l-0.28448,0.28453l-1.99141,1.99133l-0.28449,0.28453l-0.85346,0.85346l-2.84487,2.84489l-0.28449,0.28449l-0.28449,0.28448l-1.42243,1.42244l-1.99142,1.99141l-0.56898,0.56898l-1.42243,1.42243l-2.56039,2.56039l-0.28448,0.28449l-0.28449,0.28448l-2.56038,2.56039l-0.28449,0.28449l-0.28449,0.28448l-0.85346,0.85347l-2.84487,2.84487l-0.56893,0.56898l-0.28453,0.28448l-0.85346,0.85346l-0.56893,0.56898l-2.84491,2.84487l-1.32339,1.32343l-0.09822,0.10317l-0.08515,0.09867l-0.0802,0.10284l-0.07535,0.10678l-0.06961,0.10994l-0.0642,0.11343l-0.05868,0.11658l-0.05283,0.11928l-0.04697,0.12176l-0.041,0.1239l-0.03469,0.12559l-0.02861,0.12728l-0.0223,0.12852l-0.01599,0.12965l-0.00957,0.12987l-0.00316,0.13044l0.00316,0.13044l0.00957,0.12987l0.01599,0.12965l0.0223,0.12852l0.02861,0.12728l0.03469,0.12559l0.041,0.1239l0.04697,0.12176l0.05283,0.11928l0.05868,0.11658l0.0642,0.11343l0.06961,0.10994l0.07524,0.10678l0.08031,0.10295l0.08515,0.09867l0.09822,0.10317l3.12099,3.12087l1.13787,1.13799l0.28453,0.28453l0.28453,0.28441l0.28441,0.28453l0.28453,0.28453l0.28453,0.28441l0.28441,0.28453l0.28453,0.28453l2.84486,2.84479l0.28449,0.28453l0.85346,0.85346l0.56898,0.56893l0.85346,0.85346l1.42243,1.42251l1.13795,1.13787l0.56898,0.56905l0.56897,0.56893l0.28449,0.28453l0.56897,0.56893l2.84489,2.84491l0.28448,0.28453l0.28449,0.28441l0.56897,0.56905l0.28449,0.28441l1.70693,1.70692l0.28448,0.28453l0.28449,0.28453l1.70692,1.70692l0.28449,0.28441l0.56898,0.56905l2.27589,2.27586l0.28449,0.28453l2.84491,2.84479l0.28441,0.28453l5.59069,5.59069l0.10317,0.09822l0.0989,0.08527l0.10273,0.08031l0.10644,0.0749l0.11038,0.06984l0.11343,0.0642l0.11658,0.05868l0.1194,0.05294l0.12154,0.04697l0.12356,0.04077l0.12593,0.03481l0.12728,0.02861l0.12875,0.0223l0.12942,0.01611l0.12998,0.00957l0.13032,0.00316l0.13032,-0.00316l0.12998,-0.00957l0.12942,-0.01611l0.12875,-0.0223l0.12728,-0.02861l0.12593,-0.03481l0.12356,-0.04077l0.12154,-0.04697l0.11951,-0.05294l0.11669,-0.05868l0.11331,-0.0642l0.11016,-0.06972l0.10656,-0.07513l0.10273,-0.0802l0.0989,-0.08527l0.10306,-0.09822l0.27619,-0.27608l4.83624,-4.83624l2.27586,-2.27597l2.5605,-2.56038l8.53461,-8.53461l0.28453,-0.28441l0.28441,-0.28453l0.28453,-0.28453l0.28453,-0.28441l1.13787,-1.13799l2.56038,-2.56038l0.56905,-0.56893l0.28441,-0.28453l1.42251,-1.4224l0.56893,-0.56905l2.27597,-2.27586l1.13787,-1.13799l1.99145,-1.99133l3.69837,-3.69837l0.28441,-0.28453l0.28453,-0.28441l0.28453,-0.28453l0.46993,-0.47004l0.09811,-0.10295l0.08515,-0.09878l0.08042,-0.10295l0.07502,-0.10667l0.06972,-0.11005l0.0642,-0.11343l0.05868,-0.11658l0.05294,-0.11951l0.04697,-0.12154l0.04077,-0.12356l0.03481,-0.12593l0.02861,-0.12728l0.02242,-0.12886l0.01599,-0.12931l0.00957,-0.12987l0.00316,-0.13044z"></path>
    </g>
</svg>
