<svg
  version="1.0"
  xmlns="http://www.w3.org/2000/svg"
  width="450.000000pt"
  height="450.000000pt"
  viewBox="0 0 450.000000 450.000000"
  preserveAspectRatio="xMidYMid meet"
>
	<g
    fill="#1065c4"
    stroke="none"
    transform="translate(0.000000,450.000000) scale(0.100000,-0.100000)"
  >
		<path d="M434 4066 l-34 -34 0 -282 0 -282 34 -34 34 -34 281 0 281 0 32 29 33 29 3 287 3 286 -35 35 -34 34 -282 0 -282 0 -34 -34z m533 -101 l34 -34 -3 -186 -3 -187 -33 -29 -32 -29 -181 0 -181 0 -34 34 -34 34 0 182 0 182 34 34 34 34 182 0 182 0 35 -35z"></path>
		<path d="M634 3866 c-33 -33 -34 -36 -34 -116 0 -80 1 -83 34 -116 33 -33 36 -34 116 -34 80 0 83 1 116 34 33 33 34 36 34 116 0 80 -1 83 -34 116 -33 33 -36 34 -116 34 -80 0 -83 -1 -116 -34z"></path>
		<path d="M3434 4066 l-34 -34 0 -282 0 -282 34 -34 34 -34 282 0 282 0 34 34 34 34 0 282 0 282 -34 34 -34 34 -282 0 -282 0 -34 -34z m533 -101 l34 -34 -3 -186 -3 -187 -33 -29 -32 -29 -181 0 -181 0 -34 34 -34 34 0 182 0 182 34 34 34 34 182 0 182 0 35 -35z"></path>
		<path d="M3634 3866 c-33 -33 -34 -36 -34 -116 0 -80 1 -83 34 -116 33 -33 36 -34 115 -34 75 0 83 2 113 29 32 28 33 33 37 115 l3 86 -35 35 c-34 34 -37 35 -117 35 -80 0 -83 -1 -116 -34z"></path>
		<path d="M1320 4075 c-26 -32 13 -81 48 -59 34 22 22 74 -18 74 -10 0 -23 -7 -30 -15z"></path>
		<path d="M1420 4075 c-26 -32 13 -81 48 -59 34 22 22 74 -18 74 -10 0 -23 -7 -30 -15z"></path>
		<path d="M1620 4075 c-26 -32 13 -81 48 -59 34 22 22 74 -18 74 -10 0 -23 -7 -30 -15z"></path>
		<path d="M2220 4075 c-26 -32 13 -81 48 -59 34 22 22 74 -18 74 -10 0 -23 -7 -30 -15z"></path>
		<path d="M2420 4075 c-26 -32 13 -81 48 -59 34 22 22 74 -18 74 -10 0 -23 -7 -30 -15z"></path>
		<path d="M2620 4075 c-26 -32 13 -81 48 -59 34 22 22 74 -18 74 -10 0 -23 -7 -30 -15z"></path>
		<path d="M2820 4075 c-26 -32 13 -81 48 -59 34 22 22 74 -18 74 -10 0 -23 -7 -30 -15z"></path>
		<path d="M2920 4075 c-26 -32 13 -81 48 -59 34 22 22 74 -18 74 -10 0 -23 -7 -30 -15z"></path>
		<path d="M3120 4075 c-26 -32 13 -81 48 -59 34 22 22 74 -18 74 -10 0 -23 -7 -30 -15z"></path>
		<path d="M3220 4075 c-26 -32 13 -81 48 -59 34 22 22 74 -18 74 -10 0 -23 -7 -30 -15z"></path>
		<path d="M1320 3975 c-26 -32 13 -81 48 -59 34 22 22 74 -18 74 -10 0 -23 -7 -30 -15z"></path>
		<path d="M1420 3975 c-26 -32 13 -81 48 -59 34 22 22 74 -18 74 -10 0 -23 -7 -30 -15z"></path>
		<path d="M1520 3975 c-26 -32 13 -81 48 -59 34 22 22 74 -18 74 -10 0 -23 -7 -30 -15z"></path>
		<path d="M1620 3975 c-26 -32 13 -81 48 -59 34 22 22 74 -18 74 -10 0 -23 -7 -30 -15z"></path>
		<path d="M1820 3975 c-26 -32 13 -81 48 -59 34 22 22 74 -18 74 -10 0 -23 -7 -30 -15z"></path>
		<path d="M2020 3975 c-26 -32 13 -81 48 -59 34 22 22 74 -18 74 -10 0 -23 -7 -30 -15z"></path>
		<path d="M2320 3975 c-26 -32 13 -81 48 -59 34 22 22 74 -18 74 -10 0 -23 -7 -30 -15z"></path>
		<path d="M2620 3975 c-26 -32 13 -81 48 -59 34 22 22 74 -18 74 -10 0 -23 -7 -30 -15z"></path>
		<path d="M2920 3975 c-26 -32 13 -81 48 -59 34 22 22 74 -18 74 -10 0 -23 -7 -30 -15z"></path>
		<path d="M1220 3875 c-26 -32 13 -81 48 -59 34 22 22 74 -18 74 -10 0 -23 -7 -30 -15z"></path>
		<path d="M1320 3875 c-26 -32 13 -81 48 -59 34 22 22 74 -18 74 -10 0 -23 -7 -30 -15z"></path>
		<path d="M1620 3875 c-26 -32 13 -81 48 -59 34 22 22 74 -18 74 -10 0 -23 -7 -30 -15z"></path>
		<path d="M1720 3875 c-26 -32 13 -81 48 -59 34 22 22 74 -18 74 -10 0 -23 -7 -30 -15z"></path>
		<path d="M1820 3875 c-26 -32 13 -81 48 -59 34 22 22 74 -18 74 -10 0 -23 -7 -30 -15z"></path>
		<path d="M1920 3875 c-26 -32 13 -81 48 -59 34 22 22 74 -18 74 -10 0 -23 -7 -30 -15z"></path>
		<path d="M2320 3875 c-26 -32 13 -81 48 -59 34 22 22 74 -18 74 -10 0 -23 -7 -30 -15z"></path>
		<path d="M2420 3875 c-26 -32 13 -81 48 -59 34 22 22 74 -18 74 -10 0 -23 -7 -30 -15z"></path>
		<path d="M2520 3875 c-26 -32 13 -81 48 -59 34 22 22 74 -18 74 -10 0 -23 -7 -30 -15z"></path>
		<path d="M2620 3875 c-26 -32 13 -81 48 -59 34 22 22 74 -18 74 -10 0 -23 -7 -30 -15z"></path>
		<path d="M2820 3875 c-26 -32 13 -81 48 -59 34 22 22 74 -18 74 -10 0 -23 -7 -30 -15z"></path>
		<path d="M3020 3875 c-26 -32 13 -81 48 -59 34 22 22 74 -18 74 -10 0 -23 -7 -30 -15z"></path>
		<path d="M3220 3875 c-26 -32 13 -81 48 -59 34 22 22 74 -18 74 -10 0 -23 -7 -30 -15z"></path>
		<path d="M1220 3775 c-26 -32 13 -81 48 -59 34 22 22 74 -18 74 -10 0 -23 -7 -30 -15z"></path>
		<path d="M1520 3775 c-26 -32 13 -81 48 -59 34 22 22 74 -18 74 -10 0 -23 -7 -30 -15z"></path>
		<path d="M1620 3775 c-26 -32 13 -81 48 -59 34 22 22 74 -18 74 -10 0 -23 -7 -30 -15z"></path>
		<path d="M1720 3775 c-26 -32 13 -81 48 -59 34 22 22 74 -18 74 -10 0 -23 -7 -30 -15z"></path>
		<path d="M1920 3775 c-26 -32 13 -81 48 -59 34 22 22 74 -18 74 -10 0 -23 -7 -30 -15z"></path>
		<path d="M2020 3775 c-26 -32 13 -81 48 -59 34 22 22 74 -18 74 -10 0 -23 -7 -30 -15z"></path>
		<path d="M2120 3775 c-26 -32 13 -81 48 -59 34 22 22 74 -18 74 -10 0 -23 -7 -30 -15z"></path>
		<path d="M2320 3775 c-26 -32 13 -81 48 -59 34 22 22 74 -18 74 -10 0 -23 -7 -30 -15z"></path>
		<path d="M2620 3775 c-26 -32 13 -81 48 -59 34 22 22 74 -18 74 -10 0 -23 -7 -30 -15z"></path>
		<path d="M2820 3775 c-26 -32 13 -81 48 -59 34 22 22 74 -18 74 -10 0 -23 -7 -30 -15z"></path>
		<path d="M2920 3775 c-26 -32 13 -81 48 -59 34 22 22 74 -18 74 -10 0 -23 -7 -30 -15z"></path>
		<path d="M3020 3775 c-26 -32 13 -81 48 -59 34 22 22 74 -18 74 -10 0 -23 -7 -30 -15z"></path>
		<path d="M1220 3675 c-26 -32 13 -81 48 -59 34 22 22 74 -18 74 -10 0 -23 -7 -30 -15z"></path>
		<path d="M1620 3675 c-26 -32 13 -81 48 -59 34 22 22 74 -18 74 -10 0 -23 -7 -30 -15z"></path>
		<path d="M1820 3675 c-26 -32 13 -81 48 -59 34 22 22 74 -18 74 -10 0 -23 -7 -30 -15z"></path>
		<path d="M1920 3675 c-26 -32 13 -81 48 -59 34 22 22 74 -18 74 -10 0 -23 -7 -30 -15z"></path>
		<path d="M2020 3675 c-26 -32 13 -81 48 -59 34 22 22 74 -18 74 -10 0 -23 -7 -30 -15z"></path>
		<path d="M2220 3675 c-26 -32 13 -81 48 -59 34 22 22 74 -18 74 -10 0 -23 -7 -30 -15z"></path>
		<path d="M2320 3675 c-26 -32 13 -81 48 -59 34 22 22 74 -18 74 -10 0 -23 -7 -30 -15z"></path>
		<path d="M2420 3675 c-26 -32 13 -81 48 -59 34 22 22 74 -18 74 -10 0 -23 -7 -30 -15z"></path>
		<path d="M2720 3675 c-26 -32 13 -81 48 -59 34 22 22 74 -18 74 -10 0 -23 -7 -30 -15z"></path>
		<path d="M2820 3675 c-26 -32 13 -81 48 -59 34 22 22 74 -18 74 -10 0 -23 -7 -30 -15z"></path>
		<path d="M3220 3675 c-26 -32 13 -81 48 -59 34 22 22 74 -18 74 -10 0 -23 -7 -30 -15z"></path>
		<path d="M1220 3575 c-26 -32 13 -81 48 -59 34 22 22 74 -18 74 -10 0 -23 -7 -30 -15z"></path>
		<path d="M1520 3575 c-26 -32 13 -81 48 -59 34 22 22 74 -18 74 -10 0 -23 -7 -30 -15z"></path>
		<path d="M1620 3575 c-26 -32 13 -81 48 -59 34 22 22 74 -18 74 -10 0 -23 -7 -30 -15z"></path>
		<path d="M1720 3575 c-26 -32 13 -81 48 -59 34 22 22 74 -18 74 -10 0 -23 -7 -30 -15z"></path>
		<path d="M1920 3575 c-26 -32 13 -81 48 -59 34 22 22 74 -18 74 -10 0 -23 -7 -30 -15z"></path>
		<path d="M2020 3575 c-26 -32 13 -81 48 -59 34 22 22 74 -18 74 -10 0 -23 -7 -30 -15z"></path>
		<path d="M2220 3575 c-26 -32 13 -81 48 -59 34 22 22 74 -18 74 -10 0 -23 -7 -30 -15z"></path>
		<path d="M2420 3575 c-26 -32 13 -81 48 -59 34 22 22 74 -18 74 -10 0 -23 -7 -30 -15z"></path>
		<path d="M2620 3575 c-26 -32 13 -81 48 -59 34 22 22 74 -18 74 -10 0 -23 -7 -30 -15z"></path>
		<path d="M3120 3575 c-26 -32 13 -81 48 -59 34 22 22 74 -18 74 -10 0 -23 -7 -30 -15z"></path>
		<path d="M1220 3475 c-26 -32 13 -81 48 -59 34 22 22 74 -18 74 -10 0 -23 -7 -30 -15z"></path>
		<path d="M1420 3475 c-26 -32 13 -81 48 -59 34 22 22 74 -18 74 -10 0 -23 -7 -30 -15z"></path>
		<path d="M1620 3475 c-26 -32 13 -81 48 -59 34 22 22 74 -18 74 -10 0 -23 -7 -30 -15z"></path>
		<path d="M1820 3475 c-26 -32 13 -81 48 -59 34 22 22 74 -18 74 -10 0 -23 -7 -30 -15z"></path>
		<path d="M2020 3475 c-26 -32 13 -81 48 -59 34 22 22 74 -18 74 -10 0 -23 -7 -30 -15z"></path>
		<path d="M2220 3475 c-26 -32 13 -81 48 -59 34 22 22 74 -18 74 -10 0 -23 -7 -30 -15z"></path>
		<path d="M2420 3475 c-26 -32 13 -81 48 -59 34 22 22 74 -18 74 -10 0 -23 -7 -30 -15z"></path>
		<path d="M2620 3475 c-26 -32 13 -81 48 -59 34 22 22 74 -18 74 -10 0 -23 -7 -30 -15z"></path>
		<path d="M2820 3475 c-26 -32 13 -81 48 -59 34 22 22 74 -18 74 -10 0 -23 -7 -30 -15z"></path>
		<path d="M3020 3475 c-26 -32 13 -81 48 -59 34 22 22 74 -18 74 -10 0 -23 -7 -30 -15z"></path>
		<path d="M3220 3475 c-26 -32 13 -81 48 -59 34 22 22 74 -18 74 -10 0 -23 -7 -30 -15z"></path>
		<path d="M1220 3375 c-26 -32 13 -81 48 -59 34 22 22 74 -18 74 -10 0 -23 -7 -30 -15z"></path>
		<path d="M1520 3375 c-26 -32 13 -81 48 -59 34 22 22 74 -18 74 -10 0 -23 -7 -30 -15z"></path>
		<path d="M1720 3375 c-26 -32 13 -81 48 -59 34 22 22 74 -18 74 -10 0 -23 -7 -30 -15z"></path>
		<path d="M1820 3375 c-26 -32 13 -81 48 -59 34 22 22 74 -18 74 -10 0 -23 -7 -30 -15z"></path>
		<path d="M1920 3375 c-26 -32 13 -81 48 -59 34 22 22 74 -18 74 -10 0 -23 -7 -30 -15z"></path>
		<path d="M2420 3375 c-26 -32 13 -81 48 -59 34 22 22 74 -18 74 -10 0 -23 -7 -30 -15z"></path>
		<path d="M3020 3375 c-26 -32 13 -81 48 -59 34 22 22 74 -18 74 -10 0 -23 -7 -30 -15z"></path>
		<path d="M3220 3375 c-26 -32 13 -81 48 -59 34 22 22 74 -18 74 -10 0 -23 -7 -30 -15z"></path>
		<path d="M420 3275 c-26 -32 13 -81 48 -59 34 22 22 74 -18 74 -10 0 -23 -7 -30 -15z"></path>
		<path d="M620 3275 c-26 -32 13 -81 48 -59 34 22 22 74 -18 74 -10 0 -23 -7 -30 -15z"></path>
		<path d="M720 3275 c-26 -32 13 -81 48 -59 34 22 22 74 -18 74 -10 0 -23 -7 -30 -15z"></path>
		<path d="M820 3275 c-26 -32 13 -81 48 -59 34 22 22 74 -18 74 -10 0 -23 -7 -30 -15z"></path>
		<path d="M920 3275 c-26 -32 13 -81 48 -59 34 22 22 74 -18 74 -10 0 -23 -7 -30 -15z"></path>
		<path d="M1020 3275 c-26 -32 13 -81 48 -59 34 22 22 74 -18 74 -10 0 -23 -7 -30 -15z"></path>
		<path d="M1520 3275 c-26 -32 13 -81 48 -59 34 22 22 74 -18 74 -10 0 -23 -7 -30 -15z"></path>
		<path d="M1820 3275 c-26 -32 13 -81 48 -59 34 22 22 74 -18 74 -10 0 -23 -7 -30 -15z"></path>
		<path d="M2220 3275 c-26 -32 13 -81 48 -59 34 22 22 74 -18 74 -10 0 -23 -7 -30 -15z"></path>
		<path d="M2420 3275 c-26 -32 13 -81 48 -59 34 22 22 74 -18 74 -10 0 -23 -7 -30 -15z"></path>
		<path d="M2520 3275 c-26 -32 13 -81 48 -59 34 22 22 74 -18 74 -10 0 -23 -7 -30 -15z"></path>
		<path d="M2620 3275 c-26 -32 13 -81 48 -59 34 22 22 74 -18 74 -10 0 -23 -7 -30 -15z"></path>
		<path d="M2720 3275 c-26 -32 13 -81 48 -59 34 22 22 74 -18 74 -10 0 -23 -7 -30 -15z"></path>
		<path d="M2820 3275 c-26 -32 13 -81 48 -59 34 22 22 74 -18 74 -10 0 -23 -7 -30 -15z"></path>
		<path d="M3220 3275 c-26 -32 13 -81 48 -59 34 22 22 74 -18 74 -10 0 -23 -7 -30 -15z"></path>
		<path d="M3420 3275 c-26 -32 13 -81 48 -59 34 22 22 74 -18 74 -10 0 -23 -7 -30 -15z"></path>
		<path d="M3520 3275 c-26 -32 13 -81 48 -59 34 22 22 74 -18 74 -10 0 -23 -7 -30 -15z"></path>
		<path d="M3620 3275 c-26 -32 13 -81 48 -59 34 22 22 74 -18 74 -10 0 -23 -7 -30 -15z"></path>
		<path d="M3720 3275 c-26 -32 13 -81 48 -59 34 22 22 74 -18 74 -10 0 -23 -7 -30 -15z"></path>
		<path d="M3820 3275 c-26 -32 13 -81 48 -59 34 22 22 74 -18 74 -10 0 -23 -7 -30 -15z"></path>
		<path d="M420 3175 c-26 -32 13 -81 48 -59 34 22 22 74 -18 74 -10 0 -23 -7 -30 -15z"></path>
		<path d="M520 3175 c-26 -32 13 -81 48 -59 34 22 22 74 -18 74 -10 0 -23 -7 -30 -15z"></path>
		<path d="M620 3175 c-26 -32 13 -81 48 -59 34 22 22 74 -18 74 -10 0 -23 -7 -30 -15z"></path>
		<path d="M720 3175 c-26 -32 13 -81 48 -59 34 22 22 74 -18 74 -10 0 -23 -7 -30 -15z"></path>
		<path d="M820 3175 c-26 -32 13 -81 48 -59 34 22 22 74 -18 74 -10 0 -23 -7 -30 -15z"></path>
		<path d="M1420 3175 c-26 -32 13 -81 48 -59 34 22 22 74 -18 74 -10 0 -23 -7 -30 -15z"></path>
		<path d="M1520 3175 c-26 -32 13 -81 48 -59 34 22 22 74 -18 74 -10 0 -23 -7 -30 -15z"></path>
		<path d="M1620 3175 c-26 -32 13 -81 48 -59 34 22 22 74 -18 74 -10 0 -23 -7 -30 -15z"></path>
		<path d="M1820 3175 c-26 -32 13 -81 48 -59 34 22 22 74 -18 74 -10 0 -23 -7 -30 -15z"></path>
		<path d="M1920 3175 c-26 -32 13 -81 48 -59 34 22 22 74 -18 74 -10 0 -23 -7 -30 -15z"></path>
		<path d="M2020 3175 c-26 -32 13 -81 48 -59 34 22 22 74 -18 74 -10 0 -23 -7 -30 -15z"></path>
		<path d="M2120 3175 c-26 -32 13 -81 48 -59 34 22 22 74 -18 74 -10 0 -23 -7 -30 -15z"></path>
		<path d="M3020 3175 c-26 -32 13 -81 48 -59 34 22 22 74 -18 74 -10 0 -23 -7 -30 -15z"></path>
		<path d="M3120 3175 c-26 -32 13 -81 48 -59 34 22 22 74 -18 74 -10 0 -23 -7 -30 -15z"></path>
		<path d="M3320 3175 c-26 -32 13 -81 48 -59 34 22 22 74 -18 74 -10 0 -23 -7 -30 -15z"></path>
		<path d="M3420 3175 c-26 -32 13 -81 48 -59 34 22 22 74 -18 74 -10 0 -23 -7 -30 -15z"></path>
		<path d="M3820 3175 c-26 -32 13 -81 48 -59 34 22 22 74 -18 74 -10 0 -23 -7 -30 -15z"></path>
		<path d="M3920 3175 c-26 -32 13 -81 48 -59 34 22 22 74 -18 74 -10 0 -23 -7 -30 -15z"></path>
		<path d="M420 3075 c-26 -32 13 -81 48 -59 34 22 22 74 -18 74 -10 0 -23 -7 -30 -15z"></path>
		<path d="M520 3075 c-26 -32 13 -81 48 -59 34 22 22 74 -18 74 -10 0 -23 -7 -30 -15z"></path>
		<path d="M620 3075 c-26 -32 13 -81 48 -59 34 22 22 74 -18 74 -10 0 -23 -7 -30 -15z"></path>
		<path d="M820 3075 c-26 -32 13 -81 48 -59 34 22 22 74 -18 74 -10 0 -23 -7 -30 -15z"></path>
		<path d="M1020 3075 c-26 -32 13 -81 48 -59 34 22 22 74 -18 74 -10 0 -23 -7 -30 -15z"></path>
		<path d="M1120 3075 c-26 -32 13 -81 48 -59 34 22 22 74 -18 74 -10 0 -23 -7 -30 -15z"></path>
		<path d="M1220 3075 c-26 -32 13 -81 48 -59 34 22 22 74 -18 74 -10 0 -23 -7 -30 -15z"></path>
		<path d="M1520 3075 c-26 -32 13 -81 48 -59 34 22 22 74 -18 74 -10 0 -23 -7 -30 -15z"></path>
		<path d="M2120 3075 c-26 -32 13 -81 48 -59 34 22 22 74 -18 74 -10 0 -23 -7 -30 -15z"></path>
		<path d="M2420 3075 c-26 -32 13 -81 48 -59 34 22 22 74 -18 74 -10 0 -23 -7 -30 -15z"></path>
		<path d="M2520 3075 c-26 -32 13 -81 48 -59 34 22 22 74 -18 74 -10 0 -23 -7 -30 -15z"></path>
		<path d="M2720 3075 c-26 -32 13 -81 48 -59 34 22 22 74 -18 74 -10 0 -23 -7 -30 -15z"></path>
		<path d="M2820 3075 c-26 -32 13 -81 48 -59 34 22 22 74 -18 74 -10 0 -23 -7 -30 -15z"></path>
		<path d="M3020 3075 c-26 -32 13 -81 48 -59 34 22 22 74 -18 74 -10 0 -23 -7 -30 -15z"></path>
		<path d="M3120 3075 c-26 -32 13 -81 48 -59 34 22 22 74 -18 74 -10 0 -23 -7 -30 -15z"></path>
		<path d="M3220 3075 c-26 -32 13 -81 48 -59 34 22 22 74 -18 74 -10 0 -23 -7 -30 -15z"></path>
		<path d="M3320 3075 c-26 -32 13 -81 48 -59 34 22 22 74 -18 74 -10 0 -23 -7 -30 -15z"></path>
		<path d="M3420 3075 c-26 -32 13 -81 48 -59 34 22 22 74 -18 74 -10 0 -23 -7 -30 -15z"></path>
		<path d="M3520 3075 c-26 -32 13 -81 48 -59 34 22 22 74 -18 74 -10 0 -23 -7 -30 -15z"></path>
		<path d="M3820 3075 c-26 -32 13 -81 48 -59 34 22 22 74 -18 74 -10 0 -23 -7 -30 -15z"></path>
		<path d="M3920 3075 c-26 -32 13 -81 48 -59 34 22 22 74 -18 74 -10 0 -23 -7 -30 -15z"></path>
		<path d="M4020 3075 c-26 -32 13 -81 48 -59 34 22 22 74 -18 74 -10 0 -23 -7 -30 -15z"></path>
		<path d="M1220 2975 c-26 -32 13 -81 48 -59 34 22 22 74 -18 74 -10 0 -23 -7 -30 -15z"></path>
		<path d="M1420 2975 c-26 -32 13 -81 48 -59 34 22 22 74 -18 74 -10 0 -23 -7 -30 -15z"></path>
		<path d="M1520 2975 c-26 -32 13 -81 48 -59 34 22 22 74 -18 74 -10 0 -23 -7 -30 -15z"></path>
		<path d="M1820 2975 c-26 -32 13 -81 48 -59 34 22 22 74 -18 74 -10 0 -23 -7 -30 -15z"></path>
		<path d="M2020 2975 c-26 -32 13 -81 48 -59 34 22 22 74 -18 74 -10 0 -23 -7 -30 -15z"></path>
		<path d="M2220 2975 c-26 -32 13 -81 48 -59 34 22 22 74 -18 74 -10 0 -23 -7 -30 -15z"></path>
		<path d="M2520 2975 c-26 -32 13 -81 48 -59 34 22 22 74 -18 74 -10 0 -23 -7 -30 -15z"></path>
		<path d="M2620 2975 c-26 -32 13 -81 48 -59 34 22 22 74 -18 74 -10 0 -23 -7 -30 -15z"></path>
		<path d="M2720 2975 c-26 -32 13 -81 48 -59 34 22 22 74 -18 74 -10 0 -23 -7 -30 -15z"></path>
		<path d="M3020 2975 c-26 -32 13 -81 48 -59 34 22 22 74 -18 74 -10 0 -23 -7 -30 -15z"></path>
		<path d="M3120 2975 c-26 -32 13 -81 48 -59 34 22 22 74 -18 74 -10 0 -23 -7 -30 -15z"></path>
		<path d="M3320 2975 c-26 -32 13 -81 48 -59 34 22 22 74 -18 74 -10 0 -23 -7 -30 -15z"></path>
		<path d="M3720 2975 c-26 -32 13 -81 48 -59 34 22 22 74 -18 74 -10 0 -23 -7 -30 -15z"></path>
		<path d="M4020 2975 c-26 -32 13 -81 48 -59 34 22 22 74 -18 74 -10 0 -23 -7 -30 -15z"></path>
		<path d="M620 2875 c-26 -32 13 -81 48 -59 34 22 22 74 -18 74 -10 0 -23 -7 -30 -15z"></path>
		<path d="M720 2875 c-26 -32 13 -81 48 -59 34 22 22 74 -18 74 -10 0 -23 -7 -30 -15z"></path>
		<path d="M920 2875 c-26 -32 13 -81 48 -59 34 22 22 74 -18 74 -10 0 -23 -7 -30 -15z"></path>
		<path d="M1020 2875 c-26 -32 13 -81 48 -59 34 22 22 74 -18 74 -10 0 -23 -7 -30 -15z"></path>
		<path d="M1320 2875 c-26 -32 13 -81 48 -59 34 22 22 74 -18 74 -10 0 -23 -7 -30 -15z"></path>
		<path d="M1520 2875 c-26 -32 13 -81 48 -59 34 22 22 74 -18 74 -10 0 -23 -7 -30 -15z"></path>
		<path d="M1620 2875 c-26 -32 13 -81 48 -59 34 22 22 74 -18 74 -10 0 -23 -7 -30 -15z"></path>
		<path d="M1820 2875 c-26 -32 13 -81 48 -59 34 22 22 74 -18 74 -10 0 -23 -7 -30 -15z"></path>
		<path d="M2020 2875 c-26 -32 13 -81 48 -59 34 22 22 74 -18 74 -10 0 -23 -7 -30 -15z"></path>
		<path d="M2120 2875 c-26 -32 13 -81 48 -59 34 22 22 74 -18 74 -10 0 -23 -7 -30 -15z"></path>
		<path d="M2620 2875 c-26 -32 13 -81 48 -59 34 22 22 74 -18 74 -10 0 -23 -7 -30 -15z"></path>
		<path d="M2720 2875 c-26 -32 13 -81 48 -59 34 22 22 74 -18 74 -10 0 -23 -7 -30 -15z"></path>
		<path d="M2820 2875 c-26 -32 13 -81 48 -59 34 22 22 74 -18 74 -10 0 -23 -7 -30 -15z"></path>
		<path d="M2920 2875 c-26 -32 13 -81 48 -59 34 22 22 74 -18 74 -10 0 -23 -7 -30 -15z"></path>
		<path d="M3020 2875 c-26 -32 13 -81 48 -59 34 22 22 74 -18 74 -10 0 -23 -7 -30 -15z"></path>
		<path d="M3120 2875 c-26 -32 13 -81 48 -59 34 22 22 74 -18 74 -10 0 -23 -7 -30 -15z"></path>
		<path d="M3320 2875 c-26 -32 13 -81 48 -59 34 22 22 74 -18 74 -10 0 -23 -7 -30 -15z"></path>
		<path d="M3420 2875 c-26 -32 13 -81 48 -59 34 22 22 74 -18 74 -10 0 -23 -7 -30 -15z"></path>
		<path d="M3520 2875 c-26 -32 13 -81 48 -59 34 22 22 74 -18 74 -10 0 -23 -7 -30 -15z"></path>
		<path d="M3620 2875 c-26 -32 13 -81 48 -59 34 22 22 74 -18 74 -10 0 -23 -7 -30 -15z"></path>
		<path d="M3720 2875 c-26 -32 13 -81 48 -59 34 22 22 74 -18 74 -10 0 -23 -7 -30 -15z"></path>
		<path d="M3920 2875 c-26 -32 13 -81 48 -59 34 22 22 74 -18 74 -10 0 -23 -7 -30 -15z"></path>
		<path d="M4020 2875 c-26 -32 13 -81 48 -59 34 22 22 74 -18 74 -10 0 -23 -7 -30 -15z"></path>
		<path d="M420 2775 c-26 -32 13 -81 48 -59 34 22 22 74 -18 74 -10 0 -23 -7 -30 -15z"></path>
		<path d="M520 2775 c-26 -32 13 -81 48 -59 34 22 22 74 -18 74 -10 0 -23 -7 -30 -15z"></path>
		<path d="M1220 2775 c-26 -32 13 -81 48 -59 34 22 22 74 -18 74 -10 0 -23 -7 -30 -15z"></path>
		<path d="M1320 2775 c-26 -32 13 -81 48 -59 34 22 22 74 -18 74 -10 0 -23 -7 -30 -15z"></path>
		<path d="M2720 2775 c-26 -32 13 -81 48 -59 34 22 22 74 -18 74 -10 0 -23 -7 -30 -15z"></path>
		<path d="M2920 2775 c-26 -32 13 -81 48 -59 34 22 22 74 -18 74 -10 0 -23 -7 -30 -15z"></path>
		<path d="M3220 2775 c-26 -32 13 -81 48 -59 34 22 22 74 -18 74 -10 0 -23 -7 -30 -15z"></path>
		<path d="M3320 2775 c-26 -32 13 -81 48 -59 34 22 22 74 -18 74 -10 0 -23 -7 -30 -15z"></path>
		<path d="M3520 2775 c-26 -32 13 -81 48 -59 34 22 22 74 -18 74 -10 0 -23 -7 -30 -15z"></path>
		<path d="M420 2675 c-26 -32 13 -81 48 -59 34 22 22 74 -18 74 -10 0 -23 -7 -30 -15z"></path>
		<path d="M520 2675 c-26 -32 13 -81 48 -59 34 22 22 74 -18 74 -10 0 -23 -7 -30 -15z"></path>
		<path d="M720 2675 c-26 -32 13 -81 48 -59 34 22 22 74 -18 74 -10 0 -23 -7 -30 -15z"></path>
		<path d="M1020 2675 c-26 -32 13 -81 48 -59 34 22 22 74 -18 74 -10 0 -23 -7 -30 -15z"></path>
		<path d="M1220 2675 c-26 -32 13 -81 48 -59 34 22 22 74 -18 74 -10 0 -23 -7 -30 -15z"></path>
		<path d="M1320 2675 c-26 -32 13 -81 48 -59 34 22 22 74 -18 74 -10 0 -23 -7 -30 -15z"></path>
		<path d="M1420 2675 c-26 -32 13 -81 48 -59 34 22 22 74 -18 74 -10 0 -23 -7 -30 -15z"></path>
		<path d="M1620 2675 c-26 -32 13 -81 48 -59 34 22 22 74 -18 74 -10 0 -23 -7 -30 -15z"></path>
		<path d="M2920 2675 c-26 -32 13 -81 48 -59 34 22 22 74 -18 74 -10 0 -23 -7 -30 -15z"></path>
		<path d="M3020 2675 c-26 -32 13 -81 48 -59 34 22 22 74 -18 74 -10 0 -23 -7 -30 -15z"></path>
		<path d="M3120 2675 c-26 -32 13 -81 48 -59 34 22 22 74 -18 74 -10 0 -23 -7 -30 -15z"></path>
		<path d="M3220 2675 c-26 -32 13 -81 48 -59 34 22 22 74 -18 74 -10 0 -23 -7 -30 -15z"></path>
		<path d="M3320 2675 c-26 -32 13 -81 48 -59 34 22 22 74 -18 74 -10 0 -23 -7 -30 -15z"></path>
		<path d="M3520 2675 c-26 -32 13 -81 48 -59 34 22 22 74 -18 74 -10 0 -23 -7 -30 -15z"></path>
		<path d="M3620 2675 c-26 -32 13 -81 48 -59 34 22 22 74 -18 74 -10 0 -23 -7 -30 -15z"></path>
		<path d="M3720 2675 c-26 -32 13 -81 48 -59 34 22 22 74 -18 74 -10 0 -23 -7 -30 -15z"></path>
		<path d="M4020 2675 c-26 -32 13 -81 48 -59 34 22 22 74 -18 74 -10 0 -23 -7 -30 -15z"></path>
		<path d="M420 2575 c-26 -32 13 -81 48 -59 34 22 22 74 -18 74 -10 0 -23 -7 -30 -15z"></path>
		<path d="M520 2575 c-26 -32 13 -81 48 -59 34 22 22 74 -18 74 -10 0 -23 -7 -30 -15z"></path>
		<path d="M620 2575 c-26 -32 13 -81 48 -59 34 22 22 74 -18 74 -10 0 -23 -7 -30 -15z"></path>
		<path d="M720 2575 c-26 -32 13 -81 48 -59 34 22 22 74 -18 74 -10 0 -23 -7 -30 -15z"></path>
		<path d="M820 2575 c-26 -32 13 -81 48 -59 34 22 22 74 -18 74 -10 0 -23 -7 -30 -15z"></path>
		<path d="M920 2575 c-26 -32 13 -81 48 -59 34 22 22 74 -18 74 -10 0 -23 -7 -30 -15z"></path>
		<path d="M1320 2575 c-26 -32 13 -81 48 -59 34 22 22 74 -18 74 -10 0 -23 -7 -30 -15z"></path>
		<path d="M1620 2575 c-26 -32 13 -81 48 -59 34 22 22 74 -18 74 -10 0 -23 -7 -30 -15z"></path>
		<path d="M1720 2575 c-26 -32 13 -81 48 -59 34 22 22 74 -18 74 -10 0 -23 -7 -30 -15z"></path>
		<path d="M2720 2575 c-26 -32 13 -81 48 -59 34 22 22 74 -18 74 -10 0 -23 -7 -30 -15z"></path>
		<path d="M2920 2575 c-26 -32 13 -81 48 -59 34 22 22 74 -18 74 -10 0 -23 -7 -30 -15z"></path>
		<path d="M3120 2575 c-26 -32 13 -81 48 -59 34 22 22 74 -18 74 -10 0 -23 -7 -30 -15z"></path>
		<path d="M3520 2575 c-26 -32 13 -81 48 -59 34 22 22 74 -18 74 -10 0 -23 -7 -30 -15z"></path>
		<path d="M3620 2575 c-26 -32 13 -81 48 -59 34 22 22 74 -18 74 -10 0 -23 -7 -30 -15z"></path>
		<path d="M1970 2530 c-19 -19 -20 -33 -20 -280 0 -247 1 -261 20 -280 19 -19 33 -20 278 -20 217 0 261 2 280 16 22 15 22 17 22 284 0 267 0 269 -22 284 -19 14 -63 16 -280 16 -245 0 -259 -1 -278 -20z m158 -86 c47 -33 9 -107 -46 -88 -37 13 -43 65 -10 88 28 20 28 20 56 0z m275 -125 c42 -19 52 -53 52 -168 l0 -106 -45 0 -45 0 0 86 c0 106 -19 138 -65 109 -11 -7 -16 -35 -20 -102 l-5 -93 -42 -3 -43 -3 0 140 0 141 45 0 c25 0 45 -5 45 -11 0 -5 10 -3 22 5 26 19 67 21 101 5z m-263 -139 l0 -140 -45 0 -45 0 0 140 0 140 45 0 45 0 0 -140z"></path>
		<path d="M920 2475 c-26 -32 13 -81 48 -59 34 22 22 74 -18 74 -10 0 -23 -7 -30 -15z"></path>
		<path d="M1020 2475 c-26 -32 13 -81 48 -59 34 22 22 74 -18 74 -10 0 -23 -7 -30 -15z"></path>
		<path d="M1220 2475 c-26 -32 13 -81 48 -59 34 22 22 74 -18 74 -10 0 -23 -7 -30 -15z"></path>
		<path d="M1320 2475 c-26 -32 13 -81 48 -59 34 22 22 74 -18 74 -10 0 -23 -7 -30 -15z"></path>
		<path d="M1420 2475 c-26 -32 13 -81 48 -59 34 22 22 74 -18 74 -10 0 -23 -7 -30 -15z"></path>
		<path d="M1520 2475 c-26 -32 13 -81 48 -59 34 22 22 74 -18 74 -10 0 -23 -7 -30 -15z"></path>
		<path d="M1620 2475 c-26 -32 13 -81 48 -59 34 22 22 74 -18 74 -10 0 -23 -7 -30 -15z"></path>
		<path d="M1720 2475 c-26 -32 13 -81 48 -59 34 22 22 74 -18 74 -10 0 -23 -7 -30 -15z"></path>
		<path d="M2720 2475 c-26 -32 13 -81 48 -59 34 22 22 74 -18 74 -10 0 -23 -7 -30 -15z"></path>
		<path d="M3020 2475 c-26 -32 13 -81 48 -59 34 22 22 74 -18 74 -10 0 -23 -7 -30 -15z"></path>
		<path d="M3320 2475 c-26 -32 13 -81 48 -59 34 22 22 74 -18 74 -10 0 -23 -7 -30 -15z"></path>
		<path d="M3820 2475 c-26 -32 13 -81 48 -59 34 22 22 74 -18 74 -10 0 -23 -7 -30 -15z"></path>
		<path d="M3920 2475 c-26 -32 13 -81 48 -59 34 22 22 74 -18 74 -10 0 -23 -7 -30 -15z"></path>
		<path d="M520 2375 c-26 -32 13 -81 48 -59 34 22 22 74 -18 74 -10 0 -23 -7 -30 -15z"></path>
		<path d="M1720 2375 c-26 -32 13 -81 48 -59 34 22 22 74 -18 74 -10 0 -23 -7 -30 -15z"></path>
		<path d="M2820 2375 c-26 -32 13 -81 48 -59 34 22 22 74 -18 74 -10 0 -23 -7 -30 -15z"></path>
		<path d="M3120 2375 c-26 -32 13 -81 48 -59 34 22 22 74 -18 74 -10 0 -23 -7 -30 -15z"></path>
		<path d="M3220 2375 c-26 -32 13 -81 48 -59 34 22 22 74 -18 74 -10 0 -23 -7 -30 -15z"></path>
		<path d="M3420 2375 c-26 -32 13 -81 48 -59 34 22 22 74 -18 74 -10 0 -23 -7 -30 -15z"></path>
		<path d="M3520 2375 c-26 -32 13 -81 48 -59 34 22 22 74 -18 74 -10 0 -23 -7 -30 -15z"></path>
		<path d="M3620 2375 c-26 -32 13 -81 48 -59 34 22 22 74 -18 74 -10 0 -23 -7 -30 -15z"></path>
		<path d="M3820 2375 c-26 -32 13 -81 48 -59 34 22 22 74 -18 74 -10 0 -23 -7 -30 -15z"></path>
		<path d="M3920 2375 c-26 -32 13 -81 48 -59 34 22 22 74 -18 74 -10 0 -23 -7 -30 -15z"></path>
		<path d="M420 2275 c-26 -32 13 -81 48 -59 34 22 22 74 -18 74 -10 0 -23 -7 -30 -15z"></path>
		<path d="M720 2275 c-26 -32 13 -81 48 -59 34 22 22 74 -18 74 -10 0 -23 -7 -30 -15z"></path>
		<path d="M1020 2275 c-26 -32 13 -81 48 -59 34 22 22 74 -18 74 -10 0 -23 -7 -30 -15z"></path>
		<path d="M1120 2275 c-26 -32 13 -81 48 -59 34 22 22 74 -18 74 -10 0 -23 -7 -30 -15z"></path>
		<path d="M1320 2275 c-26 -32 13 -81 48 -59 34 22 22 74 -18 74 -10 0 -23 -7 -30 -15z"></path>
		<path d="M1420 2275 c-26 -32 13 -81 48 -59 34 22 22 74 -18 74 -10 0 -23 -7 -30 -15z"></path>
		<path d="M1520 2275 c-26 -32 13 -81 48 -59 34 22 22 74 -18 74 -10 0 -23 -7 -30 -15z"></path>
		<path d="M1620 2275 c-26 -32 13 -81 48 -59 34 22 22 74 -18 74 -10 0 -23 -7 -30 -15z"></path>
		<path d="M3020 2275 c-26 -32 13 -81 48 -59 34 22 22 74 -18 74 -10 0 -23 -7 -30 -15z"></path>
		<path d="M3320 2275 c-26 -32 13 -81 48 -59 34 22 22 74 -18 74 -10 0 -23 -7 -30 -15z"></path>
		<path d="M3420 2275 c-26 -32 13 -81 48 -59 34 22 22 74 -18 74 -10 0 -23 -7 -30 -15z"></path>
		<path d="M3620 2275 c-26 -32 13 -81 48 -59 34 22 22 74 -18 74 -10 0 -23 -7 -30 -15z"></path>
		<path d="M3720 2275 c-26 -32 13 -81 48 -59 34 22 22 74 -18 74 -10 0 -23 -7 -30 -15z"></path>
		<path d="M3820 2275 c-26 -32 13 -81 48 -59 34 22 22 74 -18 74 -10 0 -23 -7 -30 -15z"></path>
		<path d="M3920 2275 c-26 -32 13 -81 48 -59 34 22 22 74 -18 74 -10 0 -23 -7 -30 -15z"></path>
		<path d="M4020 2275 c-26 -32 13 -81 48 -59 34 22 22 74 -18 74 -10 0 -23 -7 -30 -15z"></path>
		<path d="M520 2175 c-26 -32 13 -81 48 -59 34 22 22 74 -18 74 -10 0 -23 -7 -30 -15z"></path>
		<path d="M620 2175 c-26 -32 13 -81 48 -59 34 22 22 74 -18 74 -10 0 -23 -7 -30 -15z"></path>
		<path d="M720 2175 c-26 -32 13 -81 48 -59 34 22 22 74 -18 74 -10 0 -23 -7 -30 -15z"></path>
		<path d="M820 2175 c-26 -32 13 -81 48 -59 34 22 22 74 -18 74 -10 0 -23 -7 -30 -15z"></path>
		<path d="M1520 2175 c-26 -32 13 -81 48 -59 34 22 22 74 -18 74 -10 0 -23 -7 -30 -15z"></path>
		<path d="M2820 2175 c-26 -32 13 -81 48 -59 34 22 22 74 -18 74 -10 0 -23 -7 -30 -15z"></path>
		<path d="M3220 2175 c-26 -32 13 -81 48 -59 34 22 22 74 -18 74 -10 0 -23 -7 -30 -15z"></path>
		<path d="M3320 2175 c-26 -32 13 -81 48 -59 34 22 22 74 -18 74 -10 0 -23 -7 -30 -15z"></path>
		<path d="M3520 2175 c-26 -32 13 -81 48 -59 34 22 22 74 -18 74 -10 0 -23 -7 -30 -15z"></path>
		<path d="M3620 2175 c-26 -32 13 -81 48 -59 34 22 22 74 -18 74 -10 0 -23 -7 -30 -15z"></path>
		<path d="M3820 2175 c-26 -32 13 -81 48 -59 34 22 22 74 -18 74 -10 0 -23 -7 -30 -15z"></path>
		<path d="M4020 2175 c-26 -32 13 -81 48 -59 34 22 22 74 -18 74 -10 0 -23 -7 -30 -15z"></path>
		<path d="M720 2075 c-26 -32 13 -81 48 -59 34 22 22 74 -18 74 -10 0 -23 -7 -30 -15z"></path>
		<path d="M920 2075 c-26 -32 13 -81 48 -59 34 22 22 74 -18 74 -10 0 -23 -7 -30 -15z"></path>
		<path d="M1020 2075 c-26 -32 13 -81 48 -59 34 22 22 74 -18 74 -10 0 -23 -7 -30 -15z"></path>
		<path d="M1220 2075 c-26 -32 13 -81 48 -59 34 22 22 74 -18 74 -10 0 -23 -7 -30 -15z"></path>
		<path d="M1420 2075 c-26 -32 13 -81 48 -59 34 22 22 74 -18 74 -10 0 -23 -7 -30 -15z"></path>
		<path d="M1620 2075 c-26 -32 13 -81 48 -59 34 22 22 74 -18 74 -10 0 -23 -7 -30 -15z"></path>
		<path d="M1720 2075 c-26 -32 13 -81 48 -59 34 22 22 74 -18 74 -10 0 -23 -7 -30 -15z"></path>
		<path d="M2820 2075 c-26 -32 13 -81 48 -59 34 22 22 74 -18 74 -10 0 -23 -7 -30 -15z"></path>
		<path d="M2920 2075 c-26 -32 13 -81 48 -59 34 22 22 74 -18 74 -10 0 -23 -7 -30 -15z"></path>
		<path d="M3020 2075 c-26 -32 13 -81 48 -59 34 22 22 74 -18 74 -10 0 -23 -7 -30 -15z"></path>
		<path d="M3320 2075 c-26 -32 13 -81 48 -59 34 22 22 74 -18 74 -10 0 -23 -7 -30 -15z"></path>
		<path d="M3420 2075 c-26 -32 13 -81 48 -59 34 22 22 74 -18 74 -10 0 -23 -7 -30 -15z"></path>
		<path d="M3620 2075 c-26 -32 13 -81 48 -59 34 22 22 74 -18 74 -10 0 -23 -7 -30 -15z"></path>
		<path d="M3720 2075 c-26 -32 13 -81 48 -59 34 22 22 74 -18 74 -10 0 -23 -7 -30 -15z"></path>
		<path d="M820 1975 c-26 -32 13 -81 48 -59 34 22 22 74 -18 74 -10 0 -23 -7 -30 -15z"></path>
		<path d="M920 1975 c-26 -32 13 -81 48 -59 34 22 22 74 -18 74 -10 0 -23 -7 -30 -15z"></path>
		<path d="M1520 1975 c-26 -32 13 -81 48 -59 34 22 22 74 -18 74 -10 0 -23 -7 -30 -15z"></path>
		<path d="M1620 1975 c-26 -32 13 -81 48 -59 34 22 22 74 -18 74 -10 0 -23 -7 -30 -15z"></path>
		<path d="M1720 1975 c-26 -32 13 -81 48 -59 34 22 22 74 -18 74 -10 0 -23 -7 -30 -15z"></path>
		<path d="M2720 1975 c-26 -32 13 -81 48 -59 34 22 22 74 -18 74 -10 0 -23 -7 -30 -15z"></path>
		<path d="M3220 1975 c-26 -32 13 -81 48 -59 34 22 22 74 -18 74 -10 0 -23 -7 -30 -15z"></path>
		<path d="M3320 1975 c-26 -32 13 -81 48 -59 34 22 22 74 -18 74 -10 0 -23 -7 -30 -15z"></path>
		<path d="M3720 1975 c-26 -32 13 -81 48 -59 34 22 22 74 -18 74 -10 0 -23 -7 -30 -15z"></path>
		<path d="M420 1875 c-26 -32 13 -81 48 -59 34 22 22 74 -18 74 -10 0 -23 -7 -30 -15z"></path>
		<path d="M520 1875 c-26 -32 13 -81 48 -59 34 22 22 74 -18 74 -10 0 -23 -7 -30 -15z"></path>
		<path d="M620 1875 c-26 -32 13 -81 48 -59 34 22 22 74 -18 74 -10 0 -23 -7 -30 -15z"></path>
		<path d="M1020 1875 c-26 -32 13 -81 48 -59 34 22 22 74 -18 74 -10 0 -23 -7 -30 -15z"></path>
		<path d="M1120 1875 c-26 -32 13 -81 48 -59 34 22 22 74 -18 74 -10 0 -23 -7 -30 -15z"></path>
		<path d="M1220 1875 c-26 -32 13 -81 48 -59 34 22 22 74 -18 74 -10 0 -23 -7 -30 -15z"></path>
		<path d="M1320 1875 c-26 -32 13 -81 48 -59 34 22 22 74 -18 74 -10 0 -23 -7 -30 -15z"></path>
		<path d="M1420 1875 c-26 -32 13 -81 48 -59 34 22 22 74 -18 74 -10 0 -23 -7 -30 -15z"></path>
		<path d="M1520 1875 c-26 -32 13 -81 48 -59 34 22 22 74 -18 74 -10 0 -23 -7 -30 -15z"></path>
		<path d="M1720 1875 c-26 -32 13 -81 48 -59 34 22 22 74 -18 74 -10 0 -23 -7 -30 -15z"></path>
		<path d="M3120 1875 c-26 -32 13 -81 48 -59 34 22 22 74 -18 74 -10 0 -23 -7 -30 -15z"></path>
		<path d="M3420 1875 c-26 -32 13 -81 48 -59 34 22 22 74 -18 74 -10 0 -23 -7 -30 -15z"></path>
		<path d="M3520 1875 c-26 -32 13 -81 48 -59 34 22 22 74 -18 74 -10 0 -23 -7 -30 -15z"></path>
		<path d="M3620 1875 c-26 -32 13 -81 48 -59 34 22 22 74 -18 74 -10 0 -23 -7 -30 -15z"></path>
		<path d="M3720 1875 c-26 -32 13 -81 48 -59 34 22 22 74 -18 74 -10 0 -23 -7 -30 -15z"></path>
		<path d="M3920 1875 c-26 -32 13 -81 48 -59 34 22 22 74 -18 74 -10 0 -23 -7 -30 -15z"></path>
		<path d="M4020 1875 c-26 -32 13 -81 48 -59 34 22 22 74 -18 74 -10 0 -23 -7 -30 -15z"></path>
		<path d="M420 1775 c-26 -32 13 -81 48 -59 34 22 22 74 -18 74 -10 0 -23 -7 -30 -15z"></path>
		<path d="M820 1775 c-26 -32 13 -81 48 -59 34 22 22 74 -18 74 -10 0 -23 -7 -30 -15z"></path>
		<path d="M1120 1775 c-26 -32 13 -81 48 -59 34 22 22 74 -18 74 -10 0 -23 -7 -30 -15z"></path>
		<path d="M1220 1775 c-26 -32 13 -81 48 -59 34 22 22 74 -18 74 -10 0 -23 -7 -30 -15z"></path>
		<path d="M1520 1775 c-26 -32 13 -81 48 -59 34 22 22 74 -18 74 -10 0 -23 -7 -30 -15z"></path>
		<path d="M1720 1775 c-26 -32 13 -81 48 -59 34 22 22 74 -18 74 -10 0 -23 -7 -30 -15z"></path>
		<path d="M2720 1775 c-26 -32 13 -81 48 -59 34 22 22 74 -18 74 -10 0 -23 -7 -30 -15z"></path>
		<path d="M2820 1775 c-26 -32 13 -81 48 -59 34 22 22 74 -18 74 -10 0 -23 -7 -30 -15z"></path>
		<path d="M3020 1775 c-26 -32 13 -81 48 -59 34 22 22 74 -18 74 -10 0 -23 -7 -30 -15z"></path>
		<path d="M3120 1775 c-26 -32 13 -81 48 -59 34 22 22 74 -18 74 -10 0 -23 -7 -30 -15z"></path>
		<path d="M3220 1775 c-26 -32 13 -81 48 -59 34 22 22 74 -18 74 -10 0 -23 -7 -30 -15z"></path>
		<path d="M3320 1775 c-26 -32 13 -81 48 -59 34 22 22 74 -18 74 -10 0 -23 -7 -30 -15z"></path>
		<path d="M3420 1775 c-26 -32 13 -81 48 -59 34 22 22 74 -18 74 -10 0 -23 -7 -30 -15z"></path>
		<path d="M3520 1775 c-26 -32 13 -81 48 -59 34 22 22 74 -18 74 -10 0 -23 -7 -30 -15z"></path>
		<path d="M3620 1775 c-26 -32 13 -81 48 -59 34 22 22 74 -18 74 -10 0 -23 -7 -30 -15z"></path>
		<path d="M3920 1775 c-26 -32 13 -81 48 -59 34 22 22 74 -18 74 -10 0 -23 -7 -30 -15z"></path>
		<path d="M620 1675 c-26 -32 13 -81 48 -59 34 22 22 74 -18 74 -10 0 -23 -7 -30 -15z"></path>
		<path d="M820 1675 c-26 -32 13 -81 48 -59 34 22 22 74 -18 74 -10 0 -23 -7 -30 -15z"></path>
		<path d="M1020 1675 c-26 -32 13 -81 48 -59 34 22 22 74 -18 74 -10 0 -23 -7 -30 -15z"></path>
		<path d="M1220 1675 c-26 -32 13 -81 48 -59 34 22 22 74 -18 74 -10 0 -23 -7 -30 -15z"></path>
		<path d="M1320 1675 c-26 -32 13 -81 48 -59 34 22 22 74 -18 74 -10 0 -23 -7 -30 -15z"></path>
		<path d="M1520 1675 c-26 -32 13 -81 48 -59 34 22 22 74 -18 74 -10 0 -23 -7 -30 -15z"></path>
		<path d="M1720 1675 c-26 -32 13 -81 48 -59 34 22 22 74 -18 74 -10 0 -23 -7 -30 -15z"></path>
		<path d="M1920 1675 c-26 -32 13 -81 48 -59 34 22 22 74 -18 74 -10 0 -23 -7 -30 -15z"></path>
		<path d="M2220 1675 c-26 -32 13 -81 48 -59 34 22 22 74 -18 74 -10 0 -23 -7 -30 -15z"></path>
		<path d="M2420 1675 c-26 -32 13 -81 48 -59 34 22 22 74 -18 74 -10 0 -23 -7 -30 -15z"></path>
		<path d="M2520 1675 c-26 -32 13 -81 48 -59 34 22 22 74 -18 74 -10 0 -23 -7 -30 -15z"></path>
		<path d="M2620 1675 c-26 -32 13 -81 48 -59 34 22 22 74 -18 74 -10 0 -23 -7 -30 -15z"></path>
		<path d="M2820 1675 c-26 -32 13 -81 48 -59 34 22 22 74 -18 74 -10 0 -23 -7 -30 -15z"></path>
		<path d="M3220 1675 c-26 -32 13 -81 48 -59 34 22 22 74 -18 74 -10 0 -23 -7 -30 -15z"></path>
		<path d="M3420 1675 c-26 -32 13 -81 48 -59 34 22 22 74 -18 74 -10 0 -23 -7 -30 -15z"></path>
		<path d="M3520 1675 c-26 -32 13 -81 48 -59 34 22 22 74 -18 74 -10 0 -23 -7 -30 -15z"></path>
		<path d="M3820 1675 c-26 -32 13 -81 48 -59 34 22 22 74 -18 74 -10 0 -23 -7 -30 -15z"></path>
		<path d="M3920 1675 c-26 -32 13 -81 48 -59 34 22 22 74 -18 74 -10 0 -23 -7 -30 -15z"></path>
		<path d="M420 1575 c-26 -32 13 -81 48 -59 34 22 22 74 -18 74 -10 0 -23 -7 -30 -15z"></path>
		<path d="M520 1575 c-26 -32 13 -81 48 -59 34 22 22 74 -18 74 -10 0 -23 -7 -30 -15z"></path>
		<path d="M620 1575 c-26 -32 13 -81 48 -59 34 22 22 74 -18 74 -10 0 -23 -7 -30 -15z"></path>
		<path d="M1320 1575 c-26 -32 13 -81 48 -59 34 22 22 74 -18 74 -10 0 -23 -7 -30 -15z"></path>
		<path d="M1620 1575 c-26 -32 13 -81 48 -59 34 22 22 74 -18 74 -10 0 -23 -7 -30 -15z"></path>
		<path d="M1720 1575 c-26 -32 13 -81 48 -59 34 22 22 74 -18 74 -10 0 -23 -7 -30 -15z"></path>
		<path d="M1920 1575 c-26 -32 13 -81 48 -59 34 22 22 74 -18 74 -10 0 -23 -7 -30 -15z"></path>
		<path d="M2020 1575 c-26 -32 13 -81 48 -59 34 22 22 74 -18 74 -10 0 -23 -7 -30 -15z"></path>
		<path d="M2120 1575 c-26 -32 13 -81 48 -59 34 22 22 74 -18 74 -10 0 -23 -7 -30 -15z"></path>
		<path d="M2920 1575 c-26 -32 13 -81 48 -59 34 22 22 74 -18 74 -10 0 -23 -7 -30 -15z"></path>
		<path d="M3020 1575 c-26 -32 13 -81 48 -59 34 22 22 74 -18 74 -10 0 -23 -7 -30 -15z"></path>
		<path d="M3120 1575 c-26 -32 13 -81 48 -59 34 22 22 74 -18 74 -10 0 -23 -7 -30 -15z"></path>
		<path d="M3320 1575 c-26 -32 13 -81 48 -59 34 22 22 74 -18 74 -10 0 -23 -7 -30 -15z"></path>
		<path d="M3420 1575 c-26 -32 13 -81 48 -59 34 22 22 74 -18 74 -10 0 -23 -7 -30 -15z"></path>
		<path d="M3720 1575 c-26 -32 13 -81 48 -59 34 22 22 74 -18 74 -10 0 -23 -7 -30 -15z"></path>
		<path d="M420 1475 c-26 -32 13 -81 48 -59 34 22 22 74 -18 74 -10 0 -23 -7 -30 -15z"></path>
		<path d="M620 1475 c-26 -32 13 -81 48 -59 34 22 22 74 -18 74 -10 0 -23 -7 -30 -15z"></path>
		<path d="M720 1475 c-26 -32 13 -81 48 -59 34 22 22 74 -18 74 -10 0 -23 -7 -30 -15z"></path>
		<path d="M1020 1475 c-26 -32 13 -81 48 -59 34 22 22 74 -18 74 -10 0 -23 -7 -30 -15z"></path>
		<path d="M1120 1475 c-26 -32 13 -81 48 -59 34 22 22 74 -18 74 -10 0 -23 -7 -30 -15z"></path>
		<path d="M1220 1475 c-26 -32 13 -81 48 -59 34 22 22 74 -18 74 -10 0 -23 -7 -30 -15z"></path>
		<path d="M1320 1475 c-26 -32 13 -81 48 -59 34 22 22 74 -18 74 -10 0 -23 -7 -30 -15z"></path>
		<path d="M1720 1475 c-26 -32 13 -81 48 -59 34 22 22 74 -18 74 -10 0 -23 -7 -30 -15z"></path>
		<path d="M2120 1475 c-26 -32 13 -81 48 -59 34 22 22 74 -18 74 -10 0 -23 -7 -30 -15z"></path>
		<path d="M2420 1475 c-26 -32 13 -81 48 -59 34 22 22 74 -18 74 -10 0 -23 -7 -30 -15z"></path>
		<path d="M2620 1475 c-26 -32 13 -81 48 -59 34 22 22 74 -18 74 -10 0 -23 -7 -30 -15z"></path>
		<path d="M2720 1475 c-26 -32 13 -81 48 -59 34 22 22 74 -18 74 -10 0 -23 -7 -30 -15z"></path>
		<path d="M2820 1475 c-26 -32 13 -81 48 -59 34 22 22 74 -18 74 -10 0 -23 -7 -30 -15z"></path>
		<path d="M3120 1475 c-26 -32 13 -81 48 -59 34 22 22 74 -18 74 -10 0 -23 -7 -30 -15z"></path>
		<path d="M3220 1475 c-26 -32 13 -81 48 -59 34 22 22 74 -18 74 -10 0 -23 -7 -30 -15z"></path>
		<path d="M3320 1475 c-26 -32 13 -81 48 -59 34 22 22 74 -18 74 -10 0 -23 -7 -30 -15z"></path>
		<path d="M3420 1475 c-26 -32 13 -81 48 -59 34 22 22 74 -18 74 -10 0 -23 -7 -30 -15z"></path>
		<path d="M3520 1475 c-26 -32 13 -81 48 -59 34 22 22 74 -18 74 -10 0 -23 -7 -30 -15z"></path>
		<path d="M3920 1475 c-26 -32 13 -81 48 -59 34 22 22 74 -18 74 -10 0 -23 -7 -30 -15z"></path>
		<path d="M4020 1475 c-26 -32 13 -81 48 -59 34 22 22 74 -18 74 -10 0 -23 -7 -30 -15z"></path>
		<path d="M420 1375 c-26 -32 13 -81 48 -59 34 22 22 74 -18 74 -10 0 -23 -7 -30 -15z"></path>
		<path d="M720 1375 c-26 -32 13 -81 48 -59 34 22 22 74 -18 74 -10 0 -23 -7 -30 -15z"></path>
		<path d="M820 1375 c-26 -32 13 -81 48 -59 34 22 22 74 -18 74 -10 0 -23 -7 -30 -15z"></path>
		<path d="M920 1375 c-26 -32 13 -81 48 -59 34 22 22 74 -18 74 -10 0 -23 -7 -30 -15z"></path>
		<path d="M1420 1375 c-26 -32 13 -81 48 -59 34 22 22 74 -18 74 -10 0 -23 -7 -30 -15z"></path>
		<path d="M1520 1375 c-26 -32 13 -81 48 -59 34 22 22 74 -18 74 -10 0 -23 -7 -30 -15z"></path>
		<path d="M1620 1375 c-26 -32 13 -81 48 -59 34 22 22 74 -18 74 -10 0 -23 -7 -30 -15z"></path>
		<path d="M2020 1375 c-26 -32 13 -81 48 -59 34 22 22 74 -18 74 -10 0 -23 -7 -30 -15z"></path>
		<path d="M2520 1375 c-26 -32 13 -81 48 -59 34 22 22 74 -18 74 -10 0 -23 -7 -30 -15z"></path>
		<path d="M2620 1375 c-26 -32 13 -81 48 -59 34 22 22 74 -18 74 -10 0 -23 -7 -30 -15z"></path>
		<path d="M2720 1375 c-26 -32 13 -81 48 -59 34 22 22 74 -18 74 -10 0 -23 -7 -30 -15z"></path>
		<path d="M3020 1375 c-26 -32 13 -81 48 -59 34 22 22 74 -18 74 -10 0 -23 -7 -30 -15z"></path>
		<path d="M3120 1375 c-26 -32 13 -81 48 -59 34 22 22 74 -18 74 -10 0 -23 -7 -30 -15z"></path>
		<path d="M3320 1375 c-26 -32 13 -81 48 -59 34 22 22 74 -18 74 -10 0 -23 -7 -30 -15z"></path>
		<path d="M3720 1375 c-26 -32 13 -81 48 -59 34 22 22 74 -18 74 -10 0 -23 -7 -30 -15z"></path>
		<path d="M3920 1375 c-26 -32 13 -81 48 -59 34 22 22 74 -18 74 -10 0 -23 -7 -30 -15z"></path>
		<path d="M4020 1375 c-26 -32 13 -81 48 -59 34 22 22 74 -18 74 -10 0 -23 -7 -30 -15z"></path>
		<path d="M420 1275 c-26 -32 13 -81 48 -59 34 22 22 74 -18 74 -10 0 -23 -7 -30 -15z"></path>
		<path d="M620 1275 c-26 -32 13 -81 48 -59 34 22 22 74 -18 74 -10 0 -23 -7 -30 -15z"></path>
		<path d="M920 1275 c-26 -32 13 -81 48 -59 34 22 22 74 -18 74 -10 0 -23 -7 -30 -15z"></path>
		<path d="M1020 1275 c-26 -32 13 -81 48 -59 34 22 22 74 -18 74 -10 0 -23 -7 -30 -15z"></path>
		<path d="M1220 1275 c-26 -32 13 -81 48 -59 34 22 22 74 -18 74 -10 0 -23 -7 -30 -15z"></path>
		<path d="M1320 1275 c-26 -32 13 -81 48 -59 34 22 22 74 -18 74 -10 0 -23 -7 -30 -15z"></path>
		<path d="M1520 1275 c-26 -32 13 -81 48 -59 34 22 22 74 -18 74 -10 0 -23 -7 -30 -15z"></path>
		<path d="M1620 1275 c-26 -32 13 -81 48 -59 34 22 22 74 -18 74 -10 0 -23 -7 -30 -15z"></path>
		<path d="M1720 1275 c-26 -32 13 -81 48 -59 34 22 22 74 -18 74 -10 0 -23 -7 -30 -15z"></path>
		<path d="M2120 1275 c-26 -32 13 -81 48 -59 34 22 22 74 -18 74 -10 0 -23 -7 -30 -15z"></path>
		<path d="M2420 1275 c-26 -32 13 -81 48 -59 34 22 22 74 -18 74 -10 0 -23 -7 -30 -15z"></path>
		<path d="M2620 1275 c-26 -32 13 -81 48 -59 34 22 22 74 -18 74 -10 0 -23 -7 -30 -15z"></path>
		<path d="M2720 1275 c-26 -32 13 -81 48 -59 34 22 22 74 -18 74 -10 0 -23 -7 -30 -15z"></path>
		<path d="M2820 1275 c-26 -32 13 -81 48 -59 34 22 22 74 -18 74 -10 0 -23 -7 -30 -15z"></path>
		<path d="M2920 1275 c-26 -32 13 -81 48 -59 34 22 22 74 -18 74 -10 0 -23 -7 -30 -15z"></path>
		<path d="M3020 1275 c-26 -32 13 -81 48 -59 34 22 22 74 -18 74 -10 0 -23 -7 -30 -15z"></path>
		<path d="M3120 1275 c-26 -32 13 -81 48 -59 34 22 22 74 -18 74 -10 0 -23 -7 -30 -15z"></path>
		<path d="M3220 1275 c-26 -32 13 -81 48 -59 34 22 22 74 -18 74 -10 0 -23 -7 -30 -15z"></path>
		<path d="M3320 1275 c-26 -32 13 -81 48 -59 34 22 22 74 -18 74 -10 0 -23 -7 -30 -15z"></path>
		<path d="M3420 1275 c-26 -32 13 -81 48 -59 34 22 22 74 -18 74 -10 0 -23 -7 -30 -15z"></path>
		<path d="M3520 1275 c-26 -32 13 -81 48 -59 34 22 22 74 -18 74 -10 0 -23 -7 -30 -15z"></path>
		<path d="M3620 1275 c-26 -32 13 -81 48 -59 34 22 22 74 -18 74 -10 0 -23 -7 -30 -15z"></path>
		<path d="M3920 1275 c-26 -32 13 -81 48 -59 34 22 22 74 -18 74 -10 0 -23 -7 -30 -15z"></path>
		<path d="M1220 1175 c-26 -32 13 -81 48 -59 34 22 22 74 -18 74 -10 0 -23 -7 -30 -15z"></path>
		<path d="M1420 1175 c-26 -32 13 -81 48 -59 34 22 22 74 -18 74 -10 0 -23 -7 -30 -15z"></path>
		<path d="M1620 1175 c-26 -32 13 -81 48 -59 34 22 22 74 -18 74 -10 0 -23 -7 -30 -15z"></path>
		<path d="M1820 1175 c-26 -32 13 -81 48 -59 34 22 22 74 -18 74 -10 0 -23 -7 -30 -15z"></path>
		<path d="M2020 1175 c-26 -32 13 -81 48 -59 34 22 22 74 -18 74 -10 0 -23 -7 -30 -15z"></path>
		<path d="M2120 1175 c-26 -32 13 -81 48 -59 34 22 22 74 -18 74 -10 0 -23 -7 -30 -15z"></path>
		<path d="M2320 1175 c-26 -32 13 -81 48 -59 34 22 22 74 -18 74 -10 0 -23 -7 -30 -15z"></path>
		<path d="M2420 1175 c-26 -32 13 -81 48 -59 34 22 22 74 -18 74 -10 0 -23 -7 -30 -15z"></path>
		<path d="M2520 1175 c-26 -32 13 -81 48 -59 34 22 22 74 -18 74 -10 0 -23 -7 -30 -15z"></path>
		<path d="M2620 1175 c-26 -32 13 -81 48 -59 34 22 22 74 -18 74 -10 0 -23 -7 -30 -15z"></path>
		<path d="M2720 1175 c-26 -32 13 -81 48 -59 34 22 22 74 -18 74 -10 0 -23 -7 -30 -15z"></path>
		<path d="M2920 1175 c-26 -32 13 -81 48 -59 34 22 22 74 -18 74 -10 0 -23 -7 -30 -15z"></path>
		<path d="M3120 1175 c-26 -32 13 -81 48 -59 34 22 22 74 -18 74 -10 0 -23 -7 -30 -15z"></path>
		<path d="M3220 1175 c-26 -32 13 -81 48 -59 34 22 22 74 -18 74 -10 0 -23 -7 -30 -15z"></path>
		<path d="M3620 1175 c-26 -32 13 -81 48 -59 34 22 22 74 -18 74 -10 0 -23 -7 -30 -15z"></path>
		<path d="M3720 1175 c-26 -32 13 -81 48 -59 34 22 22 74 -18 74 -10 0 -23 -7 -30 -15z"></path>
		<path d="M434 1066 l-34 -34 0 -282 0 -282 34 -34 34 -34 281 0 281 0 32 29 33 29 3 287 3 286 -35 35 -34 34 -282 0 -282 0 -34 -34z m533 -101 l34 -34 -3 -186 -3 -187 -33 -29 -32 -29 -181 0 -181 0 -34 34 -34 34 0 182 0 182 34 34 34 34 182 0 182 0 35 -35z"></path>
		<path d="M634 866 c-33 -33 -34 -36 -34 -116 0 -80 1 -83 34 -116 33 -33 36 -34 116 -34 80 0 83 1 116 34 33 33 34 36 34 116 0 80 -1 83 -34 116 -33 33 -36 34 -116 34 -80 0 -83 -1 -116 -34z"></path>
		<path d="M1420 1075 c-26 -32 13 -81 48 -59 34 22 22 74 -18 74 -10 0 -23 -7 -30 -15z"></path>
		<path d="M1720 1075 c-26 -32 13 -81 48 -59 34 22 22 74 -18 74 -10 0 -23 -7 -30 -15z"></path>
		<path d="M1920 1075 c-26 -32 13 -81 48 -59 34 22 22 74 -18 74 -10 0 -23 -7 -30 -15z"></path>
		<path d="M2020 1075 c-26 -32 13 -81 48 -59 34 22 22 74 -18 74 -10 0 -23 -7 -30 -15z"></path>
		<path d="M2120 1075 c-26 -32 13 -81 48 -59 34 22 22 74 -18 74 -10 0 -23 -7 -30 -15z"></path>
		<path d="M2420 1075 c-26 -32 13 -81 48 -59 34 22 22 74 -18 74 -10 0 -23 -7 -30 -15z"></path>
		<path d="M2520 1075 c-26 -32 13 -81 48 -59 34 22 22 74 -18 74 -10 0 -23 -7 -30 -15z"></path>
		<path d="M2820 1075 c-26 -32 13 -81 48 -59 34 22 22 74 -18 74 -10 0 -23 -7 -30 -15z"></path>
		<path d="M2920 1075 c-26 -32 13 -81 48 -59 34 22 22 74 -18 74 -10 0 -23 -7 -30 -15z"></path>
		<path d="M3020 1075 c-26 -32 13 -81 48 -59 34 22 22 74 -18 74 -10 0 -23 -7 -30 -15z"></path>
		<path d="M3220 1075 c-26 -32 13 -81 48 -59 34 22 22 74 -18 74 -10 0 -23 -7 -30 -15z"></path>
		<path d="M3420 1075 c-26 -32 13 -81 48 -59 34 22 22 74 -18 74 -10 0 -23 -7 -30 -15z"></path>
		<path d="M3620 1075 c-26 -32 13 -81 48 -59 34 22 22 74 -18 74 -10 0 -23 -7 -30 -15z"></path>
		<path d="M3820 1075 c-26 -32 13 -81 48 -59 34 22 22 74 -18 74 -10 0 -23 -7 -30 -15z"></path>
		<path d="M3920 1075 c-26 -32 13 -81 48 -59 34 22 22 74 -18 74 -10 0 -23 -7 -30 -15z"></path>
		<path d="M4020 1075 c-26 -32 13 -81 48 -59 34 22 22 74 -18 74 -10 0 -23 -7 -30 -15z"></path>
		<path d="M1220 975 c-26 -32 13 -81 48 -59 34 22 22 74 -18 74 -10 0 -23 -7 -30 -15z"></path>
		<path d="M1720 975 c-26 -32 13 -81 48 -59 34 22 22 74 -18 74 -10 0 -23 -7 -30 -15z"></path>
		<path d="M1820 975 c-26 -32 13 -81 48 -59 34 22 22 74 -18 74 -10 0 -23 -7 -30 -15z"></path>
		<path d="M1920 975 c-26 -32 13 -81 48 -59 34 22 22 74 -18 74 -10 0 -23 -7 -30 -15z"></path>
		<path d="M2020 975 c-26 -32 13 -81 48 -59 34 22 22 74 -18 74 -10 0 -23 -7 -30 -15z"></path>
		<path d="M2120 975 c-26 -32 13 -81 48 -59 34 22 22 74 -18 74 -10 0 -23 -7 -30 -15z"></path>
		<path d="M2220 975 c-26 -32 13 -81 48 -59 34 22 22 74 -18 74 -10 0 -23 -7 -30 -15z"></path>
		<path d="M2420 975 c-26 -32 13 -81 48 -59 34 22 22 74 -18 74 -10 0 -23 -7 -30 -15z"></path>
		<path d="M2520 975 c-26 -32 13 -81 48 -59 34 22 22 74 -18 74 -10 0 -23 -7 -30 -15z"></path>
		<path d="M2620 975 c-26 -32 13 -81 48 -59 34 22 22 74 -18 74 -10 0 -23 -7 -30 -15z"></path>
		<path d="M2720 975 c-26 -32 13 -81 48 -59 34 22 22 74 -18 74 -10 0 -23 -7 -30 -15z"></path>
		<path d="M2920 975 c-26 -32 13 -81 48 -59 34 22 22 74 -18 74 -10 0 -23 -7 -30 -15z"></path>
		<path d="M3220 975 c-26 -32 13 -81 48 -59 34 22 22 74 -18 74 -10 0 -23 -7 -30 -15z"></path>
		<path d="M3620 975 c-26 -32 13 -81 48 -59 34 22 22 74 -18 74 -10 0 -23 -7 -30 -15z"></path>
		<path d="M3720 975 c-26 -32 13 -81 48 -59 34 22 22 74 -18 74 -10 0 -23 -7 -30 -15z"></path>
		<path d="M4020 975 c-26 -32 13 -81 48 -59 34 22 22 74 -18 74 -10 0 -23 -7 -30 -15z"></path>
		<path d="M1220 875 c-26 -32 13 -81 48 -59 34 22 22 74 -18 74 -10 0 -23 -7 -30 -15z"></path>
		<path d="M2020 875 c-26 -32 13 -81 48 -59 34 22 22 74 -18 74 -10 0 -23 -7 -30 -15z"></path>
		<path d="M2520 875 c-26 -32 13 -81 48 -59 34 22 22 74 -18 74 -10 0 -23 -7 -30 -15z"></path>
		<path d="M2720 875 c-26 -32 13 -81 48 -59 34 22 22 74 -18 74 -10 0 -23 -7 -30 -15z"></path>
		<path d="M3020 875 c-26 -32 13 -81 48 -59 34 22 22 74 -18 74 -10 0 -23 -7 -30 -15z"></path>
		<path d="M3120 875 c-26 -32 13 -81 48 -59 34 22 22 74 -18 74 -10 0 -23 -7 -30 -15z"></path>
		<path d="M3220 875 c-26 -32 13 -81 48 -59 34 22 22 74 -18 74 -10 0 -23 -7 -30 -15z"></path>
		<path d="M3320 875 c-26 -32 13 -81 48 -59 34 22 22 74 -18 74 -10 0 -23 -7 -30 -15z"></path>
		<path d="M3420 875 c-26 -32 13 -81 48 -59 34 22 22 74 -18 74 -10 0 -23 -7 -30 -15z"></path>
		<path d="M3520 875 c-26 -32 13 -81 48 -59 34 22 22 74 -18 74 -10 0 -23 -7 -30 -15z"></path>
		<path d="M3620 875 c-26 -32 13 -81 48 -59 34 22 22 74 -18 74 -10 0 -23 -7 -30 -15z"></path>
		<path d="M3820 875 c-26 -32 13 -81 48 -59 34 22 22 74 -18 74 -10 0 -23 -7 -30 -15z"></path>
		<path d="M3920 875 c-26 -32 13 -81 48 -59 34 22 22 74 -18 74 -10 0 -23 -7 -30 -15z"></path>
		<path d="M4020 875 c-26 -32 13 -81 48 -59 34 22 22 74 -18 74 -10 0 -23 -7 -30 -15z"></path>
		<path d="M1220 775 c-26 -32 13 -81 48 -59 34 22 22 74 -18 74 -10 0 -23 -7 -30 -15z"></path>
		<path d="M1320 775 c-26 -32 13 -81 48 -59 34 22 22 74 -18 74 -10 0 -23 -7 -30 -15z"></path>
		<path d="M1620 775 c-26 -32 13 -81 48 -59 34 22 22 74 -18 74 -10 0 -23 -7 -30 -15z"></path>
		<path d="M1720 775 c-26 -32 13 -81 48 -59 34 22 22 74 -18 74 -10 0 -23 -7 -30 -15z"></path>
		<path d="M1920 775 c-26 -32 13 -81 48 -59 34 22 22 74 -18 74 -10 0 -23 -7 -30 -15z"></path>
		<path d="M2220 775 c-26 -32 13 -81 48 -59 34 22 22 74 -18 74 -10 0 -23 -7 -30 -15z"></path>
		<path d="M2420 775 c-26 -32 13 -81 48 -59 34 22 22 74 -18 74 -10 0 -23 -7 -30 -15z"></path>
		<path d="M2520 775 c-26 -32 13 -81 48 -59 34 22 22 74 -18 74 -10 0 -23 -7 -30 -15z"></path>
		<path d="M2620 775 c-26 -32 13 -81 48 -59 34 22 22 74 -18 74 -10 0 -23 -7 -30 -15z"></path>
		<path d="M2820 775 c-26 -32 13 -81 48 -59 34 22 22 74 -18 74 -10 0 -23 -7 -30 -15z"></path>
		<path d="M2920 775 c-26 -32 13 -81 48 -59 34 22 22 74 -18 74 -10 0 -23 -7 -30 -15z"></path>
		<path d="M3120 775 c-26 -32 13 -81 48 -59 34 22 22 74 -18 74 -10 0 -23 -7 -30 -15z"></path>
		<path d="M3220 775 c-26 -32 13 -81 48 -59 34 22 22 74 -18 74 -10 0 -23 -7 -30 -15z"></path>
		<path d="M3420 775 c-26 -32 13 -81 48 -59 34 22 22 74 -18 74 -10 0 -23 -7 -30 -15z"></path>
		<path d="M3620 775 c-26 -32 13 -81 48 -59 34 22 22 74 -18 74 -10 0 -23 -7 -30 -15z"></path>
		<path d="M3820 775 c-26 -32 13 -81 48 -59 34 22 22 74 -18 74 -10 0 -23 -7 -30 -15z"></path>
		<path d="M1220 675 c-26 -32 13 -81 48 -59 34 22 22 74 -18 74 -10 0 -23 -7 -30 -15z"></path>
		<path d="M1420 675 c-26 -32 13 -81 48 -59 34 22 22 74 -18 74 -10 0 -23 -7 -30 -15z"></path>
		<path d="M1720 675 c-26 -32 13 -81 48 -59 34 22 22 74 -18 74 -10 0 -23 -7 -30 -15z"></path>
		<path d="M1820 675 c-26 -32 13 -81 48 -59 34 22 22 74 -18 74 -10 0 -23 -7 -30 -15z"></path>
		<path d="M1920 675 c-26 -32 13 -81 48 -59 34 22 22 74 -18 74 -10 0 -23 -7 -30 -15z"></path>
		<path d="M2020 675 c-26 -32 13 -81 48 -59 34 22 22 74 -18 74 -10 0 -23 -7 -30 -15z"></path>
		<path d="M2120 675 c-26 -32 13 -81 48 -59 34 22 22 74 -18 74 -10 0 -23 -7 -30 -15z"></path>
		<path d="M2320 675 c-26 -32 13 -81 48 -59 34 22 22 74 -18 74 -10 0 -23 -7 -30 -15z"></path>
		<path d="M2920 675 c-26 -32 13 -81 48 -59 34 22 22 74 -18 74 -10 0 -23 -7 -30 -15z"></path>
		<path d="M3020 675 c-26 -32 13 -81 48 -59 34 22 22 74 -18 74 -10 0 -23 -7 -30 -15z"></path>
		<path d="M3220 675 c-26 -32 13 -81 48 -59 34 22 22 74 -18 74 -10 0 -23 -7 -30 -15z"></path>
		<path d="M3720 675 c-26 -32 13 -81 48 -59 34 22 22 74 -18 74 -10 0 -23 -7 -30 -15z"></path>
		<path d="M3820 675 c-26 -32 13 -81 48 -59 34 22 22 74 -18 74 -10 0 -23 -7 -30 -15z"></path>
		<path d="M4020 675 c-26 -32 13 -81 48 -59 34 22 22 74 -18 74 -10 0 -23 -7 -30 -15z"></path>
		<path d="M1320 575 c-26 -32 13 -81 48 -59 22 14 27 41 12 59 -16 19 -44 19 -60 0z"></path>
		<path d="M1620 575 c-15 -18 -10 -45 13 -59 34 -22 73 27 47 59 -16 19 -44 19 -60 0z"></path>
		<path d="M1920 575 c-26 -32 13 -81 48 -59 22 14 27 41 12 59 -16 19 -44 19 -60 0z"></path>
		<path d="M2220 575 c-26 -32 13 -81 48 -59 22 14 27 41 12 59 -16 19 -44 19 -60 0z"></path>
		<path d="M2320 575 c-26 -32 13 -81 48 -59 22 14 27 41 12 59 -16 19 -44 19 -60 0z"></path>
		<path d="M2420 575 c-26 -32 13 -81 48 -59 22 14 27 41 12 59 -16 19 -44 19 -60 0z"></path>
		<path d="M2520 575 c-26 -32 13 -81 48 -59 22 14 27 41 12 59 -16 19 -44 19 -60 0z"></path>
		<path d="M2620 575 c-15 -18 -10 -45 13 -59 34 -22 73 27 47 59 -16 19 -44 19 -60 0z"></path>
		<path d="M2820 575 c-15 -18 -10 -45 13 -59 34 -22 73 27 47 59 -16 19 -44 19 -60 0z"></path>
		<path d="M3120 575 c-15 -18 -10 -45 13 -59 34 -22 73 27 47 59 -16 19 -44 19 -60 0z"></path>
		<path d="M3320 575 c-15 -18 -10 -45 13 -59 34 -22 73 27 47 59 -16 19 -44 19 -60 0z"></path>
		<path d="M3620 575 c-15 -18 -10 -45 13 -59 34 -22 73 27 47 59 -16 19 -44 19 -60 0z"></path>
		<path d="M3820 575 c-15 -18 -10 -45 13 -59 34 -22 73 27 47 59 -16 19 -44 19 -60 0z"></path>
		<path d="M4020 575 c-15 -18 -10 -45 13 -59 34 -22 73 27 47 59 -16 19 -44 19 -60 0z"></path>
		<path d="M1220 475 c-26 -32 13 -81 48 -59 22 14 27 41 12 59 -16 19 -44 19 -60 0z"></path>
		<path d="M1320 475 c-26 -32 13 -81 48 -59 22 14 27 41 12 59 -16 19 -44 19 -60 0z"></path>
		<path d="M1720 475 c-26 -32 13 -81 48 -59 22 14 27 41 12 59 -16 19 -44 19 -60 0z"></path>
		<path d="M1820 475 c-26 -32 13 -81 48 -59 22 14 27 41 12 59 -16 19 -44 19 -60 0z"></path>
		<path d="M1920 475 c-26 -32 13 -81 48 -59 22 14 27 41 12 59 -16 19 -44 19 -60 0z"></path>
		<path d="M2120 475 c-26 -32 13 -81 48 -59 22 14 27 41 12 59 -16 19 -44 19 -60 0z"></path>
		<path d="M2220 475 c-26 -32 13 -81 48 -59 22 14 27 41 12 59 -16 19 -44 19 -60 0z"></path>
		<path d="M2320 475 c-26 -32 13 -81 48 -59 22 14 27 41 12 59 -16 19 -44 19 -60 0z"></path>
		<path d="M2620 475 c-15 -18 -10 -45 13 -59 34 -22 73 27 47 59 -16 19 -44 19 -60 0z"></path>
		<path d="M2820 475 c-15 -18 -10 -45 13 -59 34 -22 73 27 47 59 -16 19 -44 19 -60 0z"></path>
		<path d="M2920 475 c-15 -18 -10 -45 13 -59 34 -22 73 27 47 59 -16 19 -44 19 -60 0z"></path>
		<path d="M3220 475 c-15 -18 -10 -45 13 -59 34 -22 73 27 47 59 -16 19 -44 19 -60 0z"></path>
		<path d="M3620 475 c-15 -18 -10 -45 13 -59 34 -22 73 27 47 59 -16 19 -44 19 -60 0z"></path>
		<path d="M3720 475 c-15 -18 -10 -45 13 -59 34 -22 73 27 47 59 -16 19 -44 19 -60 0z"></path>
		<path d="M3920 475 c-15 -18 -10 -45 13 -59 34 -22 73 27 47 59 -16 19 -44 19 -60 0z"></path>
		<path d="M4020 475 c-15 -18 -10 -45 13 -59 34 -22 73 27 47 59 -16 19 -44 19 -60 0z"></path>
	</g>
</svg>
