<svg
    version="1.0"
    xmlns="http://www.w3.org/2000/svg"
    width="450.000000pt"
    height="450.000000pt"
    viewBox="0 0 450.000000 450.000000"
    preserveAspectRatio="xMidYMid meet"
	style="background-color: #f6f7f7"
>
    <g
        transform="translate(0.000000,450.000000) scale(0.100000,-0.100000)"
        fill="#2e2e2e"
        stroke="none"
    >
		<path d="M451 4086 c-48 -27 -50 -42 -51 -334 0 -296 3 -317 55 -340 41 -19 557 -17 594 2 48 25 51 46 51 336 0 290 -3 311 -51 336 -39 20 -562 20 -598 0z m494 -98 c48 -22 55 -51 55 -238 0 -253 3 -250 -250 -250 -254 0 -250 -3 -250 252 1 185 6 209 51 234 32 18 356 19 394 2z"></path>
		<path d="M651 3886 c-37 -21 -50 -55 -51 -133 0 -123 29 -153 150 -153 120 0 150 30 150 150 0 81 -13 116 -51 136 -36 18 -165 18 -198 0z"></path>
		<path d="M3451 4086 c-48 -27 -50 -42 -51 -334 0 -296 3 -317 55 -340 41 -19 557 -17 594 2 48 25 51 46 51 336 0 290 -3 311 -51 336 -39 20 -562 20 -598 0z m494 -98 c48 -22 55 -51 55 -238 0 -253 3 -250 -250 -250 -254 0 -250 -3 -250 252 1 185 6 209 51 234 32 18 356 19 394 2z"></path>
		<path d="M3651 3886 c-37 -21 -50 -55 -51 -133 0 -123 29 -153 150 -153 120 0 150 30 150 150 0 81 -13 116 -51 136 -36 18 -165 18 -198 0z"></path>
		<path d="M1220 4075 c-26 -32 13 -81 48 -59 34 22 22 74 -18 74 -10 0 -23 -7 -30 -15z"></path>
		<path d="M1420 4075 c-26 -32 13 -81 48 -59 34 22 22 74 -18 74 -10 0 -23 -7 -30 -15z"></path>
		<path d="M1520 4075 c-26 -32 13 -81 48 -59 34 22 22 74 -18 74 -10 0 -23 -7 -30 -15z"></path>
		<path d="M1620 4075 c-26 -32 13 -81 48 -59 34 22 22 74 -18 74 -10 0 -23 -7 -30 -15z"></path>
		<path d="M1720 4075 c-26 -32 13 -81 48 -59 34 22 22 74 -18 74 -10 0 -23 -7 -30 -15z"></path>
		<path d="M1820 4075 c-26 -32 13 -81 48 -59 34 22 22 74 -18 74 -10 0 -23 -7 -30 -15z"></path>
		<path d="M2020 4075 c-26 -32 13 -81 48 -59 34 22 22 74 -18 74 -10 0 -23 -7 -30 -15z"></path>
		<path d="M2120 4075 c-26 -32 13 -81 48 -59 34 22 22 74 -18 74 -10 0 -23 -7 -30 -15z"></path>
		<path d="M2220 4075 c-26 -32 13 -81 48 -59 34 22 22 74 -18 74 -10 0 -23 -7 -30 -15z"></path>
		<path d="M2320 4075 c-26 -32 13 -81 48 -59 34 22 22 74 -18 74 -10 0 -23 -7 -30 -15z"></path>
		<path d="M2620 4075 c-26 -32 13 -81 48 -59 34 22 22 74 -18 74 -10 0 -23 -7 -30 -15z"></path>
		<path d="M2820 4075 c-26 -32 13 -81 48 -59 34 22 22 74 -18 74 -10 0 -23 -7 -30 -15z"></path>
		<path d="M2920 4075 c-26 -32 13 -81 48 -59 34 22 22 74 -18 74 -10 0 -23 -7 -30 -15z"></path>
		<path d="M3020 4075 c-26 -32 13 -81 48 -59 34 22 22 74 -18 74 -10 0 -23 -7 -30 -15z"></path>
		<path d="M3220 4075 c-26 -32 13 -81 48 -59 34 22 22 74 -18 74 -10 0 -23 -7 -30 -15z"></path>
		<path d="M1320 3975 c-26 -32 13 -81 48 -59 34 22 22 74 -18 74 -10 0 -23 -7 -30 -15z"></path>
		<path d="M1420 3975 c-26 -32 13 -81 48 -59 34 22 22 74 -18 74 -10 0 -23 -7 -30 -15z"></path>
		<path d="M1520 3975 c-26 -32 13 -81 48 -59 34 22 22 74 -18 74 -10 0 -23 -7 -30 -15z"></path>
		<path d="M1720 3975 c-26 -32 13 -81 48 -59 34 22 22 74 -18 74 -10 0 -23 -7 -30 -15z"></path>
		<path d="M1820 3975 c-26 -32 13 -81 48 -59 34 22 22 74 -18 74 -10 0 -23 -7 -30 -15z"></path>
		<path d="M2120 3975 c-26 -32 13 -81 48 -59 34 22 22 74 -18 74 -10 0 -23 -7 -30 -15z"></path>
		<path d="M2420 3975 c-26 -32 13 -81 48 -59 34 22 22 74 -18 74 -10 0 -23 -7 -30 -15z"></path>
		<path d="M2620 3975 c-26 -32 13 -81 48 -59 34 22 22 74 -18 74 -10 0 -23 -7 -30 -15z"></path>
		<path d="M2920 3975 c-26 -32 13 -81 48 -59 34 22 22 74 -18 74 -10 0 -23 -7 -30 -15z"></path>
		<path d="M3120 3975 c-26 -32 13 -81 48 -59 34 22 22 74 -18 74 -10 0 -23 -7 -30 -15z"></path>
		<path d="M1320 3875 c-26 -32 13 -81 48 -59 34 22 22 74 -18 74 -10 0 -23 -7 -30 -15z"></path>
		<path d="M1520 3875 c-26 -32 13 -81 48 -59 34 22 22 74 -18 74 -10 0 -23 -7 -30 -15z"></path>
		<path d="M1620 3875 c-26 -32 13 -81 48 -59 34 22 22 74 -18 74 -10 0 -23 -7 -30 -15z"></path>
		<path d="M1820 3875 c-26 -32 13 -81 48 -59 34 22 22 74 -18 74 -10 0 -23 -7 -30 -15z"></path>
		<path d="M2320 3875 c-26 -32 13 -81 48 -59 34 22 22 74 -18 74 -10 0 -23 -7 -30 -15z"></path>
		<path d="M2420 3875 c-26 -32 13 -81 48 -59 34 22 22 74 -18 74 -10 0 -23 -7 -30 -15z"></path>
		<path d="M2520 3875 c-26 -32 13 -81 48 -59 34 22 22 74 -18 74 -10 0 -23 -7 -30 -15z"></path>
		<path d="M2720 3875 c-26 -32 13 -81 48 -59 34 22 22 74 -18 74 -10 0 -23 -7 -30 -15z"></path>
		<path d="M1220 3775 c-26 -32 13 -81 48 -59 34 22 22 74 -18 74 -10 0 -23 -7 -30 -15z"></path>
		<path d="M1320 3775 c-26 -32 13 -81 48 -59 34 22 22 74 -18 74 -10 0 -23 -7 -30 -15z"></path>
		<path d="M1420 3775 c-26 -32 13 -81 48 -59 34 22 22 74 -18 74 -10 0 -23 -7 -30 -15z"></path>
		<path d="M1620 3775 c-26 -32 13 -81 48 -59 34 22 22 74 -18 74 -10 0 -23 -7 -30 -15z"></path>
		<path d="M1920 3775 c-26 -32 13 -81 48 -59 34 22 22 74 -18 74 -10 0 -23 -7 -30 -15z"></path>
		<path d="M2120 3775 c-26 -32 13 -81 48 -59 34 22 22 74 -18 74 -10 0 -23 -7 -30 -15z"></path>
		<path d="M2220 3775 c-26 -32 13 -81 48 -59 34 22 22 74 -18 74 -10 0 -23 -7 -30 -15z"></path>
		<path d="M2320 3775 c-26 -32 13 -81 48 -59 34 22 22 74 -18 74 -10 0 -23 -7 -30 -15z"></path>
		<path d="M2420 3775 c-26 -32 13 -81 48 -59 34 22 22 74 -18 74 -10 0 -23 -7 -30 -15z"></path>
		<path d="M2720 3775 c-26 -32 13 -81 48 -59 34 22 22 74 -18 74 -10 0 -23 -7 -30 -15z"></path>
		<path d="M2920 3775 c-26 -32 13 -81 48 -59 34 22 22 74 -18 74 -10 0 -23 -7 -30 -15z"></path>
		<path d="M3020 3775 c-26 -32 13 -81 48 -59 34 22 22 74 -18 74 -10 0 -23 -7 -30 -15z"></path>
		<path d="M1220 3675 c-26 -32 13 -81 48 -59 34 22 22 74 -18 74 -10 0 -23 -7 -30 -15z"></path>
		<path d="M1320 3675 c-26 -32 13 -81 48 -59 34 22 22 74 -18 74 -10 0 -23 -7 -30 -15z"></path>
		<path d="M1520 3675 c-26 -32 13 -81 48 -59 34 22 22 74 -18 74 -10 0 -23 -7 -30 -15z"></path>
		<path d="M1620 3675 c-26 -32 13 -81 48 -59 34 22 22 74 -18 74 -10 0 -23 -7 -30 -15z"></path>
		<path d="M1820 3675 c-26 -32 13 -81 48 -59 34 22 22 74 -18 74 -10 0 -23 -7 -30 -15z"></path>
		<path d="M1920 3675 c-26 -32 13 -81 48 -59 34 22 22 74 -18 74 -10 0 -23 -7 -30 -15z"></path>
		<path d="M2220 3675 c-26 -32 13 -81 48 -59 34 22 22 74 -18 74 -10 0 -23 -7 -30 -15z"></path>
		<path d="M2320 3675 c-26 -32 13 -81 48 -59 34 22 22 74 -18 74 -10 0 -23 -7 -30 -15z"></path>
		<path d="M2420 3675 c-26 -32 13 -81 48 -59 34 22 22 74 -18 74 -10 0 -23 -7 -30 -15z"></path>
		<path d="M2520 3675 c-26 -32 13 -81 48 -59 34 22 22 74 -18 74 -10 0 -23 -7 -30 -15z"></path>
		<path d="M2720 3675 c-26 -32 13 -81 48 -59 34 22 22 74 -18 74 -10 0 -23 -7 -30 -15z"></path>
		<path d="M2920 3675 c-26 -32 13 -81 48 -59 34 22 22 74 -18 74 -10 0 -23 -7 -30 -15z"></path>
		<path d="M3020 3675 c-26 -32 13 -81 48 -59 34 22 22 74 -18 74 -10 0 -23 -7 -30 -15z"></path>
		<path d="M3120 3675 c-26 -32 13 -81 48 -59 34 22 22 74 -18 74 -10 0 -23 -7 -30 -15z"></path>
		<path d="M3220 3675 c-26 -32 13 -81 48 -59 34 22 22 74 -18 74 -10 0 -23 -7 -30 -15z"></path>
		<path d="M1220 3575 c-26 -32 13 -81 48 -59 34 22 22 74 -18 74 -10 0 -23 -7 -30 -15z"></path>
		<path d="M1320 3575 c-26 -32 13 -81 48 -59 34 22 22 74 -18 74 -10 0 -23 -7 -30 -15z"></path>
		<path d="M1620 3575 c-26 -32 13 -81 48 -59 34 22 22 74 -18 74 -10 0 -23 -7 -30 -15z"></path>
		<path d="M1720 3575 c-26 -32 13 -81 48 -59 34 22 22 74 -18 74 -10 0 -23 -7 -30 -15z"></path>
		<path d="M1820 3575 c-26 -32 13 -81 48 -59 34 22 22 74 -18 74 -10 0 -23 -7 -30 -15z"></path>
		<path d="M1920 3575 c-26 -32 13 -81 48 -59 34 22 22 74 -18 74 -10 0 -23 -7 -30 -15z"></path>
		<path d="M2020 3575 c-26 -32 13 -81 48 -59 34 22 22 74 -18 74 -10 0 -23 -7 -30 -15z"></path>
		<path d="M2220 3575 c-26 -32 13 -81 48 -59 34 22 22 74 -18 74 -10 0 -23 -7 -30 -15z"></path>
		<path d="M2320 3575 c-26 -32 13 -81 48 -59 34 22 22 74 -18 74 -10 0 -23 -7 -30 -15z"></path>
		<path d="M2520 3575 c-26 -32 13 -81 48 -59 34 22 22 74 -18 74 -10 0 -23 -7 -30 -15z"></path>
		<path d="M2620 3575 c-26 -32 13 -81 48 -59 34 22 22 74 -18 74 -10 0 -23 -7 -30 -15z"></path>
		<path d="M2920 3575 c-26 -32 13 -81 48 -59 34 22 22 74 -18 74 -10 0 -23 -7 -30 -15z"></path>
		<path d="M3020 3575 c-26 -32 13 -81 48 -59 34 22 22 74 -18 74 -10 0 -23 -7 -30 -15z"></path>
		<path d="M1220 3475 c-26 -32 13 -81 48 -59 34 22 22 74 -18 74 -10 0 -23 -7 -30 -15z"></path>
		<path d="M1420 3475 c-26 -32 13 -81 48 -59 34 22 22 74 -18 74 -10 0 -23 -7 -30 -15z"></path>
		<path d="M1620 3475 c-26 -32 13 -81 48 -59 34 22 22 74 -18 74 -10 0 -23 -7 -30 -15z"></path>
		<path d="M1820 3475 c-26 -32 13 -81 48 -59 34 22 22 74 -18 74 -10 0 -23 -7 -30 -15z"></path>
		<path d="M2020 3475 c-26 -32 13 -81 48 -59 34 22 22 74 -18 74 -10 0 -23 -7 -30 -15z"></path>
		<path d="M2220 3475 c-26 -32 13 -81 48 -59 34 22 22 74 -18 74 -10 0 -23 -7 -30 -15z"></path>
		<path d="M2420 3475 c-26 -32 13 -81 48 -59 34 22 22 74 -18 74 -10 0 -23 -7 -30 -15z"></path>
		<path d="M2620 3475 c-26 -32 13 -81 48 -59 34 22 22 74 -18 74 -10 0 -23 -7 -30 -15z"></path>
		<path d="M2820 3475 c-26 -32 13 -81 48 -59 34 22 22 74 -18 74 -10 0 -23 -7 -30 -15z"></path>
		<path d="M3020 3475 c-26 -32 13 -81 48 -59 34 22 22 74 -18 74 -10 0 -23 -7 -30 -15z"></path>
		<path d="M3220 3475 c-26 -32 13 -81 48 -59 34 22 22 74 -18 74 -10 0 -23 -7 -30 -15z"></path>
		<path d="M1220 3375 c-26 -32 13 -81 48 -59 34 22 22 74 -18 74 -10 0 -23 -7 -30 -15z"></path>
		<path d="M1620 3375 c-26 -32 13 -81 48 -59 34 22 22 74 -18 74 -10 0 -23 -7 -30 -15z"></path>
		<path d="M1820 3375 c-26 -32 13 -81 48 -59 34 22 22 74 -18 74 -10 0 -23 -7 -30 -15z"></path>
		<path d="M2120 3375 c-26 -32 13 -81 48 -59 34 22 22 74 -18 74 -10 0 -23 -7 -30 -15z"></path>
		<path d="M2220 3375 c-26 -32 13 -81 48 -59 34 22 22 74 -18 74 -10 0 -23 -7 -30 -15z"></path>
		<path d="M2620 3375 c-26 -32 13 -81 48 -59 34 22 22 74 -18 74 -10 0 -23 -7 -30 -15z"></path>
		<path d="M2720 3375 c-26 -32 13 -81 48 -59 34 22 22 74 -18 74 -10 0 -23 -7 -30 -15z"></path>
		<path d="M2820 3375 c-26 -32 13 -81 48 -59 34 22 22 74 -18 74 -10 0 -23 -7 -30 -15z"></path>
		<path d="M3020 3375 c-26 -32 13 -81 48 -59 34 22 22 74 -18 74 -10 0 -23 -7 -30 -15z"></path>
		<path d="M420 3275 c-26 -32 13 -81 48 -59 34 22 22 74 -18 74 -10 0 -23 -7 -30 -15z"></path>
		<path d="M820 3275 c-26 -32 13 -81 48 -59 34 22 22 74 -18 74 -10 0 -23 -7 -30 -15z"></path>
		<path d="M1020 3275 c-26 -32 13 -81 48 -59 34 22 22 74 -18 74 -10 0 -23 -7 -30 -15z"></path>
		<path d="M1120 3275 c-26 -32 13 -81 48 -59 34 22 22 74 -18 74 -10 0 -23 -7 -30 -15z"></path>
		<path d="M1220 3275 c-26 -32 13 -81 48 -59 34 22 22 74 -18 74 -10 0 -23 -7 -30 -15z"></path>
		<path d="M1320 3275 c-26 -32 13 -81 48 -59 34 22 22 74 -18 74 -10 0 -23 -7 -30 -15z"></path>
		<path d="M1420 3275 c-26 -32 13 -81 48 -59 34 22 22 74 -18 74 -10 0 -23 -7 -30 -15z"></path>
		<path d="M1520 3275 c-26 -32 13 -81 48 -59 34 22 22 74 -18 74 -10 0 -23 -7 -30 -15z"></path>
		<path d="M1720 3275 c-26 -32 13 -81 48 -59 34 22 22 74 -18 74 -10 0 -23 -7 -30 -15z"></path>
		<path d="M1820 3275 c-26 -32 13 -81 48 -59 34 22 22 74 -18 74 -10 0 -23 -7 -30 -15z"></path>
		<path d="M2220 3275 c-26 -32 13 -81 48 -59 34 22 22 74 -18 74 -10 0 -23 -7 -30 -15z"></path>
		<path d="M2320 3275 c-26 -32 13 -81 48 -59 34 22 22 74 -18 74 -10 0 -23 -7 -30 -15z"></path>
		<path d="M2620 3275 c-26 -32 13 -81 48 -59 34 22 22 74 -18 74 -10 0 -23 -7 -30 -15z"></path>
		<path d="M2820 3275 c-26 -32 13 -81 48 -59 34 22 22 74 -18 74 -10 0 -23 -7 -30 -15z"></path>
		<path d="M2920 3275 c-26 -32 13 -81 48 -59 34 22 22 74 -18 74 -10 0 -23 -7 -30 -15z"></path>
		<path d="M3020 3275 c-26 -32 13 -81 48 -59 34 22 22 74 -18 74 -10 0 -23 -7 -30 -15z"></path>
		<path d="M3120 3275 c-26 -32 13 -81 48 -59 34 22 22 74 -18 74 -10 0 -23 -7 -30 -15z"></path>
		<path d="M3220 3275 c-26 -32 13 -81 48 -59 34 22 22 74 -18 74 -10 0 -23 -7 -30 -15z"></path>
		<path d="M3320 3275 c-26 -32 13 -81 48 -59 34 22 22 74 -18 74 -10 0 -23 -7 -30 -15z"></path>
		<path d="M3420 3275 c-26 -32 13 -81 48 -59 34 22 22 74 -18 74 -10 0 -23 -7 -30 -15z"></path>
		<path d="M3520 3275 c-26 -32 13 -81 48 -59 34 22 22 74 -18 74 -10 0 -23 -7 -30 -15z"></path>
		<path d="M3620 3275 c-26 -32 13 -81 48 -59 34 22 22 74 -18 74 -10 0 -23 -7 -30 -15z"></path>
		<path d="M3720 3275 c-26 -32 13 -81 48 -59 34 22 22 74 -18 74 -10 0 -23 -7 -30 -15z"></path>
		<path d="M4020 3275 c-26 -32 13 -81 48 -59 34 22 22 74 -18 74 -10 0 -23 -7 -30 -15z"></path>
		<path d="M420 3175 c-26 -32 13 -81 48 -59 34 22 22 74 -18 74 -10 0 -23 -7 -30 -15z"></path>
		<path d="M520 3175 c-26 -32 13 -81 48 -59 34 22 22 74 -18 74 -10 0 -23 -7 -30 -15z"></path>
		<path d="M620 3175 c-26 -32 13 -81 48 -59 34 22 22 74 -18 74 -10 0 -23 -7 -30 -15z"></path>
		<path d="M720 3175 c-26 -32 13 -81 48 -59 34 22 22 74 -18 74 -10 0 -23 -7 -30 -15z"></path>
		<path d="M920 3175 c-26 -32 13 -81 48 -59 34 22 22 74 -18 74 -10 0 -23 -7 -30 -15z"></path>
		<path d="M1120 3175 c-26 -32 13 -81 48 -59 34 22 22 74 -18 74 -10 0 -23 -7 -30 -15z"></path>
		<path d="M1320 3175 c-26 -32 13 -81 48 -59 34 22 22 74 -18 74 -10 0 -23 -7 -30 -15z"></path>
		<path d="M1620 3175 c-26 -32 13 -81 48 -59 34 22 22 74 -18 74 -10 0 -23 -7 -30 -15z"></path>
		<path d="M1720 3175 c-26 -32 13 -81 48 -59 34 22 22 74 -18 74 -10 0 -23 -7 -30 -15z"></path>
		<path d="M1820 3175 c-26 -32 13 -81 48 -59 34 22 22 74 -18 74 -10 0 -23 -7 -30 -15z"></path>
		<path d="M2020 3175 c-26 -32 13 -81 48 -59 34 22 22 74 -18 74 -10 0 -23 -7 -30 -15z"></path>
		<path d="M2320 3175 c-26 -32 13 -81 48 -59 34 22 22 74 -18 74 -10 0 -23 -7 -30 -15z"></path>
		<path d="M2420 3175 c-26 -32 13 -81 48 -59 34 22 22 74 -18 74 -10 0 -23 -7 -30 -15z"></path>
		<path d="M2520 3175 c-26 -32 13 -81 48 -59 34 22 22 74 -18 74 -10 0 -23 -7 -30 -15z"></path>
		<path d="M3320 3175 c-26 -32 13 -81 48 -59 34 22 22 74 -18 74 -10 0 -23 -7 -30 -15z"></path>
		<path d="M3420 3175 c-26 -32 13 -81 48 -59 34 22 22 74 -18 74 -10 0 -23 -7 -30 -15z"></path>
		<path d="M3520 3175 c-26 -32 13 -81 48 -59 34 22 22 74 -18 74 -10 0 -23 -7 -30 -15z"></path>
		<path d="M3620 3175 c-26 -32 13 -81 48 -59 34 22 22 74 -18 74 -10 0 -23 -7 -30 -15z"></path>
		<path d="M3920 3175 c-26 -32 13 -81 48 -59 34 22 22 74 -18 74 -10 0 -23 -7 -30 -15z"></path>
		<path d="M520 3075 c-26 -32 13 -81 48 -59 34 22 22 74 -18 74 -10 0 -23 -7 -30 -15z"></path>
		<path d="M620 3075 c-26 -32 13 -81 48 -59 34 22 22 74 -18 74 -10 0 -23 -7 -30 -15z"></path>
		<path d="M1020 3075 c-26 -32 13 -81 48 -59 34 22 22 74 -18 74 -10 0 -23 -7 -30 -15z"></path>
		<path d="M1120 3075 c-26 -32 13 -81 48 -59 34 22 22 74 -18 74 -10 0 -23 -7 -30 -15z"></path>
		<path d="M1220 3075 c-26 -32 13 -81 48 -59 34 22 22 74 -18 74 -10 0 -23 -7 -30 -15z"></path>
		<path d="M1320 3075 c-26 -32 13 -81 48 -59 34 22 22 74 -18 74 -10 0 -23 -7 -30 -15z"></path>
		<path d="M1520 3075 c-26 -32 13 -81 48 -59 34 22 22 74 -18 74 -10 0 -23 -7 -30 -15z"></path>
		<path d="M1620 3075 c-26 -32 13 -81 48 -59 34 22 22 74 -18 74 -10 0 -23 -7 -30 -15z"></path>
		<path d="M2020 3075 c-26 -32 13 -81 48 -59 34 22 22 74 -18 74 -10 0 -23 -7 -30 -15z"></path>
		<path d="M2120 3075 c-26 -32 13 -81 48 -59 34 22 22 74 -18 74 -10 0 -23 -7 -30 -15z"></path>
		<path d="M2420 3075 c-26 -32 13 -81 48 -59 34 22 22 74 -18 74 -10 0 -23 -7 -30 -15z"></path>
		<path d="M2920 3075 c-26 -32 13 -81 48 -59 34 22 22 74 -18 74 -10 0 -23 -7 -30 -15z"></path>
		<path d="M3020 3075 c-26 -32 13 -81 48 -59 34 22 22 74 -18 74 -10 0 -23 -7 -30 -15z"></path>
		<path d="M3120 3075 c-26 -32 13 -81 48 -59 34 22 22 74 -18 74 -10 0 -23 -7 -30 -15z"></path>
		<path d="M3520 3075 c-26 -32 13 -81 48 -59 34 22 22 74 -18 74 -10 0 -23 -7 -30 -15z"></path>
		<path d="M3820 3075 c-26 -32 13 -81 48 -59 34 22 22 74 -18 74 -10 0 -23 -7 -30 -15z"></path>
		<path d="M520 2975 c-26 -32 13 -81 48 -59 34 22 22 74 -18 74 -10 0 -23 -7 -30 -15z"></path>
		<path d="M920 2975 c-26 -32 13 -81 48 -59 34 22 22 74 -18 74 -10 0 -23 -7 -30 -15z"></path>
		<path d="M1120 2975 c-26 -32 13 -81 48 -59 34 22 22 74 -18 74 -10 0 -23 -7 -30 -15z"></path>
		<path d="M1420 2975 c-26 -32 13 -81 48 -59 34 22 22 74 -18 74 -10 0 -23 -7 -30 -15z"></path>
		<path d="M1520 2975 c-26 -32 13 -81 48 -59 34 22 22 74 -18 74 -10 0 -23 -7 -30 -15z"></path>
		<path d="M1620 2975 c-26 -32 13 -81 48 -59 34 22 22 74 -18 74 -10 0 -23 -7 -30 -15z"></path>
		<path d="M1720 2975 c-26 -32 13 -81 48 -59 34 22 22 74 -18 74 -10 0 -23 -7 -30 -15z"></path>
		<path d="M1820 2975 c-26 -32 13 -81 48 -59 34 22 22 74 -18 74 -10 0 -23 -7 -30 -15z"></path>
		<path d="M2120 2975 c-26 -32 13 -81 48 -59 34 22 22 74 -18 74 -10 0 -23 -7 -30 -15z"></path>
		<path d="M2220 2975 c-26 -32 13 -81 48 -59 34 22 22 74 -18 74 -10 0 -23 -7 -30 -15z"></path>
		<path d="M2520 2975 c-26 -32 13 -81 48 -59 34 22 22 74 -18 74 -10 0 -23 -7 -30 -15z"></path>
		<path d="M2620 2975 c-26 -32 13 -81 48 -59 34 22 22 74 -18 74 -10 0 -23 -7 -30 -15z"></path>
		<path d="M2820 2975 c-26 -32 13 -81 48 -59 34 22 22 74 -18 74 -10 0 -23 -7 -30 -15z"></path>
		<path d="M3020 2975 c-26 -32 13 -81 48 -59 34 22 22 74 -18 74 -10 0 -23 -7 -30 -15z"></path>
		<path d="M3120 2975 c-26 -32 13 -81 48 -59 34 22 22 74 -18 74 -10 0 -23 -7 -30 -15z"></path>
		<path d="M3220 2975 c-26 -32 13 -81 48 -59 34 22 22 74 -18 74 -10 0 -23 -7 -30 -15z"></path>
		<path d="M3320 2975 c-26 -32 13 -81 48 -59 34 22 22 74 -18 74 -10 0 -23 -7 -30 -15z"></path>
		<path d="M3720 2975 c-26 -32 13 -81 48 -59 34 22 22 74 -18 74 -10 0 -23 -7 -30 -15z"></path>
		<path d="M3820 2975 c-26 -32 13 -81 48 -59 34 22 22 74 -18 74 -10 0 -23 -7 -30 -15z"></path>
		<path d="M3920 2975 c-26 -32 13 -81 48 -59 34 22 22 74 -18 74 -10 0 -23 -7 -30 -15z"></path>
		<path d="M720 2875 c-26 -32 13 -81 48 -59 34 22 22 74 -18 74 -10 0 -23 -7 -30 -15z"></path>
		<path d="M820 2875 c-26 -32 13 -81 48 -59 34 22 22 74 -18 74 -10 0 -23 -7 -30 -15z"></path>
		<path d="M1020 2875 c-26 -32 13 -81 48 -59 34 22 22 74 -18 74 -10 0 -23 -7 -30 -15z"></path>
		<path d="M1120 2875 c-26 -32 13 -81 48 -59 34 22 22 74 -18 74 -10 0 -23 -7 -30 -15z"></path>
		<path d="M1420 2875 c-26 -32 13 -81 48 -59 34 22 22 74 -18 74 -10 0 -23 -7 -30 -15z"></path>
		<path d="M1520 2875 c-26 -32 13 -81 48 -59 34 22 22 74 -18 74 -10 0 -23 -7 -30 -15z"></path>
		<path d="M1620 2875 c-26 -32 13 -81 48 -59 34 22 22 74 -18 74 -10 0 -23 -7 -30 -15z"></path>
		<path d="M1720 2875 c-26 -32 13 -81 48 -59 34 22 22 74 -18 74 -10 0 -23 -7 -30 -15z"></path>
		<path d="M1920 2875 c-26 -32 13 -81 48 -59 34 22 22 74 -18 74 -10 0 -23 -7 -30 -15z"></path>
		<path d="M2020 2875 c-26 -32 13 -81 48 -59 34 22 22 74 -18 74 -10 0 -23 -7 -30 -15z"></path>
		<path d="M2220 2875 c-26 -32 13 -81 48 -59 34 22 22 74 -18 74 -10 0 -23 -7 -30 -15z"></path>
		<path d="M2320 2875 c-26 -32 13 -81 48 -59 34 22 22 74 -18 74 -10 0 -23 -7 -30 -15z"></path>
		<path d="M2420 2875 c-26 -32 13 -81 48 -59 34 22 22 74 -18 74 -10 0 -23 -7 -30 -15z"></path>
		<path d="M2520 2875 c-26 -32 13 -81 48 -59 34 22 22 74 -18 74 -10 0 -23 -7 -30 -15z"></path>
		<path d="M2620 2875 c-26 -32 13 -81 48 -59 34 22 22 74 -18 74 -10 0 -23 -7 -30 -15z"></path>
		<path d="M2720 2875 c-26 -32 13 -81 48 -59 34 22 22 74 -18 74 -10 0 -23 -7 -30 -15z"></path>
		<path d="M2820 2875 c-26 -32 13 -81 48 -59 34 22 22 74 -18 74 -10 0 -23 -7 -30 -15z"></path>
		<path d="M3420 2875 c-26 -32 13 -81 48 -59 34 22 22 74 -18 74 -10 0 -23 -7 -30 -15z"></path>
		<path d="M3720 2875 c-26 -32 13 -81 48 -59 34 22 22 74 -18 74 -10 0 -23 -7 -30 -15z"></path>
		<path d="M3920 2875 c-26 -32 13 -81 48 -59 34 22 22 74 -18 74 -10 0 -23 -7 -30 -15z"></path>
		<path d="M4020 2875 c-26 -32 13 -81 48 -59 34 22 22 74 -18 74 -10 0 -23 -7 -30 -15z"></path>
		<path d="M420 2775 c-26 -32 13 -81 48 -59 34 22 22 74 -18 74 -10 0 -23 -7 -30 -15z"></path>
		<path d="M720 2775 c-26 -32 13 -81 48 -59 34 22 22 74 -18 74 -10 0 -23 -7 -30 -15z"></path>
		<path d="M820 2775 c-26 -32 13 -81 48 -59 34 22 22 74 -18 74 -10 0 -23 -7 -30 -15z"></path>
		<path d="M920 2775 c-26 -32 13 -81 48 -59 34 22 22 74 -18 74 -10 0 -23 -7 -30 -15z"></path>
		<path d="M1320 2775 c-26 -32 13 -81 48 -59 34 22 22 74 -18 74 -10 0 -23 -7 -30 -15z"></path>
		<path d="M1420 2775 c-26 -32 13 -81 48 -59 34 22 22 74 -18 74 -10 0 -23 -7 -30 -15z"></path>
		<path d="M1520 2775 c-26 -32 13 -81 48 -59 34 22 22 74 -18 74 -10 0 -23 -7 -30 -15z"></path>
		<path d="M1620 2775 c-26 -32 13 -81 48 -59 34 22 22 74 -18 74 -10 0 -23 -7 -30 -15z"></path>
		<path d="M2720 2775 c-26 -32 13 -81 48 -59 34 22 22 74 -18 74 -10 0 -23 -7 -30 -15z"></path>
		<path d="M3020 2775 c-26 -32 13 -81 48 -59 34 22 22 74 -18 74 -10 0 -23 -7 -30 -15z"></path>
		<path d="M3120 2775 c-26 -32 13 -81 48 -59 34 22 22 74 -18 74 -10 0 -23 -7 -30 -15z"></path>
		<path d="M3220 2775 c-26 -32 13 -81 48 -59 34 22 22 74 -18 74 -10 0 -23 -7 -30 -15z"></path>
		<path d="M3620 2775 c-26 -32 13 -81 48 -59 34 22 22 74 -18 74 -10 0 -23 -7 -30 -15z"></path>
		<path d="M3720 2775 c-26 -32 13 -81 48 -59 34 22 22 74 -18 74 -10 0 -23 -7 -30 -15z"></path>
		<path d="M4020 2775 c-26 -32 13 -81 48 -59 34 22 22 74 -18 74 -10 0 -23 -7 -30 -15z"></path>
		<path d="M520 2675 c-26 -32 13 -81 48 -59 34 22 22 74 -18 74 -10 0 -23 -7 -30 -15z"></path>
		<path d="M620 2675 c-26 -32 13 -81 48 -59 34 22 22 74 -18 74 -10 0 -23 -7 -30 -15z"></path>
		<path d="M820 2675 c-26 -32 13 -81 48 -59 34 22 22 74 -18 74 -10 0 -23 -7 -30 -15z"></path>
		<path d="M920 2675 c-26 -32 13 -81 48 -59 34 22 22 74 -18 74 -10 0 -23 -7 -30 -15z"></path>
		<path d="M1020 2675 c-26 -32 13 -81 48 -59 34 22 22 74 -18 74 -10 0 -23 -7 -30 -15z"></path>
		<path d="M1220 2675 c-26 -32 13 -81 48 -59 34 22 22 74 -18 74 -10 0 -23 -7 -30 -15z"></path>
		<path d="M1620 2675 c-26 -32 13 -81 48 -59 34 22 22 74 -18 74 -10 0 -23 -7 -30 -15z"></path>
		<path d="M1720 2675 c-26 -32 13 -81 48 -59 34 22 22 74 -18 74 -10 0 -23 -7 -30 -15z"></path>
		<path d="M2720 2675 c-26 -32 13 -81 48 -59 34 22 22 74 -18 74 -10 0 -23 -7 -30 -15z"></path>
		<path d="M2820 2675 c-26 -32 13 -81 48 -59 34 22 22 74 -18 74 -10 0 -23 -7 -30 -15z"></path>
		<path d="M2920 2675 c-26 -32 13 -81 48 -59 34 22 22 74 -18 74 -10 0 -23 -7 -30 -15z"></path>
		<path d="M3020 2675 c-26 -32 13 -81 48 -59 34 22 22 74 -18 74 -10 0 -23 -7 -30 -15z"></path>
		<path d="M3120 2675 c-26 -32 13 -81 48 -59 34 22 22 74 -18 74 -10 0 -23 -7 -30 -15z"></path>
		<path d="M3420 2675 c-26 -32 13 -81 48 -59 34 22 22 74 -18 74 -10 0 -23 -7 -30 -15z"></path>
		<path d="M3520 2675 c-26 -32 13 -81 48 -59 34 22 22 74 -18 74 -10 0 -23 -7 -30 -15z"></path>
		<path d="M3620 2675 c-26 -32 13 -81 48 -59 34 22 22 74 -18 74 -10 0 -23 -7 -30 -15z"></path>
		<path d="M3720 2675 c-26 -32 13 -81 48 -59 34 22 22 74 -18 74 -10 0 -23 -7 -30 -15z"></path>
		<path d="M3820 2675 c-26 -32 13 -81 48 -59 34 22 22 74 -18 74 -10 0 -23 -7 -30 -15z"></path>
		<path d="M4020 2675 c-26 -32 13 -81 48 -59 34 22 22 74 -18 74 -10 0 -23 -7 -30 -15z"></path>
		<path d="M420 2575 c-26 -32 13 -81 48 -59 34 22 22 74 -18 74 -10 0 -23 -7 -30 -15z"></path>
		<path d="M520 2575 c-26 -32 13 -81 48 -59 34 22 22 74 -18 74 -10 0 -23 -7 -30 -15z"></path>
		<path d="M720 2575 c-26 -32 13 -81 48 -59 34 22 22 74 -18 74 -10 0 -23 -7 -30 -15z"></path>
		<path d="M820 2575 c-26 -32 13 -81 48 -59 34 22 22 74 -18 74 -10 0 -23 -7 -30 -15z"></path>
		<path d="M1220 2575 c-26 -32 13 -81 48 -59 34 22 22 74 -18 74 -10 0 -23 -7 -30 -15z"></path>
		<path d="M1320 2575 c-26 -32 13 -81 48 -59 34 22 22 74 -18 74 -10 0 -23 -7 -30 -15z"></path>
		<path d="M1420 2575 c-26 -32 13 -81 48 -59 34 22 22 74 -18 74 -10 0 -23 -7 -30 -15z"></path>
		<path d="M1520 2575 c-26 -32 13 -81 48 -59 34 22 22 74 -18 74 -10 0 -23 -7 -30 -15z"></path>
		<path d="M1620 2575 c-26 -32 13 -81 48 -59 34 22 22 74 -18 74 -10 0 -23 -7 -30 -15z"></path>
		<path d="M2820 2575 c-26 -32 13 -81 48 -59 34 22 22 74 -18 74 -10 0 -23 -7 -30 -15z"></path>
		<path d="M2920 2575 c-26 -32 13 -81 48 -59 34 22 22 74 -18 74 -10 0 -23 -7 -30 -15z"></path>
		<path d="M3120 2575 c-26 -32 13 -81 48 -59 34 22 22 74 -18 74 -10 0 -23 -7 -30 -15z"></path>
		<path d="M3220 2575 c-26 -32 13 -81 48 -59 34 22 22 74 -18 74 -10 0 -23 -7 -30 -15z"></path>
		<path d="M3320 2575 c-26 -32 13 -81 48 -59 34 22 22 74 -18 74 -10 0 -23 -7 -30 -15z"></path>
		<path d="M3420 2575 c-26 -32 13 -81 48 -59 34 22 22 74 -18 74 -10 0 -23 -7 -30 -15z"></path>
		<path d="M3520 2575 c-26 -32 13 -81 48 -59 34 22 22 74 -18 74 -10 0 -23 -7 -30 -15z"></path>
		<path d="M3620 2575 c-26 -32 13 -81 48 -59 34 22 22 74 -18 74 -10 0 -23 -7 -30 -15z"></path>
		<path d="M3820 2575 c-26 -32 13 -81 48 -59 34 22 22 74 -18 74 -10 0 -23 -7 -30 -15z"></path>
		<path d="M3920 2575 c-26 -32 13 -81 48 -59 34 22 22 74 -18 74 -10 0 -23 -7 -30 -15z"></path>
		<path d="M4020 2575 c-26 -32 13 -81 48 -59 34 22 22 74 -18 74 -10 0 -23 -7 -30 -15z"></path>
		<path d="M2209 2442 c-152 -64 -284 -123 -293 -131 -39 -33 -11 -69 74 -96 30 -9 60 -22 66 -29 6 -6 22 -45 34 -86 12 -41 27 -81 32 -87 16 -20 42 -15 69 13 46 49 54 49 120 0 70 -53 110 -60 133 -23 7 12 35 136 62 276 47 247 48 253 29 267 -10 8 -26 14 -34 14 -9 -1 -140 -54 -292 -118z m252 -133 c-21 -107 -42 -213 -46 -236 -4 -24 -11 -43 -16 -43 -6 0 -42 24 -82 54 l-72 55 -43 -36 -44 -36 7 54 c6 48 12 59 58 103 29 28 85 81 125 119 40 38 71 72 68 74 -3 3 -74 -38 -159 -91 l-154 -95 -66 21 c-37 12 -67 25 -67 28 0 6 523 230 527 226 1 -1 -15 -90 -36 -197z"></path>
		<path d="M620 2475 c-26 -32 13 -81 48 -59 34 22 22 74 -18 74 -10 0 -23 -7 -30 -15z"></path>
		<path d="M720 2475 c-26 -32 13 -81 48 -59 34 22 22 74 -18 74 -10 0 -23 -7 -30 -15z"></path>
		<path d="M920 2475 c-26 -32 13 -81 48 -59 34 22 22 74 -18 74 -10 0 -23 -7 -30 -15z"></path>
		<path d="M1020 2475 c-26 -32 13 -81 48 -59 34 22 22 74 -18 74 -10 0 -23 -7 -30 -15z"></path>
		<path d="M1120 2475 c-26 -32 13 -81 48 -59 34 22 22 74 -18 74 -10 0 -23 -7 -30 -15z"></path>
		<path d="M1220 2475 c-26 -32 13 -81 48 -59 34 22 22 74 -18 74 -10 0 -23 -7 -30 -15z"></path>
		<path d="M1320 2475 c-26 -32 13 -81 48 -59 34 22 22 74 -18 74 -10 0 -23 -7 -30 -15z"></path>
		<path d="M1420 2475 c-26 -32 13 -81 48 -59 34 22 22 74 -18 74 -10 0 -23 -7 -30 -15z"></path>
		<path d="M1520 2475 c-26 -32 13 -81 48 -59 34 22 22 74 -18 74 -10 0 -23 -7 -30 -15z"></path>
		<path d="M1620 2475 c-26 -32 13 -81 48 -59 34 22 22 74 -18 74 -10 0 -23 -7 -30 -15z"></path>
		<path d="M1720 2475 c-26 -32 13 -81 48 -59 34 22 22 74 -18 74 -10 0 -23 -7 -30 -15z"></path>
		<path d="M2920 2475 c-26 -32 13 -81 48 -59 34 22 22 74 -18 74 -10 0 -23 -7 -30 -15z"></path>
		<path d="M3320 2475 c-26 -32 13 -81 48 -59 34 22 22 74 -18 74 -10 0 -23 -7 -30 -15z"></path>
		<path d="M3520 2475 c-26 -32 13 -81 48 -59 34 22 22 74 -18 74 -10 0 -23 -7 -30 -15z"></path>
		<path d="M3620 2475 c-26 -32 13 -81 48 -59 34 22 22 74 -18 74 -10 0 -23 -7 -30 -15z"></path>
		<path d="M3720 2475 c-26 -32 13 -81 48 -59 34 22 22 74 -18 74 -10 0 -23 -7 -30 -15z"></path>
		<path d="M3820 2475 c-26 -32 13 -81 48 -59 34 22 22 74 -18 74 -10 0 -23 -7 -30 -15z"></path>
		<path d="M3920 2475 c-26 -32 13 -81 48 -59 34 22 22 74 -18 74 -10 0 -23 -7 -30 -15z"></path>
		<path d="M520 2375 c-26 -32 13 -81 48 -59 34 22 22 74 -18 74 -10 0 -23 -7 -30 -15z"></path>
		<path d="M620 2375 c-26 -32 13 -81 48 -59 34 22 22 74 -18 74 -10 0 -23 -7 -30 -15z"></path>
		<path d="M1120 2375 c-26 -32 13 -81 48 -59 34 22 22 74 -18 74 -10 0 -23 -7 -30 -15z"></path>
		<path d="M1320 2375 c-26 -32 13 -81 48 -59 34 22 22 74 -18 74 -10 0 -23 -7 -30 -15z"></path>
		<path d="M2820 2375 c-26 -32 13 -81 48 -59 34 22 22 74 -18 74 -10 0 -23 -7 -30 -15z"></path>
		<path d="M3020 2375 c-26 -32 13 -81 48 -59 34 22 22 74 -18 74 -10 0 -23 -7 -30 -15z"></path>
		<path d="M3220 2375 c-26 -32 13 -81 48 -59 34 22 22 74 -18 74 -10 0 -23 -7 -30 -15z"></path>
		<path d="M3420 2375 c-26 -32 13 -81 48 -59 34 22 22 74 -18 74 -10 0 -23 -7 -30 -15z"></path>
		<path d="M3720 2375 c-26 -32 13 -81 48 -59 34 22 22 74 -18 74 -10 0 -23 -7 -30 -15z"></path>
		<path d="M3820 2375 c-26 -32 13 -81 48 -59 34 22 22 74 -18 74 -10 0 -23 -7 -30 -15z"></path>
		<path d="M3920 2375 c-26 -32 13 -81 48 -59 34 22 22 74 -18 74 -10 0 -23 -7 -30 -15z"></path>
		<path d="M420 2275 c-26 -32 13 -81 48 -59 34 22 22 74 -18 74 -10 0 -23 -7 -30 -15z"></path>
		<path d="M720 2275 c-26 -32 13 -81 48 -59 34 22 22 74 -18 74 -10 0 -23 -7 -30 -15z"></path>
		<path d="M1020 2275 c-26 -32 13 -81 48 -59 34 22 22 74 -18 74 -10 0 -23 -7 -30 -15z"></path>
		<path d="M1220 2275 c-26 -32 13 -81 48 -59 34 22 22 74 -18 74 -10 0 -23 -7 -30 -15z"></path>
		<path d="M1320 2275 c-26 -32 13 -81 48 -59 34 22 22 74 -18 74 -10 0 -23 -7 -30 -15z"></path>
		<path d="M1520 2275 c-26 -32 13 -81 48 -59 34 22 22 74 -18 74 -10 0 -23 -7 -30 -15z"></path>
		<path d="M1620 2275 c-26 -32 13 -81 48 -59 34 22 22 74 -18 74 -10 0 -23 -7 -30 -15z"></path>
		<path d="M2720 2275 c-26 -32 13 -81 48 -59 34 22 22 74 -18 74 -10 0 -23 -7 -30 -15z"></path>
		<path d="M2820 2275 c-26 -32 13 -81 48 -59 34 22 22 74 -18 74 -10 0 -23 -7 -30 -15z"></path>
		<path d="M2920 2275 c-26 -32 13 -81 48 -59 34 22 22 74 -18 74 -10 0 -23 -7 -30 -15z"></path>
		<path d="M3020 2275 c-26 -32 13 -81 48 -59 34 22 22 74 -18 74 -10 0 -23 -7 -30 -15z"></path>
		<path d="M3220 2275 c-26 -32 13 -81 48 -59 34 22 22 74 -18 74 -10 0 -23 -7 -30 -15z"></path>
		<path d="M3420 2275 c-26 -32 13 -81 48 -59 34 22 22 74 -18 74 -10 0 -23 -7 -30 -15z"></path>
		<path d="M3620 2275 c-26 -32 13 -81 48 -59 34 22 22 74 -18 74 -10 0 -23 -7 -30 -15z"></path>
		<path d="M3720 2275 c-26 -32 13 -81 48 -59 34 22 22 74 -18 74 -10 0 -23 -7 -30 -15z"></path>
		<path d="M720 2175 c-26 -32 13 -81 48 -59 34 22 22 74 -18 74 -10 0 -23 -7 -30 -15z"></path>
		<path d="M820 2175 c-26 -32 13 -81 48 -59 34 22 22 74 -18 74 -10 0 -23 -7 -30 -15z"></path>
		<path d="M1320 2175 c-26 -32 13 -81 48 -59 34 22 22 74 -18 74 -10 0 -23 -7 -30 -15z"></path>
		<path d="M1720 2175 c-26 -32 13 -81 48 -59 34 22 22 74 -18 74 -10 0 -23 -7 -30 -15z"></path>
		<path d="M2720 2175 c-26 -32 13 -81 48 -59 34 22 22 74 -18 74 -10 0 -23 -7 -30 -15z"></path>
		<path d="M3320 2175 c-26 -32 13 -81 48 -59 34 22 22 74 -18 74 -10 0 -23 -7 -30 -15z"></path>
		<path d="M3420 2175 c-26 -32 13 -81 48 -59 34 22 22 74 -18 74 -10 0 -23 -7 -30 -15z"></path>
		<path d="M3520 2175 c-26 -32 13 -81 48 -59 34 22 22 74 -18 74 -10 0 -23 -7 -30 -15z"></path>
		<path d="M3620 2175 c-26 -32 13 -81 48 -59 34 22 22 74 -18 74 -10 0 -23 -7 -30 -15z"></path>
		<path d="M3920 2175 c-26 -32 13 -81 48 -59 34 22 22 74 -18 74 -10 0 -23 -7 -30 -15z"></path>
		<path d="M620 2075 c-26 -32 13 -81 48 -59 34 22 22 74 -18 74 -10 0 -23 -7 -30 -15z"></path>
		<path d="M820 2075 c-26 -32 13 -81 48 -59 34 22 22 74 -18 74 -10 0 -23 -7 -30 -15z"></path>
		<path d="M920 2075 c-26 -32 13 -81 48 -59 34 22 22 74 -18 74 -10 0 -23 -7 -30 -15z"></path>
		<path d="M1020 2075 c-26 -32 13 -81 48 -59 34 22 22 74 -18 74 -10 0 -23 -7 -30 -15z"></path>
		<path d="M1420 2075 c-26 -32 13 -81 48 -59 34 22 22 74 -18 74 -10 0 -23 -7 -30 -15z"></path>
		<path d="M1520 2075 c-26 -32 13 -81 48 -59 34 22 22 74 -18 74 -10 0 -23 -7 -30 -15z"></path>
		<path d="M1620 2075 c-26 -32 13 -81 48 -59 34 22 22 74 -18 74 -10 0 -23 -7 -30 -15z"></path>
		<path d="M1720 2075 c-26 -32 13 -81 48 -59 34 22 22 74 -18 74 -10 0 -23 -7 -30 -15z"></path>
		<path d="M2820 2075 c-26 -32 13 -81 48 -59 34 22 22 74 -18 74 -10 0 -23 -7 -30 -15z"></path>
		<path d="M2920 2075 c-26 -32 13 -81 48 -59 34 22 22 74 -18 74 -10 0 -23 -7 -30 -15z"></path>
		<path d="M3120 2075 c-26 -32 13 -81 48 -59 34 22 22 74 -18 74 -10 0 -23 -7 -30 -15z"></path>
		<path d="M3320 2075 c-26 -32 13 -81 48 -59 34 22 22 74 -18 74 -10 0 -23 -7 -30 -15z"></path>
		<path d="M3420 2075 c-26 -32 13 -81 48 -59 34 22 22 74 -18 74 -10 0 -23 -7 -30 -15z"></path>
		<path d="M3520 2075 c-26 -32 13 -81 48 -59 34 22 22 74 -18 74 -10 0 -23 -7 -30 -15z"></path>
		<path d="M520 1975 c-26 -32 13 -81 48 -59 34 22 22 74 -18 74 -10 0 -23 -7 -30 -15z"></path>
		<path d="M620 1975 c-26 -32 13 -81 48 -59 34 22 22 74 -18 74 -10 0 -23 -7 -30 -15z"></path>
		<path d="M820 1975 c-26 -32 13 -81 48 -59 34 22 22 74 -18 74 -10 0 -23 -7 -30 -15z"></path>
		<path d="M920 1975 c-26 -32 13 -81 48 -59 34 22 22 74 -18 74 -10 0 -23 -7 -30 -15z"></path>
		<path d="M1120 1975 c-26 -32 13 -81 48 -59 34 22 22 74 -18 74 -10 0 -23 -7 -30 -15z"></path>
		<path d="M2720 1975 c-26 -32 13 -81 48 -59 34 22 22 74 -18 74 -10 0 -23 -7 -30 -15z"></path>
		<path d="M2920 1975 c-26 -32 13 -81 48 -59 34 22 22 74 -18 74 -10 0 -23 -7 -30 -15z"></path>
		<path d="M3120 1975 c-26 -32 13 -81 48 -59 34 22 22 74 -18 74 -10 0 -23 -7 -30 -15z"></path>
		<path d="M3220 1975 c-26 -32 13 -81 48 -59 34 22 22 74 -18 74 -10 0 -23 -7 -30 -15z"></path>
		<path d="M3520 1975 c-26 -32 13 -81 48 -59 34 22 22 74 -18 74 -10 0 -23 -7 -30 -15z"></path>
		<path d="M3620 1975 c-26 -32 13 -81 48 -59 34 22 22 74 -18 74 -10 0 -23 -7 -30 -15z"></path>
		<path d="M3920 1975 c-26 -32 13 -81 48 -59 34 22 22 74 -18 74 -10 0 -23 -7 -30 -15z"></path>
		<path d="M4020 1975 c-26 -32 13 -81 48 -59 34 22 22 74 -18 74 -10 0 -23 -7 -30 -15z"></path>
		<path d="M420 1875 c-26 -32 13 -81 48 -59 34 22 22 74 -18 74 -10 0 -23 -7 -30 -15z"></path>
		<path d="M620 1875 c-26 -32 13 -81 48 -59 34 22 22 74 -18 74 -10 0 -23 -7 -30 -15z"></path>
		<path d="M920 1875 c-26 -32 13 -81 48 -59 34 22 22 74 -18 74 -10 0 -23 -7 -30 -15z"></path>
		<path d="M1020 1875 c-26 -32 13 -81 48 -59 34 22 22 74 -18 74 -10 0 -23 -7 -30 -15z"></path>
		<path d="M1320 1875 c-26 -32 13 -81 48 -59 34 22 22 74 -18 74 -10 0 -23 -7 -30 -15z"></path>
		<path d="M1420 1875 c-26 -32 13 -81 48 -59 34 22 22 74 -18 74 -10 0 -23 -7 -30 -15z"></path>
		<path d="M1520 1875 c-26 -32 13 -81 48 -59 34 22 22 74 -18 74 -10 0 -23 -7 -30 -15z"></path>
		<path d="M2720 1875 c-26 -32 13 -81 48 -59 34 22 22 74 -18 74 -10 0 -23 -7 -30 -15z"></path>
		<path d="M3120 1875 c-26 -32 13 -81 48 -59 34 22 22 74 -18 74 -10 0 -23 -7 -30 -15z"></path>
		<path d="M3320 1875 c-26 -32 13 -81 48 -59 34 22 22 74 -18 74 -10 0 -23 -7 -30 -15z"></path>
		<path d="M3520 1875 c-26 -32 13 -81 48 -59 34 22 22 74 -18 74 -10 0 -23 -7 -30 -15z"></path>
		<path d="M3620 1875 c-26 -32 13 -81 48 -59 34 22 22 74 -18 74 -10 0 -23 -7 -30 -15z"></path>
		<path d="M3720 1875 c-26 -32 13 -81 48 -59 34 22 22 74 -18 74 -10 0 -23 -7 -30 -15z"></path>
		<path d="M3820 1875 c-26 -32 13 -81 48 -59 34 22 22 74 -18 74 -10 0 -23 -7 -30 -15z"></path>
		<path d="M3920 1875 c-26 -32 13 -81 48 -59 34 22 22 74 -18 74 -10 0 -23 -7 -30 -15z"></path>
		<path d="M520 1775 c-26 -32 13 -81 48 -59 34 22 22 74 -18 74 -10 0 -23 -7 -30 -15z"></path>
		<path d="M620 1775 c-26 -32 13 -81 48 -59 34 22 22 74 -18 74 -10 0 -23 -7 -30 -15z"></path>
		<path d="M720 1775 c-26 -32 13 -81 48 -59 34 22 22 74 -18 74 -10 0 -23 -7 -30 -15z"></path>
		<path d="M920 1775 c-26 -32 13 -81 48 -59 34 22 22 74 -18 74 -10 0 -23 -7 -30 -15z"></path>
		<path d="M1120 1775 c-26 -32 13 -81 48 -59 34 22 22 74 -18 74 -10 0 -23 -7 -30 -15z"></path>
		<path d="M1520 1775 c-26 -32 13 -81 48 -59 34 22 22 74 -18 74 -10 0 -23 -7 -30 -15z"></path>
		<path d="M1620 1775 c-26 -32 13 -81 48 -59 34 22 22 74 -18 74 -10 0 -23 -7 -30 -15z"></path>
		<path d="M1720 1775 c-26 -32 13 -81 48 -59 34 22 22 74 -18 74 -10 0 -23 -7 -30 -15z"></path>
		<path d="M3020 1775 c-26 -32 13 -81 48 -59 34 22 22 74 -18 74 -10 0 -23 -7 -30 -15z"></path>
		<path d="M3520 1775 c-26 -32 13 -81 48 -59 34 22 22 74 -18 74 -10 0 -23 -7 -30 -15z"></path>
		<path d="M3620 1775 c-26 -32 13 -81 48 -59 34 22 22 74 -18 74 -10 0 -23 -7 -30 -15z"></path>
		<path d="M3820 1775 c-26 -32 13 -81 48 -59 34 22 22 74 -18 74 -10 0 -23 -7 -30 -15z"></path>
		<path d="M520 1675 c-26 -32 13 -81 48 -59 34 22 22 74 -18 74 -10 0 -23 -7 -30 -15z"></path>
		<path d="M620 1675 c-26 -32 13 -81 48 -59 34 22 22 74 -18 74 -10 0 -23 -7 -30 -15z"></path>
		<path d="M1020 1675 c-26 -32 13 -81 48 -59 34 22 22 74 -18 74 -10 0 -23 -7 -30 -15z"></path>
		<path d="M1120 1675 c-26 -32 13 -81 48 -59 34 22 22 74 -18 74 -10 0 -23 -7 -30 -15z"></path>
		<path d="M1220 1675 c-26 -32 13 -81 48 -59 34 22 22 74 -18 74 -10 0 -23 -7 -30 -15z"></path>
		<path d="M1520 1675 c-26 -32 13 -81 48 -59 34 22 22 74 -18 74 -10 0 -23 -7 -30 -15z"></path>
		<path d="M1620 1675 c-26 -32 13 -81 48 -59 34 22 22 74 -18 74 -10 0 -23 -7 -30 -15z"></path>
		<path d="M1820 1675 c-26 -32 13 -81 48 -59 34 22 22 74 -18 74 -10 0 -23 -7 -30 -15z"></path>
		<path d="M1920 1675 c-26 -32 13 -81 48 -59 34 22 22 74 -18 74 -10 0 -23 -7 -30 -15z"></path>
		<path d="M2220 1675 c-26 -32 13 -81 48 -59 34 22 22 74 -18 74 -10 0 -23 -7 -30 -15z"></path>
		<path d="M2320 1675 c-26 -32 13 -81 48 -59 34 22 22 74 -18 74 -10 0 -23 -7 -30 -15z"></path>
		<path d="M2620 1675 c-26 -32 13 -81 48 -59 34 22 22 74 -18 74 -10 0 -23 -7 -30 -15z"></path>
		<path d="M2820 1675 c-26 -32 13 -81 48 -59 34 22 22 74 -18 74 -10 0 -23 -7 -30 -15z"></path>
		<path d="M2920 1675 c-26 -32 13 -81 48 -59 34 22 22 74 -18 74 -10 0 -23 -7 -30 -15z"></path>
		<path d="M3020 1675 c-26 -32 13 -81 48 -59 34 22 22 74 -18 74 -10 0 -23 -7 -30 -15z"></path>
		<path d="M3120 1675 c-26 -32 13 -81 48 -59 34 22 22 74 -18 74 -10 0 -23 -7 -30 -15z"></path>
		<path d="M3220 1675 c-26 -32 13 -81 48 -59 34 22 22 74 -18 74 -10 0 -23 -7 -30 -15z"></path>
		<path d="M3420 1675 c-26 -32 13 -81 48 -59 34 22 22 74 -18 74 -10 0 -23 -7 -30 -15z"></path>
		<path d="M3620 1675 c-26 -32 13 -81 48 -59 34 22 22 74 -18 74 -10 0 -23 -7 -30 -15z"></path>
		<path d="M3720 1675 c-26 -32 13 -81 48 -59 34 22 22 74 -18 74 -10 0 -23 -7 -30 -15z"></path>
		<path d="M3820 1675 c-26 -32 13 -81 48 -59 34 22 22 74 -18 74 -10 0 -23 -7 -30 -15z"></path>
		<path d="M4020 1675 c-26 -32 13 -81 48 -59 34 22 22 74 -18 74 -10 0 -23 -7 -30 -15z"></path>
		<path d="M420 1575 c-26 -32 13 -81 48 -59 34 22 22 74 -18 74 -10 0 -23 -7 -30 -15z"></path>
		<path d="M820 1575 c-26 -32 13 -81 48 -59 34 22 22 74 -18 74 -10 0 -23 -7 -30 -15z"></path>
		<path d="M1120 1575 c-26 -32 13 -81 48 -59 34 22 22 74 -18 74 -10 0 -23 -7 -30 -15z"></path>
		<path d="M1220 1575 c-26 -32 13 -81 48 -59 34 22 22 74 -18 74 -10 0 -23 -7 -30 -15z"></path>
		<path d="M1520 1575 c-26 -32 13 -81 48 -59 34 22 22 74 -18 74 -10 0 -23 -7 -30 -15z"></path>
		<path d="M1820 1575 c-26 -32 13 -81 48 -59 34 22 22 74 -18 74 -10 0 -23 -7 -30 -15z"></path>
		<path d="M2020 1575 c-26 -32 13 -81 48 -59 34 22 22 74 -18 74 -10 0 -23 -7 -30 -15z"></path>
		<path d="M2320 1575 c-26 -32 13 -81 48 -59 34 22 22 74 -18 74 -10 0 -23 -7 -30 -15z"></path>
		<path d="M2420 1575 c-26 -32 13 -81 48 -59 34 22 22 74 -18 74 -10 0 -23 -7 -30 -15z"></path>
		<path d="M2520 1575 c-26 -32 13 -81 48 -59 34 22 22 74 -18 74 -10 0 -23 -7 -30 -15z"></path>
		<path d="M3320 1575 c-26 -32 13 -81 48 -59 34 22 22 74 -18 74 -10 0 -23 -7 -30 -15z"></path>
		<path d="M3420 1575 c-26 -32 13 -81 48 -59 34 22 22 74 -18 74 -10 0 -23 -7 -30 -15z"></path>
		<path d="M3520 1575 c-26 -32 13 -81 48 -59 34 22 22 74 -18 74 -10 0 -23 -7 -30 -15z"></path>
		<path d="M3620 1575 c-26 -32 13 -81 48 -59 34 22 22 74 -18 74 -10 0 -23 -7 -30 -15z"></path>
		<path d="M820 1475 c-26 -32 13 -81 48 -59 34 22 22 74 -18 74 -10 0 -23 -7 -30 -15z"></path>
		<path d="M920 1475 c-26 -32 13 -81 48 -59 34 22 22 74 -18 74 -10 0 -23 -7 -30 -15z"></path>
		<path d="M1020 1475 c-26 -32 13 -81 48 -59 34 22 22 74 -18 74 -10 0 -23 -7 -30 -15z"></path>
		<path d="M1320 1475 c-26 -32 13 -81 48 -59 34 22 22 74 -18 74 -10 0 -23 -7 -30 -15z"></path>
		<path d="M1420 1475 c-26 -32 13 -81 48 -59 34 22 22 74 -18 74 -10 0 -23 -7 -30 -15z"></path>
		<path d="M1720 1475 c-26 -32 13 -81 48 -59 34 22 22 74 -18 74 -10 0 -23 -7 -30 -15z"></path>
		<path d="M2020 1475 c-26 -32 13 -81 48 -59 34 22 22 74 -18 74 -10 0 -23 -7 -30 -15z"></path>
		<path d="M2120 1475 c-26 -32 13 -81 48 -59 34 22 22 74 -18 74 -10 0 -23 -7 -30 -15z"></path>
		<path d="M2420 1475 c-26 -32 13 -81 48 -59 34 22 22 74 -18 74 -10 0 -23 -7 -30 -15z"></path>
		<path d="M2920 1475 c-26 -32 13 -81 48 -59 34 22 22 74 -18 74 -10 0 -23 -7 -30 -15z"></path>
		<path d="M3020 1475 c-26 -32 13 -81 48 -59 34 22 22 74 -18 74 -10 0 -23 -7 -30 -15z"></path>
		<path d="M3120 1475 c-26 -32 13 -81 48 -59 34 22 22 74 -18 74 -10 0 -23 -7 -30 -15z"></path>
		<path d="M3420 1475 c-26 -32 13 -81 48 -59 34 22 22 74 -18 74 -10 0 -23 -7 -30 -15z"></path>
		<path d="M3520 1475 c-26 -32 13 -81 48 -59 34 22 22 74 -18 74 -10 0 -23 -7 -30 -15z"></path>
		<path d="M3820 1475 c-26 -32 13 -81 48 -59 34 22 22 74 -18 74 -10 0 -23 -7 -30 -15z"></path>
		<path d="M620 1375 c-26 -32 13 -81 48 -59 34 22 22 74 -18 74 -10 0 -23 -7 -30 -15z"></path>
		<path d="M720 1375 c-26 -32 13 -81 48 -59 34 22 22 74 -18 74 -10 0 -23 -7 -30 -15z"></path>
		<path d="M820 1375 c-26 -32 13 -81 48 -59 34 22 22 74 -18 74 -10 0 -23 -7 -30 -15z"></path>
		<path d="M920 1375 c-26 -32 13 -81 48 -59 34 22 22 74 -18 74 -10 0 -23 -7 -30 -15z"></path>
		<path d="M1120 1375 c-26 -32 13 -81 48 -59 34 22 22 74 -18 74 -10 0 -23 -7 -30 -15z"></path>
		<path d="M1520 1375 c-26 -32 13 -81 48 -59 34 22 22 74 -18 74 -10 0 -23 -7 -30 -15z"></path>
		<path d="M2120 1375 c-26 -32 13 -81 48 -59 34 22 22 74 -18 74 -10 0 -23 -7 -30 -15z"></path>
		<path d="M2220 1375 c-26 -32 13 -81 48 -59 34 22 22 74 -18 74 -10 0 -23 -7 -30 -15z"></path>
		<path d="M2520 1375 c-26 -32 13 -81 48 -59 34 22 22 74 -18 74 -10 0 -23 -7 -30 -15z"></path>
		<path d="M2820 1375 c-26 -32 13 -81 48 -59 34 22 22 74 -18 74 -10 0 -23 -7 -30 -15z"></path>
		<path d="M3020 1375 c-26 -32 13 -81 48 -59 34 22 22 74 -18 74 -10 0 -23 -7 -30 -15z"></path>
		<path d="M3120 1375 c-26 -32 13 -81 48 -59 34 22 22 74 -18 74 -10 0 -23 -7 -30 -15z"></path>
		<path d="M3220 1375 c-26 -32 13 -81 48 -59 34 22 22 74 -18 74 -10 0 -23 -7 -30 -15z"></path>
		<path d="M3720 1375 c-26 -32 13 -81 48 -59 34 22 22 74 -18 74 -10 0 -23 -7 -30 -15z"></path>
		<path d="M3820 1375 c-26 -32 13 -81 48 -59 34 22 22 74 -18 74 -10 0 -23 -7 -30 -15z"></path>
		<path d="M420 1275 c-26 -32 13 -81 48 -59 34 22 22 74 -18 74 -10 0 -23 -7 -30 -15z"></path>
		<path d="M520 1275 c-26 -32 13 -81 48 -59 34 22 22 74 -18 74 -10 0 -23 -7 -30 -15z"></path>
		<path d="M720 1275 c-26 -32 13 -81 48 -59 34 22 22 74 -18 74 -10 0 -23 -7 -30 -15z"></path>
		<path d="M820 1275 c-26 -32 13 -81 48 -59 34 22 22 74 -18 74 -10 0 -23 -7 -30 -15z"></path>
		<path d="M1020 1275 c-26 -32 13 -81 48 -59 34 22 22 74 -18 74 -10 0 -23 -7 -30 -15z"></path>
		<path d="M1120 1275 c-26 -32 13 -81 48 -59 34 22 22 74 -18 74 -10 0 -23 -7 -30 -15z"></path>
		<path d="M1620 1275 c-26 -32 13 -81 48 -59 34 22 22 74 -18 74 -10 0 -23 -7 -30 -15z"></path>
		<path d="M1820 1275 c-26 -32 13 -81 48 -59 34 22 22 74 -18 74 -10 0 -23 -7 -30 -15z"></path>
		<path d="M1920 1275 c-26 -32 13 -81 48 -59 34 22 22 74 -18 74 -10 0 -23 -7 -30 -15z"></path>
		<path d="M2020 1275 c-26 -32 13 -81 48 -59 34 22 22 74 -18 74 -10 0 -23 -7 -30 -15z"></path>
		<path d="M2220 1275 c-26 -32 13 -81 48 -59 34 22 22 74 -18 74 -10 0 -23 -7 -30 -15z"></path>
		<path d="M2320 1275 c-26 -32 13 -81 48 -59 34 22 22 74 -18 74 -10 0 -23 -7 -30 -15z"></path>
		<path d="M2420 1275 c-26 -32 13 -81 48 -59 34 22 22 74 -18 74 -10 0 -23 -7 -30 -15z"></path>
		<path d="M2520 1275 c-26 -32 13 -81 48 -59 34 22 22 74 -18 74 -10 0 -23 -7 -30 -15z"></path>
		<path d="M2620 1275 c-26 -32 13 -81 48 -59 34 22 22 74 -18 74 -10 0 -23 -7 -30 -15z"></path>
		<path d="M2720 1275 c-26 -32 13 -81 48 -59 34 22 22 74 -18 74 -10 0 -23 -7 -30 -15z"></path>
		<path d="M3220 1275 c-26 -32 13 -81 48 -59 34 22 22 74 -18 74 -10 0 -23 -7 -30 -15z"></path>
		<path d="M3320 1275 c-26 -32 13 -81 48 -59 34 22 22 74 -18 74 -10 0 -23 -7 -30 -15z"></path>
		<path d="M3420 1275 c-26 -32 13 -81 48 -59 34 22 22 74 -18 74 -10 0 -23 -7 -30 -15z"></path>
		<path d="M3520 1275 c-26 -32 13 -81 48 -59 34 22 22 74 -18 74 -10 0 -23 -7 -30 -15z"></path>
		<path d="M3620 1275 c-26 -32 13 -81 48 -59 34 22 22 74 -18 74 -10 0 -23 -7 -30 -15z"></path>
		<path d="M3720 1275 c-26 -32 13 -81 48 -59 34 22 22 74 -18 74 -10 0 -23 -7 -30 -15z"></path>
		<path d="M3920 1275 c-26 -32 13 -81 48 -59 34 22 22 74 -18 74 -10 0 -23 -7 -30 -15z"></path>
		<path d="M1220 1175 c-26 -32 13 -81 48 -59 34 22 22 74 -18 74 -10 0 -23 -7 -30 -15z"></path>
		<path d="M1320 1175 c-26 -32 13 -81 48 -59 34 22 22 74 -18 74 -10 0 -23 -7 -30 -15z"></path>
		<path d="M1420 1175 c-26 -32 13 -81 48 -59 34 22 22 74 -18 74 -10 0 -23 -7 -30 -15z"></path>
		<path d="M1520 1175 c-26 -32 13 -81 48 -59 34 22 22 74 -18 74 -10 0 -23 -7 -30 -15z"></path>
		<path d="M1620 1175 c-26 -32 13 -81 48 -59 34 22 22 74 -18 74 -10 0 -23 -7 -30 -15z"></path>
		<path d="M1720 1175 c-26 -32 13 -81 48 -59 34 22 22 74 -18 74 -10 0 -23 -7 -30 -15z"></path>
		<path d="M1820 1175 c-26 -32 13 -81 48 -59 34 22 22 74 -18 74 -10 0 -23 -7 -30 -15z"></path>
		<path d="M2120 1175 c-26 -32 13 -81 48 -59 34 22 22 74 -18 74 -10 0 -23 -7 -30 -15z"></path>
		<path d="M2320 1175 c-26 -32 13 -81 48 -59 34 22 22 74 -18 74 -10 0 -23 -7 -30 -15z"></path>
		<path d="M2620 1175 c-26 -32 13 -81 48 -59 34 22 22 74 -18 74 -10 0 -23 -7 -30 -15z"></path>
		<path d="M2720 1175 c-26 -32 13 -81 48 -59 34 22 22 74 -18 74 -10 0 -23 -7 -30 -15z"></path>
		<path d="M3220 1175 c-26 -32 13 -81 48 -59 34 22 22 74 -18 74 -10 0 -23 -7 -30 -15z"></path>
		<path d="M3620 1175 c-26 -32 13 -81 48 -59 34 22 22 74 -18 74 -10 0 -23 -7 -30 -15z"></path>
		<path d="M4020 1175 c-26 -32 13 -81 48 -59 34 22 22 74 -18 74 -10 0 -23 -7 -30 -15z"></path>
		<path d="M451 1086 c-48 -27 -50 -42 -51 -334 0 -296 3 -317 55 -340 41 -19 557 -17 594 2 48 25 51 46 51 336 0 290 -3 311 -51 336 -39 20 -562 20 -598 0z m494 -98 c48 -22 55 -51 55 -238 0 -253 3 -250 -250 -250 -254 0 -250 -3 -250 252 1 185 6 209 51 234 32 18 356 19 394 2z"></path>
		<path d="M651 886 c-37 -21 -50 -55 -51 -133 0 -123 29 -153 150 -153 120 0 150 30 150 150 0 81 -13 116 -51 136 -36 18 -165 18 -198 0z"></path>
		<path d="M1220 1075 c-26 -32 13 -81 48 -59 34 22 22 74 -18 74 -10 0 -23 -7 -30 -15z"></path>
		<path d="M1520 1075 c-26 -32 13 -81 48 -59 34 22 22 74 -18 74 -10 0 -23 -7 -30 -15z"></path>
		<path d="M1820 1075 c-26 -32 13 -81 48 -59 34 22 22 74 -18 74 -10 0 -23 -7 -30 -15z"></path>
		<path d="M1920 1075 c-26 -32 13 -81 48 -59 34 22 22 74 -18 74 -10 0 -23 -7 -30 -15z"></path>
		<path d="M2220 1075 c-26 -32 13 -81 48 -59 34 22 22 74 -18 74 -10 0 -23 -7 -30 -15z"></path>
		<path d="M2320 1075 c-26 -32 13 -81 48 -59 34 22 22 74 -18 74 -10 0 -23 -7 -30 -15z"></path>
		<path d="M2520 1075 c-26 -32 13 -81 48 -59 34 22 22 74 -18 74 -10 0 -23 -7 -30 -15z"></path>
		<path d="M2620 1075 c-26 -32 13 -81 48 -59 34 22 22 74 -18 74 -10 0 -23 -7 -30 -15z"></path>
		<path d="M2720 1075 c-26 -32 13 -81 48 -59 34 22 22 74 -18 74 -10 0 -23 -7 -30 -15z"></path>
		<path d="M2820 1075 c-26 -32 13 -81 48 -59 34 22 22 74 -18 74 -10 0 -23 -7 -30 -15z"></path>
		<path d="M2920 1075 c-26 -32 13 -81 48 -59 34 22 22 74 -18 74 -10 0 -23 -7 -30 -15z"></path>
		<path d="M3020 1075 c-26 -32 13 -81 48 -59 34 22 22 74 -18 74 -10 0 -23 -7 -30 -15z"></path>
		<path d="M3220 1075 c-26 -32 13 -81 48 -59 34 22 22 74 -18 74 -10 0 -23 -7 -30 -15z"></path>
		<path d="M3420 1075 c-26 -32 13 -81 48 -59 34 22 22 74 -18 74 -10 0 -23 -7 -30 -15z"></path>
		<path d="M3620 1075 c-26 -32 13 -81 48 -59 34 22 22 74 -18 74 -10 0 -23 -7 -30 -15z"></path>
		<path d="M4020 1075 c-26 -32 13 -81 48 -59 34 22 22 74 -18 74 -10 0 -23 -7 -30 -15z"></path>
		<path d="M1420 975 c-26 -32 13 -81 48 -59 34 22 22 74 -18 74 -10 0 -23 -7 -30 -15z"></path>
		<path d="M1520 975 c-26 -32 13 -81 48 -59 34 22 22 74 -18 74 -10 0 -23 -7 -30 -15z"></path>
		<path d="M1620 975 c-26 -32 13 -81 48 -59 34 22 22 74 -18 74 -10 0 -23 -7 -30 -15z"></path>
		<path d="M1820 975 c-26 -32 13 -81 48 -59 34 22 22 74 -18 74 -10 0 -23 -7 -30 -15z"></path>
		<path d="M1920 975 c-26 -32 13 -81 48 -59 34 22 22 74 -18 74 -10 0 -23 -7 -30 -15z"></path>
		<path d="M2020 975 c-26 -32 13 -81 48 -59 34 22 22 74 -18 74 -10 0 -23 -7 -30 -15z"></path>
		<path d="M2320 975 c-26 -32 13 -81 48 -59 34 22 22 74 -18 74 -10 0 -23 -7 -30 -15z"></path>
		<path d="M2420 975 c-26 -32 13 -81 48 -59 34 22 22 74 -18 74 -10 0 -23 -7 -30 -15z"></path>
		<path d="M2520 975 c-26 -32 13 -81 48 -59 34 22 22 74 -18 74 -10 0 -23 -7 -30 -15z"></path>
		<path d="M2720 975 c-26 -32 13 -81 48 -59 34 22 22 74 -18 74 -10 0 -23 -7 -30 -15z"></path>
		<path d="M2820 975 c-26 -32 13 -81 48 -59 34 22 22 74 -18 74 -10 0 -23 -7 -30 -15z"></path>
		<path d="M2920 975 c-26 -32 13 -81 48 -59 34 22 22 74 -18 74 -10 0 -23 -7 -30 -15z"></path>
		<path d="M3120 975 c-26 -32 13 -81 48 -59 34 22 22 74 -18 74 -10 0 -23 -7 -30 -15z"></path>
		<path d="M3220 975 c-26 -32 13 -81 48 -59 34 22 22 74 -18 74 -10 0 -23 -7 -30 -15z"></path>
		<path d="M3620 975 c-26 -32 13 -81 48 -59 34 22 22 74 -18 74 -10 0 -23 -7 -30 -15z"></path>
		<path d="M3720 975 c-26 -32 13 -81 48 -59 34 22 22 74 -18 74 -10 0 -23 -7 -30 -15z"></path>
		<path d="M3820 975 c-26 -32 13 -81 48 -59 34 22 22 74 -18 74 -10 0 -23 -7 -30 -15z"></path>
		<path d="M3920 975 c-26 -32 13 -81 48 -59 34 22 22 74 -18 74 -10 0 -23 -7 -30 -15z"></path>
		<path d="M4020 975 c-26 -32 13 -81 48 -59 34 22 22 74 -18 74 -10 0 -23 -7 -30 -15z"></path>
		<path d="M1220 875 c-26 -32 13 -81 48 -59 34 22 22 74 -18 74 -10 0 -23 -7 -30 -15z"></path>
		<path d="M1620 875 c-26 -32 13 -81 48 -59 34 22 22 74 -18 74 -10 0 -23 -7 -30 -15z"></path>
		<path d="M1720 875 c-26 -32 13 -81 48 -59 34 22 22 74 -18 74 -10 0 -23 -7 -30 -15z"></path>
		<path d="M1820 875 c-26 -32 13 -81 48 -59 34 22 22 74 -18 74 -10 0 -23 -7 -30 -15z"></path>
		<path d="M2020 875 c-26 -32 13 -81 48 -59 34 22 22 74 -18 74 -10 0 -23 -7 -30 -15z"></path>
		<path d="M2420 875 c-26 -32 13 -81 48 -59 34 22 22 74 -18 74 -10 0 -23 -7 -30 -15z"></path>
		<path d="M2920 875 c-26 -32 13 -81 48 -59 34 22 22 74 -18 74 -10 0 -23 -7 -30 -15z"></path>
		<path d="M3220 875 c-26 -32 13 -81 48 -59 34 22 22 74 -18 74 -10 0 -23 -7 -30 -15z"></path>
		<path d="M3320 875 c-26 -32 13 -81 48 -59 34 22 22 74 -18 74 -10 0 -23 -7 -30 -15z"></path>
		<path d="M3420 875 c-26 -32 13 -81 48 -59 34 22 22 74 -18 74 -10 0 -23 -7 -30 -15z"></path>
		<path d="M3520 875 c-26 -32 13 -81 48 -59 34 22 22 74 -18 74 -10 0 -23 -7 -30 -15z"></path>
		<path d="M3620 875 c-26 -32 13 -81 48 -59 34 22 22 74 -18 74 -10 0 -23 -7 -30 -15z"></path>
		<path d="M3720 875 c-26 -32 13 -81 48 -59 34 22 22 74 -18 74 -10 0 -23 -7 -30 -15z"></path>
		<path d="M3820 875 c-26 -32 13 -81 48 -59 34 22 22 74 -18 74 -10 0 -23 -7 -30 -15z"></path>
		<path d="M3920 875 c-26 -32 13 -81 48 -59 34 22 22 74 -18 74 -10 0 -23 -7 -30 -15z"></path>
		<path d="M1320 775 c-26 -32 13 -81 48 -59 34 22 22 74 -18 74 -10 0 -23 -7 -30 -15z"></path>
		<path d="M1420 775 c-26 -32 13 -81 48 -59 34 22 22 74 -18 74 -10 0 -23 -7 -30 -15z"></path>
		<path d="M1820 775 c-26 -32 13 -81 48 -59 34 22 22 74 -18 74 -10 0 -23 -7 -30 -15z"></path>
		<path d="M2120 775 c-26 -32 13 -81 48 -59 34 22 22 74 -18 74 -10 0 -23 -7 -30 -15z"></path>
		<path d="M2220 775 c-26 -32 13 -81 48 -59 34 22 22 74 -18 74 -10 0 -23 -7 -30 -15z"></path>
		<path d="M2320 775 c-26 -32 13 -81 48 -59 34 22 22 74 -18 74 -10 0 -23 -7 -30 -15z"></path>
		<path d="M2620 775 c-26 -32 13 -81 48 -59 34 22 22 74 -18 74 -10 0 -23 -7 -30 -15z"></path>
		<path d="M2820 775 c-26 -32 13 -81 48 -59 34 22 22 74 -18 74 -10 0 -23 -7 -30 -15z"></path>
		<path d="M2920 775 c-26 -32 13 -81 48 -59 34 22 22 74 -18 74 -10 0 -23 -7 -30 -15z"></path>
		<path d="M3020 775 c-26 -32 13 -81 48 -59 34 22 22 74 -18 74 -10 0 -23 -7 -30 -15z"></path>
		<path d="M3120 775 c-26 -32 13 -81 48 -59 34 22 22 74 -18 74 -10 0 -23 -7 -30 -15z"></path>
		<path d="M3320 775 c-26 -32 13 -81 48 -59 34 22 22 74 -18 74 -10 0 -23 -7 -30 -15z"></path>
		<path d="M3420 775 c-26 -32 13 -81 48 -59 34 22 22 74 -18 74 -10 0 -23 -7 -30 -15z"></path>
		<path d="M3520 775 c-26 -32 13 -81 48 -59 34 22 22 74 -18 74 -10 0 -23 -7 -30 -15z"></path>
		<path d="M3720 775 c-26 -32 13 -81 48 -59 34 22 22 74 -18 74 -10 0 -23 -7 -30 -15z"></path>
		<path d="M3820 775 c-26 -32 13 -81 48 -59 34 22 22 74 -18 74 -10 0 -23 -7 -30 -15z"></path>
		<path d="M3920 775 c-26 -32 13 -81 48 -59 34 22 22 74 -18 74 -10 0 -23 -7 -30 -15z"></path>
		<path d="M4020 775 c-26 -32 13 -81 48 -59 34 22 22 74 -18 74 -10 0 -23 -7 -30 -15z"></path>
		<path d="M1320 675 c-26 -32 13 -81 48 -59 34 22 22 74 -18 74 -10 0 -23 -7 -30 -15z"></path>
		<path d="M1420 675 c-26 -32 13 -81 48 -59 34 22 22 74 -18 74 -10 0 -23 -7 -30 -15z"></path>
		<path d="M1520 675 c-26 -32 13 -81 48 -59 34 22 22 74 -18 74 -10 0 -23 -7 -30 -15z"></path>
		<path d="M1620 675 c-26 -32 13 -81 48 -59 34 22 22 74 -18 74 -10 0 -23 -7 -30 -15z"></path>
		<path d="M1820 675 c-26 -32 13 -81 48 -59 34 22 22 74 -18 74 -10 0 -23 -7 -30 -15z"></path>
		<path d="M1920 675 c-26 -32 13 -81 48 -59 34 22 22 74 -18 74 -10 0 -23 -7 -30 -15z"></path>
		<path d="M2220 675 c-26 -32 13 -81 48 -59 34 22 22 74 -18 74 -10 0 -23 -7 -30 -15z"></path>
		<path d="M2320 675 c-26 -32 13 -81 48 -59 34 22 22 74 -18 74 -10 0 -23 -7 -30 -15z"></path>
		<path d="M2720 675 c-26 -32 13 -81 48 -59 34 22 22 74 -18 74 -10 0 -23 -7 -30 -15z"></path>
		<path d="M2820 675 c-26 -32 13 -81 48 -59 34 22 22 74 -18 74 -10 0 -23 -7 -30 -15z"></path>
		<path d="M2920 675 c-26 -32 13 -81 48 -59 34 22 22 74 -18 74 -10 0 -23 -7 -30 -15z"></path>
		<path d="M3220 675 c-26 -32 13 -81 48 -59 34 22 22 74 -18 74 -10 0 -23 -7 -30 -15z"></path>
		<path d="M3320 675 c-26 -32 13 -81 48 -59 34 22 22 74 -18 74 -10 0 -23 -7 -30 -15z"></path>
		<path d="M3420 675 c-26 -32 13 -81 48 -59 34 22 22 74 -18 74 -10 0 -23 -7 -30 -15z"></path>
		<path d="M3720 675 c-26 -32 13 -81 48 -59 34 22 22 74 -18 74 -10 0 -23 -7 -30 -15z"></path>
		<path d="M3920 675 c-26 -32 13 -81 48 -59 34 22 22 74 -18 74 -10 0 -23 -7 -30 -15z"></path>
		<path d="M1420 575 c-26 -32 13 -81 48 -59 22 14 27 41 12 59 -16 19 -44 19 -60 0z"></path>
		<path d="M1620 575 c-15 -18 -10 -45 13 -59 34 -22 73 27 47 59 -16 19 -44 19 -60 0z"></path>
		<path d="M1920 575 c-26 -32 13 -81 48 -59 22 14 27 41 12 59 -16 19 -44 19 -60 0z"></path>
		<path d="M2020 575 c-26 -32 13 -81 48 -59 22 14 27 41 12 59 -16 19 -44 19 -60 0z"></path>
		<path d="M2320 575 c-26 -32 13 -81 48 -59 22 14 27 41 12 59 -16 19 -44 19 -60 0z"></path>
		<path d="M2420 575 c-26 -32 13 -81 48 -59 22 14 27 41 12 59 -16 19 -44 19 -60 0z"></path>
		<path d="M2520 575 c-26 -32 13 -81 48 -59 22 14 27 41 12 59 -16 19 -44 19 -60 0z"></path>
		<path d="M2620 575 c-15 -18 -10 -45 13 -59 34 -22 73 27 47 59 -16 19 -44 19 -60 0z"></path>
		<path d="M2720 575 c-15 -18 -10 -45 13 -59 34 -22 73 27 47 59 -16 19 -44 19 -60 0z"></path>
		<path d="M3020 575 c-15 -18 -10 -45 13 -59 34 -22 73 27 47 59 -16 19 -44 19 -60 0z"></path>
		<path d="M3120 575 c-15 -18 -10 -45 13 -59 34 -22 73 27 47 59 -16 19 -44 19 -60 0z"></path>
		<path d="M3220 575 c-15 -18 -10 -45 13 -59 34 -22 73 27 47 59 -16 19 -44 19 -60 0z"></path>
		<path d="M3420 575 c-15 -18 -10 -45 13 -59 34 -22 73 27 47 59 -16 19 -44 19 -60 0z"></path>
		<path d="M3620 575 c-15 -18 -10 -45 13 -59 34 -22 73 27 47 59 -16 19 -44 19 -60 0z"></path>
		<path d="M3920 575 c-26 -32 13 -81 48 -59 22 14 27 41 12 59 -16 19 -44 19 -60 0z"></path>
		<path d="M1220 475 c-26 -32 13 -81 48 -59 22 14 27 41 12 59 -16 19 -44 19 -60 0z"></path>
		<path d="M1520 475 c-26 -32 13 -81 48 -59 22 14 27 41 12 59 -16 19 -44 19 -60 0z"></path>
		<path d="M1720 475 c-26 -32 13 -81 48 -59 22 14 27 41 12 59 -16 19 -44 19 -60 0z"></path>
		<path d="M2420 475 c-26 -32 13 -81 48 -59 22 14 27 41 12 59 -16 19 -44 19 -60 0z"></path>
		<path d="M2820 475 c-15 -18 -10 -45 13 -59 34 -22 73 27 47 59 -16 19 -44 19 -60 0z"></path>
		<path d="M3120 475 c-15 -18 -10 -45 13 -59 34 -22 73 27 47 59 -16 19 -44 19 -60 0z"></path>
		<path d="M3220 475 c-15 -18 -10 -45 13 -59 34 -22 73 27 47 59 -16 19 -44 19 -60 0z"></path>
		<path d="M3520 475 c-15 -18 -10 -45 13 -59 34 -22 73 27 47 59 -16 19 -44 19 -60 0z"></path>
		<path d="M3920 475 c-15 -18 -10 -45 13 -59 34 -22 73 27 47 59 -16 19 -44 19 -60 0z"></path>
		<path d="M4020 475 c-15 -18 -10 -45 13 -59 34 -22 73 27 47 59 -16 19 -44 19 -60 0z"></path>
    </g>
</svg>
