<svg
    xmlns="http://www.w3.org/2000/svg"
    version="1.1"
    viewBox="0 0 550 470"
	width="200px"
	height="200px"
    style="background-color: #f6f7f7"
>
    <g
        fill="#2e2e2e"
        transform="translate(-50,-50) scale(1.2)"
    >
        <path d="M200.5952,296.5185v36.39109c0,7.8308 -6.20335,14.4369 -14.03533,14.52145c-0.06106,0.00117 -0.12212,0.00117 -0.18435,0.00117c-6.07771,0 -10.20505,-4.81661 -10.20505,-11.92527v-38.98845h-3.84788c-3.89015,0 -7.04525,3.15393 -7.04525,7.04526v31.94202c0,11.6963 6.42175,19.49422 16.05379,19.49422c4.11091,0 8.13727,-1.70613 11.61058,-4.67922c3.0095,-2.57622 7.65467,-0.42859 7.65467,3.53319h5.50469l0.11507,-0.06576c1.58988,-0.4462 3.74455,-0.98751 5.27455,-1.42549v-55.84422z"></path>
            
        <path d="M220.10034,303.5643v50.28904h10.89314v-57.33429h-3.84788c-3.89133,0 -7.04526,3.15393 -7.04526,7.04526zM226.13461,266.78454h-1.17421c0,4.85653 -3.95004,8.80657 -8.80657,8.80657v1.17421c4.85653,0 8.80657,3.95004 8.80657,8.80657h1.17421c0,-4.85653 3.95004,-8.80657 8.80657,-8.80657v-1.17421c-4.85653,0 -8.80657,-3.95004 -8.80657,-8.80657z"></path>
            
        <path d="M242.67041,316.70089c-3.24199,0 -5.87105,2.62906 -5.87105,5.87105v3.07291h25.08933c3.24199,0 5.87105,-2.62906 5.87105,-5.87105v-3.07291z"></path>
            
        <path d="M298.73615,321.78866c-2.57739,-3.05177 -2.10536,-7.63354 1.04035,-10.09585l19.39676,-15.17431h-2.17698l-32.55965,25.22084v-53.88799h-3.84788c-3.89015,0 -7.04525,3.15393 -7.04525,7.04526v78.95618h10.89314v-32.09701l27.28275,32.09701h14.11282z"></path>
            
        <path d="M329.34962,303.5643v50.28904h10.89314v-57.33429h-3.84788c-3.89133,0 -7.04526,3.15393 -7.04526,7.04526zM335.38388,266.78454h-1.17421c0,4.85653 -3.95004,8.80657 -8.80657,8.80657v1.17421c4.85653,0 8.80657,3.95004 8.80657,8.80657h1.17421c0,-4.85653 3.95004,-8.80657 8.80657,-8.80657v-1.17421c-4.85653,0 -8.80657,-3.95004 -8.80657,-8.80657z"></path>
            
        <path d="M383.7792,341.69268c-0.68926,-0.12447 -1.37617,0.25598 -1.62276,0.91119c-1.64976,4.40328 -4.94812,7.23548 -10.02892,7.23548c-5.38962,0 -9.05903,-3.55433 -9.05903,-12.8435l0.27476,-27.76888c0.03757,-3.86315 3.18093,-6.97598 7.04525,-6.97598h10.45399v-5.73366h-17.42996v-13.75821h-1.17891c-1.72022,0 -3.13044,1.36208 -3.21029,3.08113c-0.38514,8.18189 -2.63962,11.06575 -10.49156,11.63289c-1.94332,0.1409 -3.46626,1.72256 -3.46626,3.67175v1.10845h7.45388v32.22148c0,14.79269 6.53565,20.52518 16.28276,20.52518c7.02529,0 13.23451,-4.68627 15.84595,-11.75383c0.25128,-0.67987 -0.15617,-1.42549 -0.86892,-1.55348z"></path>
       
        <path d="M211.81219,173.10751v0.06445l0.06445,0.06445l-0.06445,0.06445v1.81223l0.06319,3.29967l0.06446,0.06572h-0.06446l0.32352,3.55874c0.47517,3.32115 1.10073,6.40472 1.87668,9.25196c1.33705,4.53057 2.78279,8.30414 4.33595,11.32452c1.29409,2.67537 3.30093,5.91059 6.01801,9.70691c2.37333,3.01785 5.4569,6.01801 9.25322,8.99415c5.00447,3.53725 10.39692,6.62208 16.17734,9.25322h0.06445c-0.90611,-1.94239 -1.83245,-3.70912 -2.78153,-5.30651c-2.71708,-4.35743 -6.9456,-10.80638 -12.68306,-19.34811c-7.07451,-10.95803 -10.61176,-20.66368 -10.61176,-29.11947v-0.06445l-0.06445,-0.06445h0.06572l-0.06445,-0.71149c0,-11.86288 4.11985,-22.3887 12.35954,-31.57747l2.13575,-2.3291c3.75336,-3.49429 6.68653,-5.86636 8.8008,-7.11747c3.32115,-2.02833 6.62082,-3.66742 9.90027,-4.91854c6.16839,-2.02833 11.43194,-3.04186 15.78811,-3.04186h0.06572l0.06445,-0.06445v0.06445l0.38797,-0.06445h2.97615c9.79285,0 19.08904,2.73982 27.88983,8.21821c1.68206,0.94908 4.29172,2.99763 7.82897,6.14691c9.53378,9.48954 14.2994,20.66368 14.2994,33.5186l-0.06445,2.91169l-0.06445,0.25907l0.06445,0.06445l-0.06445,0.06572v0.58259l-0.13017,0.38924l0.13017,0.06445l-0.64831,4.14133c0,1.33705 -0.77595,4.20704 -2.3291,8.60618c-1.12222,2.80301 -2.52372,5.49987 -4.20578,8.08804c-1.46722,2.45927 -4.07688,5.54283 -7.83023,9.25322c-2.93318,2.63114 -5.06766,4.2715 -6.40472,4.91854c-4.31446,2.24317 -6.4717,4.59375 -6.4717,7.05302c0,0.55984 0.08594,1.22963 0.25907,2.00558c0.99205,2.84724 2.93318,4.2715 5.82339,4.2715c1.07798,0 2.28613,-0.34501 3.62319,-1.03502c3.06334,-1.81096 6.81544,-4.59375 11.2588,-8.34711c2.76004,-2.67537 5.00447,-5.06893 6.7295,-7.18319c2.67664,-3.53725 4.78964,-6.83692 6.34279,-9.90027c1.42299,-3.02038 2.73856,-6.64357 3.94671,-10.87083c1.29409,-5.99779 1.94113,-10.59154 1.94113,-13.78252l-0.06445,-0.06572l0.06445,-0.06572v-4.07561l-0.06445,-0.06445h0.06445l-0.06319,-0.25781c0,-4.70244 -1.03502,-10.2023 -3.10631,-16.50086c-1.81096,-5.04744 -4.33468,-9.77136 -7.57116,-14.1705c-1.38002,-2.20146 -4.18303,-5.30651 -8.41156,-9.31894c-3.49429,-2.97615 -6.55763,-5.2408 -9.18877,-6.79395c-4.22853,-2.5452 -8.49876,-4.6165 -12.81322,-6.21263c-7.67858,-2.50224 -14.19325,-3.75336 -19.54146,-3.75336l-0.38924,-0.06445l-0.06445,0.06445l-0.45242,-0.06445h-3.81781l-0.13017,0.06445v-0.06445l-1.55316,0.06445c-6.42746,0.51688 -11.62529,1.42299 -15.59475,2.71708c-4.87431,1.63909 -8.90822,3.34263 -12.10047,5.11189c-3.58022,1.98536 -7.31209,4.6165 -11.19435,7.89468c-3.75209,3.58148 -6.44895,6.49318 -8.08804,8.73635c-3.10631,4.1843 -5.63003,8.41282 -7.57116,12.68306c-3.10631,7.67858 -4.65947,14.47254 -4.65947,20.38312l-0.06445,0.38797l0.06445,0.06445zM273.34953,132.019v-0.13017c-3.36538,0.21484 -6.2973,0.60408 -8.8008,1.15886c-6.9456,1.51019 -13.35032,4.59375 -19.21794,9.25322c-3.10631,2.80301 -5.15486,4.85282 -6.14691,6.14691c-6.51466,8.28266 -9.77136,17.38549 -9.77136,27.30724c0,4.57227 0.71149,8.99542 2.13575,13.26565c1.29409,3.79632 4.61524,9.74988 9.96472,17.86067c1.20815,1.76673 6.83818,10.58901 16.88884,26.46432c2.54394,0.73298 7.59138,1.44447 15.14106,2.13448h0.06572l0.06445,-0.06445c-5.91059,-10.22379 -14.34363,-24.05054 -25.30166,-41.47774c-4.3132,-6.34153 -6.47043,-12.35954 -6.47043,-18.05402v-0.1289l-0.06445,-0.06445l0.06445,-0.06445v-1.35854c0,-3.45132 0.84166,-7.14022 2.52372,-11.06545c1.29409,-2.84724 3.10505,-5.54283 5.43542,-8.08804c4.05539,-4.7454 9.70691,-8.15375 16.95329,-10.22379c1.51145,-0.43094 3.62572,-0.77595 6.34279,-1.03502v0.06445l0.38797,-0.06445h1.16518l0.06445,-0.13017l0.06572,0.13017h0.71149l0.06445,-0.13017l0.06445,0.13017h0.19462l0.06445,-0.13017l0.06572,0.13017h0.19335c6.08246,0 12.1864,1.96388 18.31183,5.8891c1.51019,0.86315 3.36538,2.4163 5.56432,4.65947c2.07003,2.24317 3.64467,4.35743 4.72392,6.34153c2.2002,4.44337 3.29967,8.23969 3.29967,11.38897l0.06445,0.25907h-0.06445l0.06445,0.32352v3.49429l-0.06445,0.32352l0.06445,0.13143h-0.06445c0,1.12095 -0.25907,2.95466 -0.77595,5.49987c-0.90611,3.10631 -1.85519,5.52135 -2.84724,7.24638c-1.07925,2.24443 -2.89021,4.70244 -5.43668,7.37781c-1.59612,1.55316 -2.99763,2.63114 -4.20578,3.23648c-3.79632,1.68206 -5.69449,3.94671 -5.69449,6.79395l0.32479,1.94113c1.07798,2.71834 2.97615,4.07688 5.69449,4.07688h0.1289c0.90738,0 1.74777,-0.17187 2.52372,-0.51688c1.25112,-0.1289 4.09836,-2.15723 8.54173,-6.08246c9.66394,-9.18751 14.49528,-19.62866 14.49528,-31.3184v-2.39482l-0.06445,-0.06445h0.06445v-0.06445c-0.38797,-4.48633 -1.0565,-7.91617 -2.00558,-10.28824c-1.16518,-3.45132 -2.80427,-6.70802 -4.91854,-9.77136c-1.12095,-1.89816 -3.62319,-4.72392 -7.50545,-8.47728c-3.10631,-2.71708 -5.86762,-4.7454 -8.28392,-6.08246c-2.58691,-1.46722 -5.84487,-2.82576 -9.7701,-4.07688c-4.5293,-1.12222 -8.23969,-1.72629 -11.1299,-1.81223l-0.06572,0.13017l-0.06445,-0.13017h-3.6889zM274.38581,149.23136v-0.13017c-2.11426,0.17187 -3.53725,0.34501 -4.2715,0.51688c-1.29282,0 -3.90374,0.82018 -7.82897,2.45927c-2.2002,1.03375 -4.63799,2.78153 -7.31209,5.2408c-4.96151,5.21931 -7.44226,11.21584 -7.44226,17.9883c0,4.87431 1.447,9.55526 4.33721,14.04159c3.23522,4.70244 6.16839,9.25449 8.79953,13.65489c7.67858,12.98383 14.36512,23.61707 20.0596,31.89973c2.97741,0 7.22616,-0.73298 12.74751,-2.19894c-6.16713,-10.44115 -14.98941,-24.69759 -26.46432,-42.77309c-4.44337,-6.29856 -6.66505,-11.06545 -6.66505,-14.30066c0,-3.79632 1.27134,-7.16171 3.81781,-10.09488c3.14802,-2.93318 6.42746,-4.39914 9.83455,-4.39914h0.13017l0.06572,-0.06445v0.06445l0.51688,-0.06445c3.70912,0 6.8167,0.9276 9.31767,2.78279c3.79632,3.32115 5.69449,7.13896 5.69449,11.45342v0.25907c0,1.42425 -0.25781,2.86873 -0.77595,4.33595c-0.64578,2.02706 -2.113,3.81781 -4.39914,5.37096c-3.19225,2.2002 -4.78837,4.37892 -4.78837,6.53488c0.04423,0.64704 0.17313,1.2726 0.38797,1.87668c1.29409,2.80427 3.2567,4.20578 5.8891,4.20578c2.113,0 4.46485,-1.03502 7.05302,-3.10631c6.16839,-5.82339 9.25322,-12.3153 9.25322,-19.47701v-0.38797c0,-3.75209 -0.94908,-7.59265 -2.84724,-11.51787c-3.40835,-6.29856 -8.39134,-10.61302 -14.94771,-12.94213c-3.23648,-0.90611 -5.80317,-1.35854 -7.70133,-1.35854l-0.06445,0.13017l-0.06572,-0.13017h-0.06445l-0.06445,0.13017l-0.13017,-0.13017h-2.00684z"></path>
    </g>
</svg>