<svg
	version="1.1"
	xmlns="http://www.w3.org/2000/svg"
	viewbox="0 0 512 512"
	width="512"
	height="512"
	x="0"
	y="0"
>
	<defs>
		<linearGradient id="bgGradient" x1="0%" y1="0%" x2="100%" y2="0%">
			<stop offset="0%" stop-color="#2f6aa1" />
			<stop offset="100%" stop-color="#2f33a1" />
		</linearGradient>
	</defs>

	<g fill="url(#bgGradient)">
		<g transform="scale(14) translate(3, 2.5)">
			<path d="M18.52 24.493H13.992s.006-1.344 0-2.265c-3.099.667-3.964-1.699-3.964-1.699-.566-1.132-1.132-1.699-1.132-1.699-1.132-.673 0-.566 0-.566 1.132 0 1.699 1.132 1.699 1.132.994 1.687 2.762 1.416 3.397 1.132 0-.566.248-1.422.566-1.699-2.473-.279-4.532-1.699-4.532-4.53s.568-3.397 1.135-3.964c-.114-.279-.588-1.311.018-2.831 0 0 1.113 0 2.245 1.699.561-.561 2.265-.566 2.832-.566.565 0 2.269.005 2.83.566 1.132-1.699 2.248-1.699 2.248-1.699.605 1.52.132 2.552.017 2.831.566.566 1.132 1.132 1.132 3.964s-2.056 4.251-4.53 4.53c.319.276.566 1.251.566 1.699z"></path>
		</g>
		<path d="M256 0C114.615 0 0 114.615 0 256s114.615 256 256 256 256-114.615 256-256S397.385 0 256 0zm0 488.727C127.468 488.727 23.273 384.532 23.273 256S127.468 23.273 256 23.273 488.727 127.468 488.727 256 384.532 488.727 256 488.727z"></path>
	</g>
</svg>