<svg
	version="1.1"
	xmlns="http://www.w3.org/2000/svg"
	viewbox="0 0 512 512"
	width="512"
	height="512"
	x="0"
	y="0"
>
	<defs>
		<linearGradient id="bgGradient" x1="0%" y1="0%" x2="100%" y2="0%">
			<stop offset="0%" stop-color="#2f6aa1" />
			<stop offset="100%" stop-color="#2f33a1" />
		</linearGradient>
	</defs>

	<g fill="url(#bgGradient)">
		<g transform="scale(3.5) translate(23, 23)">
			<path d="M49.1 72.6h4.8s1.4-.2 2.2-1c.7-.7.7-2.1.7-2.1s-.1-6.4 2.9-7.4c2.9-.9 6.7 6.2 10.7 8.9 3 2.1 5.3 1.6 5.3 1.6l10.7-.1s5.6-.3 2.9-4.7c-.2-.4-1.5-3.3-7.9-9.2-6.7-6.2-5.8-5.2 2.3-16 4.9-6.5 6.9-10.5 6.3-12.3-.6-1.6-4.2-1.2-4.2-1.2l-12 .1s-.9-.1-1.6.3c-.8.5-1.2 1.4-1.2 1.4s-1.9 5.1-4.4 9.4c-5.4 9.1-7.5 9.6-8.4 9-2-1.3-1.5-5.3-1.5-8.1 0-8.8 1.3-12.5-2.6-13.4-1.3-.3-2.3-.5-5.6-.6-4.3 0-7.9 0-10 1-1.4.7-2.4 2.2-1.8 2.2.8.1 2.6.5 3.5 1.8 1.2 1.7 1.2 5.4 1.2 5.4s.7 10.4-1.7 11.7c-1.6.9-3.8-.9-8.6-9.2-2.4-4.2-4.3-8.9-4.3-8.9s-.4-.9-1-1.3c-.5-.4-1.5-.7-2.6-.7l-10.7.1s-1.7 0-2.3.8c-.6.7 0 2 0 2s9 20.9 19.1 31.4c9.3 9.8 19.8 9.1 19.8 9.1z"></path>
		</g>
		<path d="M256 0C114.615 0 0 114.615 0 256s114.615 256 256 256 256-114.615 256-256S397.385 0 256 0zm0 488.727C127.468 488.727 23.273 384.532 23.273 256S127.468 23.273 256 23.273 488.727 127.468 488.727 256 384.532 488.727 256 488.727z"></path>
	</g>
</svg>