<svg
	version="1.1"
	xmlns="http://www.w3.org/2000/svg"
	viewbox="0 0 512 512"
	width="512"
	height="512"
	x="0"
	y="0"
>
	<defs>
		<linearGradient id="bgGradient" x1="0%" y1="0%" x2="100%" y2="0%">
			<stop offset="0%" stop-color="#2f6aa1" />
			<stop offset="100%" stop-color="#2f33a1" />
		</linearGradient>
	</defs>

	<g fill="url(#bgGradient)">
		<path d="M245.76 208.64h4.771c10.559 0 19.136-8.525 19.2-19.084v-31.069c-.189-10.422-8.66-18.789-19.084-18.851h-4.771c-10.559 0-19.136 8.525-19.2 19.084v31.069c.19 10.422 8.66 18.79 19.084 18.851zm-4.771-51.316a7.215 7.215 0 0 1 14.429 0v33.396a7.215 7.215 0 0 1-14.429 0v-33.396zM189.091 207.476h16.873v-37.12l19.2-52.596h-15.709l-11.637 34.909-11.636-34.909h-17.338l20.48 52.596zM293.818 208.64a29.904 29.904 0 0 0 18.036-8.378v7.215h13.964v-67.84h-13.964v52.596s-4.771 5.585-9.309 5.585c-4.538 0-4.771-3.607-4.771-3.607v-54.575h-14.778v59.695a10.938 10.938 0 0 0 10.822 9.309zM284.276 286.604a10.01 10.01 0 0 0-7.215 3.607v48.175a9.545 9.545 0 0 0 7.215 3.142c7.215 0 7.215-8.029 7.215-8.029v-38.865c0-.001-1.28-8.03-7.215-8.03z"></path>
		<path d="M339.549 286.604c-7.215 0-7.215 8.029-7.215 8.029v10.356h14.429v-10.356c.001 0 .001-8.029-7.214-8.029z"></path>
		<path d="M344.926 223.52c-.202.003-.404.008-.606.015h-.233s-43.869-2.444-88.087-2.444-88.32 2.327-88.32 2.327c-19.269-.643-35.411 14.457-36.053 33.726-.013.394-.02.789-.019 1.183a320.453 320.453 0 0 0-3.607 44.218 322.342 322.342 0 0 0 3.607 44.684c-.011 19.28 15.61 34.918 34.89 34.928a35.9 35.9 0 0 0 1.183-.019s43.404 2.327 88.32 2.327 88.32-2.327 88.32-2.327c19.269.643 35.411-14.457 36.053-33.726.013-.394.02-.789.019-1.183A325.78 325.78 0 0 0 384 302.545a317.302 317.302 0 0 0-3.607-44.684c-.311-19.276-16.19-34.652-35.467-34.341zm-141.173 38.996h-17.571v90.531h-17.338v-90.531h-17.571v-14.895h52.829l-.349 14.895zm45.731 90.531h-14.545v-6.865a30.372 30.372 0 0 1-18.036 8.029 10.706 10.706 0 0 1-10.822-9.193V273.92h15.011v66.444s0 3.491 4.771 3.491 9.658-5.702 9.658-5.702V273.92h14.429l-.466 79.127zm43.171 1.164a19.317 19.317 0 0 1-15.593-7.68v6.516h-15.709V247.622h15.593v34.211a23.269 23.269 0 0 1 15.593-7.796c9.658 0 13.265 8.029 13.265 18.385l.116 43.404s0 18.385-13.265 18.385zm69.701-37.469h-30.022v17.222s0 8.029 7.215 8.029 7.215-8.029 7.215-8.029v-8.146h15.593v12.567c-2.087 10.074-11.397 16.982-21.644 16.058-10.614.956-20.399-5.796-23.273-16.058v-44.916c.324-11.178 9.647-19.977 20.825-19.653.82.024 1.637.097 2.448.22 10.37-1.484 19.979 5.719 21.464 16.088a18.9 18.9 0 0 1 .18 3.345v23.273z"></path>
		<path d="M256 0C114.615 0 0 114.615 0 256s114.615 256 256 256 256-114.615 256-256S397.385 0 256 0zm0 488.727C127.468 488.727 23.273 384.532 23.273 256S127.468 23.273 256 23.273 488.727 127.468 488.727 256 384.532 488.727 256 488.727z"></path>
	</g>
</svg>